<svg width="265" height="87" viewBox="0 0 265 87" fill="none" xmlns="http://www.w3.org/2000/svg">
<g filter="url(#filter0_d_654_15)">
<path d="M10 6H253C254.105 6 255 6.89543 255 8V71C255 72.1046 254.105 73 253 73H10V6Z" fill="#F95700"/>
</g>
<path d="M10 73L22 85V73H10Z" fill="#B74203"/>
<path d="M51.1378 36V22.9091H56.3793C57.3423 22.9091 58.1456 23.0518 58.7891 23.3374C59.4325 23.6229 59.9162 24.0192 60.2401 24.5263C60.5639 25.0291 60.7259 25.6087 60.7259 26.2649C60.7259 26.7763 60.6236 27.2259 60.419 27.6136C60.2145 27.9972 59.9332 28.3125 59.5753 28.5597C59.2216 28.8026 58.8168 28.9751 58.3608 29.0774V29.2053C58.8594 29.2266 59.326 29.3672 59.7607 29.6271C60.1996 29.8871 60.5554 30.2514 60.8281 30.7202C61.1009 31.1847 61.2372 31.7386 61.2372 32.3821C61.2372 33.0767 61.0646 33.6967 60.7195 34.2422C60.3786 34.7834 59.8736 35.2116 59.2045 35.527C58.5355 35.8423 57.7109 36 56.7308 36H51.1378ZM53.9055 33.7372H56.1619C56.9332 33.7372 57.4957 33.5902 57.8494 33.2962C58.2031 32.9979 58.38 32.6016 58.38 32.1072C58.38 31.745 58.2926 31.4254 58.1179 31.1484C57.9432 30.8714 57.6939 30.6541 57.37 30.4964C57.0504 30.3388 56.669 30.2599 56.2259 30.2599H53.9055V33.7372ZM53.9055 28.3871H55.9574C56.3366 28.3871 56.6733 28.321 56.9673 28.1889C57.2656 28.0526 57.5 27.8608 57.6705 27.6136C57.8452 27.3665 57.9325 27.0703 57.9325 26.7251C57.9325 26.2521 57.7642 25.8707 57.4276 25.581C57.0952 25.2912 56.6222 25.1463 56.0085 25.1463H53.9055V28.3871ZM67.4231 36.1918C66.4302 36.1918 65.5716 35.9808 64.8471 35.5589C64.127 35.1328 63.5708 34.5405 63.1788 33.782C62.7868 33.0192 62.5907 32.1349 62.5907 31.1293C62.5907 30.1151 62.7868 29.2287 63.1788 28.4702C63.5708 27.7074 64.127 27.1151 64.8471 26.6932C65.5716 26.267 66.4302 26.054 67.4231 26.054C68.416 26.054 69.2725 26.267 69.9927 26.6932C70.7172 27.1151 71.2754 27.7074 71.6674 28.4702C72.0595 29.2287 72.2555 30.1151 72.2555 31.1293C72.2555 32.1349 72.0595 33.0192 71.6674 33.782C71.2754 34.5405 70.7172 35.1328 69.9927 35.5589C69.2725 35.9808 68.416 36.1918 67.4231 36.1918ZM67.4359 34.0824C67.8876 34.0824 68.2647 33.9545 68.5673 33.6989C68.8699 33.4389 69.0978 33.0852 69.2512 32.6378C69.4089 32.1903 69.4877 31.6811 69.4877 31.1101C69.4877 30.5391 69.4089 30.0298 69.2512 29.5824C69.0978 29.1349 68.8699 28.7812 68.5673 28.5213C68.2647 28.2614 67.8876 28.1314 67.4359 28.1314C66.9799 28.1314 66.5964 28.2614 66.2853 28.5213C65.9785 28.7812 65.7463 29.1349 65.5886 29.5824C65.4352 30.0298 65.3585 30.5391 65.3585 31.1101C65.3585 31.6811 65.4352 32.1903 65.5886 32.6378C65.7463 33.0852 65.9785 33.4389 66.2853 33.6989C66.5964 33.9545 66.9799 34.0824 67.4359 34.0824ZM76.7491 30.3239V36H74.0261V26.1818H76.6213V27.9141H76.7363C76.9537 27.343 77.318 26.8913 77.8294 26.5589C78.3407 26.2223 78.9608 26.054 79.6895 26.054C80.3713 26.054 80.9657 26.2031 81.4728 26.5014C81.9799 26.7997 82.3741 27.2259 82.6554 27.7798C82.9366 28.3295 83.0772 28.9858 83.0772 29.7486V36H80.3542V30.2344C80.3585 29.6335 80.2051 29.1648 79.894 28.8281C79.5829 28.4872 79.1547 28.3168 78.6092 28.3168C78.2427 28.3168 77.9189 28.3956 77.6376 28.5533C77.3606 28.7109 77.1433 28.9411 76.9856 29.2436C76.8322 29.5419 76.7534 29.902 76.7491 30.3239ZM91.5195 31.8196V26.1818H94.2425V36H91.6282V34.2166H91.5259C91.3043 34.7919 90.9357 35.2543 90.4201 35.6037C89.9087 35.9531 89.2844 36.1278 88.5472 36.1278C87.891 36.1278 87.3136 35.9787 86.815 35.6804C86.3164 35.3821 85.9265 34.9581 85.6452 34.4084C85.3683 33.8587 85.2276 33.2003 85.2234 32.4332V26.1818H87.9464V31.9474C87.9506 32.527 88.1062 32.9851 88.413 33.3217C88.7198 33.6584 89.131 33.8267 89.6467 33.8267C89.9748 33.8267 90.2816 33.7521 90.5671 33.603C90.8526 33.4496 91.0827 33.2237 91.2575 32.9254C91.4364 32.6271 91.5238 32.2585 91.5195 31.8196ZM104.59 28.9815L102.097 29.1349C102.054 28.9219 101.963 28.7301 101.822 28.5597C101.681 28.3849 101.496 28.2464 101.266 28.1442C101.04 28.0376 100.769 27.9844 100.454 27.9844C100.032 27.9844 99.6763 28.0739 99.3865 28.2528C99.0968 28.4276 98.9519 28.6619 98.9519 28.956C98.9519 29.1903 99.0456 29.3885 99.2331 29.5504C99.4206 29.7124 99.7424 29.8423 100.198 29.9403L101.975 30.2983C102.93 30.4943 103.642 30.8097 104.11 31.2443C104.579 31.679 104.813 32.25 104.813 32.9574C104.813 33.6009 104.624 34.1655 104.244 34.6513C103.869 35.1371 103.354 35.5163 102.698 35.7891C102.046 36.0575 101.294 36.1918 100.441 36.1918C99.1415 36.1918 98.106 35.9212 97.3347 35.38C96.5676 34.8345 96.1181 34.093 95.986 33.1555L98.6642 33.0149C98.7452 33.4112 98.9412 33.7138 99.2523 33.9226C99.5634 34.1271 99.9618 34.2294 100.448 34.2294C100.925 34.2294 101.308 34.1378 101.598 33.9545C101.892 33.767 102.041 33.5263 102.046 33.2322C102.041 32.9851 101.937 32.7827 101.732 32.625C101.528 32.4631 101.213 32.3395 100.786 32.2543L99.0861 31.9155C98.1273 31.7237 97.4135 31.3913 96.9448 30.9183C96.4803 30.4453 96.248 29.8423 96.248 29.1094C96.248 28.4787 96.4185 27.9354 96.7594 27.4794C97.1046 27.0234 97.5882 26.6719 98.2104 26.4247C98.8368 26.1776 99.5698 26.054 100.409 26.054C101.649 26.054 102.625 26.3161 103.337 26.8402C104.053 27.3643 104.47 28.0781 104.59 28.9815ZM115.654 36L117.802 22.9091H119.847L117.7 36H115.654ZM109.793 32.7528L110.132 30.7074H120.359L120.02 32.7528H109.793ZM111.052 36L113.2 22.9091H115.245L113.097 36H111.052ZM110.541 28.2017L110.886 26.1562H121.113L120.768 28.2017H110.541ZM122.358 36V34.0057L127.018 29.6911C127.414 29.3075 127.746 28.9624 128.015 28.6555C128.288 28.3487 128.494 28.0483 128.635 27.7543C128.776 27.456 128.846 27.1342 128.846 26.7891C128.846 26.4055 128.759 26.0753 128.584 25.7983C128.409 25.517 128.17 25.3018 127.868 25.1527C127.565 24.9993 127.222 24.9226 126.839 24.9226C126.438 24.9226 126.089 25.0036 125.79 25.1655C125.492 25.3274 125.262 25.5597 125.1 25.8622C124.938 26.1648 124.857 26.5249 124.857 26.9425H122.23C122.23 26.0859 122.424 25.3423 122.812 24.7116C123.2 24.081 123.743 23.593 124.442 23.2479C125.141 22.9027 125.946 22.7301 126.858 22.7301C127.795 22.7301 128.612 22.8963 129.306 23.2287C130.005 23.5568 130.548 24.0128 130.936 24.5966C131.324 25.1804 131.518 25.8494 131.518 26.6037C131.518 27.098 131.42 27.5859 131.224 28.0675C131.032 28.549 130.689 29.0838 130.195 29.6719C129.7 30.2557 129.004 30.9567 128.104 31.7749L126.193 33.6477V33.7372H131.69V36H122.358ZM135.313 34.4787C134.891 34.4787 134.529 34.3295 134.226 34.0312C133.928 33.733 133.779 33.3707 133.779 32.9446C133.779 32.527 133.928 32.169 134.226 31.8707C134.529 31.5724 134.891 31.4233 135.313 31.4233C135.722 31.4233 136.08 31.5724 136.387 31.8707C136.694 32.169 136.847 32.527 136.847 32.9446C136.847 33.2259 136.775 33.4837 136.63 33.718C136.489 33.9482 136.304 34.1335 136.074 34.2741C135.844 34.4105 135.59 34.4787 135.313 34.4787ZM135.313 28.0547C134.891 28.0547 134.529 27.9055 134.226 27.6072C133.928 27.3089 133.779 26.9467 133.779 26.5206C133.779 26.103 133.928 25.7472 134.226 25.4531C134.529 25.1548 134.891 25.0057 135.313 25.0057C135.722 25.0057 136.08 25.1548 136.387 25.4531C136.694 25.7472 136.847 26.103 136.847 26.5206C136.847 26.8061 136.775 27.0661 136.63 27.3004C136.489 27.5305 136.304 27.7138 136.074 27.8501C135.844 27.9865 135.59 28.0547 135.313 28.0547ZM143.3 36V22.9091H152.121V25.1911H146.068V28.3104H151.667V30.5923H146.068V33.718H152.146V36H143.3ZM159.493 26.1818V28.2273H153.58V26.1818H159.493ZM154.922 23.8295H157.645V32.983C157.645 33.2344 157.684 33.4304 157.76 33.571C157.837 33.7074 157.944 33.8033 158.08 33.8587C158.221 33.9141 158.382 33.9418 158.566 33.9418C158.694 33.9418 158.821 33.9311 158.949 33.9098C159.077 33.8842 159.175 33.8651 159.243 33.8523L159.672 35.8786C159.535 35.9212 159.343 35.9702 159.096 36.0256C158.849 36.0852 158.549 36.1214 158.195 36.1342C157.539 36.1598 156.963 36.0724 156.469 35.8722C155.979 35.6719 155.598 35.3608 155.325 34.9389C155.052 34.517 154.918 33.9844 154.922 33.3409V23.8295ZM169.312 28.9815L166.819 29.1349C166.777 28.9219 166.685 28.7301 166.545 28.5597C166.404 28.3849 166.219 28.2464 165.988 28.1442C165.763 28.0376 165.492 27.9844 165.177 27.9844C164.755 27.9844 164.399 28.0739 164.109 28.2528C163.819 28.4276 163.675 28.6619 163.675 28.956C163.675 29.1903 163.768 29.3885 163.956 29.5504C164.143 29.7124 164.465 29.8423 164.921 29.9403L166.698 30.2983C167.653 30.4943 168.364 30.8097 168.833 31.2443C169.302 31.679 169.536 32.25 169.536 32.9574C169.536 33.6009 169.346 34.1655 168.967 34.6513C168.592 35.1371 168.077 35.5163 167.42 35.7891C166.768 36.0575 166.016 36.1918 165.164 36.1918C163.864 36.1918 162.829 35.9212 162.057 35.38C161.29 34.8345 160.841 34.093 160.709 33.1555L163.387 33.0149C163.468 33.4112 163.664 33.7138 163.975 33.9226C164.286 34.1271 164.684 34.2294 165.17 34.2294C165.648 34.2294 166.031 34.1378 166.321 33.9545C166.615 33.767 166.764 33.5263 166.768 33.2322C166.764 32.9851 166.66 32.7827 166.455 32.625C166.251 32.4631 165.935 32.3395 165.509 32.2543L163.809 31.9155C162.85 31.7237 162.136 31.3913 161.667 30.9183C161.203 30.4453 160.971 29.8423 160.971 29.1094C160.971 28.4787 161.141 27.9354 161.482 27.4794C161.827 27.0234 162.311 26.6719 162.933 26.4247C163.559 26.1776 164.292 26.054 165.132 26.054C166.372 26.054 167.348 26.3161 168.059 26.8402C168.775 27.3643 169.193 28.0781 169.312 28.9815ZM172.932 39.6818C172.587 39.6818 172.263 39.6541 171.96 39.5987C171.662 39.5476 171.415 39.4815 171.219 39.4006L171.832 37.3679C172.152 37.4659 172.44 37.5192 172.695 37.5277C172.955 37.5362 173.179 37.4766 173.366 37.3487C173.558 37.2209 173.714 37.0036 173.833 36.6967L173.993 36.2812L170.471 26.1818H173.335L175.367 33.392H175.469L177.521 26.1818H180.404L176.588 37.0611C176.405 37.5895 176.156 38.0497 175.84 38.4418C175.529 38.8381 175.135 39.1428 174.658 39.3558C174.18 39.5732 173.605 39.6818 172.932 39.6818ZM58.2393 48.674C58.1882 48.1584 57.9688 47.7578 57.581 47.4723C57.1932 47.1868 56.6669 47.044 56.0021 47.044C55.5504 47.044 55.169 47.108 54.858 47.2358C54.5469 47.3594 54.3082 47.532 54.142 47.7536C53.9801 47.9751 53.8991 48.2266 53.8991 48.5078C53.8906 48.7422 53.9396 48.9467 54.0462 49.1214C54.157 49.2962 54.3082 49.4474 54.5 49.5753C54.6918 49.6989 54.9134 49.8075 55.1648 49.9013C55.4162 49.9908 55.6847 50.0675 55.9702 50.1314L57.1463 50.4126C57.7173 50.5405 58.2415 50.7109 58.7188 50.924C59.196 51.1371 59.6094 51.3991 59.9588 51.7102C60.3082 52.0213 60.5788 52.3878 60.7706 52.8097C60.9666 53.2315 61.0668 53.7152 61.071 54.2607C61.0668 55.0618 60.8622 55.7564 60.4574 56.3445C60.0568 56.9283 59.4773 57.3821 58.7188 57.706C57.9645 58.0256 57.0547 58.1854 55.9893 58.1854C54.9325 58.1854 54.0121 58.0234 53.228 57.6996C52.4482 57.3757 51.8388 56.8963 51.3999 56.2614C50.9652 55.6222 50.7372 54.8317 50.7159 53.8899H53.3942C53.424 54.3288 53.5497 54.6953 53.7713 54.9893C53.9972 55.2791 54.2976 55.4986 54.6726 55.6477C55.0518 55.7926 55.4801 55.8651 55.9574 55.8651C56.4261 55.8651 56.8331 55.7969 57.1783 55.6605C57.5277 55.5241 57.7983 55.3345 57.9901 55.0916C58.1818 54.8487 58.2777 54.5696 58.2777 54.2543C58.2777 53.9602 58.1903 53.7131 58.0156 53.5128C57.8452 53.3125 57.5938 53.142 57.2614 53.0014C56.9332 52.8608 56.5305 52.733 56.0533 52.6179L54.6278 52.2599C53.5241 51.9915 52.6527 51.5717 52.0135 51.0007C51.3743 50.4297 51.0568 49.6605 51.0611 48.6932C51.0568 47.9006 51.2678 47.2081 51.6939 46.6158C52.1243 46.0234 52.7145 45.5611 53.4645 45.2287C54.2145 44.8963 55.0668 44.7301 56.0213 44.7301C56.9929 44.7301 57.8409 44.8963 58.5653 45.2287C59.294 45.5611 59.8608 46.0234 60.2656 46.6158C60.6705 47.2081 60.8793 47.8942 60.892 48.674H58.2393ZM69.1777 53.8196V48.1818H71.9007V58H69.2864V56.2166H69.1841C68.9625 56.7919 68.5939 57.2543 68.0783 57.6037C67.5669 57.9531 66.9426 58.1278 66.2054 58.1278C65.5492 58.1278 64.9718 57.9787 64.4732 57.6804C63.9746 57.3821 63.5847 56.9581 63.3034 56.4084C63.0265 55.8587 62.8858 55.2003 62.8816 54.4332V48.1818H65.6046V53.9474C65.6088 54.527 65.7644 54.9851 66.0712 55.3217C66.378 55.6584 66.7892 55.8267 67.3049 55.8267C67.633 55.8267 67.9398 55.7521 68.2253 55.603C68.5108 55.4496 68.7409 55.2237 68.9157 54.9254C69.0946 54.6271 69.182 54.2585 69.1777 53.8196ZM78.5149 58.1918C77.5092 58.1918 76.6442 57.9787 75.9197 57.5526C75.1996 57.1222 74.6456 56.5256 74.2578 55.7628C73.8743 55 73.6825 54.1222 73.6825 53.1293C73.6825 52.1236 73.8764 51.2415 74.2642 50.483C74.6563 49.7202 75.2124 49.1257 75.9325 48.6996C76.6527 48.2692 77.5092 48.054 78.5021 48.054C79.3587 48.054 80.1087 48.2095 80.7521 48.5206C81.3956 48.8317 81.9048 49.2685 82.2798 49.831C82.6548 50.3935 82.8615 51.054 82.8999 51.8125H80.3303C80.2578 51.3224 80.0661 50.9283 79.755 50.63C79.4482 50.3274 79.0455 50.1761 78.5469 50.1761C78.125 50.1761 77.7564 50.2912 77.4411 50.5213C77.13 50.7472 76.8871 51.0774 76.7124 51.5121C76.5376 51.9467 76.4503 52.473 76.4503 53.0909C76.4503 53.7173 76.5355 54.25 76.706 54.6889C76.8807 55.1278 77.1257 55.4624 77.4411 55.6925C77.7564 55.9226 78.125 56.0376 78.5469 56.0376C78.858 56.0376 79.1371 55.9737 79.3842 55.8459C79.6357 55.718 79.8423 55.5327 80.0043 55.2898C80.1705 55.0426 80.2791 54.7464 80.3303 54.4013H82.8999C82.8572 55.1513 82.6527 55.8118 82.2862 56.3828C81.924 56.9496 81.4233 57.3928 80.7841 57.7124C80.1449 58.032 79.3885 58.1918 78.5149 58.1918ZM89.0794 58.1918C88.0737 58.1918 87.2086 57.9787 86.4842 57.5526C85.764 57.1222 85.21 56.5256 84.8223 55.7628C84.4387 55 84.247 54.1222 84.247 53.1293C84.247 52.1236 84.4409 51.2415 84.8287 50.483C85.2207 49.7202 85.7768 49.1257 86.497 48.6996C87.2172 48.2692 88.0737 48.054 89.0666 48.054C89.9231 48.054 90.6731 48.2095 91.3166 48.5206C91.96 48.8317 92.4693 49.2685 92.8443 49.831C93.2193 50.3935 93.426 51.054 93.4643 51.8125H90.8947C90.8223 51.3224 90.6305 50.9283 90.3194 50.63C90.0126 50.3274 89.6099 50.1761 89.1113 50.1761C88.6895 50.1761 88.3208 50.2912 88.0055 50.5213C87.6944 50.7472 87.4515 51.0774 87.2768 51.5121C87.1021 51.9467 87.0147 52.473 87.0147 53.0909C87.0147 53.7173 87.1 54.25 87.2704 54.6889C87.4451 55.1278 87.6902 55.4624 88.0055 55.6925C88.3208 55.9226 88.6895 56.0376 89.1113 56.0376C89.4224 56.0376 89.7015 55.9737 89.9487 55.8459C90.2001 55.718 90.4068 55.5327 90.5687 55.2898C90.7349 55.0426 90.8436 54.7464 90.8947 54.4013H93.4643C93.4217 55.1513 93.2172 55.8118 92.8507 56.3828C92.4885 56.9496 91.9877 57.3928 91.3485 57.7124C90.7093 58.032 89.9529 58.1918 89.0794 58.1918ZM99.6822 58.1918C98.6722 58.1918 97.8029 57.9872 97.0742 57.5781C96.3498 57.1648 95.7915 56.581 95.3995 55.8267C95.0075 55.0682 94.8114 54.1712 94.8114 53.1357C94.8114 52.1257 95.0075 51.2393 95.3995 50.4766C95.7915 49.7138 96.3434 49.1193 97.055 48.6932C97.771 48.267 98.6104 48.054 99.5735 48.054C100.221 48.054 100.824 48.1584 101.382 48.3672C101.945 48.5717 102.435 48.8807 102.853 49.294C103.275 49.7074 103.603 50.2273 103.837 50.8537C104.071 51.4759 104.189 52.2045 104.189 53.0398V53.7876H95.8981V52.1001H101.625C101.625 51.7081 101.54 51.3608 101.37 51.0582C101.199 50.7557 100.963 50.5192 100.66 50.3487C100.362 50.174 100.015 50.0866 99.6183 50.0866C99.2049 50.0866 98.8384 50.1825 98.5188 50.3743C98.2035 50.5618 97.9563 50.8153 97.7773 51.1349C97.5984 51.4503 97.5067 51.8018 97.5025 52.1896V53.794C97.5025 54.2798 97.592 54.6996 97.771 55.0533C97.9542 55.407 98.212 55.6797 98.5444 55.8714C98.8768 56.0632 99.271 56.1591 99.7269 56.1591C100.029 56.1591 100.306 56.1165 100.558 56.0312C100.809 55.946 101.025 55.8182 101.203 55.6477C101.382 55.4773 101.519 55.2685 101.613 55.0213L104.131 55.1875C104.003 55.7926 103.741 56.321 103.345 56.7727C102.953 57.2202 102.446 57.5696 101.824 57.821C101.206 58.0682 100.492 58.1918 99.6822 58.1918ZM114.135 50.9815L111.642 51.1349C111.599 50.9219 111.507 50.7301 111.367 50.5597C111.226 50.3849 111.041 50.2464 110.811 50.1442C110.585 50.0376 110.314 49.9844 109.999 49.9844C109.577 49.9844 109.221 50.0739 108.931 50.2528C108.642 50.4276 108.497 50.6619 108.497 50.956C108.497 51.1903 108.591 51.3885 108.778 51.5504C108.966 51.7124 109.287 51.8423 109.743 51.9403L111.52 52.2983C112.475 52.4943 113.186 52.8097 113.655 53.2443C114.124 53.679 114.358 54.25 114.358 54.9574C114.358 55.6009 114.169 56.1655 113.789 56.6513C113.414 57.1371 112.899 57.5163 112.243 57.7891C111.591 58.0575 110.838 58.1918 109.986 58.1918C108.686 58.1918 107.651 57.9212 106.88 57.38C106.113 56.8345 105.663 56.093 105.531 55.1555L108.209 55.0149C108.29 55.4112 108.486 55.7138 108.797 55.9226C109.108 56.1271 109.507 56.2294 109.993 56.2294C110.47 56.2294 110.853 56.1378 111.143 55.9545C111.437 55.767 111.586 55.5263 111.591 55.2322C111.586 54.9851 111.482 54.7827 111.277 54.625C111.073 54.4631 110.757 54.3395 110.331 54.2543L108.631 53.9155C107.672 53.7237 106.958 53.3913 106.49 52.9183C106.025 52.4453 105.793 51.8423 105.793 51.1094C105.793 50.4787 105.963 49.9354 106.304 49.4794C106.65 49.0234 107.133 48.6719 107.755 48.4247C108.382 48.1776 109.115 48.054 109.954 48.054C111.194 48.054 112.17 48.3161 112.882 48.8402C113.598 49.3643 114.015 50.0781 114.135 50.9815ZM124.242 50.9815L121.749 51.1349C121.706 50.9219 121.615 50.7301 121.474 50.5597C121.334 50.3849 121.148 50.2464 120.918 50.1442C120.692 50.0376 120.422 49.9844 120.106 49.9844C119.684 49.9844 119.329 50.0739 119.039 50.2528C118.749 50.4276 118.604 50.6619 118.604 50.956C118.604 51.1903 118.698 51.3885 118.885 51.5504C119.073 51.7124 119.395 51.8423 119.851 51.9403L121.628 52.2983C122.582 52.4943 123.294 52.8097 123.763 53.2443C124.231 53.679 124.466 54.25 124.466 54.9574C124.466 55.6009 124.276 56.1655 123.897 56.6513C123.522 57.1371 123.006 57.5163 122.35 57.7891C121.698 58.0575 120.946 58.1918 120.094 58.1918C118.794 58.1918 117.758 57.9212 116.987 57.38C116.22 56.8345 115.77 56.093 115.638 55.1555L118.317 55.0149C118.398 55.4112 118.594 55.7138 118.905 55.9226C119.216 56.1271 119.614 56.2294 120.1 56.2294C120.577 56.2294 120.961 56.1378 121.251 55.9545C121.545 55.767 121.694 55.5263 121.698 55.2322C121.694 54.9851 121.589 54.7827 121.385 54.625C121.18 54.4631 120.865 54.3395 120.439 54.2543L118.738 53.9155C117.78 53.7237 117.066 53.3913 116.597 52.9183C116.133 52.4453 115.9 51.8423 115.9 51.1094C115.9 50.4787 116.071 49.9354 116.412 49.4794C116.757 49.0234 117.241 48.6719 117.863 48.4247C118.489 48.1776 119.222 48.054 120.062 48.054C121.302 48.054 122.278 48.3161 122.989 48.8402C123.705 49.3643 124.123 50.0781 124.242 50.9815ZM139.078 49.1406C138.988 48.8295 138.863 48.5547 138.701 48.3161C138.539 48.0732 138.341 47.8686 138.106 47.7024C137.876 47.532 137.612 47.402 137.314 47.3125C137.02 47.223 136.694 47.1783 136.336 47.1783C135.667 47.1783 135.079 47.3445 134.572 47.6768C134.069 48.0092 133.677 48.4929 133.395 49.1278C133.114 49.7585 132.974 50.5298 132.974 51.4418C132.974 52.3537 133.112 53.1293 133.389 53.7685C133.666 54.4077 134.058 54.8956 134.565 55.2322C135.072 55.5646 135.671 55.7308 136.361 55.7308C136.988 55.7308 137.523 55.62 137.966 55.3984C138.413 55.1726 138.754 54.8551 138.988 54.446C139.227 54.0369 139.346 53.5533 139.346 52.995L139.909 53.0781H136.534V50.9943H142.012V52.6435C142.012 53.794 141.769 54.7827 141.283 55.6094C140.797 56.4318 140.128 57.0668 139.276 57.5142C138.424 57.9574 137.448 58.179 136.349 58.179C135.121 58.179 134.043 57.9084 133.114 57.3672C132.185 56.8217 131.461 56.0483 130.941 55.0469C130.425 54.0412 130.167 52.848 130.167 51.4673C130.167 50.4062 130.321 49.4602 130.628 48.6293C130.939 47.794 131.373 47.0866 131.932 46.5071C132.49 45.9276 133.14 45.4865 133.881 45.1839C134.623 44.8814 135.426 44.7301 136.291 44.7301C137.032 44.7301 137.723 44.8388 138.362 45.0561C139.001 45.2692 139.568 45.5717 140.062 45.9638C140.561 46.3558 140.968 46.8224 141.283 47.3636C141.599 47.9006 141.801 48.4929 141.89 49.1406H139.078ZM150.336 53.8196V48.1818H153.059V58H150.445V56.2166H150.342C150.121 56.7919 149.752 57.2543 149.237 57.6037C148.725 57.9531 148.101 58.1278 147.364 58.1278C146.707 58.1278 146.13 57.9787 145.631 57.6804C145.133 57.3821 144.743 56.9581 144.462 56.4084C144.185 55.8587 144.044 55.2003 144.04 54.4332V48.1818H146.763V53.9474C146.767 54.527 146.923 54.9851 147.229 55.3217C147.536 55.6584 147.947 55.8267 148.463 55.8267C148.791 55.8267 149.098 55.7521 149.384 55.603C149.669 55.4496 149.899 55.2237 150.074 54.9254C150.253 54.6271 150.34 54.2585 150.336 53.8196ZM155.237 58V48.1818H157.96V58H155.237ZM156.605 46.9162C156.2 46.9162 155.853 46.782 155.563 46.5135C155.278 46.2408 155.135 45.9148 155.135 45.5355C155.135 45.1605 155.278 44.8388 155.563 44.5703C155.853 44.2976 156.2 44.1612 156.605 44.1612C157.01 44.1612 157.355 44.2976 157.64 44.5703C157.93 44.8388 158.075 45.1605 158.075 45.5355C158.075 45.9148 157.93 46.2408 157.64 46.5135C157.355 46.782 157.01 46.9162 156.605 46.9162ZM163.759 58.1598C163.013 58.1598 162.338 57.968 161.733 57.5845C161.132 57.1967 160.655 56.6278 160.301 55.8778C159.952 55.1236 159.777 54.1989 159.777 53.1037C159.777 51.9787 159.958 51.0433 160.32 50.2976C160.683 49.5476 161.164 48.9872 161.765 48.6165C162.37 48.2415 163.033 48.054 163.753 48.054C164.303 48.054 164.761 48.1477 165.127 48.3352C165.498 48.5185 165.796 48.7486 166.022 49.0256C166.252 49.2983 166.427 49.5668 166.546 49.831H166.629V44.9091H169.346V58H166.661V56.4276H166.546C166.418 56.7003 166.237 56.9709 166.003 57.2393C165.773 57.5036 165.472 57.723 165.102 57.8977C164.735 58.0724 164.288 58.1598 163.759 58.1598ZM164.622 55.9929C165.061 55.9929 165.432 55.8736 165.734 55.6349C166.041 55.392 166.276 55.0533 166.438 54.6186C166.604 54.1839 166.687 53.6747 166.687 53.0909C166.687 52.5071 166.606 52 166.444 51.5696C166.282 51.1392 166.048 50.8068 165.741 50.5724C165.434 50.3381 165.061 50.2209 164.622 50.2209C164.175 50.2209 163.798 50.3423 163.491 50.5852C163.184 50.8281 162.952 51.1648 162.794 51.5952C162.636 52.0256 162.558 52.5241 162.558 53.0909C162.558 53.6619 162.636 54.1669 162.794 54.6058C162.956 55.0405 163.188 55.3814 163.491 55.6286C163.798 55.8714 164.175 55.9929 164.622 55.9929ZM176.059 58.1918C175.049 58.1918 174.18 57.9872 173.451 57.5781C172.727 57.1648 172.169 56.581 171.776 55.8267C171.384 55.0682 171.188 54.1712 171.188 53.1357C171.188 52.1257 171.384 51.2393 171.776 50.4766C172.169 49.7138 172.72 49.1193 173.432 48.6932C174.148 48.267 174.987 48.054 175.95 48.054C176.598 48.054 177.201 48.1584 177.759 48.3672C178.322 48.5717 178.812 48.8807 179.23 49.294C179.651 49.7074 179.98 50.2273 180.214 50.8537C180.448 51.4759 180.566 52.2045 180.566 53.0398V53.7876H172.275V52.1001H178.002C178.002 51.7081 177.917 51.3608 177.747 51.0582C177.576 50.7557 177.34 50.5192 177.037 50.3487C176.739 50.174 176.392 50.0866 175.995 50.0866C175.582 50.0866 175.215 50.1825 174.896 50.3743C174.58 50.5618 174.333 50.8153 174.154 51.1349C173.975 51.4503 173.884 51.8018 173.879 52.1896V53.794C173.879 54.2798 173.969 54.6996 174.148 55.0533C174.331 55.407 174.589 55.6797 174.921 55.8714C175.254 56.0632 175.648 56.1591 176.104 56.1591C176.406 56.1591 176.683 56.1165 176.935 56.0312C177.186 55.946 177.401 55.8182 177.58 55.6477C177.759 55.4773 177.896 55.2685 177.99 55.0213L180.508 55.1875C180.38 55.7926 180.118 56.321 179.722 56.7727C179.33 57.2202 178.823 57.5696 178.2 57.821C177.583 58.0682 176.869 58.1918 176.059 58.1918ZM182.394 58V44.9091H185.117V49.831H185.2C185.319 49.5668 185.492 49.2983 185.718 49.0256C185.948 48.7486 186.246 48.5185 186.612 48.3352C186.983 48.1477 187.443 48.054 187.993 48.054C188.709 48.054 189.369 48.2415 189.975 48.6165C190.58 48.9872 191.063 49.5476 191.426 50.2976C191.788 51.0433 191.969 51.9787 191.969 53.1037C191.969 54.1989 191.792 55.1236 191.438 55.8778C191.089 56.6278 190.612 57.1967 190.007 57.5845C189.406 57.968 188.732 58.1598 187.987 58.1598C187.458 58.1598 187.009 58.0724 186.638 57.8977C186.271 57.723 185.971 57.5036 185.737 57.2393C185.502 56.9709 185.323 56.7003 185.2 56.4276H185.078V58H182.394ZM185.059 53.0909C185.059 53.6747 185.14 54.1839 185.302 54.6186C185.464 55.0533 185.698 55.392 186.005 55.6349C186.312 55.8736 186.685 55.9929 187.124 55.9929C187.567 55.9929 187.942 55.8714 188.249 55.6286C188.556 55.3814 188.788 55.0405 188.945 54.6058C189.107 54.1669 189.188 53.6619 189.188 53.0909C189.188 52.5241 189.11 52.0256 188.952 51.5952C188.794 51.1648 188.562 50.8281 188.255 50.5852C187.948 50.3423 187.571 50.2209 187.124 50.2209C186.681 50.2209 186.306 50.3381 185.999 50.5724C185.696 50.8068 185.464 51.1392 185.302 51.5696C185.14 52 185.059 52.5071 185.059 53.0909ZM198.222 58.1918C197.229 58.1918 196.37 57.9808 195.646 57.5589C194.926 57.1328 194.37 56.5405 193.978 55.782C193.586 55.0192 193.39 54.1349 193.39 53.1293C193.39 52.1151 193.586 51.2287 193.978 50.4702C194.37 49.7074 194.926 49.1151 195.646 48.6932C196.37 48.267 197.229 48.054 198.222 48.054C199.215 48.054 200.071 48.267 200.792 48.6932C201.516 49.1151 202.074 49.7074 202.466 50.4702C202.858 51.2287 203.054 52.1151 203.054 53.1293C203.054 54.1349 202.858 55.0192 202.466 55.782C202.074 56.5405 201.516 57.1328 200.792 57.5589C200.071 57.9808 199.215 58.1918 198.222 58.1918ZM198.235 56.0824C198.686 56.0824 199.064 55.9545 199.366 55.6989C199.669 55.4389 199.897 55.0852 200.05 54.6378C200.208 54.1903 200.287 53.6811 200.287 53.1101C200.287 52.5391 200.208 52.0298 200.05 51.5824C199.897 51.1349 199.669 50.7812 199.366 50.5213C199.064 50.2614 198.686 50.1314 198.235 50.1314C197.779 50.1314 197.395 50.2614 197.084 50.5213C196.777 50.7812 196.545 51.1349 196.387 51.5824C196.234 52.0298 196.157 52.5391 196.157 53.1101C196.157 53.6811 196.234 54.1903 196.387 54.6378C196.545 55.0852 196.777 55.4389 197.084 55.6989C197.395 55.9545 197.779 56.0824 198.235 56.0824ZM209.261 58.1918C208.268 58.1918 207.409 57.9808 206.685 57.5589C205.965 57.1328 205.409 56.5405 205.017 55.782C204.625 55.0192 204.429 54.1349 204.429 53.1293C204.429 52.1151 204.625 51.2287 205.017 50.4702C205.409 49.7074 205.965 49.1151 206.685 48.6932C207.409 48.267 208.268 48.054 209.261 48.054C210.254 48.054 211.11 48.267 211.831 48.6932C212.555 49.1151 213.113 49.7074 213.505 50.4702C213.897 51.2287 214.093 52.1151 214.093 53.1293C214.093 54.1349 213.897 55.0192 213.505 55.782C213.113 56.5405 212.555 57.1328 211.831 57.5589C211.11 57.9808 210.254 58.1918 209.261 58.1918ZM209.274 56.0824C209.725 56.0824 210.103 55.9545 210.405 55.6989C210.708 55.4389 210.936 55.0852 211.089 54.6378C211.247 54.1903 211.326 53.6811 211.326 53.1101C211.326 52.5391 211.247 52.0298 211.089 51.5824C210.936 51.1349 210.708 50.7812 210.405 50.5213C210.103 50.2614 209.725 50.1314 209.274 50.1314C208.818 50.1314 208.434 50.2614 208.123 50.5213C207.816 50.7812 207.584 51.1349 207.426 51.5824C207.273 52.0298 207.196 52.5391 207.196 53.1101C207.196 53.6811 207.273 54.1903 207.426 54.6378C207.584 55.0852 207.816 55.4389 208.123 55.6989C208.434 55.9545 208.818 56.0824 209.274 56.0824ZM218.331 55.1747L218.338 51.9084H218.734L221.879 48.1818H225.005L220.779 53.1165H220.134L218.331 55.1747ZM215.864 58V44.9091H218.587V58H215.864ZM222 58L219.111 53.7237L220.926 51.7997L225.19 58H222Z" fill="white"/>
<defs>
<filter id="filter0_d_654_15" x="0" y="0" width="265" height="87" filterUnits="userSpaceOnUse" color-interpolation-filters="sRGB">
<feFlood flood-opacity="0" result="BackgroundImageFix"/>
<feColorMatrix in="SourceAlpha" type="matrix" values="0 0 0 0 0 0 0 0 0 0 0 0 0 0 0 0 0 0 127 0" result="hardAlpha"/>
<feOffset dy="4"/>
<feGaussianBlur stdDeviation="5"/>
<feComposite in2="hardAlpha" operator="out"/>
<feColorMatrix type="matrix" values="0 0 0 0 0 0 0 0 0 0 0 0 0 0 0 0 0 0 0.25 0"/>
<feBlend mode="normal" in2="BackgroundImageFix" result="effect1_dropShadow_654_15"/>
<feBlend mode="normal" in="SourceGraphic" in2="effect1_dropShadow_654_15" result="shape"/>
</filter>
</defs>
</svg>
