<svg width="265" height="87" viewBox="0 0 265 87" fill="none" xmlns="http://www.w3.org/2000/svg">
<g filter="url(#filter0_d_654_14)">
<path d="M10 6H253C254.105 6 255 6.89543 255 8V71C255 72.1046 254.105 73 253 73H10V6Z" fill="#F95700"/>
</g>
<path d="M10 73L22 85V73H10Z" fill="#B74203"/>
<path d="M36.1378 36V22.9091H41.3793C42.3423 22.9091 43.1456 23.0518 43.7891 23.3374C44.4325 23.6229 44.9162 24.0192 45.2401 24.5263C45.5639 25.0291 45.7259 25.6087 45.7259 26.2649C45.7259 26.7763 45.6236 27.2259 45.419 27.6136C45.2145 27.9972 44.9332 28.3125 44.5753 28.5597C44.2216 28.8026 43.8168 28.9751 43.3608 29.0774V29.2053C43.8594 29.2266 44.326 29.3672 44.7607 29.6271C45.1996 29.8871 45.5554 30.2514 45.8281 30.7202C46.1009 31.1847 46.2372 31.7386 46.2372 32.3821C46.2372 33.0767 46.0646 33.6967 45.7195 34.2422C45.3786 34.7834 44.8736 35.2116 44.2045 35.527C43.5355 35.8423 42.7109 36 41.7308 36H36.1378ZM38.9055 33.7372H41.1619C41.9332 33.7372 42.4957 33.5902 42.8494 33.2962C43.2031 32.9979 43.38 32.6016 43.38 32.1072C43.38 31.745 43.2926 31.4254 43.1179 31.1484C42.9432 30.8714 42.6939 30.6541 42.37 30.4964C42.0504 30.3388 41.669 30.2599 41.2259 30.2599H38.9055V33.7372ZM38.9055 28.3871H40.9574C41.3366 28.3871 41.6733 28.321 41.9673 28.1889C42.2656 28.0526 42.5 27.8608 42.6705 27.6136C42.8452 27.3665 42.9325 27.0703 42.9325 26.7251C42.9325 26.2521 42.7642 25.8707 42.4276 25.581C42.0952 25.2912 41.6222 25.1463 41.0085 25.1463H38.9055V28.3871ZM52.4231 36.1918C51.4302 36.1918 50.5716 35.9808 49.8471 35.5589C49.127 35.1328 48.5708 34.5405 48.1788 33.782C47.7868 33.0192 47.5907 32.1349 47.5907 31.1293C47.5907 30.1151 47.7868 29.2287 48.1788 28.4702C48.5708 27.7074 49.127 27.1151 49.8471 26.6932C50.5716 26.267 51.4302 26.054 52.4231 26.054C53.416 26.054 54.2725 26.267 54.9927 26.6932C55.7172 27.1151 56.2754 27.7074 56.6674 28.4702C57.0595 29.2287 57.2555 30.1151 57.2555 31.1293C57.2555 32.1349 57.0595 33.0192 56.6674 33.782C56.2754 34.5405 55.7172 35.1328 54.9927 35.5589C54.2725 35.9808 53.416 36.1918 52.4231 36.1918ZM52.4359 34.0824C52.8876 34.0824 53.2647 33.9545 53.5673 33.6989C53.8699 33.4389 54.0978 33.0852 54.2512 32.6378C54.4089 32.1903 54.4877 31.6811 54.4877 31.1101C54.4877 30.5391 54.4089 30.0298 54.2512 29.5824C54.0978 29.1349 53.8699 28.7812 53.5673 28.5213C53.2647 28.2614 52.8876 28.1314 52.4359 28.1314C51.9799 28.1314 51.5964 28.2614 51.2853 28.5213C50.9785 28.7812 50.7463 29.1349 50.5886 29.5824C50.4352 30.0298 50.3585 30.5391 50.3585 31.1101C50.3585 31.6811 50.4352 32.1903 50.5886 32.6378C50.7463 33.0852 50.9785 33.4389 51.2853 33.6989C51.5964 33.9545 51.9799 34.0824 52.4359 34.0824ZM61.7491 30.3239V36H59.0261V26.1818H61.6213V27.9141H61.7363C61.9537 27.343 62.318 26.8913 62.8294 26.5589C63.3407 26.2223 63.9608 26.054 64.6895 26.054C65.3713 26.054 65.9657 26.2031 66.4728 26.5014C66.9799 26.7997 67.3741 27.2259 67.6554 27.7798C67.9366 28.3295 68.0772 28.9858 68.0772 29.7486V36H65.3542V30.2344C65.3585 29.6335 65.2051 29.1648 64.894 28.8281C64.5829 28.4872 64.1547 28.3168 63.6092 28.3168C63.2427 28.3168 62.9189 28.3956 62.6376 28.5533C62.3606 28.7109 62.1433 28.9411 61.9856 29.2436C61.8322 29.5419 61.7534 29.902 61.7491 30.3239ZM76.5195 31.8196V26.1818H79.2425V36H76.6282V34.2166H76.5259C76.3043 34.7919 75.9357 35.2543 75.4201 35.6037C74.9087 35.9531 74.2844 36.1278 73.5472 36.1278C72.891 36.1278 72.3136 35.9787 71.815 35.6804C71.3164 35.3821 70.9265 34.9581 70.6452 34.4084C70.3683 33.8587 70.2276 33.2003 70.2234 32.4332V26.1818H72.9464V31.9474C72.9506 32.527 73.1062 32.9851 73.413 33.3217C73.7198 33.6584 74.131 33.8267 74.6467 33.8267C74.9748 33.8267 75.2816 33.7521 75.5671 33.603C75.8526 33.4496 76.0827 33.2237 76.2575 32.9254C76.4364 32.6271 76.5238 32.2585 76.5195 31.8196ZM89.5897 28.9815L87.0968 29.1349C87.0542 28.9219 86.9625 28.7301 86.8219 28.5597C86.6813 28.3849 86.4959 28.2464 86.2658 28.1442C86.04 28.0376 85.7694 27.9844 85.454 27.9844C85.0321 27.9844 84.6763 28.0739 84.3865 28.2528C84.0968 28.4276 83.9519 28.6619 83.9519 28.956C83.9519 29.1903 84.0456 29.3885 84.2331 29.5504C84.4206 29.7124 84.7424 29.8423 85.1983 29.9403L86.9753 30.2983C87.9299 30.4943 88.6415 30.8097 89.1103 31.2443C89.579 31.679 89.8134 32.25 89.8134 32.9574C89.8134 33.6009 89.6238 34.1655 89.2445 34.6513C88.8695 35.1371 88.3539 35.5163 87.6976 35.7891C87.0456 36.0575 86.2935 36.1918 85.4412 36.1918C84.1415 36.1918 83.106 35.9212 82.3347 35.38C81.5676 34.8345 81.1181 34.093 80.986 33.1555L83.6642 33.0149C83.7452 33.4112 83.9412 33.7138 84.2523 33.9226C84.5634 34.1271 84.9618 34.2294 85.4476 34.2294C85.9249 34.2294 86.3084 34.1378 86.5982 33.9545C86.8922 33.767 87.0414 33.5263 87.0456 33.2322C87.0414 32.9851 86.937 32.7827 86.7324 32.625C86.5279 32.4631 86.2125 32.3395 85.7864 32.2543L84.0861 31.9155C83.1273 31.7237 82.4135 31.3913 81.9448 30.9183C81.4803 30.4453 81.248 29.8423 81.248 29.1094C81.248 28.4787 81.4185 27.9354 81.7594 27.4794C82.1046 27.0234 82.5882 26.6719 83.2104 26.4247C83.8368 26.1776 84.5698 26.054 85.4093 26.054C86.6493 26.054 87.6252 26.3161 88.3368 26.8402C89.0527 27.3643 89.4703 28.0781 89.5897 28.9815ZM100.654 36L102.802 22.9091H104.847L102.7 36H100.654ZM94.7928 32.7528L95.1316 30.7074H105.359L105.02 32.7528H94.7928ZM96.052 36L98.1998 22.9091H100.245L98.0975 36H96.052ZM95.5407 28.2017L95.8858 26.1562H106.113L105.768 28.2017H95.5407ZM113.053 22.9091V36H110.286V25.5362H110.209L107.211 27.4155V24.9609L110.452 22.9091H113.053ZM117.782 34.4787C117.36 34.4787 116.998 34.3295 116.695 34.0312C116.397 33.733 116.248 33.3707 116.248 32.9446C116.248 32.527 116.397 32.169 116.695 31.8707C116.998 31.5724 117.36 31.4233 117.782 31.4233C118.191 31.4233 118.549 31.5724 118.856 31.8707C119.162 32.169 119.316 32.527 119.316 32.9446C119.316 33.2259 119.243 33.4837 119.099 33.718C118.958 33.9482 118.773 34.1335 118.542 34.2741C118.312 34.4105 118.059 34.4787 117.782 34.4787ZM117.782 28.0547C117.36 28.0547 116.998 27.9055 116.695 27.6072C116.397 27.3089 116.248 26.9467 116.248 26.5206C116.248 26.103 116.397 25.7472 116.695 25.4531C116.998 25.1548 117.36 25.0057 117.782 25.0057C118.191 25.0057 118.549 25.1548 118.856 25.4531C119.162 25.7472 119.316 26.103 119.316 26.5206C119.316 26.8061 119.243 27.0661 119.099 27.3004C118.958 27.5305 118.773 27.7138 118.542 27.8501C118.312 27.9865 118.059 28.0547 117.782 28.0547ZM125.769 36V22.9091H128.536V33.718H134.149V36H125.769ZM135.93 36V26.1818H138.653V36H135.93ZM137.298 24.9162C136.893 24.9162 136.546 24.782 136.256 24.5135C135.971 24.2408 135.828 23.9148 135.828 23.5355C135.828 23.1605 135.971 22.8388 136.256 22.5703C136.546 22.2976 136.893 22.1612 137.298 22.1612C137.703 22.1612 138.048 22.2976 138.334 22.5703C138.624 22.8388 138.768 23.1605 138.768 23.5355C138.768 23.9148 138.624 24.2408 138.334 24.5135C138.048 24.782 137.703 24.9162 137.298 24.9162ZM149.004 28.9815L146.511 29.1349C146.468 28.9219 146.377 28.7301 146.236 28.5597C146.095 28.3849 145.91 28.2464 145.68 28.1442C145.454 28.0376 145.183 27.9844 144.868 27.9844C144.446 27.9844 144.09 28.0739 143.801 28.2528C143.511 28.4276 143.366 28.6619 143.366 28.956C143.366 29.1903 143.46 29.3885 143.647 29.5504C143.835 29.7124 144.156 29.8423 144.612 29.9403L146.389 30.2983C147.344 30.4943 148.056 30.8097 148.524 31.2443C148.993 31.679 149.227 32.25 149.227 32.9574C149.227 33.6009 149.038 34.1655 148.659 34.6513C148.284 35.1371 147.768 35.5163 147.112 35.7891C146.46 36.0575 145.708 36.1918 144.855 36.1918C143.556 36.1918 142.52 35.9212 141.749 35.38C140.982 34.8345 140.532 34.093 140.4 33.1555L143.078 33.0149C143.159 33.4112 143.355 33.7138 143.666 33.9226C143.977 34.1271 144.376 34.2294 144.862 34.2294C145.339 34.2294 145.722 34.1378 146.012 33.9545C146.306 33.767 146.455 33.5263 146.46 33.2322C146.455 32.9851 146.351 32.7827 146.146 32.625C145.942 32.4631 145.627 32.3395 145.2 32.2543L143.5 31.9155C142.541 31.7237 141.828 31.3913 141.359 30.9183C140.894 30.4453 140.662 29.8423 140.662 29.1094C140.662 28.4787 140.833 27.9354 141.173 27.4794C141.519 27.0234 142.002 26.6719 142.624 26.4247C143.251 26.1776 143.984 26.054 144.823 26.054C146.063 26.054 147.039 26.3161 147.751 26.8402C148.467 27.3643 148.884 28.0781 149.004 28.9815ZM156.164 26.1818V28.2273H150.252V26.1818H156.164ZM151.594 23.8295H154.317V32.983C154.317 33.2344 154.355 33.4304 154.432 33.571C154.509 33.7074 154.615 33.8033 154.752 33.8587C154.892 33.9141 155.054 33.9418 155.238 33.9418C155.365 33.9418 155.493 33.9311 155.621 33.9098C155.749 33.8842 155.847 33.8651 155.915 33.8523L156.343 35.8786C156.207 35.9212 156.015 35.9702 155.768 36.0256C155.521 36.0852 155.221 36.1214 154.867 36.1342C154.211 36.1598 153.635 36.0724 153.141 35.8722C152.651 35.6719 152.27 35.3608 151.997 34.9389C151.724 34.517 151.59 33.9844 151.594 33.3409V23.8295ZM157.938 36V26.1818H160.661V36H157.938ZM159.306 24.9162C158.901 24.9162 158.554 24.782 158.264 24.5135C157.979 24.2408 157.836 23.9148 157.836 23.5355C157.836 23.1605 157.979 22.8388 158.264 22.5703C158.554 22.2976 158.901 22.1612 159.306 22.1612C159.711 22.1612 160.056 22.2976 160.342 22.5703C160.631 22.8388 160.776 23.1605 160.776 23.5355C160.776 23.9148 160.631 24.2408 160.342 24.5135C160.056 24.782 159.711 24.9162 159.306 24.9162ZM165.566 30.3239V36H162.843V26.1818H165.438V27.9141H165.553C165.77 27.343 166.134 26.8913 166.646 26.5589C167.157 26.2223 167.777 26.054 168.506 26.054C169.188 26.054 169.782 26.2031 170.289 26.5014C170.796 26.7997 171.191 27.2259 171.472 27.7798C171.753 28.3295 171.894 28.9858 171.894 29.7486V36H169.171V30.2344C169.175 29.6335 169.021 29.1648 168.71 28.8281C168.399 28.4872 167.971 28.3168 167.426 28.3168C167.059 28.3168 166.735 28.3956 166.454 28.5533C166.177 28.7109 165.96 28.9411 165.802 29.2436C165.649 29.5419 165.57 29.902 165.566 30.3239ZM178.463 39.8864C177.581 39.8864 176.825 39.7649 176.194 39.522C175.567 39.2834 175.069 38.9574 174.698 38.544C174.327 38.1307 174.087 37.6662 173.976 37.1506L176.494 36.8118C176.571 37.0078 176.692 37.1911 176.859 37.3615C177.025 37.532 177.244 37.6683 177.517 37.7706C177.794 37.8771 178.131 37.9304 178.527 37.9304C179.119 37.9304 179.607 37.7855 179.991 37.4957C180.379 37.2102 180.572 36.7308 180.572 36.0575V34.2614H180.457C180.338 34.5341 180.159 34.7919 179.92 35.0348C179.682 35.2777 179.375 35.4759 179 35.6293C178.625 35.7827 178.178 35.8594 177.658 35.8594C176.92 35.8594 176.249 35.6889 175.644 35.348C175.043 35.0028 174.564 34.4766 174.206 33.7692C173.852 33.0575 173.675 32.1584 173.675 31.0717C173.675 29.9595 173.857 29.0305 174.219 28.2848C174.581 27.5391 175.063 26.9808 175.663 26.6101C176.268 26.2393 176.931 26.054 177.651 26.054C178.201 26.054 178.661 26.1477 179.032 26.3352C179.403 26.5185 179.701 26.7486 179.927 27.0256C180.157 27.2983 180.334 27.5668 180.457 27.831H180.56V26.1818H183.263V36.0959C183.263 36.9311 183.059 37.63 182.65 38.1925C182.241 38.755 181.674 39.1768 180.95 39.4581C180.229 39.7436 179.401 39.8864 178.463 39.8864ZM178.521 33.8139C178.96 33.8139 179.33 33.7053 179.633 33.4879C179.94 33.2663 180.174 32.951 180.336 32.5419C180.502 32.1286 180.585 31.6342 180.585 31.0589C180.585 30.4837 180.504 29.9851 180.342 29.5632C180.18 29.1371 179.946 28.8068 179.639 28.5724C179.332 28.3381 178.96 28.2209 178.521 28.2209C178.073 28.2209 177.696 28.3423 177.389 28.5852C177.082 28.8239 176.85 29.1562 176.692 29.5824C176.535 30.0085 176.456 30.5007 176.456 31.0589C176.456 31.6257 176.535 32.1158 176.692 32.5291C176.854 32.9382 177.087 33.2557 177.389 33.4815C177.696 33.7031 178.073 33.8139 178.521 33.8139ZM48.1676 51.4545C48.1676 52.8821 47.897 54.0966 47.3558 55.098C46.8189 56.0994 46.0859 56.8643 45.157 57.3928C44.2322 57.9169 43.1925 58.179 42.0376 58.179C40.8743 58.179 39.8303 57.9148 38.9055 57.3864C37.9808 56.858 37.25 56.093 36.7131 55.0916C36.1761 54.0902 35.9077 52.8778 35.9077 51.4545C35.9077 50.027 36.1761 48.8125 36.7131 47.8111C37.25 46.8097 37.9808 46.0469 38.9055 45.5227C39.8303 44.9943 40.8743 44.7301 42.0376 44.7301C43.1925 44.7301 44.2322 44.9943 45.157 45.5227C46.0859 46.0469 46.8189 46.8097 47.3558 47.8111C47.897 48.8125 48.1676 50.027 48.1676 51.4545ZM45.3615 51.4545C45.3615 50.5298 45.223 49.75 44.946 49.1151C44.6733 48.4801 44.2876 47.9986 43.7891 47.6705C43.2905 47.3423 42.7067 47.1783 42.0376 47.1783C41.3686 47.1783 40.7848 47.3423 40.2862 47.6705C39.7876 47.9986 39.3999 48.4801 39.1229 49.1151C38.8501 49.75 38.7138 50.5298 38.7138 51.4545C38.7138 52.3793 38.8501 53.1591 39.1229 53.794C39.3999 54.429 39.7876 54.9105 40.2862 55.2386C40.7848 55.5668 41.3686 55.7308 42.0376 55.7308C42.7067 55.7308 43.2905 55.5668 43.7891 55.2386C44.2876 54.9105 44.6733 54.429 44.946 53.794C45.223 53.1591 45.3615 52.3793 45.3615 51.4545ZM50.1667 61.6818V48.1818H52.8514V49.831H52.9728C53.0922 49.5668 53.2647 49.2983 53.4906 49.0256C53.7207 48.7486 54.019 48.5185 54.3855 48.3352C54.7562 48.1477 55.2164 48.054 55.7662 48.054C56.4821 48.054 57.1426 48.2415 57.7477 48.6165C58.3528 48.9872 58.8365 49.5476 59.1987 50.2976C59.5609 51.0433 59.742 51.9787 59.742 53.1037C59.742 54.1989 59.5652 55.1236 59.2115 55.8778C58.862 56.6278 58.3848 57.1967 57.7797 57.5845C57.1788 57.968 56.5055 58.1598 55.7598 58.1598C55.2314 58.1598 54.7818 58.0724 54.411 57.8977C54.0446 57.723 53.7441 57.5036 53.5098 57.2393C53.2754 56.9709 53.0964 56.7003 52.9728 56.4276H52.8897V61.6818H50.1667ZM52.8322 53.0909C52.8322 53.6747 52.9132 54.1839 53.0751 54.6186C53.237 55.0533 53.4714 55.392 53.7782 55.6349C54.085 55.8736 54.4579 55.9929 54.8968 55.9929C55.34 55.9929 55.715 55.8714 56.0218 55.6286C56.3287 55.3814 56.5609 55.0405 56.7186 54.6058C56.8805 54.1669 56.9615 53.6619 56.9615 53.0909C56.9615 52.5241 56.8826 52.0256 56.725 51.5952C56.5673 51.1648 56.335 50.8281 56.0282 50.5852C55.7214 50.3423 55.3443 50.2209 54.8968 50.2209C54.4537 50.2209 54.0787 50.3381 53.7718 50.5724C53.4693 50.8068 53.237 51.1392 53.0751 51.5696C52.9132 52 52.8322 52.5071 52.8322 53.0909ZM66.7797 48.1818V50.2273H60.867V48.1818H66.7797ZM62.2093 45.8295H64.9324V54.983C64.9324 55.2344 64.9707 55.4304 65.0474 55.571C65.1241 55.7074 65.2306 55.8033 65.367 55.8587C65.5076 55.9141 65.6696 55.9418 65.8528 55.9418C65.9806 55.9418 66.1085 55.9311 66.2363 55.9098C66.3642 55.8842 66.4622 55.8651 66.5304 55.8523L66.9586 57.8786C66.8223 57.9212 66.6305 57.9702 66.3833 58.0256C66.1362 58.0852 65.8358 58.1214 65.4821 58.1342C64.8258 58.1598 64.2505 58.0724 63.7562 57.8722C63.2662 57.6719 62.8848 57.3608 62.612 56.9389C62.3393 56.517 62.2051 55.9844 62.2093 55.3409V45.8295ZM68.5534 58V48.1818H71.2765V58H68.5534ZM69.9213 46.9162C69.5165 46.9162 69.1692 46.782 68.8794 46.5135C68.5939 46.2408 68.4512 45.9148 68.4512 45.5355C68.4512 45.1605 68.5939 44.8388 68.8794 44.5703C69.1692 44.2976 69.5165 44.1612 69.9213 44.1612C70.3262 44.1612 70.6713 44.2976 70.9569 44.5703C71.2466 44.8388 71.3915 45.1605 71.3915 45.5355C71.3915 45.9148 71.2466 46.2408 70.9569 46.5135C70.6713 46.782 70.3262 46.9162 69.9213 46.9162ZM73.4577 58V48.1818H76.0529V49.9141H76.168C76.3725 49.3388 76.7134 48.8849 77.1907 48.5526C77.668 48.2202 78.239 48.054 78.9038 48.054C79.5771 48.054 80.1502 48.2223 80.6232 48.5589C81.0962 48.8913 81.4116 49.343 81.5692 49.9141H81.6715C81.8718 49.3516 82.234 48.902 82.7582 48.5653C83.2866 48.2244 83.9109 48.054 84.631 48.054C85.5472 48.054 86.2908 48.3459 86.8619 48.9297C87.4371 49.5092 87.7248 50.3317 87.7248 51.397V58H85.0082V51.9339C85.0082 51.3885 84.8633 50.9794 84.5735 50.7067C84.2837 50.4339 83.9215 50.2976 83.4869 50.2976C82.9925 50.2976 82.6069 50.4553 82.3299 50.7706C82.0529 51.0817 81.9144 51.4929 81.9144 52.0043V58H79.2745V51.8764C79.2745 51.3949 79.136 51.0114 78.859 50.7259C78.5863 50.4403 78.2262 50.2976 77.7788 50.2976C77.4762 50.2976 77.2035 50.3743 76.9606 50.5277C76.7219 50.6768 76.5323 50.8878 76.3917 51.1605C76.2511 51.429 76.1808 51.7443 76.1808 52.1065V58H73.4577ZM89.8757 58V48.1818H92.5987V58H89.8757ZM91.2436 46.9162C90.8388 46.9162 90.4915 46.782 90.2017 46.5135C89.9162 46.2408 89.7734 45.9148 89.7734 45.5355C89.7734 45.1605 89.9162 44.8388 90.2017 44.5703C90.4915 44.2976 90.8388 44.1612 91.2436 44.1612C91.6484 44.1612 91.9936 44.2976 92.2791 44.5703C92.5689 44.8388 92.7138 45.1605 92.7138 45.5355C92.7138 45.9148 92.5689 46.2408 92.2791 46.5135C91.9936 46.782 91.6484 46.9162 91.2436 46.9162ZM94.7289 58V56.3764L99.5357 50.4254V50.3551H94.8951V48.1818H102.815V49.9524L98.302 55.7564V55.8267H102.981V58H94.7289ZM107.863 58.1854C107.237 58.1854 106.678 58.0767 106.188 57.8594C105.698 57.6378 105.31 57.3118 105.025 56.8814C104.744 56.4467 104.603 55.9055 104.603 55.2578C104.603 54.7124 104.703 54.2543 104.903 53.8835C105.104 53.5128 105.376 53.2145 105.722 52.9886C106.067 52.7628 106.459 52.5923 106.898 52.4773C107.341 52.3622 107.805 52.2812 108.291 52.2344C108.862 52.1747 109.322 52.1193 109.672 52.0682C110.021 52.0128 110.275 51.9318 110.433 51.8253C110.59 51.7187 110.669 51.5611 110.669 51.3523V51.3139C110.669 50.9091 110.541 50.5959 110.286 50.3743C110.034 50.1527 109.676 50.0419 109.212 50.0419C108.722 50.0419 108.332 50.1506 108.042 50.3679C107.752 50.581 107.56 50.8494 107.467 51.1733L104.948 50.9688C105.076 50.3722 105.327 49.8565 105.702 49.4219C106.077 48.983 106.561 48.6463 107.153 48.4119C107.75 48.1733 108.44 48.054 109.224 48.054C109.77 48.054 110.292 48.1179 110.79 48.2457C111.293 48.3736 111.739 48.5717 112.126 48.8402C112.518 49.1087 112.827 49.4538 113.053 49.8757C113.279 50.2933 113.392 50.794 113.392 51.3778V58H110.81V56.6385H110.733C110.575 56.9453 110.364 57.2159 110.1 57.4503C109.836 57.6804 109.518 57.8615 109.148 57.9936C108.777 58.1214 108.349 58.1854 107.863 58.1854ZM108.643 56.3061C109.043 56.3061 109.397 56.2273 109.704 56.0696C110.011 55.9077 110.251 55.6903 110.426 55.4176C110.601 55.1449 110.688 54.8359 110.688 54.4908V53.4489C110.603 53.5043 110.486 53.5554 110.337 53.6023C110.192 53.6449 110.028 53.6854 109.844 53.7237C109.661 53.7578 109.478 53.7898 109.295 53.8196C109.112 53.8452 108.945 53.8686 108.796 53.8899C108.477 53.9368 108.197 54.0114 107.959 54.1136C107.72 54.2159 107.535 54.3544 107.403 54.5291C107.271 54.6996 107.205 54.9126 107.205 55.1683C107.205 55.5391 107.339 55.8224 107.607 56.0185C107.88 56.2102 108.225 56.3061 108.643 56.3061ZM120.727 48.1818V50.2273H114.814V48.1818H120.727ZM116.157 45.8295H118.88V54.983C118.88 55.2344 118.918 55.4304 118.995 55.571C119.071 55.7074 119.178 55.8033 119.314 55.8587C119.455 55.9141 119.617 55.9418 119.8 55.9418C119.928 55.9418 120.056 55.9311 120.184 55.9098C120.311 55.8842 120.409 55.8651 120.478 55.8523L120.906 57.8786C120.77 57.9212 120.578 57.9702 120.331 58.0256C120.083 58.0852 119.783 58.1214 119.429 58.1342C118.773 58.1598 118.198 58.0724 117.703 57.8722C117.213 57.6719 116.832 57.3608 116.559 56.9389C116.287 56.517 116.152 55.9844 116.157 55.3409V45.8295ZM122.501 58V48.1818H125.224V58H122.501ZM123.869 46.9162C123.464 46.9162 123.116 46.782 122.827 46.5135C122.541 46.2408 122.398 45.9148 122.398 45.5355C122.398 45.1605 122.541 44.8388 122.827 44.5703C123.116 44.2976 123.464 44.1612 123.869 44.1612C124.273 44.1612 124.619 44.2976 124.904 44.5703C125.194 44.8388 125.339 45.1605 125.339 45.5355C125.339 45.9148 125.194 46.2408 124.904 46.5135C124.619 46.782 124.273 46.9162 123.869 46.9162ZM131.841 58.1918C130.848 58.1918 129.99 57.9808 129.265 57.5589C128.545 57.1328 127.989 56.5405 127.597 55.782C127.205 55.0192 127.009 54.1349 127.009 53.1293C127.009 52.1151 127.205 51.2287 127.597 50.4702C127.989 49.7074 128.545 49.1151 129.265 48.6932C129.99 48.267 130.848 48.054 131.841 48.054C132.834 48.054 133.691 48.267 134.411 48.6932C135.135 49.1151 135.693 49.7074 136.085 50.4702C136.477 51.2287 136.673 52.1151 136.673 53.1293C136.673 54.1349 136.477 55.0192 136.085 55.782C135.693 56.5405 135.135 57.1328 134.411 57.5589C133.691 57.9808 132.834 58.1918 131.841 58.1918ZM131.854 56.0824C132.306 56.0824 132.683 55.9545 132.985 55.6989C133.288 55.4389 133.516 55.0852 133.669 54.6378C133.827 54.1903 133.906 53.6811 133.906 53.1101C133.906 52.5391 133.827 52.0298 133.669 51.5824C133.516 51.1349 133.288 50.7812 132.985 50.5213C132.683 50.2614 132.306 50.1314 131.854 50.1314C131.398 50.1314 131.014 50.2614 130.703 50.5213C130.396 50.7812 130.164 51.1349 130.007 51.5824C129.853 52.0298 129.776 52.5391 129.776 53.1101C129.776 53.6811 129.853 54.1903 130.007 54.6378C130.164 55.0852 130.396 55.4389 130.703 55.6989C131.014 55.9545 131.398 56.0824 131.854 56.0824ZM141.167 52.3239V58H138.444V48.1818H141.039V49.9141H141.154C141.372 49.343 141.736 48.8913 142.247 48.5589C142.759 48.2223 143.379 48.054 144.107 48.054C144.789 48.054 145.384 48.2031 145.891 48.5014C146.398 48.7997 146.792 49.2259 147.073 49.7798C147.355 50.3295 147.495 50.9858 147.495 51.7486V58H144.772V52.2344C144.776 51.6335 144.623 51.1648 144.312 50.8281C144.001 50.4872 143.573 50.3168 143.027 50.3168C142.661 50.3168 142.337 50.3956 142.056 50.5533C141.779 50.7109 141.561 50.9411 141.404 51.2436C141.25 51.5419 141.171 51.902 141.167 52.3239ZM162.539 49.1406C162.449 48.8295 162.324 48.5547 162.162 48.3161C162 48.0732 161.802 47.8686 161.567 47.7024C161.337 47.532 161.073 47.402 160.775 47.3125C160.481 47.223 160.155 47.1783 159.797 47.1783C159.128 47.1783 158.54 47.3445 158.032 47.6768C157.53 48.0092 157.138 48.4929 156.856 49.1278C156.575 49.7585 156.434 50.5298 156.434 51.4418C156.434 52.3537 156.573 53.1293 156.85 53.7685C157.127 54.4077 157.519 54.8956 158.026 55.2322C158.533 55.5646 159.132 55.7308 159.822 55.7308C160.449 55.7308 160.983 55.62 161.427 55.3984C161.874 55.1726 162.215 54.8551 162.449 54.446C162.688 54.0369 162.807 53.5533 162.807 52.995L163.37 53.0781H159.995V50.9943H165.473V52.6435C165.473 53.794 165.23 54.7827 164.744 55.6094C164.258 56.4318 163.589 57.0668 162.737 57.5142C161.885 57.9574 160.909 58.179 159.809 58.179C158.582 58.179 157.504 57.9084 156.575 57.3672C155.646 56.8217 154.922 56.0483 154.402 55.0469C153.886 54.0412 153.628 52.848 153.628 51.4673C153.628 50.4062 153.782 49.4602 154.089 48.6293C154.4 47.794 154.834 47.0866 155.393 46.5071C155.951 45.9276 156.601 45.4865 157.342 45.1839C158.084 44.8814 158.887 44.7301 159.752 44.7301C160.493 44.7301 161.184 44.8388 161.823 45.0561C162.462 45.2692 163.029 45.5717 163.523 45.9638C164.022 46.3558 164.429 46.8224 164.744 47.3636C165.059 47.9006 165.262 48.4929 165.351 49.1406H162.539ZM173.797 53.8196V48.1818H176.52V58H173.906V56.2166H173.803C173.582 56.7919 173.213 57.2543 172.697 57.6037C172.186 57.9531 171.562 58.1278 170.825 58.1278C170.168 58.1278 169.591 57.9787 169.092 57.6804C168.594 57.3821 168.204 56.9581 167.923 56.4084C167.646 55.8587 167.505 55.2003 167.501 54.4332V48.1818H170.224V53.9474C170.228 54.527 170.384 54.9851 170.69 55.3217C170.997 55.6584 171.408 55.8267 171.924 55.8267C172.252 55.8267 172.559 55.7521 172.844 55.603C173.13 55.4496 173.36 55.2237 173.535 54.9254C173.714 54.6271 173.801 54.2585 173.797 53.8196ZM178.698 58V48.1818H181.421V58H178.698ZM180.066 46.9162C179.661 46.9162 179.314 46.782 179.024 46.5135C178.738 46.2408 178.596 45.9148 178.596 45.5355C178.596 45.1605 178.738 44.8388 179.024 44.5703C179.314 44.2976 179.661 44.1612 180.066 44.1612C180.471 44.1612 180.816 44.2976 181.101 44.5703C181.391 44.8388 181.536 45.1605 181.536 45.5355C181.536 45.9148 181.391 46.2408 181.101 46.5135C180.816 46.782 180.471 46.9162 180.066 46.9162ZM187.22 58.1598C186.474 58.1598 185.799 57.968 185.194 57.5845C184.593 57.1967 184.116 56.6278 183.762 55.8778C183.413 55.1236 183.238 54.1989 183.238 53.1037C183.238 51.9787 183.419 51.0433 183.781 50.2976C184.143 49.5476 184.625 48.9872 185.226 48.6165C185.831 48.2415 186.494 48.054 187.214 48.054C187.763 48.054 188.222 48.1477 188.588 48.3352C188.959 48.5185 189.257 48.7486 189.483 49.0256C189.713 49.2983 189.888 49.5668 190.007 49.831H190.09V44.9091H192.807V58H190.122V56.4276H190.007C189.879 56.7003 189.698 56.9709 189.464 57.2393C189.234 57.5036 188.933 57.723 188.562 57.8977C188.196 58.0724 187.749 58.1598 187.22 58.1598ZM188.083 55.9929C188.522 55.9929 188.893 55.8736 189.195 55.6349C189.502 55.392 189.737 55.0533 189.898 54.6186C190.065 54.1839 190.148 53.6747 190.148 53.0909C190.148 52.5071 190.067 52 189.905 51.5696C189.743 51.1392 189.509 50.8068 189.202 50.5724C188.895 50.3381 188.522 50.2209 188.083 50.2209C187.636 50.2209 187.259 50.3423 186.952 50.5852C186.645 50.8281 186.413 51.1648 186.255 51.5952C186.097 52.0256 186.018 52.5241 186.018 53.0909C186.018 53.6619 186.097 54.1669 186.255 54.6058C186.417 55.0405 186.649 55.3814 186.952 55.6286C187.259 55.8714 187.636 55.9929 188.083 55.9929ZM199.52 58.1918C198.51 58.1918 197.641 57.9872 196.912 57.5781C196.188 57.1648 195.629 56.581 195.237 55.8267C194.845 55.0682 194.649 54.1712 194.649 53.1357C194.649 52.1257 194.845 51.2393 195.237 50.4766C195.629 49.7138 196.181 49.1193 196.893 48.6932C197.609 48.267 198.448 48.054 199.411 48.054C200.059 48.054 200.662 48.1584 201.22 48.3672C201.783 48.5717 202.273 48.8807 202.691 49.294C203.112 49.7074 203.441 50.2273 203.675 50.8537C203.909 51.4759 204.026 52.2045 204.026 53.0398V53.7876H195.736V52.1001H201.463C201.463 51.7081 201.378 51.3608 201.208 51.0582C201.037 50.7557 200.801 50.5192 200.498 50.3487C200.2 50.174 199.852 50.0866 199.456 50.0866C199.043 50.0866 198.676 50.1825 198.357 50.3743C198.041 50.5618 197.794 50.8153 197.615 51.1349C197.436 51.4503 197.345 51.8018 197.34 52.1896V53.794C197.34 54.2798 197.43 54.6996 197.609 55.0533C197.792 55.407 198.05 55.6797 198.382 55.8714C198.715 56.0632 199.109 56.1591 199.565 56.1591C199.867 56.1591 200.144 56.1165 200.396 56.0312C200.647 55.946 200.862 55.8182 201.041 55.6477C201.22 55.4773 201.357 55.2685 201.45 55.0213L203.969 55.1875C203.841 55.7926 203.579 56.321 203.183 56.7727C202.791 57.2202 202.284 57.5696 201.661 57.821C201.044 58.0682 200.33 58.1918 199.52 58.1918Z" fill="white"/>
<defs>
<filter id="filter0_d_654_14" x="0" y="0" width="265" height="87" filterUnits="userSpaceOnUse" color-interpolation-filters="sRGB">
<feFlood flood-opacity="0" result="BackgroundImageFix"/>
<feColorMatrix in="SourceAlpha" type="matrix" values="0 0 0 0 0 0 0 0 0 0 0 0 0 0 0 0 0 0 127 0" result="hardAlpha"/>
<feOffset dy="4"/>
<feGaussianBlur stdDeviation="5"/>
<feComposite in2="hardAlpha" operator="out"/>
<feColorMatrix type="matrix" values="0 0 0 0 0 0 0 0 0 0 0 0 0 0 0 0 0 0 0.25 0"/>
<feBlend mode="normal" in2="BackgroundImageFix" result="effect1_dropShadow_654_14"/>
<feBlend mode="normal" in="SourceGraphic" in2="effect1_dropShadow_654_14" result="shape"/>
</filter>
</defs>
</svg>
