<svg width="265" height="87" viewBox="0 0 265 87" fill="none" xmlns="http://www.w3.org/2000/svg">
<g filter="url(#filter0_d_654_16)">
<path d="M10 6H253C254.105 6 255 6.89543 255 8V71C255 72.1046 254.105 73 253 73H10V6Z" fill="#F95700"/>
</g>
<path d="M10 73L22 85V73H10Z" fill="#B74203"/>
<path d="M51.1378 36V22.9091H56.3793C57.3423 22.9091 58.1456 23.0518 58.7891 23.3374C59.4325 23.6229 59.9162 24.0192 60.2401 24.5263C60.5639 25.0291 60.7259 25.6087 60.7259 26.2649C60.7259 26.7763 60.6236 27.2259 60.419 27.6136C60.2145 27.9972 59.9332 28.3125 59.5753 28.5597C59.2216 28.8026 58.8168 28.9751 58.3608 29.0774V29.2053C58.8594 29.2266 59.326 29.3672 59.7607 29.6271C60.1996 29.8871 60.5554 30.2514 60.8281 30.7202C61.1009 31.1847 61.2372 31.7386 61.2372 32.3821C61.2372 33.0767 61.0646 33.6967 60.7195 34.2422C60.3786 34.7834 59.8736 35.2116 59.2045 35.527C58.5355 35.8423 57.7109 36 56.7308 36H51.1378ZM53.9055 33.7372H56.1619C56.9332 33.7372 57.4957 33.5902 57.8494 33.2962C58.2031 32.9979 58.38 32.6016 58.38 32.1072C58.38 31.745 58.2926 31.4254 58.1179 31.1484C57.9432 30.8714 57.6939 30.6541 57.37 30.4964C57.0504 30.3388 56.669 30.2599 56.2259 30.2599H53.9055V33.7372ZM53.9055 28.3871H55.9574C56.3366 28.3871 56.6733 28.321 56.9673 28.1889C57.2656 28.0526 57.5 27.8608 57.6705 27.6136C57.8452 27.3665 57.9325 27.0703 57.9325 26.7251C57.9325 26.2521 57.7642 25.8707 57.4276 25.581C57.0952 25.2912 56.6222 25.1463 56.0085 25.1463H53.9055V28.3871ZM67.4231 36.1918C66.4302 36.1918 65.5716 35.9808 64.8471 35.5589C64.127 35.1328 63.5708 34.5405 63.1788 33.782C62.7868 33.0192 62.5907 32.1349 62.5907 31.1293C62.5907 30.1151 62.7868 29.2287 63.1788 28.4702C63.5708 27.7074 64.127 27.1151 64.8471 26.6932C65.5716 26.267 66.4302 26.054 67.4231 26.054C68.416 26.054 69.2725 26.267 69.9927 26.6932C70.7172 27.1151 71.2754 27.7074 71.6674 28.4702C72.0595 29.2287 72.2555 30.1151 72.2555 31.1293C72.2555 32.1349 72.0595 33.0192 71.6674 33.782C71.2754 34.5405 70.7172 35.1328 69.9927 35.5589C69.2725 35.9808 68.416 36.1918 67.4231 36.1918ZM67.4359 34.0824C67.8876 34.0824 68.2647 33.9545 68.5673 33.6989C68.8699 33.4389 69.0978 33.0852 69.2512 32.6378C69.4089 32.1903 69.4877 31.6811 69.4877 31.1101C69.4877 30.5391 69.4089 30.0298 69.2512 29.5824C69.0978 29.1349 68.8699 28.7812 68.5673 28.5213C68.2647 28.2614 67.8876 28.1314 67.4359 28.1314C66.9799 28.1314 66.5964 28.2614 66.2853 28.5213C65.9785 28.7812 65.7463 29.1349 65.5886 29.5824C65.4352 30.0298 65.3585 30.5391 65.3585 31.1101C65.3585 31.6811 65.4352 32.1903 65.5886 32.6378C65.7463 33.0852 65.9785 33.4389 66.2853 33.6989C66.5964 33.9545 66.9799 34.0824 67.4359 34.0824ZM76.7491 30.3239V36H74.0261V26.1818H76.6213V27.9141H76.7363C76.9537 27.343 77.318 26.8913 77.8294 26.5589C78.3407 26.2223 78.9608 26.054 79.6895 26.054C80.3713 26.054 80.9657 26.2031 81.4728 26.5014C81.9799 26.7997 82.3741 27.2259 82.6554 27.7798C82.9366 28.3295 83.0772 28.9858 83.0772 29.7486V36H80.3542V30.2344C80.3585 29.6335 80.2051 29.1648 79.894 28.8281C79.5829 28.4872 79.1547 28.3168 78.6092 28.3168C78.2427 28.3168 77.9189 28.3956 77.6376 28.5533C77.3606 28.7109 77.1433 28.9411 76.9856 29.2436C76.8322 29.5419 76.7534 29.902 76.7491 30.3239ZM91.5195 31.8196V26.1818H94.2425V36H91.6282V34.2166H91.5259C91.3043 34.7919 90.9357 35.2543 90.4201 35.6037C89.9087 35.9531 89.2844 36.1278 88.5472 36.1278C87.891 36.1278 87.3136 35.9787 86.815 35.6804C86.3164 35.3821 85.9265 34.9581 85.6452 34.4084C85.3683 33.8587 85.2276 33.2003 85.2234 32.4332V26.1818H87.9464V31.9474C87.9506 32.527 88.1062 32.9851 88.413 33.3217C88.7198 33.6584 89.131 33.8267 89.6467 33.8267C89.9748 33.8267 90.2816 33.7521 90.5671 33.603C90.8526 33.4496 91.0827 33.2237 91.2575 32.9254C91.4364 32.6271 91.5238 32.2585 91.5195 31.8196ZM104.59 28.9815L102.097 29.1349C102.054 28.9219 101.963 28.7301 101.822 28.5597C101.681 28.3849 101.496 28.2464 101.266 28.1442C101.04 28.0376 100.769 27.9844 100.454 27.9844C100.032 27.9844 99.6763 28.0739 99.3865 28.2528C99.0968 28.4276 98.9519 28.6619 98.9519 28.956C98.9519 29.1903 99.0456 29.3885 99.2331 29.5504C99.4206 29.7124 99.7424 29.8423 100.198 29.9403L101.975 30.2983C102.93 30.4943 103.642 30.8097 104.11 31.2443C104.579 31.679 104.813 32.25 104.813 32.9574C104.813 33.6009 104.624 34.1655 104.244 34.6513C103.869 35.1371 103.354 35.5163 102.698 35.7891C102.046 36.0575 101.294 36.1918 100.441 36.1918C99.1415 36.1918 98.106 35.9212 97.3347 35.38C96.5676 34.8345 96.1181 34.093 95.986 33.1555L98.6642 33.0149C98.7452 33.4112 98.9412 33.7138 99.2523 33.9226C99.5634 34.1271 99.9618 34.2294 100.448 34.2294C100.925 34.2294 101.308 34.1378 101.598 33.9545C101.892 33.767 102.041 33.5263 102.046 33.2322C102.041 32.9851 101.937 32.7827 101.732 32.625C101.528 32.4631 101.213 32.3395 100.786 32.2543L99.0861 31.9155C98.1273 31.7237 97.4135 31.3913 96.9448 30.9183C96.4803 30.4453 96.248 29.8423 96.248 29.1094C96.248 28.4787 96.4185 27.9354 96.7594 27.4794C97.1046 27.0234 97.5882 26.6719 98.2104 26.4247C98.8368 26.1776 99.5698 26.054 100.409 26.054C101.649 26.054 102.625 26.3161 103.337 26.8402C104.053 27.3643 104.47 28.0781 104.59 28.9815ZM115.654 36L117.802 22.9091H119.847L117.7 36H115.654ZM109.793 32.7528L110.132 30.7074H120.359L120.02 32.7528H109.793ZM111.052 36L113.2 22.9091H115.245L113.097 36H111.052ZM110.541 28.2017L110.886 26.1562H121.113L120.768 28.2017H110.541ZM127.197 36.179C126.242 36.179 125.392 36.0149 124.646 35.6868C123.905 35.3544 123.319 34.8984 122.888 34.3189C122.462 33.7351 122.243 33.0618 122.23 32.299H125.017C125.034 32.6186 125.138 32.8999 125.33 33.1428C125.526 33.3814 125.786 33.5668 126.11 33.6989C126.434 33.831 126.798 33.897 127.203 33.897C127.625 33.897 127.998 33.8224 128.322 33.6733C128.646 33.5241 128.899 33.3175 129.082 33.0533C129.266 32.7891 129.357 32.4844 129.357 32.1392C129.357 31.7898 129.259 31.4808 129.063 31.2124C128.871 30.9396 128.594 30.7266 128.232 30.5732C127.874 30.4197 127.448 30.343 126.954 30.343H125.733V28.3104H126.954C127.371 28.3104 127.74 28.2379 128.06 28.093C128.384 27.9482 128.635 27.7479 128.814 27.4922C128.993 27.2322 129.082 26.9297 129.082 26.5845C129.082 26.2564 129.004 25.9688 128.846 25.7216C128.692 25.4702 128.475 25.2741 128.194 25.1335C127.917 24.9929 127.593 24.9226 127.222 24.9226C126.847 24.9226 126.504 24.9908 126.193 25.1271C125.882 25.2592 125.633 25.4489 125.445 25.696C125.258 25.9432 125.158 26.233 125.145 26.5653H122.492C122.505 25.8111 122.72 25.1463 123.138 24.571C123.555 23.9957 124.118 23.5462 124.825 23.2223C125.537 22.8942 126.34 22.7301 127.235 22.7301C128.138 22.7301 128.929 22.8942 129.607 23.2223C130.284 23.5504 130.81 23.9936 131.185 24.5518C131.565 25.1058 131.752 25.728 131.748 26.4183C131.752 27.1513 131.524 27.7628 131.064 28.2528C130.608 28.7429 130.013 29.054 129.281 29.1861V29.2884C130.244 29.4119 130.977 29.7464 131.479 30.2919C131.987 30.8331 132.238 31.5107 132.234 32.3246C132.238 33.0703 132.023 33.733 131.588 34.3125C131.158 34.892 130.563 35.348 129.805 35.6804C129.046 36.0128 128.177 36.179 127.197 36.179ZM135.84 34.4787C135.419 34.4787 135.056 34.3295 134.754 34.0312C134.455 33.733 134.306 33.3707 134.306 32.9446C134.306 32.527 134.455 32.169 134.754 31.8707C135.056 31.5724 135.419 31.4233 135.84 31.4233C136.249 31.4233 136.607 31.5724 136.914 31.8707C137.221 32.169 137.374 32.527 137.374 32.9446C137.374 33.2259 137.302 33.4837 137.157 33.718C137.017 33.9482 136.831 34.1335 136.601 34.2741C136.371 34.4105 136.117 34.4787 135.84 34.4787ZM135.84 28.0547C135.419 28.0547 135.056 27.9055 134.754 27.6072C134.455 27.3089 134.306 26.9467 134.306 26.5206C134.306 26.103 134.455 25.7472 134.754 25.4531C135.056 25.1548 135.419 25.0057 135.84 25.0057C136.249 25.0057 136.607 25.1548 136.914 25.4531C137.221 25.7472 137.374 26.103 137.374 26.5206C137.374 26.8061 137.302 27.0661 137.157 27.3004C137.017 27.5305 136.831 27.7138 136.601 27.8501C136.371 27.9865 136.117 28.0547 135.84 28.0547ZM143.827 36V22.9091H148.992C149.985 22.9091 150.831 23.0987 151.53 23.478C152.229 23.853 152.761 24.375 153.128 25.044C153.498 25.7088 153.684 26.4759 153.684 27.3452C153.684 28.2145 153.496 28.9815 153.121 29.6463C152.746 30.3111 152.203 30.8288 151.491 31.1996C150.784 31.5703 149.927 31.7557 148.922 31.7557H145.63V29.5376H148.474C149.007 29.5376 149.446 29.446 149.791 29.2628C150.14 29.0753 150.4 28.8175 150.571 28.4893C150.746 28.157 150.833 27.7756 150.833 27.3452C150.833 26.9105 150.746 26.5312 150.571 26.2074C150.4 25.8793 150.14 25.6257 149.791 25.4467C149.442 25.2635 148.998 25.1719 148.461 25.1719H146.595V36H143.827ZM155.43 36V26.1818H158.07V27.8949H158.173C158.352 27.2855 158.652 26.8253 159.074 26.5142C159.496 26.1989 159.982 26.0412 160.531 26.0412C160.668 26.0412 160.815 26.0497 160.972 26.0668C161.13 26.0838 161.268 26.1072 161.388 26.1371V28.5533C161.26 28.5149 161.083 28.4808 160.857 28.451C160.631 28.4212 160.425 28.4062 160.237 28.4062C159.837 28.4062 159.479 28.4936 159.163 28.6683C158.852 28.8388 158.605 29.0774 158.422 29.3842C158.243 29.6911 158.153 30.0447 158.153 30.4453V36H155.43ZM162.796 36V26.1818H165.519V36H162.796ZM164.164 24.9162C163.759 24.9162 163.411 24.782 163.122 24.5135C162.836 24.2408 162.693 23.9148 162.693 23.5355C162.693 23.1605 162.836 22.8388 163.122 22.5703C163.411 22.2976 163.759 22.1612 164.164 22.1612C164.568 22.1612 164.914 22.2976 165.199 22.5703C165.489 22.8388 165.634 23.1605 165.634 23.5355C165.634 23.9148 165.489 24.2408 165.199 24.5135C164.914 24.782 164.568 24.9162 164.164 24.9162ZM176.853 26.1818L173.421 36H170.353L166.92 26.1818H169.797L171.836 33.2067H171.938L173.971 26.1818H176.853ZM180.783 36.1854C180.156 36.1854 179.598 36.0767 179.108 35.8594C178.618 35.6378 178.23 35.3118 177.945 34.8814C177.664 34.4467 177.523 33.9055 177.523 33.2578C177.523 32.7124 177.623 32.2543 177.823 31.8835C178.024 31.5128 178.296 31.2145 178.642 30.9886C178.987 30.7628 179.379 30.5923 179.818 30.4773C180.261 30.3622 180.725 30.2812 181.211 30.2344C181.782 30.1747 182.242 30.1193 182.592 30.0682C182.941 30.0128 183.195 29.9318 183.352 29.8253C183.51 29.7187 183.589 29.5611 183.589 29.3523V29.3139C183.589 28.9091 183.461 28.5959 183.205 28.3743C182.954 28.1527 182.596 28.0419 182.132 28.0419C181.642 28.0419 181.252 28.1506 180.962 28.3679C180.672 28.581 180.48 28.8494 180.387 29.1733L177.868 28.9688C177.996 28.3722 178.247 27.8565 178.622 27.4219C178.997 26.983 179.481 26.6463 180.073 26.4119C180.67 26.1733 181.36 26.054 182.144 26.054C182.69 26.054 183.212 26.1179 183.71 26.2457C184.213 26.3736 184.659 26.5717 185.046 26.8402C185.438 27.1087 185.747 27.4538 185.973 27.8757C186.199 28.2933 186.312 28.794 186.312 29.3778V36H183.73V34.6385H183.653C183.495 34.9453 183.284 35.2159 183.02 35.4503C182.756 35.6804 182.438 35.8615 182.068 35.9936C181.697 36.1214 181.269 36.1854 180.783 36.1854ZM181.563 34.3061C181.963 34.3061 182.317 34.2273 182.624 34.0696C182.931 33.9077 183.171 33.6903 183.346 33.4176C183.521 33.1449 183.608 32.8359 183.608 32.4908V31.4489C183.523 31.5043 183.406 31.5554 183.257 31.6023C183.112 31.6449 182.948 31.6854 182.764 31.7237C182.581 31.7578 182.398 31.7898 182.215 31.8196C182.031 31.8452 181.865 31.8686 181.716 31.8899C181.396 31.9368 181.117 32.0114 180.879 32.1136C180.64 32.2159 180.455 32.3544 180.323 32.5291C180.191 32.6996 180.124 32.9126 180.124 33.1683C180.124 33.5391 180.259 33.8224 180.527 34.0185C180.8 34.2102 181.145 34.3061 181.563 34.3061ZM193.647 26.1818V28.2273H187.734V26.1818H193.647ZM189.077 23.8295H191.8V32.983C191.8 33.2344 191.838 33.4304 191.915 33.571C191.991 33.7074 192.098 33.8033 192.234 33.8587C192.375 33.9141 192.537 33.9418 192.72 33.9418C192.848 33.9418 192.976 33.9311 193.104 33.9098C193.231 33.8842 193.329 33.8651 193.398 33.8523L193.826 35.8786C193.689 35.9212 193.498 35.9702 193.251 36.0256C193.003 36.0852 192.703 36.1214 192.349 36.1342C191.693 36.1598 191.118 36.0724 190.623 35.8722C190.133 35.6719 189.752 35.3608 189.479 34.9389C189.206 34.517 189.072 33.9844 189.077 33.3409V23.8295ZM199.79 36.1918C198.78 36.1918 197.91 35.9872 197.182 35.5781C196.457 35.1648 195.899 34.581 195.507 33.8267C195.115 33.0682 194.919 32.1712 194.919 31.1357C194.919 30.1257 195.115 29.2393 195.507 28.4766C195.899 27.7138 196.451 27.1193 197.162 26.6932C197.878 26.267 198.718 26.054 199.681 26.054C200.329 26.054 200.932 26.1584 201.49 26.3672C202.052 26.5717 202.542 26.8807 202.96 27.294C203.382 27.7074 203.71 28.2273 203.944 28.8537C204.179 29.4759 204.296 30.2045 204.296 31.0398V31.7876H196.006V30.1001H201.733C201.733 29.7081 201.648 29.3608 201.477 29.0582C201.307 28.7557 201.07 28.5192 200.768 28.3487C200.469 28.174 200.122 28.0866 199.726 28.0866C199.312 28.0866 198.946 28.1825 198.626 28.3743C198.311 28.5618 198.064 28.8153 197.885 29.1349C197.706 29.4503 197.614 29.8018 197.61 30.1896V31.794C197.61 32.2798 197.699 32.6996 197.878 33.0533C198.062 33.407 198.319 33.6797 198.652 33.8714C198.984 34.0632 199.378 34.1591 199.834 34.1591C200.137 34.1591 200.414 34.1165 200.665 34.0312C200.917 33.946 201.132 33.8182 201.311 33.6477C201.49 33.4773 201.626 33.2685 201.72 33.0213L204.238 33.1875C204.111 33.7926 203.849 34.321 203.452 34.7727C203.06 35.2202 202.553 35.5696 201.931 35.821C201.313 36.0682 200.599 36.1918 199.79 36.1918ZM62.6882 49.4922H59.8885C59.8374 49.13 59.733 48.8082 59.5753 48.527C59.4176 48.2415 59.2152 47.9986 58.968 47.7983C58.7209 47.598 58.4354 47.4446 58.1115 47.3381C57.7919 47.2315 57.4446 47.1783 57.0696 47.1783C56.392 47.1783 55.8018 47.3466 55.299 47.6832C54.7962 48.0156 54.4063 48.5014 54.1293 49.1406C53.8523 49.7756 53.7138 50.5469 53.7138 51.4545C53.7138 52.3878 53.8523 53.1719 54.1293 53.8068C54.4105 54.4418 54.8026 54.9212 55.3054 55.245C55.8082 55.5689 56.3899 55.7308 57.0504 55.7308C57.4212 55.7308 57.7642 55.6818 58.0795 55.5838C58.3991 55.4858 58.6825 55.343 58.9297 55.1555C59.1768 54.9638 59.3814 54.7315 59.5433 54.4588C59.7095 54.1861 59.8246 53.875 59.8885 53.5256L62.6882 53.5384C62.6158 54.1392 62.4347 54.7188 62.1449 55.277C61.8594 55.831 61.4737 56.3274 60.9879 56.7663C60.5064 57.201 59.9311 57.5462 59.2621 57.8018C58.5973 58.0533 57.8452 58.179 57.0057 58.179C55.8381 58.179 54.794 57.9148 53.8736 57.3864C52.9574 56.858 52.233 56.093 51.7003 55.0916C51.1719 54.0902 50.9077 52.8778 50.9077 51.4545C50.9077 50.027 51.1761 48.8125 51.7131 47.8111C52.25 46.8097 52.9787 46.0469 53.8991 45.5227C54.8196 44.9943 55.8551 44.7301 57.0057 44.7301C57.7642 44.7301 58.4673 44.8366 59.1151 45.0497C59.767 45.2628 60.3445 45.5739 60.8473 45.983C61.3501 46.3878 61.7592 46.8842 62.0746 47.4723C62.3942 48.0604 62.5987 48.7337 62.6882 49.4922ZM69.0579 58.1918C68.065 58.1918 67.2063 57.9808 66.4819 57.5589C65.7617 57.1328 65.2056 56.5405 64.8136 55.782C64.4215 55.0192 64.2255 54.1349 64.2255 53.1293C64.2255 52.1151 64.4215 51.2287 64.8136 50.4702C65.2056 49.7074 65.7617 49.1151 66.4819 48.6932C67.2063 48.267 68.065 48.054 69.0579 48.054C70.0508 48.054 70.9073 48.267 71.6275 48.6932C72.3519 49.1151 72.9102 49.7074 73.3022 50.4702C73.6942 51.2287 73.8903 52.1151 73.8903 53.1293C73.8903 54.1349 73.6942 55.0192 73.3022 55.782C72.9102 56.5405 72.3519 57.1328 71.6275 57.5589C70.9073 57.9808 70.0508 58.1918 69.0579 58.1918ZM69.0707 56.0824C69.5224 56.0824 69.8995 55.9545 70.2021 55.6989C70.5046 55.4389 70.7326 55.0852 70.886 54.6378C71.0437 54.1903 71.1225 53.6811 71.1225 53.1101C71.1225 52.5391 71.0437 52.0298 70.886 51.5824C70.7326 51.1349 70.5046 50.7812 70.2021 50.5213C69.8995 50.2614 69.5224 50.1314 69.0707 50.1314C68.6147 50.1314 68.2312 50.2614 67.9201 50.5213C67.6133 50.7812 67.381 51.1349 67.2234 51.5824C67.07 52.0298 66.9933 52.5391 66.9933 53.1101C66.9933 53.6811 67.07 54.1903 67.2234 54.6378C67.381 55.0852 67.6133 55.4389 67.9201 55.6989C68.2312 55.9545 68.6147 56.0824 69.0707 56.0824ZM75.6609 58V48.1818H78.256V49.9141H78.3711C78.5756 49.3388 78.9165 48.8849 79.3938 48.5526C79.8711 48.2202 80.4421 48.054 81.1069 48.054C81.7802 48.054 82.3533 48.2223 82.8263 48.5589C83.2994 48.8913 83.6147 49.343 83.7724 49.9141H83.8746C84.0749 49.3516 84.4371 48.902 84.9613 48.5653C85.4897 48.2244 86.114 48.054 86.8342 48.054C87.7504 48.054 88.494 48.3459 89.065 48.9297C89.6403 49.5092 89.9279 50.3317 89.9279 51.397V58H87.2113V51.9339C87.2113 51.3885 87.0664 50.9794 86.7766 50.7067C86.4869 50.4339 86.1246 50.2976 85.69 50.2976C85.1957 50.2976 84.81 50.4553 84.533 50.7706C84.256 51.0817 84.1175 51.4929 84.1175 52.0043V58H81.4776V51.8764C81.4776 51.3949 81.3391 51.0114 81.0621 50.7259C80.7894 50.4403 80.4293 50.2976 79.9819 50.2976C79.6793 50.2976 79.4066 50.3743 79.1637 50.5277C78.9251 50.6768 78.7354 50.8878 78.5948 51.1605C78.4542 51.429 78.3839 51.7443 78.3839 52.1065V58H75.6609ZM92.0788 58V48.1818H94.674V49.9141H94.7891C94.9936 49.3388 95.3345 48.8849 95.8118 48.5526C96.2891 48.2202 96.8601 48.054 97.5249 48.054C98.1982 48.054 98.7713 48.2223 99.2443 48.5589C99.7173 48.8913 100.033 49.343 100.19 49.9141H100.293C100.493 49.3516 100.855 48.902 101.379 48.5653C101.908 48.2244 102.532 48.054 103.252 48.054C104.168 48.054 104.912 48.3459 105.483 48.9297C106.058 49.5092 106.346 50.3317 106.346 51.397V58H103.629V51.9339C103.629 51.3885 103.484 50.9794 103.195 50.7067C102.905 50.4339 102.543 50.2976 102.108 50.2976C101.614 50.2976 101.228 50.4553 100.951 50.7706C100.674 51.0817 100.536 51.4929 100.536 52.0043V58H97.8956V51.8764C97.8956 51.3949 97.7571 51.0114 97.4801 50.7259C97.2074 50.4403 96.8473 50.2976 96.3999 50.2976C96.0973 50.2976 95.8246 50.3743 95.5817 50.5277C95.343 50.6768 95.1534 50.8878 95.0128 51.1605C94.8722 51.429 94.8018 51.7443 94.8018 52.1065V58H92.0788ZM114.793 53.8196V48.1818H117.516V58H114.902V56.2166H114.799C114.578 56.7919 114.209 57.2543 113.694 57.6037C113.182 57.9531 112.558 58.1278 111.821 58.1278C111.164 58.1278 110.587 57.9787 110.088 57.6804C109.59 57.3821 109.2 56.9581 108.919 56.4084C108.642 55.8587 108.501 55.2003 108.497 54.4332V48.1818H111.22V53.9474C111.224 54.527 111.38 54.9851 111.686 55.3217C111.993 55.6584 112.404 55.8267 112.92 55.8267C113.248 55.8267 113.555 55.7521 113.841 55.603C114.126 55.4496 114.356 55.2237 114.531 54.9254C114.71 54.6271 114.797 54.2585 114.793 53.8196ZM122.417 52.3239V58H119.694V48.1818H122.289V49.9141H122.404C122.622 49.343 122.986 48.8913 123.497 48.5589C124.009 48.2223 124.629 48.054 125.357 48.054C126.039 48.054 126.634 48.2031 127.141 48.5014C127.648 48.7997 128.042 49.2259 128.323 49.7798C128.605 50.3295 128.745 50.9858 128.745 51.7486V58H126.022V52.2344C126.026 51.6335 125.873 51.1648 125.562 50.8281C125.251 50.4872 124.823 50.3168 124.277 50.3168C123.911 50.3168 123.587 50.3956 123.306 50.5533C123.029 50.7109 122.811 50.9411 122.654 51.2436C122.5 51.5419 122.421 51.902 122.417 52.3239ZM130.891 58V48.1818H133.614V58H130.891ZM132.259 46.9162C131.854 46.9162 131.507 46.782 131.217 46.5135C130.932 46.2408 130.789 45.9148 130.789 45.5355C130.789 45.1605 130.932 44.8388 131.217 44.5703C131.507 44.2976 131.854 44.1612 132.259 44.1612C132.664 44.1612 133.009 44.2976 133.295 44.5703C133.585 44.8388 133.729 45.1605 133.729 45.5355C133.729 45.9148 133.585 46.2408 133.295 46.5135C133.009 46.782 132.664 46.9162 132.259 46.9162ZM141.018 48.1818V50.2273H135.105V48.1818H141.018ZM136.448 45.8295H139.171V54.983C139.171 55.2344 139.209 55.4304 139.286 55.571C139.362 55.7074 139.469 55.8033 139.605 55.8587C139.746 55.9141 139.908 55.9418 140.091 55.9418C140.219 55.9418 140.347 55.9311 140.475 55.9098C140.602 55.8842 140.7 55.8651 140.769 55.8523L141.197 57.8786C141.061 57.9212 140.869 57.9702 140.622 58.0256C140.374 58.0852 140.074 58.1214 139.72 58.1342C139.064 58.1598 138.489 58.0724 137.994 57.8722C137.504 57.6719 137.123 57.3608 136.85 56.9389C136.578 56.517 136.443 55.9844 136.448 55.3409V45.8295ZM144.473 61.6818C144.128 61.6818 143.804 61.6541 143.501 61.5987C143.203 61.5476 142.956 61.4815 142.76 61.4006L143.373 59.3679C143.693 59.4659 143.981 59.5192 144.236 59.5277C144.496 59.5362 144.72 59.4766 144.907 59.3487C145.099 59.2209 145.255 59.0036 145.374 58.6967L145.534 58.2812L142.012 48.1818H144.876L146.908 55.392H147.01L149.062 48.1818H151.945L148.129 59.0611C147.946 59.5895 147.697 60.0497 147.381 60.4418C147.07 60.8381 146.676 61.1428 146.199 61.3558C145.721 61.5732 145.146 61.6818 144.473 61.6818ZM159.812 58H156.846L161.365 44.9091H164.932L169.445 58H166.479L163.2 47.9006H163.098L159.812 58ZM159.627 52.8544H166.632V55.0149H159.627V52.8544ZM174.949 58.1918C173.943 58.1918 173.078 57.9787 172.353 57.5526C171.633 57.1222 171.079 56.5256 170.691 55.7628C170.308 55 170.116 54.1222 170.116 53.1293C170.116 52.1236 170.31 51.2415 170.698 50.483C171.09 49.7202 171.646 49.1257 172.366 48.6996C173.086 48.2692 173.943 48.054 174.936 48.054C175.792 48.054 176.542 48.2095 177.186 48.5206C177.829 48.8317 178.338 49.2685 178.713 49.831C179.088 50.3935 179.295 51.054 179.333 51.8125H176.764C176.691 51.3224 176.5 50.9283 176.189 50.63C175.882 50.3274 175.479 50.1761 174.98 50.1761C174.559 50.1761 174.19 50.2912 173.875 50.5213C173.564 50.7472 173.321 51.0774 173.146 51.5121C172.971 51.9467 172.884 52.473 172.884 53.0909C172.884 53.7173 172.969 54.25 173.14 54.6889C173.314 55.1278 173.559 55.4624 173.875 55.6925C174.19 55.9226 174.559 56.0376 174.98 56.0376C175.292 56.0376 175.571 55.9737 175.818 55.8459C176.069 55.718 176.276 55.5327 176.438 55.2898C176.604 55.0426 176.713 54.7464 176.764 54.4013H179.333C179.291 55.1513 179.086 55.8118 178.72 56.3828C178.358 56.9496 177.857 57.3928 177.218 57.7124C176.578 58.032 175.822 58.1918 174.949 58.1918ZM185.513 58.1918C184.507 58.1918 183.642 57.9787 182.918 57.5526C182.198 57.1222 181.644 56.5256 181.256 55.7628C180.872 55 180.681 54.1222 180.681 53.1293C180.681 52.1236 180.874 51.2415 181.262 50.483C181.654 49.7202 182.21 49.1257 182.931 48.6996C183.651 48.2692 184.507 48.054 185.5 48.054C186.357 48.054 187.107 48.2095 187.75 48.5206C188.394 48.8317 188.903 49.2685 189.278 49.831C189.653 50.3935 189.86 51.054 189.898 51.8125H187.328C187.256 51.3224 187.064 50.9283 186.753 50.63C186.446 50.3274 186.044 50.1761 185.545 50.1761C185.123 50.1761 184.754 50.2912 184.439 50.5213C184.128 50.7472 183.885 51.0774 183.71 51.5121C183.536 51.9467 183.448 52.473 183.448 53.0909C183.448 53.7173 183.534 54.25 183.704 54.6889C183.879 55.1278 184.124 55.4624 184.439 55.6925C184.754 55.9226 185.123 56.0376 185.545 56.0376C185.856 56.0376 186.135 55.9737 186.382 55.8459C186.634 55.718 186.84 55.5327 187.002 55.2898C187.169 55.0426 187.277 54.7464 187.328 54.4013H189.898C189.855 55.1513 189.651 55.8118 189.284 56.3828C188.922 56.9496 188.421 57.3928 187.782 57.7124C187.143 58.032 186.387 58.1918 185.513 58.1918ZM196.116 58.1918C195.106 58.1918 194.237 57.9872 193.508 57.5781C192.783 57.1648 192.225 56.581 191.833 55.8267C191.441 55.0682 191.245 54.1712 191.245 53.1357C191.245 52.1257 191.441 51.2393 191.833 50.4766C192.225 49.7138 192.777 49.1193 193.489 48.6932C194.205 48.267 195.044 48.054 196.007 48.054C196.655 48.054 197.258 48.1584 197.816 48.3672C198.379 48.5717 198.869 48.8807 199.286 49.294C199.708 49.7074 200.036 50.2273 200.271 50.8537C200.505 51.4759 200.622 52.2045 200.622 53.0398V53.7876H192.332V52.1001H198.059C198.059 51.7081 197.974 51.3608 197.803 51.0582C197.633 50.7557 197.396 50.5192 197.094 50.3487C196.795 50.174 196.448 50.0866 196.052 50.0866C195.638 50.0866 195.272 50.1825 194.952 50.3743C194.637 50.5618 194.39 50.8153 194.211 51.1349C194.032 51.4503 193.94 51.8018 193.936 52.1896V53.794C193.936 54.2798 194.026 54.6996 194.205 55.0533C194.388 55.407 194.646 55.6797 194.978 55.8714C195.31 56.0632 195.705 56.1591 196.161 56.1591C196.463 56.1591 196.74 56.1165 196.991 56.0312C197.243 55.946 197.458 55.8182 197.637 55.6477C197.816 55.4773 197.952 55.2685 198.046 55.0213L200.565 55.1875C200.437 55.7926 200.175 56.321 199.778 56.7727C199.386 57.2202 198.879 57.5696 198.257 57.821C197.639 58.0682 196.925 58.1918 196.116 58.1918ZM210.568 50.9815L208.075 51.1349C208.033 50.9219 207.941 50.7301 207.8 50.5597C207.66 50.3849 207.474 50.2464 207.244 50.1442C207.018 50.0376 206.748 49.9844 206.433 49.9844C206.011 49.9844 205.655 50.0739 205.365 50.2528C205.075 50.4276 204.93 50.6619 204.93 50.956C204.93 51.1903 205.024 51.3885 205.212 51.5504C205.399 51.7124 205.721 51.8423 206.177 51.9403L207.954 52.2983C208.908 52.4943 209.62 52.8097 210.089 53.2443C210.558 53.679 210.792 54.25 210.792 54.9574C210.792 55.6009 210.602 56.1655 210.223 56.6513C209.848 57.1371 209.332 57.5163 208.676 57.7891C208.024 58.0575 207.272 58.1918 206.42 58.1918C205.12 58.1918 204.085 57.9212 203.313 57.38C202.546 56.8345 202.097 56.093 201.964 55.1555L204.643 55.0149C204.724 55.4112 204.92 55.7138 205.231 55.9226C205.542 56.1271 205.94 56.2294 206.426 56.2294C206.903 56.2294 207.287 56.1378 207.577 55.9545C207.871 55.767 208.02 55.5263 208.024 55.2322C208.02 54.9851 207.915 54.7827 207.711 54.625C207.506 54.4631 207.191 54.3395 206.765 54.2543L205.065 53.9155C204.106 53.7237 203.392 53.3913 202.923 52.9183C202.459 52.4453 202.227 51.8423 202.227 51.1094C202.227 50.4787 202.397 49.9354 202.738 49.4794C203.083 49.0234 203.567 48.6719 204.189 48.4247C204.815 48.1776 205.548 48.054 206.388 48.054C207.628 48.054 208.604 48.3161 209.315 48.8402C210.031 49.3643 210.449 50.0781 210.568 50.9815ZM220.676 50.9815L218.183 51.1349C218.14 50.9219 218.048 50.7301 217.908 50.5597C217.767 50.3849 217.582 50.2464 217.352 50.1442C217.126 50.0376 216.855 49.9844 216.54 49.9844C216.118 49.9844 215.762 50.0739 215.472 50.2528C215.183 50.4276 215.038 50.6619 215.038 50.956C215.038 51.1903 215.132 51.3885 215.319 51.5504C215.507 51.7124 215.828 51.8423 216.284 51.9403L218.061 52.2983C219.016 52.4943 219.727 52.8097 220.196 53.2443C220.665 53.679 220.899 54.25 220.899 54.9574C220.899 55.6009 220.71 56.1655 220.33 56.6513C219.955 57.1371 219.44 57.5163 218.784 57.7891C218.132 58.0575 217.379 58.1918 216.527 58.1918C215.227 58.1918 214.192 57.9212 213.421 57.38C212.654 56.8345 212.204 56.093 212.072 55.1555L214.75 55.0149C214.831 55.4112 215.027 55.7138 215.338 55.9226C215.649 56.1271 216.048 56.2294 216.534 56.2294C217.011 56.2294 217.394 56.1378 217.684 55.9545C217.978 55.767 218.127 55.5263 218.132 55.2322C218.127 54.9851 218.023 54.7827 217.818 54.625C217.614 54.4631 217.298 54.3395 216.872 54.2543L215.172 53.9155C214.213 53.7237 213.499 53.3913 213.031 52.9183C212.566 52.4453 212.334 51.8423 212.334 51.1094C212.334 50.4787 212.504 49.9354 212.845 49.4794C213.191 49.0234 213.674 48.6719 214.296 48.4247C214.923 48.1776 215.656 48.054 216.495 48.054C217.735 48.054 218.711 48.3161 219.423 48.8402C220.139 49.3643 220.556 50.0781 220.676 50.9815Z" fill="white"/>
<defs>
<filter id="filter0_d_654_16" x="0" y="0" width="265" height="87" filterUnits="userSpaceOnUse" color-interpolation-filters="sRGB">
<feFlood flood-opacity="0" result="BackgroundImageFix"/>
<feColorMatrix in="SourceAlpha" type="matrix" values="0 0 0 0 0 0 0 0 0 0 0 0 0 0 0 0 0 0 127 0" result="hardAlpha"/>
<feOffset dy="4"/>
<feGaussianBlur stdDeviation="5"/>
<feComposite in2="hardAlpha" operator="out"/>
<feColorMatrix type="matrix" values="0 0 0 0 0 0 0 0 0 0 0 0 0 0 0 0 0 0 0.25 0"/>
<feBlend mode="normal" in2="BackgroundImageFix" result="effect1_dropShadow_654_16"/>
<feBlend mode="normal" in="SourceGraphic" in2="effect1_dropShadow_654_16" result="shape"/>
</filter>
</defs>
</svg>
