<svg width="523" height="43" viewBox="0 0 523 43" fill="none" xmlns="http://www.w3.org/2000/svg">
<g filter="url(#filter0_b_214_2027)">
<path d="M0 0H518C520.761 0 523 2.23858 523 5V38C523 40.7614 520.761 43 518 43H0V0Z" fill="#F95700"/>
</g>
<path d="M90.3906 28V12H96.7969C97.974 12 98.9557 12.1745 99.7422 12.5234C100.529 12.8724 101.12 13.3568 101.516 13.9766C101.911 14.5911 102.109 15.2995 102.109 16.1016C102.109 16.7266 101.984 17.276 101.734 17.75C101.484 18.2187 101.141 18.6042 100.703 18.9062C100.271 19.2031 99.776 19.4141 99.2188 19.5391V19.6953C99.8281 19.7214 100.398 19.8932 100.93 20.2109C101.466 20.5286 101.901 20.974 102.234 21.5469C102.568 22.1146 102.734 22.7917 102.734 23.5781C102.734 24.4271 102.523 25.1849 102.102 25.8516C101.685 26.513 101.068 27.0365 100.25 27.4219C99.4323 27.8073 98.4245 28 97.2266 28H90.3906ZM93.7734 25.2344H96.5313C97.474 25.2344 98.1615 25.0547 98.5938 24.6953C99.026 24.3307 99.2422 23.8464 99.2422 23.2422C99.2422 22.7995 99.1354 22.4089 98.9219 22.0703C98.7083 21.7318 98.4036 21.4661 98.0078 21.2734C97.6172 21.0807 97.151 20.9844 96.6094 20.9844H93.7734V25.2344ZM93.7734 18.6953H96.2812C96.7448 18.6953 97.1563 18.6146 97.5156 18.4531C97.8802 18.2865 98.1667 18.0521 98.375 17.75C98.5885 17.4479 98.6953 17.0859 98.6953 16.6641C98.6953 16.0859 98.4896 15.6198 98.0781 15.2656C97.6719 14.9115 97.0938 14.7344 96.3438 14.7344H93.7734V18.6953ZM110.295 28.2344C109.081 28.2344 108.032 27.9766 107.146 27.4609C106.266 26.9401 105.587 26.2161 105.107 25.2891C104.628 24.3568 104.389 23.276 104.389 22.0469C104.389 20.8073 104.628 19.724 105.107 18.7969C105.587 17.8646 106.266 17.1406 107.146 16.625C108.032 16.1042 109.081 15.8438 110.295 15.8438C111.508 15.8438 112.555 16.1042 113.436 16.625C114.321 17.1406 115.003 17.8646 115.482 18.7969C115.962 19.724 116.201 20.8073 116.201 22.0469C116.201 23.276 115.962 24.3568 115.482 25.2891C115.003 26.2161 114.321 26.9401 113.436 27.4609C112.555 27.9766 111.508 28.2344 110.295 28.2344ZM110.311 25.6562C110.863 25.6562 111.324 25.5 111.693 25.1875C112.063 24.8698 112.342 24.4375 112.529 23.8906C112.722 23.3437 112.818 22.7214 112.818 22.0234C112.818 21.3255 112.722 20.7031 112.529 20.1562C112.342 19.6094 112.063 19.1771 111.693 18.8594C111.324 18.5417 110.863 18.3828 110.311 18.3828C109.753 18.3828 109.285 18.5417 108.904 18.8594C108.529 19.1771 108.245 19.6094 108.053 20.1562C107.865 20.7031 107.771 21.3255 107.771 22.0234C107.771 22.7214 107.865 23.3437 108.053 23.8906C108.245 24.4375 108.529 24.8698 108.904 25.1875C109.285 25.5 109.753 25.6562 110.311 25.6562ZM121.693 21.0625V28H118.365V16H121.537V18.1172H121.678C121.943 17.4193 122.389 16.8672 123.014 16.4609C123.639 16.0495 124.396 15.8438 125.287 15.8438C126.12 15.8438 126.847 16.026 127.467 16.3906C128.087 16.7552 128.568 17.276 128.912 17.9531C129.256 18.625 129.428 19.4271 129.428 20.3594V28H126.1V20.9531C126.105 20.2187 125.917 19.6458 125.537 19.2344C125.157 18.8177 124.633 18.6094 123.967 18.6094C123.519 18.6094 123.123 18.7057 122.779 18.8984C122.441 19.0911 122.175 19.3724 121.982 19.7422C121.795 20.1068 121.699 20.5469 121.693 21.0625ZM139.746 22.8906V16H143.074V28H139.879V25.8203H139.754C139.483 26.5234 139.033 27.0885 138.402 27.5156C137.777 27.9427 137.014 28.1563 136.113 28.1563C135.311 28.1563 134.605 27.974 133.996 27.6094C133.387 27.2448 132.91 26.7266 132.566 26.0547C132.228 25.3828 132.056 24.5781 132.051 23.6406V16H135.379V23.0469C135.384 23.7552 135.574 24.3151 135.949 24.7266C136.324 25.138 136.827 25.3437 137.457 25.3437C137.858 25.3437 138.233 25.2526 138.582 25.0703C138.931 24.8828 139.212 24.6068 139.426 24.2422C139.645 23.8776 139.751 23.4271 139.746 22.8906ZM155.721 19.4219L152.674 19.6094C152.622 19.349 152.51 19.1146 152.338 18.9062C152.166 18.6927 151.939 18.5234 151.658 18.3984C151.382 18.2682 151.051 18.2031 150.666 18.2031C150.15 18.2031 149.715 18.3125 149.361 18.5312C149.007 18.7448 148.83 19.0312 148.83 19.3906C148.83 19.6771 148.945 19.9193 149.174 20.1172C149.403 20.3151 149.796 20.474 150.354 20.5937L152.525 21.0312C153.692 21.2708 154.562 21.6562 155.135 22.1875C155.708 22.7187 155.994 23.4167 155.994 24.2812C155.994 25.0677 155.762 25.7578 155.299 26.3516C154.84 26.9453 154.21 27.4089 153.408 27.7422C152.611 28.0703 151.692 28.2344 150.65 28.2344C149.062 28.2344 147.796 27.9036 146.854 27.2422C145.916 26.5755 145.367 25.6693 145.205 24.5234L148.479 24.3516C148.577 24.8359 148.817 25.2057 149.197 25.4609C149.577 25.7109 150.064 25.8359 150.658 25.8359C151.242 25.8359 151.71 25.724 152.064 25.5C152.424 25.2708 152.606 24.9766 152.611 24.6172C152.606 24.3151 152.479 24.0677 152.229 23.875C151.979 23.6771 151.593 23.526 151.072 23.4219L148.994 23.0078C147.822 22.7734 146.95 22.3672 146.377 21.7891C145.809 21.2109 145.525 20.474 145.525 19.5781C145.525 18.8073 145.734 18.1432 146.15 17.5859C146.572 17.0286 147.163 16.599 147.924 16.2969C148.689 15.9948 149.585 15.8438 150.611 15.8438C152.127 15.8438 153.32 16.1641 154.189 16.8047C155.064 17.4453 155.575 18.3177 155.721 19.4219ZM169.244 28L171.869 12H174.369L171.744 28H169.244ZM162.08 24.0312L162.494 21.5312H174.994L174.58 24.0312H162.08ZM163.619 28L166.244 12H168.744L166.119 28H163.619ZM162.994 18.4687L163.416 15.9688H175.916L175.494 18.4687H162.994ZM183.352 28.2187C182.185 28.2187 181.146 28.0182 180.234 27.6172C179.328 27.2109 178.612 26.6536 178.086 25.9453C177.565 25.2318 177.297 24.4089 177.281 23.4766H180.688C180.708 23.8672 180.836 24.2109 181.07 24.5078C181.31 24.7995 181.628 25.026 182.023 25.1875C182.419 25.349 182.865 25.4297 183.359 25.4297C183.875 25.4297 184.331 25.3385 184.727 25.1562C185.122 24.974 185.432 24.7214 185.656 24.3984C185.88 24.0755 185.992 23.7031 185.992 23.2812C185.992 22.8542 185.872 22.4766 185.633 22.1484C185.398 21.8151 185.06 21.5547 184.617 21.3672C184.18 21.1797 183.659 21.0859 183.055 21.0859H181.563V18.6016H183.055C183.565 18.6016 184.016 18.513 184.406 18.3359C184.802 18.1589 185.109 17.9141 185.328 17.6016C185.547 17.2839 185.656 16.9141 185.656 16.4922C185.656 16.0911 185.56 15.7396 185.367 15.4375C185.18 15.1302 184.914 14.8906 184.57 14.7187C184.232 14.5469 183.836 14.4609 183.383 14.4609C182.924 14.4609 182.505 14.5443 182.125 14.7109C181.745 14.8724 181.44 15.1042 181.211 15.4062C180.982 15.7083 180.859 16.0625 180.844 16.4687H177.602C177.617 15.5469 177.88 14.7344 178.391 14.0312C178.901 13.3281 179.589 12.7786 180.453 12.3828C181.323 11.9818 182.305 11.7812 183.398 11.7812C184.503 11.7812 185.469 11.9818 186.297 12.3828C187.125 12.7839 187.768 13.3255 188.227 14.0078C188.69 14.6849 188.919 15.4453 188.914 16.2891C188.919 17.1849 188.641 17.9323 188.078 18.5312C187.521 19.1302 186.794 19.5104 185.898 19.6719V19.7969C187.076 19.9479 187.971 20.3568 188.586 21.0234C189.206 21.6849 189.513 22.513 189.508 23.5078C189.513 24.4193 189.25 25.2292 188.719 25.9375C188.193 26.6458 187.466 27.2031 186.539 27.6094C185.612 28.0156 184.549 28.2187 183.352 28.2187ZM193.916 26.1406C193.4 26.1406 192.958 25.9583 192.588 25.5938C192.223 25.2292 192.041 24.7865 192.041 24.2656C192.041 23.7552 192.223 23.3177 192.588 22.9531C192.958 22.5885 193.4 22.4062 193.916 22.4062C194.416 22.4062 194.854 22.5885 195.229 22.9531C195.604 23.3177 195.791 23.7552 195.791 24.2656C195.791 24.6094 195.702 24.9245 195.525 25.2109C195.354 25.4922 195.127 25.7187 194.846 25.8906C194.564 26.0573 194.255 26.1406 193.916 26.1406ZM193.916 18.2891C193.4 18.2891 192.958 18.1068 192.588 17.7422C192.223 17.3776 192.041 16.9349 192.041 16.4141C192.041 15.9036 192.223 15.4687 192.588 15.1094C192.958 14.7448 193.4 14.5625 193.916 14.5625C194.416 14.5625 194.854 14.7448 195.229 15.1094C195.604 15.4687 195.791 15.9036 195.791 16.4141C195.791 16.763 195.702 17.0807 195.525 17.3672C195.354 17.6484 195.127 17.8724 194.846 18.0391C194.564 18.2057 194.255 18.2891 193.916 18.2891ZM203.678 28V12H209.99C211.204 12 212.238 12.2318 213.092 12.6953C213.946 13.1536 214.597 13.7917 215.045 14.6094C215.498 15.4219 215.725 16.3594 215.725 17.4219C215.725 18.4844 215.495 19.4219 215.037 20.2344C214.579 21.0469 213.915 21.6797 213.045 22.1328C212.18 22.5859 211.133 22.8125 209.904 22.8125H205.881V20.1016H209.357C210.008 20.1016 210.545 19.9896 210.967 19.7656C211.394 19.5365 211.712 19.2214 211.92 18.8203C212.133 18.4141 212.24 17.9479 212.24 17.4219C212.24 16.8906 212.133 16.4271 211.92 16.0312C211.712 15.6302 211.394 15.3203 210.967 15.1016C210.54 14.8776 209.998 14.7656 209.342 14.7656H207.061V28H203.678ZM217.859 28V16H221.086V18.0937H221.211C221.43 17.349 221.797 16.7865 222.313 16.4063C222.828 16.0208 223.422 15.8281 224.094 15.8281C224.26 15.8281 224.44 15.8385 224.633 15.8594C224.826 15.8802 224.995 15.9089 225.141 15.9453V18.8984C224.984 18.8516 224.768 18.8099 224.492 18.7734C224.216 18.737 223.964 18.7188 223.734 18.7188C223.245 18.7188 222.807 18.8255 222.422 19.0391C222.042 19.2474 221.74 19.5391 221.516 19.9141C221.297 20.2891 221.188 20.7214 221.188 21.2109V28H217.859ZM226.861 28V16H230.189V28H226.861ZM228.533 14.4531C228.038 14.4531 227.614 14.2891 227.26 13.9609C226.911 13.6276 226.736 13.2292 226.736 12.7656C226.736 12.3073 226.911 11.9141 227.26 11.5859C227.614 11.2526 228.038 11.0859 228.533 11.0859C229.028 11.0859 229.45 11.2526 229.799 11.5859C230.153 11.9141 230.33 12.3073 230.33 12.7656C230.33 13.2292 230.153 13.6276 229.799 13.9609C229.45 14.2891 229.028 14.4531 228.533 14.4531ZM244.043 16L239.848 28H236.098L231.902 16H235.418L237.91 24.5859H238.035L240.52 16H244.043ZM248.846 28.2266C248.08 28.2266 247.398 28.0938 246.799 27.8281C246.2 27.5573 245.726 27.1589 245.377 26.6328C245.033 26.1016 244.861 25.4401 244.861 24.6484C244.861 23.9818 244.984 23.4219 245.229 22.9687C245.473 22.5156 245.807 22.151 246.229 21.875C246.65 21.599 247.13 21.3906 247.666 21.25C248.208 21.1094 248.775 21.0104 249.369 20.9531C250.067 20.8802 250.63 20.8125 251.057 20.75C251.484 20.6823 251.794 20.5833 251.986 20.4531C252.179 20.3229 252.275 20.1302 252.275 19.875V19.8281C252.275 19.3333 252.119 18.9505 251.807 18.6797C251.499 18.4089 251.062 18.2734 250.494 18.2734C249.895 18.2734 249.419 18.4062 249.064 18.6719C248.71 18.9323 248.476 19.2604 248.361 19.6562L245.283 19.4062C245.439 18.6771 245.747 18.0469 246.205 17.5156C246.663 16.9792 247.255 16.5677 247.979 16.2812C248.708 15.9896 249.551 15.8438 250.51 15.8438C251.176 15.8438 251.814 15.9219 252.424 16.0781C253.038 16.2344 253.583 16.4766 254.057 16.8047C254.536 17.1328 254.913 17.5547 255.189 18.0703C255.465 18.5807 255.604 19.1927 255.604 19.9062V28H252.447V26.3359H252.354C252.161 26.7109 251.903 27.0417 251.58 27.3281C251.257 27.6094 250.869 27.8307 250.416 27.9922C249.963 28.1484 249.439 28.2266 248.846 28.2266ZM249.799 25.9297C250.288 25.9297 250.721 25.8333 251.096 25.6406C251.471 25.4427 251.765 25.1771 251.979 24.8438C252.192 24.5104 252.299 24.1328 252.299 23.7109V22.4375C252.195 22.5052 252.051 22.5677 251.869 22.625C251.692 22.6771 251.492 22.7266 251.268 22.7734C251.044 22.8151 250.82 22.8542 250.596 22.8906C250.372 22.9219 250.169 22.9505 249.986 22.9766C249.596 23.0339 249.255 23.125 248.963 23.25C248.671 23.375 248.445 23.5443 248.283 23.7578C248.122 23.9661 248.041 24.2266 248.041 24.5391C248.041 24.9922 248.205 25.3385 248.533 25.5781C248.867 25.8125 249.288 25.9297 249.799 25.9297ZM264.568 16V18.5H257.342V16H264.568ZM258.982 13.125H262.311V24.3125C262.311 24.6198 262.357 24.8594 262.451 25.0312C262.545 25.1979 262.675 25.3151 262.842 25.3828C263.014 25.4505 263.212 25.4844 263.436 25.4844C263.592 25.4844 263.748 25.4714 263.904 25.4453C264.061 25.4141 264.18 25.3906 264.264 25.375L264.787 27.8516C264.62 27.9036 264.386 27.9635 264.084 28.0313C263.782 28.1042 263.415 28.1484 262.982 28.1641C262.18 28.1953 261.477 28.0885 260.873 27.8437C260.274 27.599 259.808 27.2187 259.475 26.7031C259.141 26.1875 258.977 25.5365 258.982 24.75V13.125ZM272.076 28.2344C270.842 28.2344 269.779 27.9844 268.889 27.4844C268.003 26.9792 267.321 26.2656 266.842 25.3437C266.363 24.4167 266.123 23.3203 266.123 22.0547C266.123 20.8203 266.363 19.737 266.842 18.8047C267.321 17.8724 267.995 17.1458 268.865 16.625C269.74 16.1042 270.766 15.8438 271.943 15.8438C272.735 15.8438 273.472 15.9714 274.154 16.2266C274.842 16.4766 275.441 16.8542 275.951 17.3594C276.467 17.8646 276.868 18.5 277.154 19.2656C277.441 20.026 277.584 20.9167 277.584 21.9375V22.8516H267.451V20.7891H274.451C274.451 20.3099 274.347 19.8854 274.139 19.5156C273.93 19.1458 273.641 18.8568 273.271 18.6484C272.907 18.4349 272.482 18.3281 271.998 18.3281C271.493 18.3281 271.045 18.4453 270.654 18.6797C270.269 18.9089 269.967 19.2187 269.748 19.6094C269.529 19.9948 269.417 20.4245 269.412 20.8984V22.8594C269.412 23.4531 269.521 23.9661 269.74 24.3984C269.964 24.8307 270.279 25.1641 270.686 25.3984C271.092 25.6328 271.574 25.75 272.131 25.75C272.501 25.75 272.839 25.6979 273.146 25.5938C273.454 25.4896 273.717 25.3333 273.936 25.125C274.154 24.9167 274.321 24.6615 274.436 24.3594L277.514 24.5625C277.357 25.3021 277.037 25.9479 276.553 26.5C276.074 27.0469 275.454 27.474 274.693 27.7813C273.938 28.0833 273.066 28.2344 272.076 28.2344ZM299.027 17.6016H295.605C295.543 17.1589 295.415 16.7656 295.223 16.4219C295.03 16.0729 294.783 15.776 294.48 15.5312C294.178 15.2865 293.829 15.099 293.434 14.9687C293.043 14.8385 292.618 14.7734 292.16 14.7734C291.332 14.7734 290.611 14.9792 289.996 15.3906C289.382 15.7969 288.905 16.3906 288.566 17.1719C288.228 17.9479 288.059 18.8906 288.059 20C288.059 21.1406 288.228 22.099 288.566 22.875C288.91 23.651 289.389 24.237 290.004 24.6328C290.618 25.0286 291.329 25.2266 292.137 25.2266C292.59 25.2266 293.009 25.1667 293.395 25.0469C293.785 24.9271 294.132 24.7526 294.434 24.5234C294.736 24.2891 294.986 24.0052 295.184 23.6719C295.387 23.3385 295.527 22.9583 295.605 22.5312L299.027 22.5469C298.939 23.2812 298.717 23.9896 298.363 24.6719C298.014 25.349 297.543 25.9557 296.949 26.4922C296.361 27.0234 295.658 27.4453 294.84 27.7578C294.027 28.0651 293.108 28.2187 292.082 28.2187C290.655 28.2187 289.379 27.8958 288.254 27.25C287.134 26.6042 286.249 25.6693 285.598 24.4453C284.952 23.2214 284.629 21.7396 284.629 20C284.629 18.2552 284.957 16.7708 285.613 15.5469C286.27 14.3229 287.16 13.3906 288.285 12.75C289.41 12.1042 290.676 11.7812 292.082 11.7812C293.009 11.7812 293.868 11.9115 294.66 12.1719C295.457 12.4323 296.163 12.8125 296.777 13.3125C297.392 13.8073 297.892 14.4141 298.277 15.1328C298.668 15.8516 298.918 16.6745 299.027 17.6016ZM306.813 28.2344C305.599 28.2344 304.549 27.9766 303.664 27.4609C302.784 26.9401 302.104 26.2161 301.625 25.2891C301.146 24.3568 300.906 23.276 300.906 22.0469C300.906 20.8073 301.146 19.724 301.625 18.7969C302.104 17.8646 302.784 17.1406 303.664 16.625C304.549 16.1042 305.599 15.8438 306.813 15.8438C308.026 15.8438 309.073 16.1042 309.953 16.625C310.839 17.1406 311.521 17.8646 312 18.7969C312.479 19.724 312.719 20.8073 312.719 22.0469C312.719 23.276 312.479 24.3568 312 25.2891C311.521 26.2161 310.839 26.9401 309.953 27.4609C309.073 27.9766 308.026 28.2344 306.813 28.2344ZM306.828 25.6562C307.38 25.6562 307.841 25.5 308.211 25.1875C308.581 24.8698 308.859 24.4375 309.047 23.8906C309.24 23.3437 309.336 22.7214 309.336 22.0234C309.336 21.3255 309.24 20.7031 309.047 20.1562C308.859 19.6094 308.581 19.1771 308.211 18.8594C307.841 18.5417 307.38 18.3828 306.828 18.3828C306.271 18.3828 305.802 18.5417 305.422 18.8594C305.047 19.1771 304.763 19.6094 304.57 20.1562C304.383 20.7031 304.289 21.3255 304.289 22.0234C304.289 22.7214 304.383 23.3437 304.57 23.8906C304.763 24.4375 305.047 24.8698 305.422 25.1875C305.802 25.5 306.271 25.6562 306.828 25.6562ZM314.883 28V16H318.055V18.1172H318.195C318.445 17.4141 318.862 16.8594 319.445 16.4531C320.029 16.0469 320.727 15.8438 321.539 15.8438C322.362 15.8438 323.063 16.0495 323.641 16.4609C324.219 16.8672 324.604 17.4193 324.797 18.1172H324.922C325.167 17.4297 325.609 16.8802 326.25 16.4687C326.896 16.0521 327.659 15.8438 328.539 15.8438C329.659 15.8438 330.568 16.2005 331.266 16.9141C331.969 17.6224 332.32 18.6276 332.32 19.9297V28H329V20.5859C329 19.9193 328.823 19.4193 328.469 19.0859C328.115 18.7526 327.672 18.5859 327.141 18.5859C326.536 18.5859 326.065 18.7786 325.727 19.1641C325.388 19.5443 325.219 20.0469 325.219 20.6719V28H321.992V20.5156C321.992 19.9271 321.823 19.4583 321.484 19.1094C321.151 18.7604 320.711 18.5859 320.164 18.5859C319.794 18.5859 319.461 18.6797 319.164 18.8672C318.872 19.0495 318.641 19.3073 318.469 19.6406C318.297 19.9687 318.211 20.3542 318.211 20.7969V28H314.883ZM334.949 28V16H338.121V18.1172H338.262C338.512 17.4141 338.928 16.8594 339.512 16.4531C340.095 16.0469 340.793 15.8438 341.605 15.8438C342.428 15.8438 343.129 16.0495 343.707 16.4609C344.285 16.8672 344.671 17.4193 344.863 18.1172H344.988C345.233 17.4297 345.676 16.8802 346.316 16.4687C346.962 16.0521 347.725 15.8438 348.605 15.8438C349.725 15.8438 350.634 16.2005 351.332 16.9141C352.035 17.6224 352.387 18.6276 352.387 19.9297V28H349.066V20.5859C349.066 19.9193 348.889 19.4193 348.535 19.0859C348.181 18.7526 347.738 18.5859 347.207 18.5859C346.603 18.5859 346.132 18.7786 345.793 19.1641C345.454 19.5443 345.285 20.0469 345.285 20.6719V28H342.059V20.5156C342.059 19.9271 341.889 19.4583 341.551 19.1094C341.217 18.7604 340.777 18.5859 340.23 18.5859C339.861 18.5859 339.527 18.6797 339.23 18.8672C338.939 19.0495 338.707 19.3073 338.535 19.6406C338.363 19.9687 338.277 20.3542 338.277 20.7969V28H334.949ZM362.711 22.8906V16H366.039V28H362.844V25.8203H362.719C362.448 26.5234 361.997 27.0885 361.367 27.5156C360.742 27.9427 359.979 28.1563 359.078 28.1563C358.276 28.1563 357.57 27.974 356.961 27.6094C356.352 27.2448 355.875 26.7266 355.531 26.0547C355.193 25.3828 355.021 24.5781 355.016 23.6406V16H358.344V23.0469C358.349 23.7552 358.539 24.3151 358.914 24.7266C359.289 25.138 359.792 25.3437 360.422 25.3437C360.823 25.3437 361.198 25.2526 361.547 25.0703C361.896 24.8828 362.177 24.6068 362.391 24.2422C362.609 23.8776 362.716 23.4271 362.711 22.8906ZM372.029 21.0625V28H368.701V16H371.873V18.1172H372.014C372.279 17.4193 372.725 16.8672 373.35 16.4609C373.975 16.0495 374.732 15.8438 375.623 15.8438C376.456 15.8438 377.183 16.026 377.803 16.3906C378.423 16.7552 378.904 17.276 379.248 17.9531C379.592 18.625 379.764 19.4271 379.764 20.3594V28H376.436V20.9531C376.441 20.2187 376.253 19.6458 375.873 19.2344C375.493 18.8177 374.969 18.6094 374.303 18.6094C373.855 18.6094 373.459 18.7057 373.115 18.8984C372.777 19.0911 372.511 19.3724 372.318 19.7422C372.131 20.1068 372.035 20.5469 372.029 21.0625ZM382.387 28V16H385.715V28H382.387ZM384.059 14.4531C383.564 14.4531 383.139 14.2891 382.785 13.9609C382.436 13.6276 382.262 13.2292 382.262 12.7656C382.262 12.3073 382.436 11.9141 382.785 11.5859C383.139 11.2526 383.564 11.0859 384.059 11.0859C384.553 11.0859 384.975 11.2526 385.324 11.5859C385.678 11.9141 385.855 12.3073 385.855 12.7656C385.855 13.2292 385.678 13.6276 385.324 13.9609C384.975 14.2891 384.553 14.4531 384.059 14.4531ZM394.764 16V18.5H387.537V16H394.764ZM389.178 13.125H392.506V24.3125C392.506 24.6198 392.553 24.8594 392.646 25.0312C392.74 25.1979 392.87 25.3151 393.037 25.3828C393.209 25.4505 393.407 25.4844 393.631 25.4844C393.787 25.4844 393.943 25.4714 394.1 25.4453C394.256 25.4141 394.376 25.3906 394.459 25.375L394.982 27.8516C394.816 27.9036 394.581 27.9635 394.279 28.0313C393.977 28.1042 393.61 28.1484 393.178 28.1641C392.376 28.1953 391.673 28.0885 391.068 27.8437C390.469 27.599 390.003 27.2187 389.67 26.7031C389.337 26.1875 389.173 25.5365 389.178 24.75V13.125ZM398.986 32.5C398.564 32.5 398.169 32.4661 397.799 32.3984C397.434 32.3359 397.132 32.2552 396.893 32.1562L397.643 29.6719C398.033 29.7917 398.385 29.8568 398.697 29.8672C399.015 29.8776 399.288 29.8047 399.518 29.6484C399.752 29.4922 399.942 29.2266 400.088 28.8516L400.283 28.3438L395.979 16H399.479L401.963 24.8125H402.088L404.596 16H408.119L403.455 29.2969C403.231 29.9427 402.926 30.5052 402.541 30.9844C402.161 31.4688 401.679 31.8411 401.096 32.1016C400.512 32.3672 399.809 32.5 398.986 32.5ZM417.734 28H414.109L419.633 12H423.992L429.508 28H425.883L421.875 15.6562H421.75L417.734 28ZM417.508 21.7109H426.07V24.3516H417.508V21.7109ZM436.234 28.2344C435.005 28.2344 433.948 27.974 433.063 27.4531C432.182 26.9271 431.505 26.1979 431.031 25.2656C430.563 24.3333 430.328 23.2604 430.328 22.0469C430.328 20.8177 430.565 19.7396 431.039 18.8125C431.518 17.8802 432.198 17.1536 433.078 16.6328C433.958 16.1068 435.005 15.8438 436.219 15.8438C437.266 15.8438 438.182 16.0339 438.969 16.4141C439.755 16.7943 440.378 17.3281 440.836 18.0156C441.294 18.7031 441.547 19.5104 441.594 20.4375H438.453C438.365 19.8385 438.13 19.3568 437.75 18.9922C437.375 18.6224 436.883 18.4375 436.273 18.4375C435.758 18.4375 435.307 18.5781 434.922 18.8594C434.542 19.1354 434.245 19.5391 434.031 20.0703C433.818 20.6016 433.711 21.2448 433.711 22C433.711 22.7656 433.815 23.4167 434.023 23.9531C434.237 24.4896 434.536 24.8984 434.922 25.1797C435.307 25.4609 435.758 25.6016 436.273 25.6016C436.654 25.6016 436.995 25.5234 437.297 25.3672C437.604 25.2109 437.857 24.9844 438.055 24.6875C438.258 24.3854 438.391 24.0234 438.453 23.6016H441.594C441.542 24.5182 441.292 25.3255 440.844 26.0234C440.401 26.7161 439.789 27.2578 439.008 27.6484C438.227 28.0391 437.302 28.2344 436.234 28.2344ZM449.146 28.2344C447.917 28.2344 446.86 27.974 445.975 27.4531C445.094 26.9271 444.417 26.1979 443.943 25.2656C443.475 24.3333 443.24 23.2604 443.24 22.0469C443.24 20.8177 443.477 19.7396 443.951 18.8125C444.43 17.8802 445.11 17.1536 445.99 16.6328C446.87 16.1068 447.917 15.8438 449.131 15.8438C450.178 15.8438 451.094 16.0339 451.881 16.4141C452.667 16.7943 453.29 17.3281 453.748 18.0156C454.206 18.7031 454.459 19.5104 454.506 20.4375H451.365C451.277 19.8385 451.042 19.3568 450.662 18.9922C450.287 18.6224 449.795 18.4375 449.186 18.4375C448.67 18.4375 448.219 18.5781 447.834 18.8594C447.454 19.1354 447.157 19.5391 446.943 20.0703C446.73 20.6016 446.623 21.2448 446.623 22C446.623 22.7656 446.727 23.4167 446.936 23.9531C447.149 24.4896 447.449 24.8984 447.834 25.1797C448.219 25.4609 448.67 25.6016 449.186 25.6016C449.566 25.6016 449.907 25.5234 450.209 25.3672C450.516 25.2109 450.769 24.9844 450.967 24.6875C451.17 24.3854 451.303 24.0234 451.365 23.6016H454.506C454.454 24.5182 454.204 25.3255 453.756 26.0234C453.313 26.7161 452.701 27.2578 451.92 27.6484C451.139 28.0391 450.214 28.2344 449.146 28.2344ZM462.105 28.2344C460.871 28.2344 459.809 27.9844 458.918 27.4844C458.033 26.9792 457.35 26.2656 456.871 25.3437C456.392 24.4167 456.152 23.3203 456.152 22.0547C456.152 20.8203 456.392 19.737 456.871 18.8047C457.35 17.8724 458.025 17.1458 458.895 16.625C459.77 16.1042 460.796 15.8438 461.973 15.8438C462.764 15.8438 463.501 15.9714 464.184 16.2266C464.871 16.4766 465.47 16.8542 465.98 17.3594C466.496 17.8646 466.897 18.5 467.184 19.2656C467.47 20.026 467.613 20.9167 467.613 21.9375V22.8516H457.48V20.7891H464.48C464.48 20.3099 464.376 19.8854 464.168 19.5156C463.96 19.1458 463.671 18.8568 463.301 18.6484C462.936 18.4349 462.512 18.3281 462.027 18.3281C461.522 18.3281 461.074 18.4453 460.684 18.6797C460.298 18.9089 459.996 19.2187 459.777 19.6094C459.559 19.9948 459.447 20.4245 459.441 20.8984V22.8594C459.441 23.4531 459.551 23.9661 459.77 24.3984C459.993 24.8307 460.309 25.1641 460.715 25.3984C461.121 25.6328 461.603 25.75 462.16 25.75C462.53 25.75 462.868 25.6979 463.176 25.5938C463.483 25.4896 463.746 25.3333 463.965 25.125C464.184 24.9167 464.35 24.6615 464.465 24.3594L467.543 24.5625C467.387 25.3021 467.066 25.9479 466.582 26.5C466.103 27.0469 465.483 27.474 464.723 27.7813C463.967 28.0833 463.095 28.2344 462.105 28.2344ZM479.77 19.4219L476.723 19.6094C476.671 19.349 476.559 19.1146 476.387 18.9062C476.215 18.6927 475.988 18.5234 475.707 18.3984C475.431 18.2682 475.1 18.2031 474.715 18.2031C474.199 18.2031 473.764 18.3125 473.41 18.5312C473.056 18.7448 472.879 19.0312 472.879 19.3906C472.879 19.6771 472.993 19.9193 473.223 20.1172C473.452 20.3151 473.845 20.474 474.402 20.5937L476.574 21.0312C477.741 21.2708 478.611 21.6562 479.184 22.1875C479.757 22.7187 480.043 23.4167 480.043 24.2812C480.043 25.0677 479.811 25.7578 479.348 26.3516C478.889 26.9453 478.259 27.4089 477.457 27.7422C476.66 28.0703 475.741 28.2344 474.699 28.2344C473.111 28.2344 471.845 27.9036 470.902 27.2422C469.965 26.5755 469.415 25.6693 469.254 24.5234L472.527 24.3516C472.626 24.8359 472.866 25.2057 473.246 25.4609C473.626 25.7109 474.113 25.8359 474.707 25.8359C475.29 25.8359 475.759 25.724 476.113 25.5C476.473 25.2708 476.655 24.9766 476.66 24.6172C476.655 24.3151 476.527 24.0677 476.277 23.875C476.027 23.6771 475.642 23.526 475.121 23.4219L473.043 23.0078C471.871 22.7734 470.999 22.3672 470.426 21.7891C469.858 21.2109 469.574 20.474 469.574 19.5781C469.574 18.8073 469.783 18.1432 470.199 17.5859C470.621 17.0286 471.212 16.599 471.973 16.2969C472.738 15.9948 473.634 15.8438 474.66 15.8438C476.176 15.8438 477.368 16.1641 478.238 16.8047C479.113 17.4453 479.624 18.3177 479.77 19.4219ZM492.123 19.4219L489.076 19.6094C489.024 19.349 488.912 19.1146 488.74 18.9062C488.568 18.6927 488.342 18.5234 488.061 18.3984C487.785 18.2682 487.454 18.2031 487.068 18.2031C486.553 18.2031 486.118 18.3125 485.764 18.5312C485.41 18.7448 485.232 19.0312 485.232 19.3906C485.232 19.6771 485.347 19.9193 485.576 20.1172C485.805 20.3151 486.199 20.474 486.756 20.5937L488.928 21.0312C490.094 21.2708 490.964 21.6562 491.537 22.1875C492.11 22.7187 492.396 23.4167 492.396 24.2812C492.396 25.0677 492.165 25.7578 491.701 26.3516C491.243 26.9453 490.613 27.4089 489.811 27.7422C489.014 28.0703 488.094 28.2344 487.053 28.2344C485.464 28.2344 484.199 27.9036 483.256 27.2422C482.318 26.5755 481.769 25.6693 481.607 24.5234L484.881 24.3516C484.98 24.8359 485.219 25.2057 485.6 25.4609C485.98 25.7109 486.467 25.8359 487.061 25.8359C487.644 25.8359 488.113 25.724 488.467 25.5C488.826 25.2708 489.008 24.9766 489.014 24.6172C489.008 24.3151 488.881 24.0677 488.631 23.875C488.381 23.6771 487.995 23.526 487.475 23.4219L485.396 23.0078C484.225 22.7734 483.352 22.3672 482.779 21.7891C482.212 21.2109 481.928 20.474 481.928 19.5781C481.928 18.8073 482.136 18.1432 482.553 17.5859C482.975 17.0286 483.566 16.599 484.326 16.2969C485.092 15.9948 485.988 15.8438 487.014 15.8438C488.529 15.8438 489.722 16.1641 490.592 16.8047C491.467 17.4453 491.977 18.3177 492.123 19.4219Z" fill="white"/>
<defs>
<filter id="filter0_b_214_2027" x="-10" y="-10" width="543" height="63" filterUnits="userSpaceOnUse" color-interpolation-filters="sRGB">
<feFlood flood-opacity="0" result="BackgroundImageFix"/>
<feGaussianBlur in="BackgroundImageFix" stdDeviation="5"/>
<feComposite in2="SourceAlpha" operator="in" result="effect1_backgroundBlur_214_2027"/>
<feBlend mode="normal" in="SourceGraphic" in2="effect1_backgroundBlur_214_2027" result="shape"/>
</filter>
</defs>
</svg>
