<svg width="525" height="63" viewBox="0 0 525 63" fill="none" xmlns="http://www.w3.org/2000/svg">
<g filter="url(#filter0_d_214_2030)">
<path d="M10 11C10 8.23858 12.2386 6 15 6H515V49H15C12.2386 49 10 46.7614 10 44V11Z" fill="#F95700"/>
</g>
<path d="M47.3906 34V18H53.7969C54.974 18 55.9557 18.1745 56.7422 18.5234C57.5286 18.8724 58.1198 19.3568 58.5156 19.9766C58.9115 20.5911 59.1094 21.2995 59.1094 22.1016C59.1094 22.7266 58.9844 23.276 58.7344 23.75C58.4844 24.2187 58.1406 24.6042 57.7031 24.9062C57.2708 25.2031 56.776 25.4141 56.2188 25.5391V25.6953C56.8281 25.7214 57.3984 25.8932 57.9297 26.2109C58.4661 26.5286 58.901 26.974 59.2344 27.5469C59.5677 28.1146 59.7344 28.7917 59.7344 29.5781C59.7344 30.4271 59.5234 31.1849 59.1016 31.8516C58.6849 32.513 58.0677 33.0365 57.25 33.4219C56.4323 33.8073 55.4245 34 54.2266 34H47.3906ZM50.7734 31.2344H53.5313C54.474 31.2344 55.1615 31.0547 55.5938 30.6953C56.026 30.3307 56.2422 29.8464 56.2422 29.2422C56.2422 28.7995 56.1354 28.4089 55.9219 28.0703C55.7083 27.7318 55.4036 27.4661 55.0078 27.2734C54.6172 27.0807 54.151 26.9844 53.6094 26.9844H50.7734V31.2344ZM50.7734 24.6953H53.2812C53.7448 24.6953 54.1563 24.6146 54.5156 24.4531C54.8802 24.2865 55.1667 24.0521 55.375 23.75C55.5885 23.4479 55.6953 23.0859 55.6953 22.6641C55.6953 22.0859 55.4896 21.6198 55.0781 21.2656C54.6719 20.9115 54.0938 20.7344 53.3438 20.7344H50.7734V24.6953ZM67.2949 34.2344C66.0814 34.2344 65.0319 33.9766 64.1465 33.4609C63.2663 32.9401 62.5866 32.2161 62.1074 31.2891C61.6283 30.3568 61.3887 29.276 61.3887 28.0469C61.3887 26.8073 61.6283 25.724 62.1074 24.7969C62.5866 23.8646 63.2663 23.1406 64.1465 22.625C65.0319 22.1042 66.0814 21.8438 67.2949 21.8438C68.5085 21.8438 69.5553 22.1042 70.4355 22.625C71.321 23.1406 72.0033 23.8646 72.4824 24.7969C72.9616 25.724 73.2012 26.8073 73.2012 28.0469C73.2012 29.276 72.9616 30.3568 72.4824 31.2891C72.0033 32.2161 71.321 32.9401 70.4355 33.4609C69.5553 33.9766 68.5085 34.2344 67.2949 34.2344ZM67.3105 31.6562C67.8626 31.6562 68.3236 31.5 68.6934 31.1875C69.0632 30.8698 69.3418 30.4375 69.5293 29.8906C69.722 29.3437 69.8184 28.7214 69.8184 28.0234C69.8184 27.3255 69.722 26.7031 69.5293 26.1562C69.3418 25.6094 69.0632 25.1771 68.6934 24.8594C68.3236 24.5417 67.8626 24.3828 67.3105 24.3828C66.7533 24.3828 66.2845 24.5417 65.9043 24.8594C65.5293 25.1771 65.2454 25.6094 65.0527 26.1562C64.8652 26.7031 64.7715 27.3255 64.7715 28.0234C64.7715 28.7214 64.8652 29.3437 65.0527 29.8906C65.2454 30.4375 65.5293 30.8698 65.9043 31.1875C66.2845 31.5 66.7533 31.6562 67.3105 31.6562ZM78.6934 27.0625V34H75.3652V22H78.5371V24.1172H78.6777C78.9434 23.4193 79.3887 22.8672 80.0137 22.4609C80.6387 22.0495 81.3965 21.8438 82.2871 21.8438C83.1204 21.8438 83.847 22.026 84.4668 22.3906C85.0866 22.7552 85.5684 23.276 85.9121 23.9531C86.2559 24.625 86.4277 25.4271 86.4277 26.3594V34H83.0996V26.9531C83.1048 26.2187 82.9173 25.6458 82.5371 25.2344C82.1569 24.8177 81.6335 24.6094 80.9668 24.6094C80.5189 24.6094 80.123 24.7057 79.7793 24.8984C79.4408 25.0911 79.1751 25.3724 78.9824 25.7422C78.7949 26.1068 78.6986 26.5469 78.6934 27.0625ZM96.7461 28.8906V22H100.074V34H96.8789V31.8203H96.7539C96.4831 32.5234 96.0326 33.0885 95.4023 33.5156C94.7773 33.9427 94.0143 34.1563 93.1133 34.1563C92.3112 34.1563 91.6055 33.974 90.9961 33.6094C90.3867 33.2448 89.9102 32.7266 89.5664 32.0547C89.2279 31.3828 89.056 30.5781 89.0508 29.6406V22H92.3789V29.0469C92.3841 29.7552 92.5742 30.3151 92.9492 30.7266C93.3242 31.138 93.8268 31.3437 94.457 31.3437C94.8581 31.3437 95.2331 31.2526 95.582 31.0703C95.931 30.8828 96.2122 30.6068 96.4258 30.2422C96.6445 29.8776 96.7513 29.4271 96.7461 28.8906ZM112.721 25.4219L109.674 25.6094C109.622 25.349 109.51 25.1146 109.338 24.9062C109.166 24.6927 108.939 24.5234 108.658 24.3984C108.382 24.2682 108.051 24.2031 107.666 24.2031C107.15 24.2031 106.715 24.3125 106.361 24.5312C106.007 24.7448 105.83 25.0312 105.83 25.3906C105.83 25.6771 105.945 25.9193 106.174 26.1172C106.403 26.3151 106.796 26.474 107.354 26.5937L109.525 27.0312C110.692 27.2708 111.562 27.6562 112.135 28.1875C112.708 28.7187 112.994 29.4167 112.994 30.2812C112.994 31.0677 112.762 31.7578 112.299 32.3516C111.84 32.9453 111.21 33.4089 110.408 33.7422C109.611 34.0703 108.692 34.2344 107.65 34.2344C106.062 34.2344 104.796 33.9036 103.854 33.2422C102.916 32.5755 102.367 31.6693 102.205 30.5234L105.479 30.3516C105.577 30.8359 105.817 31.2057 106.197 31.4609C106.577 31.7109 107.064 31.8359 107.658 31.8359C108.242 31.8359 108.71 31.724 109.064 31.5C109.424 31.2708 109.606 30.9766 109.611 30.6172C109.606 30.3151 109.479 30.0677 109.229 29.875C108.979 29.6771 108.593 29.526 108.072 29.4219L105.994 29.0078C104.822 28.7734 103.95 28.3672 103.377 27.7891C102.809 27.2109 102.525 26.474 102.525 25.5781C102.525 24.8073 102.734 24.1432 103.15 23.5859C103.572 23.0286 104.163 22.599 104.924 22.2969C105.689 21.9948 106.585 21.8438 107.611 21.8438C109.127 21.8438 110.32 22.1641 111.189 22.8047C112.064 23.4453 112.575 24.3177 112.721 25.4219ZM126.244 34L128.869 18H131.369L128.744 34H126.244ZM119.08 30.0312L119.494 27.5312H131.994L131.58 30.0312H119.08ZM120.619 34L123.244 18H125.744L123.119 34H120.619ZM119.994 24.4687L120.416 21.9688H132.916L132.494 24.4687H119.994ZM134.438 34V31.5625L140.133 26.2891C140.617 25.8203 141.023 25.3984 141.352 25.0234C141.685 24.6484 141.938 24.2812 142.109 23.9219C142.281 23.5573 142.367 23.1641 142.367 22.7422C142.367 22.2734 142.26 21.8698 142.047 21.5312C141.833 21.1875 141.542 20.9245 141.172 20.7422C140.802 20.5547 140.383 20.4609 139.914 20.4609C139.424 20.4609 138.997 20.5599 138.633 20.7578C138.268 20.9557 137.987 21.2396 137.789 21.6094C137.591 21.9792 137.492 22.4193 137.492 22.9297H134.281C134.281 21.8828 134.518 20.974 134.992 20.2031C135.466 19.4323 136.13 18.8359 136.984 18.4141C137.839 17.9922 138.823 17.7812 139.938 17.7812C141.083 17.7812 142.081 17.9844 142.93 18.3906C143.784 18.7917 144.448 19.349 144.922 20.0625C145.396 20.776 145.633 21.5937 145.633 22.5156C145.633 23.1198 145.513 23.7161 145.273 24.3047C145.039 24.8932 144.62 25.5469 144.016 26.2656C143.411 26.9792 142.56 27.8359 141.461 28.8359L139.125 31.125V31.2344H145.844V34H134.438ZM150.271 32.1406C149.756 32.1406 149.313 31.9583 148.943 31.5938C148.579 31.2292 148.396 30.7865 148.396 30.2656C148.396 29.7552 148.579 29.3177 148.943 28.9531C149.313 28.5885 149.756 28.4062 150.271 28.4062C150.771 28.4062 151.209 28.5885 151.584 28.9531C151.959 29.3177 152.146 29.7552 152.146 30.2656C152.146 30.6094 152.058 30.9245 151.881 31.2109C151.709 31.4922 151.482 31.7187 151.201 31.8906C150.92 32.0573 150.61 32.1406 150.271 32.1406ZM150.271 24.2891C149.756 24.2891 149.313 24.1068 148.943 23.7422C148.579 23.3776 148.396 22.9349 148.396 22.4141C148.396 21.9036 148.579 21.4687 148.943 21.1094C149.313 20.7448 149.756 20.5625 150.271 20.5625C150.771 20.5625 151.209 20.7448 151.584 21.1094C151.959 21.4687 152.146 21.9036 152.146 22.4141C152.146 22.763 152.058 23.0807 151.881 23.3672C151.709 23.6484 151.482 23.8724 151.201 24.0391C150.92 24.2057 150.61 24.2891 150.271 24.2891ZM160.033 34V18H170.814V20.7891H163.416V24.6016H170.26V27.3906H163.416V31.2109H170.846V34H160.033ZM179.824 22V24.5H172.598V22H179.824ZM174.238 19.125H177.566V30.3125C177.566 30.6198 177.613 30.8594 177.707 31.0312C177.801 31.1979 177.931 31.3151 178.098 31.3828C178.27 31.4505 178.467 31.4844 178.691 31.4844C178.848 31.4844 179.004 31.4714 179.16 31.4453C179.316 31.4141 179.436 31.3906 179.52 31.375L180.043 33.8516C179.876 33.9036 179.642 33.9635 179.34 34.0313C179.038 34.1042 178.671 34.1484 178.238 34.1641C177.436 34.1953 176.733 34.0885 176.129 33.8437C175.53 33.599 175.064 33.2187 174.73 32.7031C174.397 32.1875 174.233 31.5365 174.238 30.75V19.125ZM191.826 25.4219L188.779 25.6094C188.727 25.349 188.615 25.1146 188.443 24.9062C188.271 24.6927 188.045 24.5234 187.764 24.3984C187.488 24.2682 187.157 24.2031 186.771 24.2031C186.256 24.2031 185.821 24.3125 185.467 24.5312C185.113 24.7448 184.936 25.0312 184.936 25.3906C184.936 25.6771 185.05 25.9193 185.279 26.1172C185.508 26.3151 185.902 26.474 186.459 26.5937L188.631 27.0312C189.798 27.2708 190.667 27.6562 191.24 28.1875C191.813 28.7187 192.1 29.4167 192.1 30.2812C192.1 31.0677 191.868 31.7578 191.404 32.3516C190.946 32.9453 190.316 33.4089 189.514 33.7422C188.717 34.0703 187.798 34.2344 186.756 34.2344C185.167 34.2344 183.902 33.9036 182.959 33.2422C182.021 32.5755 181.472 31.6693 181.311 30.5234L184.584 30.3516C184.683 30.8359 184.923 31.2057 185.303 31.4609C185.683 31.7109 186.17 31.8359 186.764 31.8359C187.347 31.8359 187.816 31.724 188.17 31.5C188.529 31.2708 188.712 30.9766 188.717 30.6172C188.712 30.3151 188.584 30.0677 188.334 29.875C188.084 29.6771 187.699 29.526 187.178 29.4219L185.1 29.0078C183.928 28.7734 183.055 28.3672 182.482 27.7891C181.915 27.2109 181.631 26.474 181.631 25.5781C181.631 24.8073 181.839 24.1432 182.256 23.5859C182.678 23.0286 183.269 22.599 184.029 22.2969C184.795 21.9948 185.691 21.8438 186.717 21.8438C188.232 21.8438 189.425 22.1641 190.295 22.8047C191.17 23.4453 191.68 24.3177 191.826 25.4219ZM196.25 38.5C195.828 38.5 195.432 38.4661 195.063 38.3984C194.698 38.3359 194.396 38.2552 194.156 38.1562L194.906 35.6719C195.297 35.7917 195.648 35.8568 195.961 35.8672C196.279 35.8776 196.552 35.8047 196.781 35.6484C197.016 35.4922 197.206 35.2266 197.352 34.8516L197.547 34.3438L193.242 22H196.742L199.227 30.8125H199.352L201.859 22H205.383L200.719 35.2969C200.495 35.9427 200.19 36.5052 199.805 36.9844C199.424 37.4688 198.943 37.8411 198.359 38.1016C197.776 38.3672 197.073 38.5 196.25 38.5ZM220.92 22.6016C220.857 21.9714 220.589 21.4818 220.115 21.1328C219.641 20.7839 218.998 20.6094 218.186 20.6094C217.633 20.6094 217.167 20.6875 216.787 20.8437C216.407 20.9948 216.115 21.2057 215.912 21.4766C215.714 21.7474 215.615 22.0547 215.615 22.3984C215.605 22.6849 215.665 22.9349 215.795 23.1484C215.93 23.362 216.115 23.5469 216.35 23.7031C216.584 23.8542 216.855 23.987 217.162 24.1016C217.469 24.2109 217.798 24.3047 218.146 24.3828L219.584 24.7266C220.282 24.8828 220.923 25.0911 221.506 25.3516C222.089 25.612 222.594 25.9323 223.021 26.3125C223.449 26.6927 223.779 27.1406 224.014 27.6562C224.253 28.1719 224.376 28.763 224.381 29.4297C224.376 30.4089 224.126 31.2578 223.631 31.9766C223.141 32.6901 222.433 33.2448 221.506 33.6406C220.584 34.0312 219.472 34.2266 218.17 34.2266C216.878 34.2266 215.753 34.0286 214.795 33.6328C213.842 33.237 213.097 32.651 212.561 31.875C212.029 31.0937 211.751 30.1276 211.725 28.9766H214.998C215.035 29.513 215.188 29.9609 215.459 30.3203C215.735 30.6745 216.102 30.9427 216.561 31.125C217.024 31.3021 217.548 31.3906 218.131 31.3906C218.704 31.3906 219.201 31.3073 219.623 31.1406C220.05 30.974 220.381 30.7422 220.615 30.4453C220.85 30.1484 220.967 29.8073 220.967 29.4219C220.967 29.0625 220.86 28.7604 220.646 28.5156C220.438 28.2708 220.131 28.0625 219.725 27.8906C219.324 27.7187 218.831 27.5625 218.248 27.4219L216.506 26.9844C215.157 26.6562 214.092 26.1432 213.311 25.4453C212.529 24.7474 212.141 23.8073 212.146 22.625C212.141 21.6562 212.399 20.8099 212.92 20.0859C213.446 19.362 214.167 18.7969 215.084 18.3906C216.001 17.9844 217.042 17.7812 218.209 17.7812C219.396 17.7812 220.433 17.9844 221.318 18.3906C222.209 18.7969 222.902 19.362 223.396 20.0859C223.891 20.8099 224.146 21.6484 224.162 22.6016H220.92ZM234.289 28.8906V22H237.617V34H234.422V31.8203H234.297C234.026 32.5234 233.576 33.0885 232.945 33.5156C232.32 33.9427 231.557 34.1563 230.656 34.1563C229.854 34.1563 229.148 33.974 228.539 33.6094C227.93 33.2448 227.453 32.7266 227.109 32.0547C226.771 31.3828 226.599 30.5781 226.594 29.6406V22H229.922V29.0469C229.927 29.7552 230.117 30.3151 230.492 30.7266C230.867 31.138 231.37 31.3437 232 31.3437C232.401 31.3437 232.776 31.2526 233.125 31.0703C233.474 30.8828 233.755 30.6068 233.969 30.2422C234.188 29.8776 234.294 29.4271 234.289 28.8906ZM245.701 34.2344C244.472 34.2344 243.415 33.974 242.529 33.4531C241.649 32.9271 240.972 32.1979 240.498 31.2656C240.029 30.3333 239.795 29.2604 239.795 28.0469C239.795 26.8177 240.032 25.7396 240.506 24.8125C240.985 23.8802 241.665 23.1536 242.545 22.6328C243.425 22.1068 244.472 21.8438 245.686 21.8438C246.732 21.8438 247.649 22.0339 248.436 22.4141C249.222 22.7943 249.844 23.3281 250.303 24.0156C250.761 24.7031 251.014 25.5104 251.061 26.4375H247.92C247.831 25.8385 247.597 25.3568 247.217 24.9922C246.842 24.6224 246.35 24.4375 245.74 24.4375C245.225 24.4375 244.774 24.5781 244.389 24.8594C244.008 25.1354 243.712 25.5391 243.498 26.0703C243.285 26.6016 243.178 27.2448 243.178 28C243.178 28.7656 243.282 29.4167 243.49 29.9531C243.704 30.4896 244.003 30.8984 244.389 31.1797C244.774 31.4609 245.225 31.6016 245.74 31.6016C246.12 31.6016 246.462 31.5234 246.764 31.3672C247.071 31.2109 247.324 30.9844 247.521 30.6875C247.725 30.3854 247.857 30.0234 247.92 29.6016H251.061C251.008 30.5182 250.758 31.3255 250.311 32.0234C249.868 32.7161 249.256 33.2578 248.475 33.6484C247.693 34.0391 246.769 34.2344 245.701 34.2344ZM258.613 34.2344C257.384 34.2344 256.327 33.974 255.441 33.4531C254.561 32.9271 253.884 32.1979 253.41 31.2656C252.941 30.3333 252.707 29.2604 252.707 28.0469C252.707 26.8177 252.944 25.7396 253.418 24.8125C253.897 23.8802 254.577 23.1536 255.457 22.6328C256.337 22.1068 257.384 21.8438 258.598 21.8438C259.645 21.8438 260.561 22.0339 261.348 22.4141C262.134 22.7943 262.757 23.3281 263.215 24.0156C263.673 24.7031 263.926 25.5104 263.973 26.4375H260.832C260.743 25.8385 260.509 25.3568 260.129 24.9922C259.754 24.6224 259.262 24.4375 258.652 24.4375C258.137 24.4375 257.686 24.5781 257.301 24.8594C256.921 25.1354 256.624 25.5391 256.41 26.0703C256.197 26.6016 256.09 27.2448 256.09 28C256.09 28.7656 256.194 29.4167 256.402 29.9531C256.616 30.4896 256.915 30.8984 257.301 31.1797C257.686 31.4609 258.137 31.6016 258.652 31.6016C259.033 31.6016 259.374 31.5234 259.676 31.3672C259.983 31.2109 260.236 30.9844 260.434 30.6875C260.637 30.3854 260.77 30.0234 260.832 29.6016H263.973C263.921 30.5182 263.671 31.3255 263.223 32.0234C262.78 32.7161 262.168 33.2578 261.387 33.6484C260.605 34.0391 259.681 34.2344 258.613 34.2344ZM271.572 34.2344C270.338 34.2344 269.275 33.9844 268.385 33.4844C267.499 32.9792 266.817 32.2656 266.338 31.3437C265.859 30.4167 265.619 29.3203 265.619 28.0547C265.619 26.8203 265.859 25.737 266.338 24.8047C266.817 23.8724 267.492 23.1458 268.361 22.625C269.236 22.1042 270.262 21.8438 271.439 21.8438C272.231 21.8438 272.968 21.9714 273.65 22.2266C274.338 22.4766 274.937 22.8542 275.447 23.3594C275.963 23.8646 276.364 24.5 276.65 25.2656C276.937 26.026 277.08 26.9167 277.08 27.9375V28.8516H266.947V26.7891H273.947C273.947 26.3099 273.843 25.8854 273.635 25.5156C273.426 25.1458 273.137 24.8568 272.768 24.6484C272.403 24.4349 271.979 24.3281 271.494 24.3281C270.989 24.3281 270.541 24.4453 270.15 24.6797C269.765 24.9089 269.463 25.2187 269.244 25.6094C269.025 25.9948 268.913 26.4245 268.908 26.8984V28.8594C268.908 29.4531 269.018 29.9661 269.236 30.3984C269.46 30.8307 269.775 31.1641 270.182 31.3984C270.588 31.6328 271.07 31.75 271.627 31.75C271.997 31.75 272.335 31.6979 272.643 31.5938C272.95 31.4896 273.213 31.3333 273.432 31.125C273.65 30.9167 273.817 30.6615 273.932 30.3594L277.01 30.5625C276.854 31.3021 276.533 31.9479 276.049 32.5C275.57 33.0469 274.95 33.474 274.189 33.7813C273.434 34.0833 272.562 34.2344 271.572 34.2344ZM289.236 25.4219L286.189 25.6094C286.137 25.349 286.025 25.1146 285.854 24.9062C285.682 24.6927 285.455 24.5234 285.174 24.3984C284.898 24.2682 284.567 24.2031 284.182 24.2031C283.666 24.2031 283.231 24.3125 282.877 24.5312C282.523 24.7448 282.346 25.0312 282.346 25.3906C282.346 25.6771 282.46 25.9193 282.689 26.1172C282.919 26.3151 283.312 26.474 283.869 26.5937L286.041 27.0312C287.208 27.2708 288.077 27.6562 288.65 28.1875C289.223 28.7187 289.51 29.4167 289.51 30.2812C289.51 31.0677 289.278 31.7578 288.814 32.3516C288.356 32.9453 287.726 33.4089 286.924 33.7422C286.127 34.0703 285.208 34.2344 284.166 34.2344C282.577 34.2344 281.312 33.9036 280.369 33.2422C279.432 32.5755 278.882 31.6693 278.721 30.5234L281.994 30.3516C282.093 30.8359 282.333 31.2057 282.713 31.4609C283.093 31.7109 283.58 31.8359 284.174 31.8359C284.757 31.8359 285.226 31.724 285.58 31.5C285.939 31.2708 286.122 30.9766 286.127 30.6172C286.122 30.3151 285.994 30.0677 285.744 29.875C285.494 29.6771 285.109 29.526 284.588 29.4219L282.51 29.0078C281.338 28.7734 280.465 28.3672 279.893 27.7891C279.325 27.2109 279.041 26.474 279.041 25.5781C279.041 24.8073 279.249 24.1432 279.666 23.5859C280.088 23.0286 280.679 22.599 281.439 22.2969C282.205 21.9948 283.101 21.8438 284.127 21.8438C285.643 21.8438 286.835 22.1641 287.705 22.8047C288.58 23.4453 289.09 24.3177 289.236 25.4219ZM301.59 25.4219L298.543 25.6094C298.491 25.349 298.379 25.1146 298.207 24.9062C298.035 24.6927 297.809 24.5234 297.527 24.3984C297.251 24.2682 296.921 24.2031 296.535 24.2031C296.02 24.2031 295.585 24.3125 295.23 24.5312C294.876 24.7448 294.699 25.0312 294.699 25.3906C294.699 25.6771 294.814 25.9193 295.043 26.1172C295.272 26.3151 295.665 26.474 296.223 26.5937L298.395 27.0312C299.561 27.2708 300.431 27.6562 301.004 28.1875C301.577 28.7187 301.863 29.4167 301.863 30.2812C301.863 31.0677 301.632 31.7578 301.168 32.3516C300.71 32.9453 300.079 33.4089 299.277 33.7422C298.48 34.0703 297.561 34.2344 296.52 34.2344C294.931 34.2344 293.665 33.9036 292.723 33.2422C291.785 32.5755 291.236 31.6693 291.074 30.5234L294.348 30.3516C294.447 30.8359 294.686 31.2057 295.066 31.4609C295.447 31.7109 295.934 31.8359 296.527 31.8359C297.111 31.8359 297.579 31.724 297.934 31.5C298.293 31.2708 298.475 30.9766 298.48 30.6172C298.475 30.3151 298.348 30.0677 298.098 29.875C297.848 29.6771 297.462 29.526 296.941 29.4219L294.863 29.0078C293.691 28.7734 292.819 28.3672 292.246 27.7891C291.678 27.2109 291.395 26.474 291.395 25.5781C291.395 24.8073 291.603 24.1432 292.02 23.5859C292.441 23.0286 293.033 22.599 293.793 22.2969C294.559 21.9948 295.454 21.8438 296.48 21.8438C297.996 21.8438 299.189 22.1641 300.059 22.8047C300.934 23.4453 301.444 24.3177 301.59 25.4219ZM319.723 23.1719C319.613 22.7917 319.46 22.4557 319.262 22.1641C319.064 21.8672 318.822 21.6172 318.535 21.4141C318.254 21.2057 317.931 21.0469 317.566 20.9375C317.207 20.8281 316.809 20.7734 316.371 20.7734C315.553 20.7734 314.835 20.9766 314.215 21.3828C313.6 21.7891 313.121 22.3802 312.777 23.1562C312.434 23.9271 312.262 24.8698 312.262 25.9844C312.262 27.099 312.431 28.0469 312.77 28.8281C313.108 29.6094 313.587 30.2057 314.207 30.6172C314.827 31.0234 315.559 31.2266 316.402 31.2266C317.168 31.2266 317.822 31.0911 318.363 30.8203C318.91 30.5443 319.327 30.1562 319.613 29.6562C319.905 29.1562 320.051 28.5651 320.051 27.8828L320.738 27.9844H316.613V25.4375H323.309V27.4531C323.309 28.8594 323.012 30.0677 322.418 31.0781C321.824 32.0833 321.007 32.8594 319.965 33.4062C318.923 33.9479 317.73 34.2187 316.387 34.2187C314.887 34.2187 313.569 33.888 312.434 33.2266C311.298 32.5599 310.413 31.6146 309.777 30.3906C309.147 29.1615 308.832 27.7031 308.832 26.0156C308.832 24.7187 309.02 23.5625 309.395 22.5469C309.775 21.526 310.306 20.6615 310.988 19.9531C311.671 19.2448 312.465 18.7057 313.371 18.3359C314.277 17.9661 315.259 17.7812 316.316 17.7812C317.223 17.7812 318.066 17.9141 318.848 18.1797C319.629 18.4401 320.322 18.8099 320.926 19.2891C321.535 19.7682 322.033 20.3385 322.418 21C322.803 21.6562 323.051 22.3802 323.16 23.1719H319.723ZM333.482 28.8906V22H336.811V34H333.615V31.8203H333.49C333.219 32.5234 332.769 33.0885 332.139 33.5156C331.514 33.9427 330.751 34.1563 329.85 34.1563C329.048 34.1563 328.342 33.974 327.732 33.6094C327.123 33.2448 326.646 32.7266 326.303 32.0547C325.964 31.3828 325.792 30.5781 325.787 29.6406V22H329.115V29.0469C329.12 29.7552 329.311 30.3151 329.686 30.7266C330.061 31.138 330.563 31.3437 331.193 31.3437C331.594 31.3437 331.969 31.2526 332.318 31.0703C332.667 30.8828 332.949 30.6068 333.162 30.2422C333.381 29.8776 333.488 29.4271 333.482 28.8906ZM339.473 34V22H342.801V34H339.473ZM341.145 20.4531C340.65 20.4531 340.225 20.2891 339.871 19.9609C339.522 19.6276 339.348 19.2292 339.348 18.7656C339.348 18.3073 339.522 17.9141 339.871 17.5859C340.225 17.2526 340.65 17.0859 341.145 17.0859C341.639 17.0859 342.061 17.2526 342.41 17.5859C342.764 17.9141 342.941 18.3073 342.941 18.7656C342.941 19.2292 342.764 19.6276 342.41 19.9609C342.061 20.2891 341.639 20.4531 341.145 20.4531ZM349.889 34.1953C348.977 34.1953 348.152 33.9609 347.412 33.4922C346.678 33.0182 346.094 32.3229 345.662 31.4062C345.235 30.4844 345.021 29.3542 345.021 28.0156C345.021 26.6406 345.243 25.4974 345.686 24.5859C346.128 23.6693 346.717 22.9844 347.451 22.5313C348.191 22.0729 349.001 21.8438 349.881 21.8438C350.553 21.8438 351.113 21.9583 351.561 22.1875C352.014 22.4115 352.378 22.6927 352.654 23.0312C352.936 23.3646 353.149 23.6927 353.295 24.0156H353.396V18H356.717V34H353.436V32.0781H353.295C353.139 32.4115 352.917 32.7422 352.631 33.0703C352.35 33.3932 351.982 33.6615 351.529 33.875C351.081 34.0885 350.535 34.1953 349.889 34.1953ZM350.943 31.5469C351.48 31.5469 351.933 31.401 352.303 31.1094C352.678 30.8125 352.964 30.3984 353.162 29.8672C353.365 29.3359 353.467 28.7135 353.467 28C353.467 27.2865 353.368 26.6667 353.17 26.1406C352.972 25.6146 352.686 25.2083 352.311 24.9219C351.936 24.6354 351.48 24.4922 350.943 24.4922C350.396 24.4922 349.936 24.6406 349.561 24.9375C349.186 25.2344 348.902 25.6458 348.709 26.1719C348.516 26.6979 348.42 27.3073 348.42 28C348.42 28.6979 348.516 29.3151 348.709 29.8516C348.907 30.3828 349.191 30.7995 349.561 31.1016C349.936 31.3984 350.396 31.5469 350.943 31.5469ZM364.922 34.2344C363.688 34.2344 362.625 33.9844 361.734 33.4844C360.849 32.9792 360.167 32.2656 359.687 31.3437C359.208 30.4167 358.969 29.3203 358.969 28.0547C358.969 26.8203 359.208 25.737 359.687 24.8047C360.167 23.8724 360.841 23.1458 361.711 22.625C362.586 22.1042 363.612 21.8438 364.789 21.8438C365.581 21.8438 366.318 21.9714 367 22.2266C367.688 22.4766 368.286 22.8542 368.797 23.3594C369.313 23.8646 369.714 24.5 370 25.2656C370.286 26.026 370.43 26.9167 370.43 27.9375V28.8516H360.297V26.7891H367.297C367.297 26.3099 367.193 25.8854 366.984 25.5156C366.776 25.1458 366.487 24.8568 366.117 24.6484C365.753 24.4349 365.328 24.3281 364.844 24.3281C364.339 24.3281 363.891 24.4453 363.5 24.6797C363.115 24.9089 362.813 25.2187 362.594 25.6094C362.375 25.9948 362.263 26.4245 362.258 26.8984V28.8594C362.258 29.4531 362.367 29.9661 362.586 30.3984C362.81 30.8307 363.125 31.1641 363.531 31.3984C363.938 31.6328 364.419 31.75 364.977 31.75C365.346 31.75 365.685 31.6979 365.992 31.5938C366.299 31.4896 366.563 31.3333 366.781 31.125C367 30.9167 367.167 30.6615 367.281 30.3594L370.359 30.5625C370.203 31.3021 369.883 31.9479 369.398 32.5C368.919 33.0469 368.299 33.474 367.539 33.7813C366.784 34.0833 365.911 34.2344 364.922 34.2344ZM372.664 34V18H375.992V24.0156H376.094C376.24 23.6927 376.451 23.3646 376.727 23.0312C377.008 22.6927 377.372 22.4115 377.82 22.1875C378.273 21.9583 378.836 21.8438 379.508 21.8438C380.383 21.8438 381.19 22.0729 381.93 22.5313C382.669 22.9844 383.26 23.6693 383.703 24.5859C384.146 25.4974 384.367 26.6406 384.367 28.0156C384.367 29.3542 384.151 30.4844 383.719 31.4062C383.292 32.3229 382.708 33.0182 381.969 33.4922C381.234 33.9609 380.411 34.1953 379.5 34.1953C378.854 34.1953 378.305 34.0885 377.852 33.875C377.404 33.6615 377.036 33.3932 376.75 33.0703C376.464 32.7422 376.245 32.4115 376.094 32.0781H375.945V34H372.664ZM375.922 28C375.922 28.7135 376.021 29.3359 376.219 29.8672C376.417 30.3984 376.703 30.8125 377.078 31.1094C377.453 31.401 377.909 31.5469 378.445 31.5469C378.987 31.5469 379.445 31.3984 379.82 31.1016C380.195 30.7995 380.479 30.3828 380.672 29.8516C380.87 29.3151 380.969 28.6979 380.969 28C380.969 27.3073 380.872 26.6979 380.68 26.1719C380.487 25.6458 380.203 25.2344 379.828 24.9375C379.453 24.6406 378.992 24.4922 378.445 24.4922C377.904 24.4922 377.445 24.6354 377.07 24.9219C376.701 25.2083 376.417 25.6146 376.219 26.1406C376.021 26.6667 375.922 27.2865 375.922 28ZM392.01 34.2344C390.796 34.2344 389.747 33.9766 388.861 33.4609C387.981 32.9401 387.301 32.2161 386.822 31.2891C386.343 30.3568 386.104 29.276 386.104 28.0469C386.104 26.8073 386.343 25.724 386.822 24.7969C387.301 23.8646 387.981 23.1406 388.861 22.625C389.747 22.1042 390.796 21.8438 392.01 21.8438C393.223 21.8438 394.27 22.1042 395.15 22.625C396.036 23.1406 396.718 23.8646 397.197 24.7969C397.676 25.724 397.916 26.8073 397.916 28.0469C397.916 29.276 397.676 30.3568 397.197 31.2891C396.718 32.2161 396.036 32.9401 395.15 33.4609C394.27 33.9766 393.223 34.2344 392.01 34.2344ZM392.025 31.6562C392.577 31.6562 393.038 31.5 393.408 31.1875C393.778 30.8698 394.057 30.4375 394.244 29.8906C394.437 29.3437 394.533 28.7214 394.533 28.0234C394.533 27.3255 394.437 26.7031 394.244 26.1562C394.057 25.6094 393.778 25.1771 393.408 24.8594C393.038 24.5417 392.577 24.3828 392.025 24.3828C391.468 24.3828 390.999 24.5417 390.619 24.8594C390.244 25.1771 389.96 25.6094 389.768 26.1562C389.58 26.7031 389.486 27.3255 389.486 28.0234C389.486 28.7214 389.58 29.3437 389.768 29.8906C389.96 30.4375 390.244 30.8698 390.619 31.1875C390.999 31.5 391.468 31.6562 392.025 31.6562ZM405.502 34.2344C404.288 34.2344 403.239 33.9766 402.354 33.4609C401.473 32.9401 400.794 32.2161 400.314 31.2891C399.835 30.3568 399.596 29.276 399.596 28.0469C399.596 26.8073 399.835 25.724 400.314 24.7969C400.794 23.8646 401.473 23.1406 402.354 22.625C403.239 22.1042 404.288 21.8438 405.502 21.8438C406.715 21.8438 407.762 22.1042 408.643 22.625C409.528 23.1406 410.21 23.8646 410.689 24.7969C411.169 25.724 411.408 26.8073 411.408 28.0469C411.408 29.276 411.169 30.3568 410.689 31.2891C410.21 32.2161 409.528 32.9401 408.643 33.4609C407.762 33.9766 406.715 34.2344 405.502 34.2344ZM405.518 31.6562C406.07 31.6562 406.531 31.5 406.9 31.1875C407.27 30.8698 407.549 30.4375 407.736 29.8906C407.929 29.3437 408.025 28.7214 408.025 28.0234C408.025 27.3255 407.929 26.7031 407.736 26.1562C407.549 25.6094 407.27 25.1771 406.9 24.8594C406.531 24.5417 406.07 24.3828 405.518 24.3828C404.96 24.3828 404.492 24.5417 404.111 24.8594C403.736 25.1771 403.452 25.6094 403.26 26.1562C403.072 26.7031 402.979 27.3255 402.979 28.0234C402.979 28.7214 403.072 29.3437 403.26 29.8906C403.452 30.4375 403.736 30.8698 404.111 31.1875C404.492 31.5 404.96 31.6562 405.518 31.6562ZM416.588 30.5469L416.596 26.5547H417.08L420.924 22H424.744L419.58 28.0313H418.791L416.588 30.5469ZM413.572 34V18H416.9V34H413.572ZM421.072 34L417.541 28.7734L419.76 26.4219L424.971 34H421.072Z" fill="white"/>
<defs>
<filter id="filter0_d_214_2030" x="0" y="0" width="525" height="63" filterUnits="userSpaceOnUse" color-interpolation-filters="sRGB">
<feFlood flood-opacity="0" result="BackgroundImageFix"/>
<feColorMatrix in="SourceAlpha" type="matrix" values="0 0 0 0 0 0 0 0 0 0 0 0 0 0 0 0 0 0 127 0" result="hardAlpha"/>
<feOffset dy="4"/>
<feGaussianBlur stdDeviation="5"/>
<feComposite in2="hardAlpha" operator="out"/>
<feColorMatrix type="matrix" values="0 0 0 0 0 0 0 0 0 0 0 0 0 0 0 0 0 0 0.25 0"/>
<feBlend mode="normal" in2="BackgroundImageFix" result="effect1_dropShadow_214_2030"/>
<feBlend mode="normal" in="SourceGraphic" in2="effect1_dropShadow_214_2030" result="shape"/>
</filter>
</defs>
</svg>
