<svg width="102" height="18" viewBox="0 0 102 18" fill="none" xmlns="http://www.w3.org/2000/svg">
<path d="M3.4425 18L4.905 11.3447L0 6.86842L6.48 6.27632L9 0L11.52 6.27632L18 6.86842L13.095 11.3447L14.5575 18L9 14.4711L3.4425 18Z" fill="#FFA41C"/>
<path d="M24.4425 18L25.905 11.3447L21 6.86842L27.48 6.27632L30 0L32.52 6.27632L39 6.86842L34.095 11.3447L35.5575 18L30 14.4711L24.4425 18Z" fill="#FFA41C"/>
<path d="M45.4425 18L46.905 11.3447L42 6.86842L48.48 6.27632L51 0L53.52 6.27632L60 6.86842L55.095 11.3447L56.5575 18L51 14.4711L45.4425 18Z" fill="#FFA41C"/>
<path d="M66.4425 18L67.905 11.3447L63 6.86842L69.48 6.27632L72 0L74.52 6.27632L81 6.86842L76.095 11.3447L77.5575 18L72 14.4711L66.4425 18Z" fill="#FFA41C"/>
<path d="M87.4425 18L88.905 11.3447L84 6.86842L90.48 6.27632L93 0L95.52 6.27632L102 6.86842L97.095 11.3447L98.5575 18L93 14.4711L87.4425 18Z" fill="#FFA41C"/>
</svg>
