<svg width="109" height="137" viewBox="0 0 109 137" fill="none" xmlns="http://www.w3.org/2000/svg">
<path d="M26.7166 50.385C23.4397 42.2758 27.428 32.9946 35.6102 29.6883L43.0275 26.6911C51.2098 23.3847 60.5263 27.2896 63.8031 35.3987L64.1373 36.2257C66.1609 41.2337 65.4725 46.9367 62.3168 51.3385L55.0508 61.5165C52.9183 64.5072 51.5724 67.9772 51.1365 71.6085C50.7005 75.2397 51.1885 78.9159 52.5557 82.2999L52.6949 82.6445C54.338 86.7106 58.98 88.6562 63.0827 86.9984C67.1854 85.3405 69.1726 80.7161 67.5296 76.65L67.3996 76.3284C66.6384 74.4447 66.9065 72.3054 68.0742 70.6577L75.3401 60.4797C81.633 51.6302 83.0192 40.2471 78.9719 30.2312L78.6377 29.4042C72.0748 13.1629 53.4742 5.36684 37.0866 11.9889L29.6693 14.9861C13.2816 21.6082 5.31902 40.1381 11.8819 56.3794C13.525 60.4455 18.167 62.3911 22.2697 60.7333C26.3724 59.0754 28.3596 54.451 26.7166 50.385ZM74.9647 116.403C77.4237 115.409 79.3907 113.488 80.4332 111.062C81.4756 108.636 81.508 105.904 80.5232 103.467C79.5384 101.03 77.6172 99.0878 75.182 98.0671C72.7469 97.0465 69.9974 97.0313 67.5385 98.025C65.0795 99.0186 63.1124 100.94 62.07 103.366C61.0275 105.791 60.9951 108.523 61.9799 110.96C62.9647 113.397 64.886 115.34 67.3211 116.361C69.7562 117.381 72.5057 117.396 74.9647 116.403Z" fill="#F95700" fill-opacity="0.1"/>
<path d="M19.182 99.6525C17.6765 95.9267 19.5938 91.6281 23.4576 90.0667L26.9603 88.6514C30.8241 87.09 35.1896 88.8499 36.6951 92.5757L36.8487 92.9557C37.7785 95.2566 37.4293 97.8902 35.9252 99.9345L32.462 104.661C31.4456 106.05 30.797 107.657 30.5758 109.334C30.3546 111.01 30.5679 112.704 31.1961 114.259L31.26 114.417C32.015 116.285 34.1901 117.162 36.1275 116.379C38.0649 115.596 39.0202 113.455 38.2653 111.586L38.2056 111.439C37.8558 110.573 37.9914 109.585 38.5481 108.82L42.0113 104.093C45.0109 99.9834 45.7135 94.7268 43.8539 90.1249L43.7004 89.745C40.685 82.2827 31.9692 78.7692 24.2306 81.8963L20.728 83.3117C12.9894 86.4388 9.1614 95.021 12.1768 102.483C12.9317 104.351 15.1068 105.228 17.0442 104.445C18.9816 103.663 19.9369 101.521 19.182 99.6525ZM41.5867 129.889C42.7479 129.42 43.6818 128.525 44.183 127.402C44.6841 126.278 44.7115 125.018 44.259 123.898C43.8065 122.779 42.9113 121.891 41.7703 121.431C40.6293 120.971 39.3359 120.976 38.1747 121.446C37.0135 121.915 36.0796 122.81 35.5785 123.933C35.0773 125.057 35.05 126.317 35.5025 127.437C35.9549 128.556 36.8501 129.444 37.9912 129.904C39.1322 130.364 40.4256 130.359 41.5867 129.889Z" fill="#F95700" fill-opacity="0.1"/>
</svg>
