<svg width="523" height="43" viewBox="0 0 523 43" fill="none" xmlns="http://www.w3.org/2000/svg">
<g filter="url(#filter0_b_214_2024)">
<path d="M0 0H500C502.761 0 505 2.23858 505 5V38C505 40.7614 502.761 43 500 43H0V0Z" fill="#F95700"/>
</g>
<path d="M90.3906 28V12H96.7969C97.974 12 98.9557 12.1745 99.7422 12.5234C100.529 12.8724 101.12 13.3568 101.516 13.9766C101.911 14.5911 102.109 15.2995 102.109 16.1016C102.109 16.7266 101.984 17.276 101.734 17.75C101.484 18.2187 101.141 18.6042 100.703 18.9062C100.271 19.2031 99.776 19.4141 99.2188 19.5391V19.6953C99.8281 19.7214 100.398 19.8932 100.93 20.2109C101.466 20.5286 101.901 20.974 102.234 21.5469C102.568 22.1146 102.734 22.7917 102.734 23.5781C102.734 24.4271 102.523 25.1849 102.102 25.8516C101.685 26.513 101.068 27.0365 100.25 27.4219C99.4323 27.8073 98.4245 28 97.2266 28H90.3906ZM93.7734 25.2344H96.5313C97.474 25.2344 98.1615 25.0547 98.5938 24.6953C99.026 24.3307 99.2422 23.8464 99.2422 23.2422C99.2422 22.7995 99.1354 22.4089 98.9219 22.0703C98.7083 21.7318 98.4036 21.4661 98.0078 21.2734C97.6172 21.0807 97.151 20.9844 96.6094 20.9844H93.7734V25.2344ZM93.7734 18.6953H96.2812C96.7448 18.6953 97.1563 18.6146 97.5156 18.4531C97.8802 18.2865 98.1667 18.0521 98.375 17.75C98.5885 17.4479 98.6953 17.0859 98.6953 16.6641C98.6953 16.0859 98.4896 15.6198 98.0781 15.2656C97.6719 14.9115 97.0938 14.7344 96.3438 14.7344H93.7734V18.6953ZM110.295 28.2344C109.081 28.2344 108.032 27.9766 107.146 27.4609C106.266 26.9401 105.587 26.2161 105.107 25.2891C104.628 24.3568 104.389 23.276 104.389 22.0469C104.389 20.8073 104.628 19.724 105.107 18.7969C105.587 17.8646 106.266 17.1406 107.146 16.625C108.032 16.1042 109.081 15.8438 110.295 15.8438C111.508 15.8438 112.555 16.1042 113.436 16.625C114.321 17.1406 115.003 17.8646 115.482 18.7969C115.962 19.724 116.201 20.8073 116.201 22.0469C116.201 23.276 115.962 24.3568 115.482 25.2891C115.003 26.2161 114.321 26.9401 113.436 27.4609C112.555 27.9766 111.508 28.2344 110.295 28.2344ZM110.311 25.6562C110.863 25.6562 111.324 25.5 111.693 25.1875C112.063 24.8698 112.342 24.4375 112.529 23.8906C112.722 23.3437 112.818 22.7214 112.818 22.0234C112.818 21.3255 112.722 20.7031 112.529 20.1562C112.342 19.6094 112.063 19.1771 111.693 18.8594C111.324 18.5417 110.863 18.3828 110.311 18.3828C109.753 18.3828 109.285 18.5417 108.904 18.8594C108.529 19.1771 108.245 19.6094 108.053 20.1562C107.865 20.7031 107.771 21.3255 107.771 22.0234C107.771 22.7214 107.865 23.3437 108.053 23.8906C108.245 24.4375 108.529 24.8698 108.904 25.1875C109.285 25.5 109.753 25.6562 110.311 25.6562ZM121.693 21.0625V28H118.365V16H121.537V18.1172H121.678C121.943 17.4193 122.389 16.8672 123.014 16.4609C123.639 16.0495 124.396 15.8438 125.287 15.8438C126.12 15.8438 126.847 16.026 127.467 16.3906C128.087 16.7552 128.568 17.276 128.912 17.9531C129.256 18.625 129.428 19.4271 129.428 20.3594V28H126.1V20.9531C126.105 20.2187 125.917 19.6458 125.537 19.2344C125.157 18.8177 124.633 18.6094 123.967 18.6094C123.519 18.6094 123.123 18.7057 122.779 18.8984C122.441 19.0911 122.175 19.3724 121.982 19.7422C121.795 20.1068 121.699 20.5469 121.693 21.0625ZM139.746 22.8906V16H143.074V28H139.879V25.8203H139.754C139.483 26.5234 139.033 27.0885 138.402 27.5156C137.777 27.9427 137.014 28.1563 136.113 28.1563C135.311 28.1563 134.605 27.974 133.996 27.6094C133.387 27.2448 132.91 26.7266 132.566 26.0547C132.228 25.3828 132.056 24.5781 132.051 23.6406V16H135.379V23.0469C135.384 23.7552 135.574 24.3151 135.949 24.7266C136.324 25.138 136.827 25.3437 137.457 25.3437C137.858 25.3437 138.233 25.2526 138.582 25.0703C138.931 24.8828 139.212 24.6068 139.426 24.2422C139.645 23.8776 139.751 23.4271 139.746 22.8906ZM155.721 19.4219L152.674 19.6094C152.622 19.349 152.51 19.1146 152.338 18.9062C152.166 18.6927 151.939 18.5234 151.658 18.3984C151.382 18.2682 151.051 18.2031 150.666 18.2031C150.15 18.2031 149.715 18.3125 149.361 18.5312C149.007 18.7448 148.83 19.0312 148.83 19.3906C148.83 19.6771 148.945 19.9193 149.174 20.1172C149.403 20.3151 149.796 20.474 150.354 20.5937L152.525 21.0312C153.692 21.2708 154.562 21.6562 155.135 22.1875C155.708 22.7187 155.994 23.4167 155.994 24.2812C155.994 25.0677 155.762 25.7578 155.299 26.3516C154.84 26.9453 154.21 27.4089 153.408 27.7422C152.611 28.0703 151.692 28.2344 150.65 28.2344C149.062 28.2344 147.796 27.9036 146.854 27.2422C145.916 26.5755 145.367 25.6693 145.205 24.5234L148.479 24.3516C148.577 24.8359 148.817 25.2057 149.197 25.4609C149.577 25.7109 150.064 25.8359 150.658 25.8359C151.242 25.8359 151.71 25.724 152.064 25.5C152.424 25.2708 152.606 24.9766 152.611 24.6172C152.606 24.3151 152.479 24.0677 152.229 23.875C151.979 23.6771 151.593 23.526 151.072 23.4219L148.994 23.0078C147.822 22.7734 146.95 22.3672 146.377 21.7891C145.809 21.2109 145.525 20.474 145.525 19.5781C145.525 18.8073 145.734 18.1432 146.15 17.5859C146.572 17.0286 147.163 16.599 147.924 16.2969C148.689 15.9948 149.585 15.8438 150.611 15.8438C152.127 15.8438 153.32 16.1641 154.189 16.8047C155.064 17.4453 155.575 18.3177 155.721 19.4219ZM169.244 28L171.869 12H174.369L171.744 28H169.244ZM162.08 24.0312L162.494 21.5312H174.994L174.58 24.0312H162.08ZM163.619 28L166.244 12H168.744L166.119 28H163.619ZM162.994 18.4687L163.416 15.9688H175.916L175.494 18.4687H162.994ZM184.398 12V28H181.016V15.2109H180.922L177.258 17.5078V14.5078L181.219 12H184.398ZM190.178 26.1406C189.662 26.1406 189.219 25.9583 188.85 25.5938C188.485 25.2292 188.303 24.7865 188.303 24.2656C188.303 23.7552 188.485 23.3177 188.85 22.9531C189.219 22.5885 189.662 22.4062 190.178 22.4062C190.678 22.4062 191.115 22.5885 191.49 22.9531C191.865 23.3177 192.053 23.7552 192.053 24.2656C192.053 24.6094 191.964 24.9245 191.787 25.2109C191.615 25.4922 191.389 25.7187 191.107 25.8906C190.826 26.0573 190.516 26.1406 190.178 26.1406ZM190.178 18.2891C189.662 18.2891 189.219 18.1068 188.85 17.7422C188.485 17.3776 188.303 16.9349 188.303 16.4141C188.303 15.9036 188.485 15.4687 188.85 15.1094C189.219 14.7448 189.662 14.5625 190.178 14.5625C190.678 14.5625 191.115 14.7448 191.49 15.1094C191.865 15.4687 192.053 15.9036 192.053 16.4141C192.053 16.763 191.964 17.0807 191.787 17.3672C191.615 17.6484 191.389 17.8724 191.107 18.0391C190.826 18.2057 190.516 18.2891 190.178 18.2891ZM199.939 28V12H203.322V25.2109H210.182V28H199.939ZM212.359 28V16H215.688V28H212.359ZM214.031 14.4531C213.536 14.4531 213.112 14.2891 212.758 13.9609C212.409 13.6276 212.234 13.2292 212.234 12.7656C212.234 12.3073 212.409 11.9141 212.758 11.5859C213.112 11.2526 213.536 11.0859 214.031 11.0859C214.526 11.0859 214.948 11.2526 215.297 11.5859C215.651 11.9141 215.828 12.3073 215.828 12.7656C215.828 13.2292 215.651 13.6276 215.297 13.9609C214.948 14.2891 214.526 14.4531 214.031 14.4531ZM228.338 19.4219L225.291 19.6094C225.239 19.349 225.127 19.1146 224.955 18.9062C224.783 18.6927 224.557 18.5234 224.275 18.3984C223.999 18.2682 223.669 18.2031 223.283 18.2031C222.768 18.2031 222.333 18.3125 221.979 18.5312C221.624 18.7448 221.447 19.0312 221.447 19.3906C221.447 19.6771 221.562 19.9193 221.791 20.1172C222.02 20.3151 222.413 20.474 222.971 20.5937L225.143 21.0312C226.309 21.2708 227.179 21.6562 227.752 22.1875C228.325 22.7187 228.611 23.4167 228.611 24.2812C228.611 25.0677 228.38 25.7578 227.916 26.3516C227.458 26.9453 226.827 27.4089 226.025 27.7422C225.229 28.0703 224.309 28.2344 223.268 28.2344C221.679 28.2344 220.413 27.9036 219.471 27.2422C218.533 26.5755 217.984 25.6693 217.822 24.5234L221.096 24.3516C221.195 24.8359 221.434 25.2057 221.814 25.4609C222.195 25.7109 222.682 25.8359 223.275 25.8359C223.859 25.8359 224.327 25.724 224.682 25.5C225.041 25.2708 225.223 24.9766 225.229 24.6172C225.223 24.3151 225.096 24.0677 224.846 23.875C224.596 23.6771 224.21 23.526 223.689 23.4219L221.611 23.0078C220.439 22.7734 219.567 22.3672 218.994 21.7891C218.426 21.2109 218.143 20.474 218.143 19.5781C218.143 18.8073 218.351 18.1432 218.768 17.5859C219.189 17.0286 219.781 16.599 220.541 16.2969C221.307 15.9948 222.202 15.8438 223.229 15.8438C224.744 15.8438 225.937 16.1641 226.807 16.8047C227.682 17.4453 228.192 18.3177 228.338 19.4219ZM237.09 16V18.5H229.863V16H237.09ZM231.504 13.125H234.832V24.3125C234.832 24.6198 234.879 24.8594 234.973 25.0312C235.066 25.1979 235.197 25.3151 235.363 25.3828C235.535 25.4505 235.733 25.4844 235.957 25.4844C236.113 25.4844 236.27 25.4714 236.426 25.4453C236.582 25.4141 236.702 25.3906 236.785 25.375L237.309 27.8516C237.142 27.9036 236.908 27.9635 236.605 28.0313C236.303 28.1042 235.936 28.1484 235.504 28.1641C234.702 28.1953 233.999 28.0885 233.395 27.8437C232.796 27.599 232.329 27.2187 231.996 26.7031C231.663 26.1875 231.499 25.5365 231.504 24.75V13.125ZM239.258 28V16H242.586V28H239.258ZM240.93 14.4531C240.435 14.4531 240.01 14.2891 239.656 13.9609C239.307 13.6276 239.133 13.2292 239.133 12.7656C239.133 12.3073 239.307 11.9141 239.656 11.5859C240.01 11.2526 240.435 11.0859 240.93 11.0859C241.424 11.0859 241.846 11.2526 242.195 11.5859C242.549 11.9141 242.727 12.3073 242.727 12.7656C242.727 13.2292 242.549 13.6276 242.195 13.9609C241.846 14.2891 241.424 14.4531 240.93 14.4531ZM248.58 21.0625V28H245.252V16H248.424V18.1172H248.564C248.83 17.4193 249.275 16.8672 249.9 16.4609C250.525 16.0495 251.283 15.8438 252.174 15.8438C253.007 15.8438 253.734 16.026 254.354 16.3906C254.973 16.7552 255.455 17.276 255.799 17.9531C256.143 18.625 256.314 19.4271 256.314 20.3594V28H252.986V20.9531C252.992 20.2187 252.804 19.6458 252.424 19.2344C252.044 18.8177 251.52 18.6094 250.854 18.6094C250.406 18.6094 250.01 18.7057 249.666 18.8984C249.327 19.0911 249.062 19.3724 248.869 19.7422C248.682 20.1068 248.585 20.5469 248.58 21.0625ZM264.344 32.75C263.266 32.75 262.341 32.6016 261.57 32.3047C260.805 32.013 260.195 31.6146 259.742 31.1094C259.289 30.6042 258.995 30.0365 258.859 29.4062L261.937 28.9922C262.031 29.2318 262.18 29.4557 262.383 29.6641C262.586 29.8724 262.854 30.0391 263.188 30.1641C263.526 30.2943 263.938 30.3594 264.422 30.3594C265.146 30.3594 265.742 30.1823 266.211 29.8281C266.685 29.4792 266.922 28.8932 266.922 28.0703V25.875H266.781C266.635 26.2083 266.417 26.5234 266.125 26.8203C265.833 27.1172 265.458 27.3594 265 27.5469C264.542 27.7344 263.995 27.8281 263.359 27.8281C262.458 27.8281 261.638 27.6198 260.898 27.2031C260.164 26.7812 259.578 26.138 259.141 25.2734C258.708 24.4036 258.492 23.3047 258.492 21.9766C258.492 20.6172 258.714 19.4818 259.156 18.5703C259.599 17.6589 260.188 16.9766 260.922 16.5234C261.661 16.0703 262.471 15.8438 263.352 15.8438C264.023 15.8438 264.586 15.9583 265.039 16.1875C265.492 16.4115 265.857 16.6927 266.133 17.0312C266.414 17.3646 266.63 17.6927 266.781 18.0156H266.906V16H270.211V28.1172C270.211 29.138 269.961 29.9922 269.461 30.6797C268.961 31.3672 268.268 31.8828 267.383 32.2266C266.503 32.5755 265.49 32.75 264.344 32.75ZM264.414 25.3281C264.951 25.3281 265.404 25.1953 265.773 24.9297C266.148 24.6589 266.435 24.2734 266.633 23.7734C266.836 23.2682 266.938 22.6641 266.938 21.9609C266.938 21.2578 266.839 20.6484 266.641 20.1328C266.443 19.612 266.156 19.2083 265.781 18.9219C265.406 18.6354 264.951 18.4922 264.414 18.4922C263.867 18.4922 263.406 18.6406 263.031 18.9375C262.656 19.2292 262.372 19.6354 262.18 20.1562C261.987 20.6771 261.891 21.2786 261.891 21.9609C261.891 22.6536 261.987 23.2526 262.18 23.7578C262.378 24.2578 262.661 24.6458 263.031 24.9219C263.406 25.1927 263.867 25.3281 264.414 25.3281ZM292.717 20C292.717 21.7448 292.386 23.2292 291.725 24.4531C291.068 25.6771 290.173 26.612 289.037 27.2578C287.907 27.8984 286.636 28.2187 285.225 28.2187C283.803 28.2187 282.527 27.8958 281.396 27.25C280.266 26.6042 279.373 25.6693 278.717 24.4453C278.061 23.2214 277.732 21.7396 277.732 20C277.732 18.2552 278.061 16.7708 278.717 15.5469C279.373 14.3229 280.266 13.3906 281.396 12.75C282.527 12.1042 283.803 11.7812 285.225 11.7812C286.636 11.7812 287.907 12.1042 289.037 12.75C290.173 13.3906 291.068 14.3229 291.725 15.5469C292.386 16.7708 292.717 18.2552 292.717 20ZM289.287 20C289.287 18.8698 289.118 17.9167 288.779 17.1406C288.446 16.3646 287.975 15.776 287.365 15.375C286.756 14.974 286.042 14.7734 285.225 14.7734C284.407 14.7734 283.693 14.974 283.084 15.375C282.475 15.776 282.001 16.3646 281.662 17.1406C281.329 17.9167 281.162 18.8698 281.162 20C281.162 21.1302 281.329 22.0833 281.662 22.8594C282.001 23.6354 282.475 24.224 283.084 24.625C283.693 25.026 284.407 25.2266 285.225 25.2266C286.042 25.2266 286.756 25.026 287.365 24.625C287.975 24.224 288.446 23.6354 288.779 22.8594C289.118 22.0833 289.287 21.1302 289.287 20ZM295.16 32.5V16H298.441V18.0156H298.59C298.736 17.6927 298.947 17.3646 299.223 17.0312C299.504 16.6927 299.868 16.4115 300.316 16.1875C300.77 15.9583 301.332 15.8438 302.004 15.8438C302.879 15.8438 303.686 16.0729 304.426 16.5313C305.165 16.9844 305.757 17.6693 306.199 18.5859C306.642 19.4974 306.863 20.6406 306.863 22.0156C306.863 23.3542 306.647 24.4844 306.215 25.4062C305.788 26.3229 305.204 27.0182 304.465 27.4922C303.73 27.9609 302.908 28.1953 301.996 28.1953C301.35 28.1953 300.801 28.0885 300.348 27.875C299.9 27.6615 299.533 27.3932 299.246 27.0703C298.96 26.7422 298.741 26.4115 298.59 26.0781H298.488V32.5H295.16ZM298.418 22C298.418 22.7135 298.517 23.3359 298.715 23.8672C298.913 24.3984 299.199 24.8125 299.574 25.1094C299.949 25.401 300.405 25.5469 300.941 25.5469C301.483 25.5469 301.941 25.3984 302.316 25.1016C302.691 24.7995 302.975 24.3828 303.168 23.8516C303.366 23.3151 303.465 22.6979 303.465 22C303.465 21.3073 303.368 20.6979 303.176 20.1719C302.983 19.6458 302.699 19.2344 302.324 18.9375C301.949 18.6406 301.488 18.4922 300.941 18.4922C300.4 18.4922 299.941 18.6354 299.566 18.9219C299.197 19.2083 298.913 19.6146 298.715 20.1406C298.517 20.6667 298.418 21.2865 298.418 22ZM315.465 16V18.5H308.238V16H315.465ZM309.879 13.125H313.207V24.3125C313.207 24.6198 313.254 24.8594 313.348 25.0312C313.441 25.1979 313.572 25.3151 313.738 25.3828C313.91 25.4505 314.108 25.4844 314.332 25.4844C314.488 25.4844 314.645 25.4714 314.801 25.4453C314.957 25.4141 315.077 25.3906 315.16 25.375L315.684 27.8516C315.517 27.9036 315.283 27.9635 314.98 28.0313C314.678 28.1042 314.311 28.1484 313.879 28.1641C313.077 28.1953 312.374 28.0885 311.77 27.8437C311.171 27.599 310.704 27.2187 310.371 26.7031C310.038 26.1875 309.874 25.5365 309.879 24.75V13.125ZM317.633 28V16H320.961V28H317.633ZM319.305 14.4531C318.81 14.4531 318.385 14.2891 318.031 13.9609C317.682 13.6276 317.508 13.2292 317.508 12.7656C317.508 12.3073 317.682 11.9141 318.031 11.5859C318.385 11.2526 318.81 11.0859 319.305 11.0859C319.799 11.0859 320.221 11.2526 320.57 11.5859C320.924 11.9141 321.102 12.3073 321.102 12.7656C321.102 13.2292 320.924 13.6276 320.57 13.9609C320.221 14.2891 319.799 14.4531 319.305 14.4531ZM323.627 28V16H326.799V18.1172H326.939C327.189 17.4141 327.606 16.8594 328.189 16.4531C328.773 16.0469 329.471 15.8438 330.283 15.8438C331.106 15.8438 331.807 16.0495 332.385 16.4609C332.963 16.8672 333.348 17.4193 333.541 18.1172H333.666C333.911 17.4297 334.354 16.8802 334.994 16.4687C335.64 16.0521 336.403 15.8438 337.283 15.8438C338.403 15.8438 339.312 16.2005 340.01 16.9141C340.713 17.6224 341.064 18.6276 341.064 19.9297V28H337.744V20.5859C337.744 19.9193 337.567 19.4193 337.213 19.0859C336.859 18.7526 336.416 18.5859 335.885 18.5859C335.281 18.5859 334.809 18.7786 334.471 19.1641C334.132 19.5443 333.963 20.0469 333.963 20.6719V28H330.736V20.5156C330.736 19.9271 330.567 19.4583 330.229 19.1094C329.895 18.7604 329.455 18.5859 328.908 18.5859C328.538 18.5859 328.205 18.6797 327.908 18.8672C327.617 19.0495 327.385 19.3073 327.213 19.6406C327.041 19.9687 326.955 20.3542 326.955 20.7969V28H323.627ZM343.693 28V16H347.021V28H343.693ZM345.365 14.4531C344.87 14.4531 344.446 14.2891 344.092 13.9609C343.743 13.6276 343.568 13.2292 343.568 12.7656C343.568 12.3073 343.743 11.9141 344.092 11.5859C344.446 11.2526 344.87 11.0859 345.365 11.0859C345.86 11.0859 346.282 11.2526 346.631 11.5859C346.985 11.9141 347.162 12.3073 347.162 12.7656C347.162 13.2292 346.985 13.6276 346.631 13.9609C346.282 14.2891 345.86 14.4531 345.365 14.4531ZM349.625 28V26.0156L355.5 18.7422V18.6562H349.828V16H359.508V18.1641L353.992 25.2578V25.3437H359.711V28H349.625ZM365.678 28.2266C364.912 28.2266 364.23 28.0938 363.631 27.8281C363.032 27.5573 362.558 27.1589 362.209 26.6328C361.865 26.1016 361.693 25.4401 361.693 24.6484C361.693 23.9818 361.816 23.4219 362.061 22.9687C362.305 22.5156 362.639 22.151 363.061 21.875C363.482 21.599 363.962 21.3906 364.498 21.25C365.04 21.1094 365.607 21.0104 366.201 20.9531C366.899 20.8802 367.462 20.8125 367.889 20.75C368.316 20.6823 368.626 20.5833 368.818 20.4531C369.011 20.3229 369.107 20.1302 369.107 19.875V19.8281C369.107 19.3333 368.951 18.9505 368.639 18.6797C368.331 18.4089 367.894 18.2734 367.326 18.2734C366.727 18.2734 366.251 18.4062 365.896 18.6719C365.542 18.9323 365.308 19.2604 365.193 19.6562L362.115 19.4062C362.271 18.6771 362.579 18.0469 363.037 17.5156C363.495 16.9792 364.087 16.5677 364.811 16.2812C365.54 15.9896 366.383 15.8438 367.342 15.8438C368.008 15.8438 368.646 15.9219 369.256 16.0781C369.87 16.2344 370.415 16.4766 370.889 16.8047C371.368 17.1328 371.745 17.5547 372.021 18.0703C372.298 18.5807 372.436 19.1927 372.436 19.9062V28H369.279V26.3359H369.186C368.993 26.7109 368.735 27.0417 368.412 27.3281C368.089 27.6094 367.701 27.8307 367.248 27.9922C366.795 28.1484 366.271 28.2266 365.678 28.2266ZM366.631 25.9297C367.12 25.9297 367.553 25.8333 367.928 25.6406C368.303 25.4427 368.597 25.1771 368.811 24.8438C369.024 24.5104 369.131 24.1328 369.131 23.7109V22.4375C369.027 22.5052 368.883 22.5677 368.701 22.625C368.524 22.6771 368.324 22.7266 368.1 22.7734C367.876 22.8151 367.652 22.8542 367.428 22.8906C367.204 22.9219 367.001 22.9505 366.818 22.9766C366.428 23.0339 366.087 23.125 365.795 23.25C365.503 23.375 365.277 23.5443 365.115 23.7578C364.954 23.9661 364.873 24.2266 364.873 24.5391C364.873 24.9922 365.037 25.3385 365.365 25.5781C365.699 25.8125 366.12 25.9297 366.631 25.9297ZM381.4 16V18.5H374.174V16H381.4ZM375.814 13.125H379.143V24.3125C379.143 24.6198 379.189 24.8594 379.283 25.0312C379.377 25.1979 379.507 25.3151 379.674 25.3828C379.846 25.4505 380.044 25.4844 380.268 25.4844C380.424 25.4844 380.58 25.4714 380.736 25.4453C380.893 25.4141 381.012 25.3906 381.096 25.375L381.619 27.8516C381.452 27.9036 381.218 27.9635 380.916 28.0313C380.614 28.1042 380.247 28.1484 379.814 28.1641C379.012 28.1953 378.309 28.0885 377.705 27.8437C377.106 27.599 376.64 27.2187 376.307 26.7031C375.973 26.1875 375.809 25.5365 375.814 24.75V13.125ZM383.568 28V16H386.896V28H383.568ZM385.24 14.4531C384.745 14.4531 384.321 14.2891 383.967 13.9609C383.618 13.6276 383.443 13.2292 383.443 12.7656C383.443 12.3073 383.618 11.9141 383.967 11.5859C384.321 11.2526 384.745 11.0859 385.24 11.0859C385.735 11.0859 386.157 11.2526 386.506 11.5859C386.86 11.9141 387.037 12.3073 387.037 12.7656C387.037 13.2292 386.86 13.6276 386.506 13.9609C386.157 14.2891 385.735 14.4531 385.24 14.4531ZM394.984 28.2344C393.771 28.2344 392.721 27.9766 391.836 27.4609C390.956 26.9401 390.276 26.2161 389.797 25.2891C389.318 24.3568 389.078 23.276 389.078 22.0469C389.078 20.8073 389.318 19.724 389.797 18.7969C390.276 17.8646 390.956 17.1406 391.836 16.625C392.721 16.1042 393.771 15.8438 394.984 15.8438C396.198 15.8438 397.245 16.1042 398.125 16.625C399.01 17.1406 399.693 17.8646 400.172 18.7969C400.651 19.724 400.891 20.8073 400.891 22.0469C400.891 23.276 400.651 24.3568 400.172 25.2891C399.693 26.2161 399.01 26.9401 398.125 27.4609C397.245 27.9766 396.198 28.2344 394.984 28.2344ZM395 25.6562C395.552 25.6562 396.013 25.5 396.383 25.1875C396.753 24.8698 397.031 24.4375 397.219 23.8906C397.411 23.3437 397.508 22.7214 397.508 22.0234C397.508 21.3255 397.411 20.7031 397.219 20.1562C397.031 19.6094 396.753 19.1771 396.383 18.8594C396.013 18.5417 395.552 18.3828 395 18.3828C394.443 18.3828 393.974 18.5417 393.594 18.8594C393.219 19.1771 392.935 19.6094 392.742 20.1562C392.555 20.7031 392.461 21.3255 392.461 22.0234C392.461 22.7214 392.555 23.3437 392.742 23.8906C392.935 24.4375 393.219 24.8698 393.594 25.1875C393.974 25.5 394.443 25.6562 395 25.6562ZM406.383 21.0625V28H403.055V16H406.227V18.1172H406.367C406.633 17.4193 407.078 16.8672 407.703 16.4609C408.328 16.0495 409.086 15.8438 409.977 15.8438C410.81 15.8438 411.536 16.026 412.156 16.3906C412.776 16.7552 413.258 17.276 413.602 17.9531C413.945 18.625 414.117 19.4271 414.117 20.3594V28H410.789V20.9531C410.794 20.2187 410.607 19.6458 410.227 19.2344C409.846 18.8177 409.323 18.6094 408.656 18.6094C408.208 18.6094 407.813 18.7057 407.469 18.8984C407.13 19.0911 406.865 19.3724 406.672 19.7422C406.484 20.1068 406.388 20.5469 406.383 21.0625ZM432.504 17.1719C432.395 16.7917 432.241 16.4557 432.043 16.1641C431.845 15.8672 431.603 15.6172 431.316 15.4141C431.035 15.2057 430.712 15.0469 430.348 14.9375C429.988 14.8281 429.59 14.7734 429.152 14.7734C428.335 14.7734 427.616 14.9766 426.996 15.3828C426.382 15.7891 425.902 16.3802 425.559 17.1562C425.215 17.9271 425.043 18.8698 425.043 19.9844C425.043 21.099 425.212 22.0469 425.551 22.8281C425.889 23.6094 426.368 24.2057 426.988 24.6172C427.608 25.0234 428.34 25.2266 429.184 25.2266C429.949 25.2266 430.603 25.0911 431.145 24.8203C431.691 24.5443 432.108 24.1562 432.395 23.6562C432.686 23.1562 432.832 22.5651 432.832 21.8828L433.52 21.9844H429.395V19.4375H436.09V21.4531C436.09 22.8594 435.793 24.0677 435.199 25.0781C434.605 26.0833 433.788 26.8594 432.746 27.4062C431.704 27.9479 430.512 28.2187 429.168 28.2187C427.668 28.2187 426.35 27.888 425.215 27.2266C424.079 26.5599 423.194 25.6146 422.559 24.3906C421.928 23.1615 421.613 21.7031 421.613 20.0156C421.613 18.7187 421.801 17.5625 422.176 16.5469C422.556 15.526 423.087 14.6615 423.77 13.9531C424.452 13.2448 425.246 12.7057 426.152 12.3359C427.059 11.9661 428.04 11.7812 429.098 11.7812C430.004 11.7812 430.848 11.9141 431.629 12.1797C432.41 12.4401 433.103 12.8099 433.707 13.2891C434.316 13.7682 434.814 14.3385 435.199 15C435.585 15.6562 435.832 16.3802 435.941 17.1719H432.504ZM446.264 22.8906V16H449.592V28H446.396V25.8203H446.271C446.001 26.5234 445.55 27.0885 444.92 27.5156C444.295 27.9427 443.532 28.1563 442.631 28.1563C441.829 28.1563 441.123 27.974 440.514 27.6094C439.904 27.2448 439.428 26.7266 439.084 26.0547C438.745 25.3828 438.574 24.5781 438.568 23.6406V16H441.896V23.0469C441.902 23.7552 442.092 24.3151 442.467 24.7266C442.842 25.138 443.344 25.3437 443.975 25.3437C444.376 25.3437 444.751 25.2526 445.1 25.0703C445.449 24.8828 445.73 24.6068 445.943 24.2422C446.162 23.8776 446.269 23.4271 446.264 22.8906ZM452.254 28V16H455.582V28H452.254ZM453.926 14.4531C453.431 14.4531 453.007 14.2891 452.652 13.9609C452.303 13.6276 452.129 13.2292 452.129 12.7656C452.129 12.3073 452.303 11.9141 452.652 11.5859C453.007 11.2526 453.431 11.0859 453.926 11.0859C454.421 11.0859 454.842 11.2526 455.191 11.5859C455.546 11.9141 455.723 12.3073 455.723 12.7656C455.723 13.2292 455.546 13.6276 455.191 13.9609C454.842 14.2891 454.421 14.4531 453.926 14.4531ZM462.67 28.1953C461.758 28.1953 460.933 27.9609 460.193 27.4922C459.459 27.0182 458.876 26.3229 458.443 25.4062C458.016 24.4844 457.803 23.3542 457.803 22.0156C457.803 20.6406 458.024 19.4974 458.467 18.5859C458.91 17.6693 459.498 16.9844 460.232 16.5313C460.972 16.0729 461.782 15.8438 462.662 15.8438C463.334 15.8438 463.894 15.9583 464.342 16.1875C464.795 16.4115 465.16 16.6927 465.436 17.0312C465.717 17.3646 465.93 17.6927 466.076 18.0156H466.178V12H469.498V28H466.217V26.0781H466.076C465.92 26.4115 465.699 26.7422 465.412 27.0703C465.131 27.3932 464.764 27.6615 464.311 27.875C463.863 28.0885 463.316 28.1953 462.67 28.1953ZM463.725 25.5469C464.261 25.5469 464.714 25.401 465.084 25.1094C465.459 24.8125 465.745 24.3984 465.943 23.8672C466.146 23.3359 466.248 22.7135 466.248 22C466.248 21.2865 466.149 20.6667 465.951 20.1406C465.753 19.6146 465.467 19.2083 465.092 18.9219C464.717 18.6354 464.261 18.4922 463.725 18.4922C463.178 18.4922 462.717 18.6406 462.342 18.9375C461.967 19.2344 461.683 19.6458 461.49 20.1719C461.298 20.6979 461.201 21.3073 461.201 22C461.201 22.6979 461.298 23.3151 461.49 23.8516C461.688 24.3828 461.972 24.7995 462.342 25.1016C462.717 25.3984 463.178 25.5469 463.725 25.5469ZM477.703 28.2344C476.469 28.2344 475.406 27.9844 474.516 27.4844C473.63 26.9792 472.948 26.2656 472.469 25.3437C471.99 24.4167 471.75 23.3203 471.75 22.0547C471.75 20.8203 471.99 19.737 472.469 18.8047C472.948 17.8724 473.622 17.1458 474.492 16.625C475.367 16.1042 476.393 15.8438 477.57 15.8438C478.362 15.8438 479.099 15.9714 479.781 16.2266C480.469 16.4766 481.068 16.8542 481.578 17.3594C482.094 17.8646 482.495 18.5 482.781 19.2656C483.068 20.026 483.211 20.9167 483.211 21.9375V22.8516H473.078V20.7891H480.078C480.078 20.3099 479.974 19.8854 479.766 19.5156C479.557 19.1458 479.268 18.8568 478.898 18.6484C478.534 18.4349 478.109 18.3281 477.625 18.3281C477.12 18.3281 476.672 18.4453 476.281 18.6797C475.896 18.9089 475.594 19.2187 475.375 19.6094C475.156 19.9948 475.044 20.4245 475.039 20.8984V22.8594C475.039 23.4531 475.148 23.9661 475.367 24.3984C475.591 24.8307 475.906 25.1641 476.313 25.3984C476.719 25.6328 477.201 25.75 477.758 25.75C478.128 25.75 478.466 25.6979 478.773 25.5938C479.081 25.4896 479.344 25.3333 479.562 25.125C479.781 24.9167 479.948 24.6615 480.063 24.3594L483.141 24.5625C482.984 25.3021 482.664 25.9479 482.18 26.5C481.701 27.0469 481.081 27.474 480.32 27.7813C479.565 28.0833 478.693 28.2344 477.703 28.2344Z" fill="white"/>
<defs>
<filter id="filter0_b_214_2024" x="-10" y="-10" width="525" height="63" filterUnits="userSpaceOnUse" color-interpolation-filters="sRGB">
<feFlood flood-opacity="0" result="BackgroundImageFix"/>
<feGaussianBlur in="BackgroundImageFix" stdDeviation="5"/>
<feComposite in2="SourceAlpha" operator="in" result="effect1_backgroundBlur_214_2024"/>
<feBlend mode="normal" in="SourceGraphic" in2="effect1_backgroundBlur_214_2024" result="shape"/>
</filter>
</defs>
</svg>
