<svg width="29" height="28" viewBox="0 0 29 28" fill="none" xmlns="http://www.w3.org/2000/svg">
<path fill-rule="evenodd" clip-rule="evenodd" d="M21.396 7.34158C21.1694 7.12287 20.8621 7 20.5417 7C20.2213 7 19.914 7.12287 19.6874 7.34158L13.6457 13.1749C13.4192 13.3937 13.2919 13.6904 13.2919 13.9998C13.2919 14.3091 13.4192 14.6058 13.6457 14.8246L19.6874 20.6579C19.9153 20.8704 20.2205 20.988 20.5373 20.9854C20.8542 20.9827 21.1572 20.86 21.3813 20.6437C21.6053 20.4274 21.7324 20.1348 21.7351 19.8289C21.7379 19.523 21.6161 19.2283 21.396 19.0082L16.2086 13.9998L21.396 8.99125C21.6225 8.77247 21.7498 8.47578 21.7498 8.16642C21.7498 7.85706 21.6225 7.56037 21.396 7.34158ZM14.146 7.34158C13.9194 7.12287 13.6121 7 13.2917 7C12.9713 7 12.664 7.12287 12.4374 7.34158L6.39572 13.1749C6.16919 13.3937 6.04194 13.6904 6.04194 13.9998C6.04194 14.3091 6.16919 14.6058 6.39572 14.8246L12.4374 20.6579C12.6653 20.8704 12.9705 20.988 13.2873 20.9854C13.6042 20.9827 13.9072 20.86 14.1313 20.6437C14.3553 20.4274 14.4824 20.1348 14.4851 19.8289C14.4879 19.523 14.3661 19.2283 14.146 19.0082L8.9586 13.9998L14.146 8.99125C14.3725 8.77247 14.4998 8.47578 14.4998 8.16642C14.4998 7.85706 14.3725 7.56037 14.146 7.34158Z" fill="black"/>
</svg>
