<svg width="80" height="80" viewBox="0 0 80 80" fill="none" xmlns="http://www.w3.org/2000/svg">
<circle cx="40" cy="40" r="40" fill="#F95700" fill-opacity="0.5"/>
<circle cx="40" cy="40" r="35" fill="#F95700"/>
<path d="M29.9545 41.0909H23.5909C22.6364 41.0909 22 41.7273 22 42.6818V55.4091C22 56.3636 22.6364 57 23.5909 57H29.9545C30.9091 57 31.5455 56.3636 31.5455 55.4091V42.6818C31.5455 41.7273 30.9091 41.0909 29.9545 41.0909ZM55.4091 34.7273H49.0455C48.0909 34.7273 47.4545 35.3636 47.4545 36.3182V55.4091C47.4545 56.3636 48.0909 57 49.0455 57H55.4091C56.3636 57 57 56.3636 57 55.4091V36.3182C57 35.3636 56.3636 34.7273 55.4091 34.7273ZM42.6818 22H36.3182C35.3636 22 34.7273 22.6364 34.7273 23.5909V55.4091C34.7273 56.3636 35.3636 57 36.3182 57H42.6818C43.6364 57 44.2727 56.3636 44.2727 55.4091V23.5909C44.2727 22.6364 43.6364 22 42.6818 22Z" fill="white"/>
</svg>
