<svg width="80" height="80" viewBox="0 0 80 80" fill="none" xmlns="http://www.w3.org/2000/svg">
<circle cx="40" cy="40" r="40" fill="#F95700" fill-opacity="0.5"/>
<circle cx="40" cy="40" r="35" fill="#F95700"/>
<g clip-path="url(#clip0_238_32)">
<path d="M28.4969 24.9531C28.7023 24.713 28.9572 24.5202 29.2442 24.3881C29.5312 24.2559 29.8434 24.1875 30.1594 24.1875H48.8406C49.1566 24.1875 49.4688 24.2559 49.7558 24.3881C50.0428 24.5202 50.2977 24.713 50.5031 24.9531L56.2103 31.6119C56.7199 32.2065 57 32.9638 57 33.7469V34.3047C57.0001 35.3874 56.6619 36.4432 56.0327 37.3244C55.4035 38.2055 54.5147 38.8681 53.4905 39.2194C52.4664 39.5708 51.358 39.5934 50.3204 39.284C49.2828 38.9747 48.3677 38.3489 47.7031 37.4941C47.2178 38.1192 46.5959 38.6249 45.8849 38.9726C45.174 39.3203 44.393 39.5007 43.6016 39.5C42.8101 39.5009 42.029 39.3206 41.3181 38.9729C40.6071 38.6252 39.9852 38.1193 39.5 37.4941C39.0148 38.1193 38.3929 38.6252 37.6819 38.9729C36.971 39.3206 36.1899 39.5009 35.3984 39.5C34.607 39.5009 33.8259 39.3206 33.1149 38.9729C32.404 38.6252 31.7821 38.1193 31.2969 37.4941C30.6323 38.3489 29.7172 38.9747 28.6796 39.284C27.642 39.5934 26.5336 39.5708 25.5095 39.2194C24.4853 38.8681 23.5965 38.2055 22.9673 37.3244C22.3381 36.4432 21.9999 35.3874 22 34.3047V33.7469C22 32.9638 22.2801 32.2065 22.7897 31.6119L28.4991 24.9509L28.4969 24.9531ZM32.3906 34.3047C32.3906 35.1024 32.7075 35.8675 33.2716 36.4315C33.8357 36.9956 34.6007 37.3125 35.3984 37.3125C36.1962 37.3125 36.9612 36.9956 37.5253 36.4315C38.0894 35.8675 38.4062 35.1024 38.4062 34.3047C38.4062 34.0146 38.5215 33.7364 38.7266 33.5313C38.9317 33.3262 39.2099 33.2109 39.5 33.2109C39.7901 33.2109 40.0683 33.3262 40.2734 33.5313C40.4785 33.7364 40.5938 34.0146 40.5938 34.3047C40.5938 35.1024 40.9106 35.8675 41.4747 36.4315C42.0388 36.9956 42.8038 37.3125 43.6016 37.3125C44.3993 37.3125 45.1643 36.9956 45.7284 36.4315C46.2925 35.8675 46.6094 35.1024 46.6094 34.3047C46.6094 34.0146 46.7246 33.7364 46.9297 33.5313C47.1348 33.3262 47.413 33.2109 47.7031 33.2109C47.9932 33.2109 48.2714 33.3262 48.4765 33.5313C48.6816 33.7364 48.7969 34.0146 48.7969 34.3047C48.7969 35.1024 49.1138 35.8675 49.6778 36.4315C50.2419 36.9956 51.007 37.3125 51.8047 37.3125C52.6024 37.3125 53.3675 36.9956 53.9315 36.4315C54.4956 35.8675 54.8125 35.1024 54.8125 34.3047V33.7469C54.8125 33.4862 54.7194 33.2341 54.55 33.0359L48.8406 26.375H30.1594L24.45 33.0359C24.2806 33.2341 24.1875 33.4862 24.1875 33.7469V34.3047C24.1875 35.1024 24.5044 35.8675 25.0685 36.4315C25.6325 36.9956 26.3976 37.3125 27.1953 37.3125C27.993 37.3125 28.7581 36.9956 29.3222 36.4315C29.8862 35.8675 30.2031 35.1024 30.2031 34.3047C30.2031 34.0146 30.3184 33.7364 30.5235 33.5313C30.7286 33.3262 31.0068 33.2109 31.2969 33.2109C31.587 33.2109 31.8652 33.3262 32.0703 33.5313C32.2754 33.7364 32.3906 34.0146 32.3906 34.3047ZM25.2812 40.5938C25.5713 40.5938 25.8495 40.709 26.0546 40.9141C26.2598 41.1192 26.375 41.3974 26.375 41.6875V54.8125H28.5625V43.875C28.5625 43.2948 28.793 42.7384 29.2032 42.3282C29.6134 41.918 30.1698 41.6875 30.75 41.6875H37.3125C37.8927 41.6875 38.4491 41.918 38.8593 42.3282C39.2695 42.7384 39.5 43.2948 39.5 43.875V54.8125H52.625V41.6875C52.625 41.3974 52.7402 41.1192 52.9454 40.9141C53.1505 40.709 53.4287 40.5938 53.7188 40.5938C54.0088 40.5938 54.287 40.709 54.4921 40.9141C54.6973 41.1192 54.8125 41.3974 54.8125 41.6875V54.8125H55.9062C56.1963 54.8125 56.4745 54.9277 56.6796 55.1329C56.8848 55.338 57 55.6162 57 55.9062C57 56.1963 56.8848 56.4745 56.6796 56.6796C56.4745 56.8848 56.1963 57 55.9062 57H23.0938C22.8037 57 22.5255 56.8848 22.3204 56.6796C22.1152 56.4745 22 56.1963 22 55.9062C22 55.6162 22.1152 55.338 22.3204 55.1329C22.5255 54.9277 22.8037 54.8125 23.0938 54.8125H24.1875V41.6875C24.1875 41.3974 24.3027 41.1192 24.5079 40.9141C24.713 40.709 24.9912 40.5938 25.2812 40.5938ZM30.75 54.8125H37.3125V43.875H30.75V54.8125ZM41.6875 43.875C41.6875 43.2948 41.918 42.7384 42.3282 42.3282C42.7384 41.918 43.2948 41.6875 43.875 41.6875H48.25C48.8302 41.6875 49.3866 41.918 49.7968 42.3282C50.207 42.7384 50.4375 43.2948 50.4375 43.875V50.4375C50.4375 51.0177 50.207 51.5741 49.7968 51.9843C49.3866 52.3945 48.8302 52.625 48.25 52.625H43.875C43.2948 52.625 42.7384 52.3945 42.3282 51.9843C41.918 51.5741 41.6875 51.0177 41.6875 50.4375V43.875ZM48.25 43.875H43.875V50.4375H48.25V43.875Z" fill="white"/>
<path d="M32.3906 34.3047C32.3906 35.1024 32.7075 35.8675 33.2716 36.4315C33.8357 36.9956 34.6007 37.3125 35.3984 37.3125C36.1962 37.3125 36.9612 36.9956 37.5253 36.4315C38.0894 35.8675 38.4062 35.1024 38.4062 34.3047C38.4062 34.0146 38.5215 33.7364 38.7266 33.5313C38.9317 33.3262 39.2099 33.2109 39.5 33.2109C39.7901 33.2109 40.0683 33.3262 40.2734 33.5313C40.4785 33.7364 40.5938 34.0146 40.5938 34.3047C40.5938 35.1024 40.9106 35.8675 41.4747 36.4315C42.0388 36.9956 42.8038 37.3125 43.6016 37.3125C44.3993 37.3125 45.1643 36.9956 45.7284 36.4315C46.2925 35.8675 46.6094 35.1024 46.6094 34.3047C46.6094 34.0146 46.7246 33.7364 46.9297 33.5313C47.1348 33.3262 47.413 33.2109 47.7031 33.2109C47.9932 33.2109 48.2714 33.3262 48.4765 33.5313C48.6816 33.7364 48.7969 34.0146 48.7969 34.3047C48.7969 35.1024 49.1138 35.8675 49.6778 36.4315C50.2419 36.9956 51.007 37.3125 51.8047 37.3125C52.6024 37.3125 53.3675 36.9956 53.9315 36.4315C54.4956 35.8675 54.8125 35.1024 54.8125 34.3047V33.7469C54.8125 33.4862 54.7194 33.2341 54.55 33.0359L48.8406 26.375H30.1594L24.45 33.0359C24.2806 33.2341 24.1875 33.4862 24.1875 33.7469V34.3047C24.1875 35.1024 24.5044 35.8675 25.0685 36.4315C25.6325 36.9956 26.3976 37.3125 27.1953 37.3125C27.993 37.3125 28.7581 36.9956 29.3222 36.4315C29.8862 35.8675 30.2031 35.1024 30.2031 34.3047C30.2031 34.0146 30.3184 33.7364 30.5235 33.5313C30.7286 33.3262 31.0068 33.2109 31.2969 33.2109C31.587 33.2109 31.8652 33.3262 32.0703 33.5313C32.2754 33.7364 32.3906 34.0146 32.3906 34.3047Z" fill="white"/>
</g>
<defs>
<clipPath id="clip0_238_32">
<rect width="35" height="35" fill="white" transform="translate(22 22)"/>
</clipPath>
</defs>
</svg>
