<svg width="253" height="155" viewBox="0 0 253 155" fill="none" xmlns="http://www.w3.org/2000/svg">
<g filter="url(#filter0_b_448_2)">
<path d="M0 10.9668C0 5.44395 4.47715 0.966797 10 0.966797H243C248.523 0.966797 253 5.44395 253 10.9668V144.967C253 150.49 248.523 154.967 243 154.967H10C4.47715 154.967 0 150.49 0 144.967V10.9668Z" fill="#757575" fill-opacity="0.2"/>
<path d="M1 10.9668C1 5.99624 5.02944 1.9668 10 1.9668H243C247.971 1.9668 252 5.99623 252 10.9668V144.967C252 149.937 247.971 153.967 243 153.967H10C5.02944 153.967 1 149.937 1 144.967V10.9668Z" stroke="url(#paint0_linear_448_2)" stroke-width="2"/>
</g>
<path d="M69.9106 33.8509C68.9772 33.8509 68.1372 33.6909 67.3906 33.3709C66.6439 33.0376 66.0572 32.5709 65.6306 31.9709C65.2039 31.3709 64.9906 30.6709 64.9906 29.8709H67.4306C67.4839 30.4709 67.7172 30.9643 68.1306 31.3509C68.5572 31.7376 69.1506 31.9309 69.9106 31.9309C70.6972 31.9309 71.3106 31.7443 71.7506 31.3709C72.1906 30.9843 72.4106 30.4909 72.4106 29.8909C72.4106 29.4243 72.2706 29.0443 71.9906 28.7509C71.7239 28.4576 71.3839 28.2309 70.9706 28.0709C70.5706 27.9109 70.0106 27.7376 69.2906 27.5509C68.3839 27.3109 67.6439 27.0709 67.0706 26.8309C66.5106 26.5776 66.0306 26.1909 65.6306 25.6709C65.2306 25.1509 65.0306 24.4576 65.0306 23.5909C65.0306 22.7909 65.2306 22.0909 65.6306 21.4909C66.0306 20.8909 66.5906 20.4309 67.3106 20.1109C68.0306 19.7909 68.8639 19.6309 69.8106 19.6309C71.1572 19.6309 72.2572 19.9709 73.1106 20.6509C73.9772 21.3176 74.4572 22.2376 74.5506 23.4109H72.0306C71.9906 22.9043 71.7506 22.4709 71.3106 22.1109C70.8706 21.7509 70.2906 21.5709 69.5706 21.5709C68.9172 21.5709 68.3839 21.7376 67.9706 22.0709C67.5572 22.4043 67.3506 22.8843 67.3506 23.5109C67.3506 23.9376 67.4772 24.2909 67.7306 24.5709C67.9972 24.8376 68.3306 25.0509 68.7306 25.2109C69.1306 25.3709 69.6772 25.5443 70.3706 25.7309C71.2906 25.9843 72.0372 26.2376 72.6106 26.4909C73.1972 26.7443 73.6906 27.1376 74.0906 27.6709C74.5039 28.1909 74.7106 28.8909 74.7106 29.7709C74.7106 30.4776 74.5172 31.1443 74.1306 31.7709C73.7572 32.3976 73.2039 32.9043 72.4706 33.2909C71.7506 33.6643 70.8972 33.8509 69.9106 33.8509ZM83.1009 22.5109C83.9409 22.5109 84.6876 22.6909 85.3409 23.0509C86.0076 23.4109 86.5276 23.9443 86.9009 24.6509C87.2876 25.3576 87.4809 26.2109 87.4809 27.2109V33.7109H85.2209V27.5509C85.2209 26.5643 84.9742 25.8109 84.4809 25.2909C83.9876 24.7576 83.3142 24.4909 82.4609 24.4909C81.6076 24.4909 80.9276 24.7576 80.4209 25.2909C79.9276 25.8109 79.6809 26.5643 79.6809 27.5509V33.7109H77.4009V18.9109H79.6809V23.9709C80.0676 23.5043 80.5542 23.1443 81.1409 22.8909C81.7409 22.6376 82.3942 22.5109 83.1009 22.5109ZM95.1692 33.8909C94.1292 33.8909 93.1892 33.6576 92.3492 33.1909C91.5092 32.7109 90.8492 32.0443 90.3692 31.1909C89.8892 30.3243 89.6492 29.3243 89.6492 28.1909C89.6492 27.0709 89.8958 26.0776 90.3892 25.2109C90.8825 24.3443 91.5558 23.6776 92.4092 23.2109C93.2625 22.7443 94.2158 22.5109 95.2692 22.5109C96.3225 22.5109 97.2758 22.7443 98.1292 23.2109C98.9825 23.6776 99.6558 24.3443 100.149 25.2109C100.643 26.0776 100.889 27.0709 100.889 28.1909C100.889 29.3109 100.636 30.3043 100.129 31.1709C99.6225 32.0376 98.9292 32.7109 98.0492 33.1909C97.1825 33.6576 96.2225 33.8909 95.1692 33.8909ZM95.1692 31.9109C95.7558 31.9109 96.3025 31.7709 96.8092 31.4909C97.3292 31.2109 97.7492 30.7909 98.0692 30.2309C98.3892 29.6709 98.5492 28.9909 98.5492 28.1909C98.5492 27.3909 98.3958 26.7176 98.0892 26.1709C97.7825 25.6109 97.3758 25.1909 96.8692 24.9109C96.3625 24.6309 95.8158 24.4909 95.2292 24.4909C94.6425 24.4909 94.0958 24.6309 93.5892 24.9109C93.0958 25.1909 92.7025 25.6109 92.4092 26.1709C92.1158 26.7176 91.9692 27.3909 91.9692 28.1909C91.9692 29.3776 92.2692 30.2976 92.8692 30.9509C93.4825 31.5909 94.2492 31.9109 95.1692 31.9109ZM105.423 24.3109C105.81 23.8043 106.336 23.3776 107.003 23.0309C107.67 22.6843 108.423 22.5109 109.263 22.5109C110.223 22.5109 111.096 22.7509 111.883 23.2309C112.683 23.6976 113.31 24.3576 113.763 25.2109C114.216 26.0643 114.443 27.0443 114.443 28.1509C114.443 29.2576 114.216 30.2509 113.763 31.1309C113.31 31.9976 112.683 32.6776 111.883 33.1709C111.096 33.6509 110.223 33.8909 109.263 33.8909C108.423 33.8909 107.676 33.7243 107.023 33.3909C106.37 33.0443 105.836 32.6176 105.423 32.1109V38.9509H103.143V22.6909H105.423V24.3109ZM112.123 28.1509C112.123 27.3909 111.963 26.7376 111.643 26.1909C111.336 25.6309 110.923 25.2109 110.403 24.9309C109.896 24.6376 109.35 24.4909 108.763 24.4909C108.19 24.4909 107.643 24.6376 107.123 24.9309C106.616 25.2243 106.203 25.6509 105.883 26.2109C105.576 26.7709 105.423 27.4309 105.423 28.1909C105.423 28.9509 105.576 29.6176 105.883 30.1909C106.203 30.7509 106.616 31.1776 107.123 31.4709C107.643 31.7643 108.19 31.9109 108.763 31.9109C109.35 31.9109 109.896 31.7643 110.403 31.4709C110.923 31.1643 111.336 30.7243 111.643 30.1509C111.963 29.5776 112.123 28.9109 112.123 28.1509ZM130.273 30.8709H124.453L123.453 33.7109H121.073L126.053 19.7909H128.693L133.673 33.7109H131.273L130.273 30.8709ZM129.633 29.0109L127.373 22.5509L125.093 29.0109H129.633ZM141.398 22.5109C142.265 22.5109 143.038 22.6909 143.718 23.0509C144.412 23.4109 144.952 23.9443 145.338 24.6509C145.725 25.3576 145.918 26.2109 145.918 27.2109V33.7109H143.658V27.5509C143.658 26.5643 143.412 25.8109 142.918 25.2909C142.425 24.7576 141.752 24.4909 140.898 24.4909C140.045 24.4909 139.365 24.7576 138.858 25.2909C138.365 25.8109 138.118 26.5643 138.118 27.5509V33.7109H135.838V22.6909H138.118V23.9509C138.492 23.4976 138.965 23.1443 139.538 22.8909C140.125 22.6376 140.745 22.5109 141.398 22.5109ZM148.067 28.1509C148.067 27.0443 148.293 26.0643 148.747 25.2109C149.213 24.3576 149.84 23.6976 150.627 23.2309C151.427 22.7509 152.307 22.5109 153.267 22.5109C154.133 22.5109 154.887 22.6843 155.527 23.0309C156.18 23.3643 156.7 23.7843 157.087 24.2909V22.6909H159.387V33.7109H157.087V32.0709C156.7 32.5909 156.173 33.0243 155.507 33.3709C154.84 33.7176 154.08 33.8909 153.227 33.8909C152.28 33.8909 151.413 33.6509 150.627 33.1709C149.84 32.6776 149.213 31.9976 148.747 31.1309C148.293 30.2509 148.067 29.2576 148.067 28.1509ZM157.087 28.1909C157.087 27.4309 156.927 26.7709 156.607 26.2109C156.3 25.6509 155.893 25.2243 155.387 24.9309C154.88 24.6376 154.333 24.4909 153.747 24.4909C153.16 24.4909 152.613 24.6376 152.107 24.9309C151.6 25.2109 151.187 25.6309 150.867 26.1909C150.56 26.7376 150.407 27.3909 150.407 28.1509C150.407 28.9109 150.56 29.5776 150.867 30.1509C151.187 30.7243 151.6 31.1643 152.107 31.4709C152.627 31.7643 153.173 31.9109 153.747 31.9109C154.333 31.9109 154.88 31.7643 155.387 31.4709C155.893 31.1776 156.3 30.7509 156.607 30.1909C156.927 29.6176 157.087 28.9509 157.087 28.1909ZM164.661 18.9109V33.7109H162.381V18.9109H164.661ZM177.575 22.6909L170.815 38.8909H168.455L170.695 33.5309L166.355 22.6909H168.895L171.995 31.0909L175.215 22.6909H177.575ZM181.955 24.5509V30.6509C181.955 31.0643 182.049 31.3643 182.235 31.5509C182.435 31.7243 182.769 31.8109 183.235 31.8109H184.635V33.7109H182.835C181.809 33.7109 181.022 33.4709 180.475 32.9909C179.929 32.5109 179.655 31.7309 179.655 30.6509V24.5509H178.355V22.6909H179.655V19.9509H181.955V22.6909H184.635V24.5509H181.955ZM187.897 21.2309C187.483 21.2309 187.137 21.0909 186.857 20.8109C186.577 20.5309 186.437 20.1843 186.437 19.7709C186.437 19.3576 186.577 19.0109 186.857 18.7309C187.137 18.4509 187.483 18.3109 187.897 18.3109C188.297 18.3109 188.637 18.4509 188.917 18.7309C189.197 19.0109 189.337 19.3576 189.337 19.7709C189.337 20.1843 189.197 20.5309 188.917 20.8109C188.637 21.0909 188.297 21.2309 187.897 21.2309ZM189.017 22.6909V33.7109H186.737V22.6909H189.017ZM191.25 28.1909C191.25 27.0576 191.477 26.0643 191.93 25.2109C192.397 24.3443 193.037 23.6776 193.85 23.2109C194.664 22.7443 195.597 22.5109 196.65 22.5109C197.984 22.5109 199.084 22.8309 199.95 23.4709C200.83 24.0976 201.424 24.9976 201.73 26.1709H199.27C199.07 25.6243 198.75 25.1976 198.31 24.8909C197.87 24.5843 197.317 24.4309 196.65 24.4309C195.717 24.4309 194.97 24.7643 194.41 25.4309C193.864 26.0843 193.59 27.0043 193.59 28.1909C193.59 29.3776 193.864 30.3043 194.41 30.9709C194.97 31.6376 195.717 31.9709 196.65 31.9709C197.97 31.9709 198.844 31.3909 199.27 30.2309H201.73C201.41 31.3509 200.81 32.2443 199.93 32.9109C199.05 33.5643 197.957 33.8909 196.65 33.8909C195.597 33.8909 194.664 33.6576 193.85 33.1909C193.037 32.7109 192.397 32.0443 191.93 31.1909C191.477 30.3243 191.25 29.3243 191.25 28.1909ZM208.002 33.8909C207.136 33.8909 206.356 33.7376 205.662 33.4309C204.982 33.1109 204.442 32.6843 204.042 32.1509C203.642 31.6043 203.429 30.9976 203.402 30.3309H205.762C205.802 30.7976 206.022 31.1909 206.422 31.5109C206.836 31.8176 207.349 31.9709 207.962 31.9709C208.602 31.9709 209.096 31.8509 209.442 31.6109C209.802 31.3576 209.982 31.0376 209.982 30.6509C209.982 30.2376 209.782 29.9309 209.382 29.7309C208.996 29.5309 208.376 29.3109 207.522 29.0709C206.696 28.8443 206.022 28.6243 205.502 28.4109C204.982 28.1976 204.529 27.8709 204.142 27.4309C203.769 26.9909 203.582 26.4109 203.582 25.6909C203.582 25.1043 203.756 24.5709 204.102 24.0909C204.449 23.5976 204.942 23.2109 205.582 22.9309C206.236 22.6509 206.982 22.5109 207.822 22.5109C209.076 22.5109 210.082 22.8309 210.842 23.4709C211.616 24.0976 212.029 24.9576 212.082 26.0509H209.802C209.762 25.5576 209.562 25.1643 209.202 24.8709C208.842 24.5776 208.356 24.4309 207.742 24.4309C207.142 24.4309 206.682 24.5443 206.362 24.7709C206.042 24.9976 205.882 25.2976 205.882 25.6709C205.882 25.9643 205.989 26.2109 206.202 26.4109C206.416 26.6109 206.676 26.7709 206.982 26.8909C207.289 26.9976 207.742 27.1376 208.342 27.3109C209.142 27.5243 209.796 27.7443 210.302 27.9709C210.822 28.1843 211.269 28.5043 211.642 28.9309C212.016 29.3576 212.209 29.9243 212.222 30.6309C212.222 31.2576 212.049 31.8176 211.702 32.3109C211.356 32.8043 210.862 33.1909 210.222 33.4709C209.596 33.7509 208.856 33.8909 208.002 33.8909Z" fill="black"/>
<path d="M25.211 52.3777V53.4137H22.551V62.1357H21.277V53.4137H18.603V52.3777H25.211ZM30.1252 62.2617C29.4065 62.2617 28.7532 62.0984 28.1652 61.7717C27.5865 61.4451 27.1292 60.9831 26.7932 60.3857C26.4665 59.7791 26.3032 59.0791 26.3032 58.2857C26.3032 57.5017 26.4712 56.8111 26.8072 56.2137C27.1525 55.6071 27.6192 55.1451 28.2072 54.8277C28.7952 54.5011 29.4532 54.3377 30.1812 54.3377C30.9092 54.3377 31.5672 54.5011 32.1552 54.8277C32.7432 55.1451 33.2052 55.6024 33.5412 56.1997C33.8865 56.7971 34.0592 57.4924 34.0592 58.2857C34.0592 59.0791 33.8818 59.7791 33.5272 60.3857C33.1818 60.9831 32.7105 61.4451 32.1132 61.7717C31.5158 62.0984 30.8532 62.2617 30.1252 62.2617ZM30.1252 61.1417C30.5825 61.1417 31.0118 61.0344 31.4132 60.8197C31.8145 60.6051 32.1365 60.2831 32.3792 59.8537C32.6312 59.4244 32.7572 58.9017 32.7572 58.2857C32.7572 57.6697 32.6358 57.1471 32.3932 56.7177C32.1505 56.2884 31.8332 55.9711 31.4412 55.7657C31.0492 55.5511 30.6245 55.4437 30.1672 55.4437C29.7005 55.4437 29.2712 55.5511 28.8792 55.7657C28.4965 55.9711 28.1885 56.2884 27.9552 56.7177C27.7218 57.1471 27.6052 57.6697 27.6052 58.2857C27.6052 58.9111 27.7172 59.4384 27.9412 59.8677C28.1745 60.2971 28.4825 60.6191 28.8652 60.8337C29.2478 61.0391 29.6678 61.1417 30.1252 61.1417ZM37.2883 55.5137V60.0357C37.2883 60.4091 37.3676 60.6751 37.5263 60.8337C37.6849 60.9831 37.9603 61.0577 38.3522 61.0577H39.2903V62.1357H38.1423C37.4329 62.1357 36.9009 61.9724 36.5463 61.6457C36.1916 61.3191 36.0143 60.7824 36.0143 60.0357V55.5137H35.0203V54.4637H36.0143V52.5317H37.2883V54.4637H39.2903V55.5137H37.2883ZM40.3579 58.2717C40.3579 57.4877 40.5165 56.8017 40.8339 56.2137C41.1512 55.6164 41.5852 55.1544 42.1359 54.8277C42.6959 54.5011 43.3165 54.3377 43.9979 54.3377C44.6699 54.3377 45.2532 54.4824 45.7479 54.7717C46.2425 55.0611 46.6112 55.4251 46.8539 55.8637V54.4637H48.1419V62.1357H46.8539V60.7077C46.6019 61.1557 46.2239 61.5291 45.7199 61.8277C45.2252 62.1171 44.6465 62.2617 43.9839 62.2617C43.3025 62.2617 42.6865 62.0937 42.1359 61.7577C41.5852 61.4217 41.1512 60.9504 40.8339 60.3437C40.5165 59.7371 40.3579 59.0464 40.3579 58.2717ZM46.8539 58.2857C46.8539 57.7071 46.7372 57.2031 46.5039 56.7737C46.2705 56.3444 45.9532 56.0177 45.5519 55.7937C45.1599 55.5604 44.7259 55.4437 44.2499 55.4437C43.7739 55.4437 43.3399 55.5557 42.9479 55.7797C42.5559 56.0037 42.2432 56.3304 42.0099 56.7597C41.7765 57.1891 41.6599 57.6931 41.6599 58.2717C41.6599 58.8597 41.7765 59.3731 42.0099 59.8117C42.2432 60.2411 42.5559 60.5724 42.9479 60.8057C43.3399 61.0297 43.7739 61.1417 44.2499 61.1417C44.7259 61.1417 45.1599 61.0297 45.5519 60.8057C45.9532 60.5724 46.2705 60.2411 46.5039 59.8117C46.7372 59.3731 46.8539 58.8644 46.8539 58.2857ZM51.5688 51.7757V62.1357H50.2948V51.7757H51.5688ZM65.5365 52.3777L61.8545 62.1357H60.3845L56.7025 52.3777H58.0605L61.1265 60.7917L64.1925 52.3777H65.5365ZM67.5915 53.2177C67.3488 53.2177 67.1435 53.1337 66.9755 52.9657C66.8075 52.7977 66.7235 52.5924 66.7235 52.3497C66.7235 52.1071 66.8075 51.9017 66.9755 51.7337C67.1435 51.5657 67.3488 51.4817 67.5915 51.4817C67.8248 51.4817 68.0208 51.5657 68.1795 51.7337C68.3475 51.9017 68.4315 52.1071 68.4315 52.3497C68.4315 52.5924 68.3475 52.7977 68.1795 52.9657C68.0208 53.1337 67.8248 53.2177 67.5915 53.2177ZM68.2075 54.4637V62.1357H66.9335V54.4637H68.2075ZM77.3788 58.0057C77.3788 58.2484 77.3648 58.5051 77.3368 58.7757H71.2048C71.2514 59.5317 71.5081 60.1244 71.9748 60.5537C72.4508 60.9737 73.0248 61.1837 73.6968 61.1837C74.2474 61.1837 74.7048 61.0577 75.0688 60.8057C75.4421 60.5444 75.7034 60.1991 75.8528 59.7697H77.2248C77.0194 60.5071 76.6088 61.1091 75.9928 61.5757C75.3768 62.0331 74.6114 62.2617 73.6968 62.2617C72.9688 62.2617 72.3154 62.0984 71.7368 61.7717C71.1674 61.4451 70.7194 60.9831 70.3928 60.3857C70.0661 59.7791 69.9028 59.0791 69.9028 58.2857C69.9028 57.4924 70.0614 56.7971 70.3788 56.1997C70.6961 55.6024 71.1394 55.1451 71.7088 54.8277C72.2874 54.5011 72.9501 54.3377 73.6968 54.3377C74.4248 54.3377 75.0688 54.4964 75.6288 54.8137C76.1888 55.1311 76.6181 55.5697 76.9168 56.1297C77.2248 56.6804 77.3788 57.3057 77.3788 58.0057ZM76.0628 57.7397C76.0628 57.2544 75.9554 56.8391 75.7408 56.4937C75.5261 56.1391 75.2321 55.8731 74.8588 55.6957C74.4948 55.5091 74.0888 55.4157 73.6408 55.4157C72.9968 55.4157 72.4461 55.6211 71.9888 56.0317C71.5408 56.4424 71.2841 57.0117 71.2188 57.7397H76.0628ZM89.2804 54.4637L86.8864 62.1357H85.5704L83.7224 56.0457L81.8744 62.1357H80.5584L78.1504 54.4637H79.4524L81.2164 60.9037L83.1204 54.4637H84.4224L86.2844 60.9177L88.0204 54.4637H89.2804ZM93.2608 62.2617C92.6728 62.2617 92.1455 62.1637 91.6788 61.9677C91.2121 61.7624 90.8435 61.4824 90.5728 61.1277C90.3021 60.7637 90.1528 60.3484 90.1248 59.8817H91.4408C91.4781 60.2644 91.6555 60.5771 91.9728 60.8197C92.2995 61.0624 92.7241 61.1837 93.2468 61.1837C93.7321 61.1837 94.1148 61.0764 94.3948 60.8617C94.6748 60.6471 94.8148 60.3764 94.8148 60.0497C94.8148 59.7137 94.6655 59.4664 94.3668 59.3077C94.0681 59.1397 93.6061 58.9764 92.9808 58.8177C92.4115 58.6684 91.9448 58.5191 91.5808 58.3697C91.2261 58.2111 90.9181 57.9824 90.6568 57.6837C90.4048 57.3757 90.2788 56.9744 90.2788 56.4797C90.2788 56.0877 90.3955 55.7284 90.6288 55.4017C90.8621 55.0751 91.1935 54.8184 91.6228 54.6317C92.0521 54.4357 92.5421 54.3377 93.0928 54.3377C93.9421 54.3377 94.6281 54.5524 95.1508 54.9817C95.6735 55.4111 95.9535 55.9991 95.9908 56.7457H94.7168C94.6888 56.3444 94.5255 56.0224 94.2268 55.7797C93.9375 55.5371 93.5455 55.4157 93.0508 55.4157C92.5935 55.4157 92.2295 55.5137 91.9588 55.7097C91.6881 55.9057 91.5528 56.1624 91.5528 56.4797C91.5528 56.7317 91.6321 56.9417 91.7908 57.1097C91.9588 57.2684 92.1641 57.3991 92.4068 57.5017C92.6588 57.5951 93.0041 57.7024 93.4428 57.8237C93.9935 57.9731 94.4415 58.1224 94.7868 58.2717C95.1321 58.4117 95.4261 58.6264 95.6688 58.9157C95.9208 59.2051 96.0515 59.5831 96.0608 60.0497C96.0608 60.4697 95.9441 60.8477 95.7108 61.1837C95.4775 61.5197 95.1461 61.7857 94.7168 61.9817C94.2968 62.1684 93.8115 62.2617 93.2608 62.2617Z" fill="black"/>
<path d="M22.172 85.3187C21.528 85.3187 20.9493 85.2067 20.436 84.9827C19.932 84.7494 19.5353 84.432 19.246 84.0307C18.9567 83.62 18.8073 83.1487 18.798 82.6167H20.156C20.2027 83.074 20.3893 83.4614 20.716 83.7787C21.052 84.0867 21.5373 84.2407 22.172 84.2407C22.7787 84.2407 23.2547 84.0914 23.6 83.7927C23.9547 83.4847 24.132 83.0927 24.132 82.6167C24.132 82.2434 24.0293 81.94 23.824 81.7067C23.6187 81.4734 23.362 81.296 23.054 81.1747C22.746 81.0534 22.3307 80.9227 21.808 80.7827C21.164 80.6147 20.646 80.4467 20.254 80.2787C19.8713 80.1107 19.54 79.8494 19.26 79.4947C18.9893 79.1307 18.854 78.6454 18.854 78.0387C18.854 77.5067 18.9893 77.0354 19.26 76.6247C19.5307 76.214 19.9087 75.8967 20.394 75.6727C20.8887 75.4487 21.4533 75.3367 22.088 75.3367C23.0027 75.3367 23.7493 75.5654 24.328 76.0227C24.916 76.48 25.2473 77.0867 25.322 77.8427H23.922C23.8753 77.4694 23.6793 77.1427 23.334 76.8627C22.9887 76.5734 22.5313 76.4287 21.962 76.4287C21.43 76.4287 20.996 76.5687 20.66 76.8487C20.324 77.1194 20.156 77.502 20.156 77.9967C20.156 78.3514 20.254 78.6407 20.45 78.8647C20.6553 79.0887 20.9027 79.2614 21.192 79.3827C21.4907 79.4947 21.906 79.6254 22.438 79.7747C23.082 79.952 23.6 80.1294 23.992 80.3067C24.384 80.4747 24.72 80.7407 25 81.1047C25.28 81.4594 25.42 81.9447 25.42 82.5607C25.42 83.0367 25.294 83.4847 25.042 83.9047C24.79 84.3247 24.4167 84.6654 23.922 84.9267C23.4273 85.188 22.844 85.3187 22.172 85.3187ZM26.8188 81.3567C26.8188 80.5727 26.9775 79.8867 27.2948 79.2987C27.6121 78.7014 28.0461 78.2394 28.5968 77.9127C29.1568 77.586 29.7775 77.4227 30.4588 77.4227C31.1308 77.4227 31.7141 77.5674 32.2088 77.8567C32.7035 78.146 33.0721 78.51 33.3148 78.9487V77.5487H34.6028V85.2207H33.3148V83.7927C33.0628 84.2407 32.6848 84.614 32.1808 84.9127C31.6861 85.202 31.1075 85.3467 30.4448 85.3467C29.7635 85.3467 29.1475 85.1787 28.5968 84.8427C28.0461 84.5067 27.6121 84.0354 27.2948 83.4287C26.9775 82.822 26.8188 82.1314 26.8188 81.3567ZM33.3148 81.3707C33.3148 80.792 33.1981 80.288 32.9648 79.8587C32.7315 79.4294 32.4141 79.1027 32.0128 78.8787C31.6208 78.6454 31.1868 78.5287 30.7108 78.5287C30.2348 78.5287 29.8008 78.6407 29.4088 78.8647C29.0168 79.0887 28.7041 79.4154 28.4708 79.8447C28.2375 80.274 28.1208 80.778 28.1208 81.3567C28.1208 81.9447 28.2375 82.458 28.4708 82.8967C28.7041 83.326 29.0168 83.6574 29.4088 83.8907C29.8008 84.1147 30.2348 84.2267 30.7108 84.2267C31.1868 84.2267 31.6208 84.1147 32.0128 83.8907C32.4141 83.6574 32.7315 83.326 32.9648 82.8967C33.1981 82.458 33.3148 81.9494 33.3148 81.3707ZM38.0297 74.8607V85.2207H36.7557V74.8607H38.0297ZM47.201 81.0907C47.201 81.3334 47.187 81.59 47.159 81.8607H41.027C41.0737 82.6167 41.3304 83.2094 41.797 83.6387C42.273 84.0587 42.847 84.2687 43.519 84.2687C44.0697 84.2687 44.527 84.1427 44.891 83.8907C45.2644 83.6294 45.5257 83.284 45.675 82.8547H47.047C46.8417 83.592 46.431 84.194 45.815 84.6607C45.199 85.118 44.4337 85.3467 43.519 85.3467C42.791 85.3467 42.1377 85.1834 41.559 84.8567C40.9897 84.53 40.5417 84.068 40.215 83.4707C39.8884 82.864 39.725 82.164 39.725 81.3707C39.725 80.5774 39.8837 79.882 40.201 79.2847C40.5184 78.6874 40.9617 78.23 41.531 77.9127C42.1097 77.586 42.7724 77.4227 43.519 77.4227C44.247 77.4227 44.891 77.5814 45.451 77.8987C46.011 78.216 46.4404 78.6547 46.739 79.2147C47.047 79.7654 47.201 80.3907 47.201 81.0907ZM45.885 80.8247C45.885 80.3394 45.7777 79.924 45.563 79.5787C45.3484 79.224 45.0544 78.958 44.681 78.7807C44.317 78.594 43.911 78.5007 43.463 78.5007C42.819 78.5007 42.2684 78.706 41.811 79.1167C41.363 79.5274 41.1064 80.0967 41.041 80.8247H45.885ZM51.5987 85.3467C51.0107 85.3467 50.4834 85.2487 50.0167 85.0527C49.55 84.8474 49.1814 84.5674 48.9107 84.2127C48.64 83.8487 48.4907 83.4334 48.4627 82.9667H49.7787C49.816 83.3494 49.9934 83.662 50.3107 83.9047C50.6374 84.1474 51.062 84.2687 51.5847 84.2687C52.07 84.2687 52.4527 84.1614 52.7327 83.9467C53.0127 83.732 53.1527 83.4614 53.1527 83.1347C53.1527 82.7987 53.0034 82.5514 52.7047 82.3927C52.406 82.2247 51.944 82.0614 51.3187 81.9027C50.7494 81.7534 50.2827 81.604 49.9187 81.4547C49.564 81.296 49.256 81.0674 48.9947 80.7687C48.7427 80.4607 48.6167 80.0594 48.6167 79.5647C48.6167 79.1727 48.7334 78.8134 48.9667 78.4867C49.2 78.16 49.5314 77.9034 49.9607 77.7167C50.39 77.5207 50.88 77.4227 51.4307 77.4227C52.28 77.4227 52.966 77.6374 53.4887 78.0667C54.0114 78.496 54.2914 79.084 54.3287 79.8307H53.0547C53.0267 79.4294 52.8634 79.1074 52.5647 78.8647C52.2754 78.622 51.8834 78.5007 51.3887 78.5007C50.9314 78.5007 50.5674 78.5987 50.2967 78.7947C50.026 78.9907 49.8907 79.2474 49.8907 79.5647C49.8907 79.8167 49.97 80.0267 50.1287 80.1947C50.2967 80.3534 50.502 80.484 50.7447 80.5867C50.9967 80.68 51.342 80.7874 51.7807 80.9087C52.3314 81.058 52.7794 81.2074 53.1247 81.3567C53.47 81.4967 53.764 81.7114 54.0067 82.0007C54.2587 82.29 54.3894 82.668 54.3987 83.1347C54.3987 83.5547 54.282 83.9327 54.0487 84.2687C53.8154 84.6047 53.484 84.8707 53.0547 85.0667C52.6347 85.2534 52.1494 85.3467 51.5987 85.3467Z" fill="black"/>
<path d="M18.729 103.25C18.729 102.298 18.9436 101.444 19.373 100.688C19.8023 99.9224 20.3856 99.3251 21.123 98.8957C21.8696 98.4664 22.6956 98.2517 23.601 98.2517C24.665 98.2517 25.5936 98.5084 26.387 99.0217C27.1803 99.5351 27.759 100.263 28.123 101.206H26.597C26.3263 100.618 25.9343 100.165 25.421 99.8477C24.917 99.5304 24.3103 99.3717 23.601 99.3717C22.9196 99.3717 22.3083 99.5304 21.767 99.8477C21.2256 100.165 20.801 100.618 20.493 101.206C20.185 101.784 20.031 102.466 20.031 103.25C20.031 104.024 20.185 104.706 20.493 105.294C20.801 105.872 21.2256 106.32 21.767 106.638C22.3083 106.955 22.9196 107.114 23.601 107.114C24.3103 107.114 24.917 106.96 25.421 106.652C25.9343 106.334 26.3263 105.882 26.597 105.294H28.123C27.759 106.227 27.1803 106.95 26.387 107.464C25.5936 107.968 24.665 108.22 23.601 108.22C22.6956 108.22 21.8696 108.01 21.123 107.59C20.3856 107.16 19.8023 106.568 19.373 105.812C18.9436 105.056 18.729 104.202 18.729 103.25ZM33.3654 108.262C32.6467 108.262 31.9934 108.098 31.4054 107.772C30.8267 107.445 30.3694 106.983 30.0334 106.386C29.7067 105.779 29.5434 105.079 29.5434 104.286C29.5434 103.502 29.7114 102.811 30.0474 102.214C30.3927 101.607 30.8594 101.145 31.4474 100.828C32.0354 100.501 32.6934 100.338 33.4214 100.338C34.1494 100.338 34.8074 100.501 35.3954 100.828C35.9834 101.145 36.4454 101.602 36.7814 102.2C37.1267 102.797 37.2994 103.492 37.2994 104.286C37.2994 105.079 37.1221 105.779 36.7674 106.386C36.4221 106.983 35.9507 107.445 35.3534 107.772C34.7561 108.098 34.0934 108.262 33.3654 108.262ZM33.3654 107.142C33.8227 107.142 34.2521 107.034 34.6534 106.82C35.0547 106.605 35.3767 106.283 35.6194 105.854C35.8714 105.424 35.9974 104.902 35.9974 104.286C35.9974 103.67 35.8761 103.147 35.6334 102.718C35.3907 102.288 35.0734 101.971 34.6814 101.766C34.2894 101.551 33.8647 101.444 33.4074 101.444C32.9407 101.444 32.5114 101.551 32.1194 101.766C31.7367 101.971 31.4287 102.288 31.1954 102.718C30.9621 103.147 30.8454 103.67 30.8454 104.286C30.8454 104.911 30.9574 105.438 31.1814 105.868C31.4147 106.297 31.7227 106.619 32.1054 106.834C32.4881 107.039 32.9081 107.142 33.3654 107.142ZM42.7125 100.324C43.6458 100.324 44.4018 100.608 44.9805 101.178C45.5592 101.738 45.8485 102.55 45.8485 103.614V108.136H44.5885V103.796C44.5885 103.03 44.3972 102.447 44.0145 102.046C43.6318 101.635 43.1092 101.43 42.4465 101.43C41.7745 101.43 41.2378 101.64 40.8365 102.06C40.4445 102.48 40.2485 103.091 40.2485 103.894V108.136H38.9745V100.464H40.2485V101.556C40.5005 101.164 40.8412 100.86 41.2705 100.646C41.7092 100.431 42.1898 100.324 42.7125 100.324ZM50.7856 106.96L53.1656 100.464H54.5236L51.5136 108.136H50.0296L47.0196 100.464H48.3916L50.7856 106.96ZM62.7772 104.006C62.7772 104.248 62.7632 104.505 62.7352 104.776H56.6032C56.6499 105.532 56.9066 106.124 57.3732 106.554C57.8492 106.974 58.4232 107.184 59.0952 107.184C59.6459 107.184 60.1032 107.058 60.4672 106.806C60.8406 106.544 61.1019 106.199 61.2512 105.77H62.6232C62.4179 106.507 62.0072 107.109 61.3912 107.576C60.7752 108.033 60.0099 108.262 59.0952 108.262C58.3672 108.262 57.7139 108.098 57.1352 107.772C56.5659 107.445 56.1179 106.983 55.7912 106.386C55.4646 105.779 55.3012 105.079 55.3012 104.286C55.3012 103.492 55.4599 102.797 55.7772 102.2C56.0946 101.602 56.5379 101.145 57.1072 100.828C57.6859 100.501 58.3486 100.338 59.0952 100.338C59.8232 100.338 60.4672 100.496 61.0272 100.814C61.5872 101.131 62.0166 101.57 62.3152 102.13C62.6232 102.68 62.7772 103.306 62.7772 104.006ZM61.4612 103.74C61.4612 103.254 61.3539 102.839 61.1392 102.494C60.9246 102.139 60.6306 101.873 60.2572 101.696C59.8932 101.509 59.4872 101.416 59.0392 101.416C58.3952 101.416 57.8446 101.621 57.3872 102.032C56.9392 102.442 56.6826 103.012 56.6172 103.74H61.4612ZM65.7329 101.71C65.9569 101.271 66.2742 100.93 66.6849 100.688C67.1049 100.445 67.6135 100.324 68.2109 100.324V101.64H67.8749C66.4469 101.64 65.7329 102.414 65.7329 103.964V108.136H64.4589V100.464H65.7329V101.71ZM72.3975 108.262C71.8095 108.262 71.2822 108.164 70.8155 107.968C70.3488 107.762 69.9802 107.482 69.7095 107.128C69.4388 106.764 69.2895 106.348 69.2615 105.882H70.5775C70.6148 106.264 70.7922 106.577 71.1095 106.82C71.4362 107.062 71.8608 107.184 72.3835 107.184C72.8688 107.184 73.2515 107.076 73.5315 106.862C73.8115 106.647 73.9515 106.376 73.9515 106.05C73.9515 105.714 73.8022 105.466 73.5035 105.308C73.2048 105.14 72.7428 104.976 72.1175 104.818C71.5482 104.668 71.0815 104.519 70.7175 104.37C70.3628 104.211 70.0548 103.982 69.7935 103.684C69.5415 103.376 69.4155 102.974 69.4155 102.48C69.4155 102.088 69.5322 101.728 69.7655 101.402C69.9988 101.075 70.3302 100.818 70.7595 100.632C71.1888 100.436 71.6788 100.338 72.2295 100.338C73.0788 100.338 73.7648 100.552 74.2875 100.982C74.8102 101.411 75.0902 101.999 75.1275 102.746H73.8535C73.8255 102.344 73.6622 102.022 73.3635 101.78C73.0742 101.537 72.6822 101.416 72.1875 101.416C71.7302 101.416 71.3662 101.514 71.0955 101.71C70.8248 101.906 70.6895 102.162 70.6895 102.48C70.6895 102.732 70.7688 102.942 70.9275 103.11C71.0955 103.268 71.3008 103.399 71.5435 103.502C71.7955 103.595 72.1408 103.702 72.5795 103.824C73.1302 103.973 73.5782 104.122 73.9235 104.272C74.2688 104.412 74.5628 104.626 74.8055 104.916C75.0575 105.205 75.1882 105.583 75.1975 106.05C75.1975 106.47 75.0808 106.848 74.8475 107.184C74.6142 107.52 74.2828 107.786 73.8535 107.982C73.4335 108.168 72.9482 108.262 72.3975 108.262ZM77.654 99.2177C77.4113 99.2177 77.206 99.1337 77.038 98.9657C76.87 98.7977 76.786 98.5924 76.786 98.3497C76.786 98.1071 76.87 97.9017 77.038 97.7337C77.206 97.5657 77.4113 97.4817 77.654 97.4817C77.8873 97.4817 78.0833 97.5657 78.242 97.7337C78.41 97.9017 78.494 98.1071 78.494 98.3497C78.494 98.5924 78.41 98.7977 78.242 98.9657C78.0833 99.1337 77.8873 99.2177 77.654 99.2177ZM78.27 100.464V108.136H76.996V100.464H78.27ZM83.7873 108.262C83.0686 108.262 82.4153 108.098 81.8273 107.772C81.2486 107.445 80.7913 106.983 80.4553 106.386C80.1286 105.779 79.9653 105.079 79.9653 104.286C79.9653 103.502 80.1333 102.811 80.4693 102.214C80.8146 101.607 81.2813 101.145 81.8693 100.828C82.4573 100.501 83.1153 100.338 83.8433 100.338C84.5713 100.338 85.2293 100.501 85.8173 100.828C86.4053 101.145 86.8673 101.602 87.2033 102.2C87.5486 102.797 87.7213 103.492 87.7213 104.286C87.7213 105.079 87.5439 105.779 87.1893 106.386C86.8439 106.983 86.3726 107.445 85.7753 107.772C85.1779 108.098 84.5153 108.262 83.7873 108.262ZM83.7873 107.142C84.2446 107.142 84.6739 107.034 85.0753 106.82C85.4766 106.605 85.7986 106.283 86.0413 105.854C86.2933 105.424 86.4193 104.902 86.4193 104.286C86.4193 103.67 86.2979 103.147 86.0553 102.718C85.8126 102.288 85.4953 101.971 85.1033 101.766C84.7113 101.551 84.2866 101.444 83.8293 101.444C83.3626 101.444 82.9333 101.551 82.5413 101.766C82.1586 101.971 81.8506 102.288 81.6173 102.718C81.3839 103.147 81.2673 103.67 81.2673 104.286C81.2673 104.911 81.3793 105.438 81.6033 105.868C81.8366 106.297 82.1446 106.619 82.5273 106.834C82.9099 107.039 83.3299 107.142 83.7873 107.142ZM93.1344 100.324C94.0677 100.324 94.8237 100.608 95.4024 101.178C95.981 101.738 96.2704 102.55 96.2704 103.614V108.136H95.0104V103.796C95.0104 103.03 94.819 102.447 94.4364 102.046C94.0537 101.635 93.531 101.43 92.8684 101.43C92.1964 101.43 91.6597 101.64 91.2584 102.06C90.8664 102.48 90.6704 103.091 90.6704 103.894V108.136H89.3964V100.464H90.6704V101.556C90.9224 101.164 91.263 100.86 91.6924 100.646C92.131 100.431 92.6117 100.324 93.1344 100.324ZM107.222 108.136L104.898 104.146H103.358V108.136H102.084V98.3777H105.234C105.971 98.3777 106.592 98.5037 107.096 98.7557C107.609 99.0077 107.992 99.3484 108.244 99.7777C108.496 100.207 108.622 100.697 108.622 101.248C108.622 101.92 108.426 102.512 108.034 103.026C107.651 103.539 107.073 103.88 106.298 104.048L108.748 108.136H107.222ZM103.358 103.124H105.234C105.925 103.124 106.443 102.956 106.788 102.62C107.133 102.274 107.306 101.817 107.306 101.248C107.306 100.669 107.133 100.221 106.788 99.9037C106.452 99.5864 105.934 99.4277 105.234 99.4277H103.358V103.124ZM110.125 104.272C110.125 103.488 110.284 102.802 110.601 102.214C110.919 101.616 111.353 101.154 111.903 100.828C112.463 100.501 113.084 100.338 113.765 100.338C114.437 100.338 115.021 100.482 115.515 100.772C116.01 101.061 116.379 101.425 116.621 101.864V100.464H117.909V108.136H116.621V106.708C116.369 107.156 115.991 107.529 115.487 107.828C114.993 108.117 114.414 108.262 113.751 108.262C113.07 108.262 112.454 108.094 111.903 107.758C111.353 107.422 110.919 106.95 110.601 106.344C110.284 105.737 110.125 105.046 110.125 104.272ZM116.621 104.286C116.621 103.707 116.505 103.203 116.271 102.774C116.038 102.344 115.721 102.018 115.319 101.794C114.927 101.56 114.493 101.444 114.017 101.444C113.541 101.444 113.107 101.556 112.715 101.78C112.323 102.004 112.011 102.33 111.777 102.76C111.544 103.189 111.427 103.693 111.427 104.272C111.427 104.86 111.544 105.373 111.777 105.812C112.011 106.241 112.323 106.572 112.715 106.806C113.107 107.03 113.541 107.142 114.017 107.142C114.493 107.142 114.927 107.03 115.319 106.806C115.721 106.572 116.038 106.241 116.271 105.812C116.505 105.373 116.621 104.864 116.621 104.286ZM121.616 101.514V106.036C121.616 106.409 121.696 106.675 121.854 106.834C122.013 106.983 122.288 107.058 122.68 107.058H123.618V108.136H122.47C121.761 108.136 121.229 107.972 120.874 107.646C120.52 107.319 120.342 106.782 120.342 106.036V101.514H119.348V100.464H120.342V98.5317H121.616V100.464H123.618V101.514H121.616ZM132.162 104.006C132.162 104.248 132.148 104.505 132.12 104.776H125.988C126.035 105.532 126.291 106.124 126.758 106.554C127.234 106.974 127.808 107.184 128.48 107.184C129.031 107.184 129.488 107.058 129.852 106.806C130.225 106.544 130.487 106.199 130.636 105.77H132.008C131.803 106.507 131.392 107.109 130.776 107.576C130.16 108.033 129.395 108.262 128.48 108.262C127.752 108.262 127.099 108.098 126.52 107.772C125.951 107.445 125.503 106.983 125.176 106.386C124.849 105.779 124.686 105.079 124.686 104.286C124.686 103.492 124.845 102.797 125.162 102.2C125.479 101.602 125.923 101.145 126.492 100.828C127.071 100.501 127.733 100.338 128.48 100.338C129.208 100.338 129.852 100.496 130.412 100.814C130.972 101.131 131.401 101.57 131.7 102.13C132.008 102.68 132.162 103.306 132.162 104.006ZM130.846 103.74C130.846 103.254 130.739 102.839 130.524 102.494C130.309 102.139 130.015 101.873 129.642 101.696C129.278 101.509 128.872 101.416 128.424 101.416C127.78 101.416 127.229 101.621 126.772 102.032C126.324 102.442 126.067 103.012 126.002 103.74H130.846Z" fill="black"/>
<path d="M24.216 130.219L21.892 126.229H20.352V130.219H19.078V120.461H22.228C22.9653 120.461 23.586 120.587 24.09 120.839C24.6033 121.091 24.986 121.431 25.238 121.861C25.49 122.29 25.616 122.78 25.616 123.331C25.616 124.003 25.42 124.595 25.028 125.109C24.6453 125.622 24.0667 125.963 23.292 126.131L25.742 130.219H24.216ZM20.352 125.207H22.228C22.9187 125.207 23.4367 125.039 23.782 124.703C24.1273 124.357 24.3 123.9 24.3 123.331C24.3 122.752 24.1273 122.304 23.782 121.987C23.446 121.669 22.928 121.511 22.228 121.511H20.352V125.207ZM34.5956 126.089C34.5956 126.331 34.5816 126.588 34.5536 126.859H28.4216C28.4682 127.615 28.7249 128.207 29.1916 128.637C29.6676 129.057 30.2416 129.267 30.9136 129.267C31.4642 129.267 31.9216 129.141 32.2856 128.889C32.6589 128.627 32.9202 128.282 33.0696 127.853H34.4416C34.2362 128.59 33.8256 129.192 33.2096 129.659C32.5936 130.116 31.8282 130.345 30.9136 130.345C30.1856 130.345 29.5322 130.181 28.9536 129.855C28.3842 129.528 27.9362 129.066 27.6096 128.469C27.2829 127.862 27.1196 127.162 27.1196 126.369C27.1196 125.575 27.2782 124.88 27.5956 124.283C27.9129 123.685 28.3562 123.228 28.9256 122.911C29.5042 122.584 30.1669 122.421 30.9136 122.421C31.6416 122.421 32.2856 122.579 32.8456 122.897C33.4056 123.214 33.8349 123.653 34.1336 124.213C34.4416 124.763 34.5956 125.389 34.5956 126.089ZM33.2796 125.823C33.2796 125.337 33.1722 124.922 32.9576 124.577C32.7429 124.222 32.4489 123.956 32.0756 123.779C31.7116 123.592 31.3056 123.499 30.8576 123.499C30.2136 123.499 29.6629 123.704 29.2056 124.115C28.7576 124.525 28.5009 125.095 28.4356 125.823H33.2796ZM39.1332 129.043L41.5132 122.547H42.8712L39.8612 130.219H38.3772L35.3672 122.547H36.7392L39.1332 129.043ZM51.1249 126.089C51.1249 126.331 51.1109 126.588 51.0829 126.859H44.9509C44.9975 127.615 45.2542 128.207 45.7209 128.637C46.1969 129.057 46.7709 129.267 47.4429 129.267C47.9935 129.267 48.4509 129.141 48.8149 128.889C49.1882 128.627 49.4495 128.282 49.5989 127.853H50.9709C50.7655 128.59 50.3549 129.192 49.7389 129.659C49.1229 130.116 48.3575 130.345 47.4429 130.345C46.7149 130.345 46.0615 130.181 45.4829 129.855C44.9135 129.528 44.4655 129.066 44.1389 128.469C43.8122 127.862 43.6489 127.162 43.6489 126.369C43.6489 125.575 43.8075 124.88 44.1249 124.283C44.4422 123.685 44.8855 123.228 45.4549 122.911C46.0335 122.584 46.6962 122.421 47.4429 122.421C48.1709 122.421 48.8149 122.579 49.3749 122.897C49.9349 123.214 50.3642 123.653 50.6629 124.213C50.9709 124.763 51.1249 125.389 51.1249 126.089ZM49.8089 125.823C49.8089 125.337 49.7015 124.922 49.4869 124.577C49.2722 124.222 48.9782 123.956 48.6049 123.779C48.2409 123.592 47.8349 123.499 47.3869 123.499C46.7429 123.499 46.1922 123.704 45.7349 124.115C45.2869 124.525 45.0302 125.095 44.9649 125.823H49.8089ZM56.5445 122.407C57.4778 122.407 58.2338 122.691 58.8125 123.261C59.3912 123.821 59.6805 124.633 59.6805 125.697V130.219H58.4205V125.879C58.4205 125.113 58.2292 124.53 57.8465 124.129C57.4638 123.718 56.9412 123.513 56.2785 123.513C55.6065 123.513 55.0698 123.723 54.6685 124.143C54.2765 124.563 54.0805 125.174 54.0805 125.977V130.219H52.8065V122.547H54.0805V123.639C54.3325 123.247 54.6732 122.943 55.1025 122.729C55.5412 122.514 56.0218 122.407 56.5445 122.407ZM68.5656 122.547V130.219H67.2916V129.085C67.0489 129.477 66.7083 129.785 66.2696 130.009C65.8403 130.223 65.3643 130.331 64.8416 130.331C64.2443 130.331 63.7076 130.209 63.2316 129.967C62.7556 129.715 62.3776 129.341 62.0976 128.847C61.8269 128.352 61.6916 127.75 61.6916 127.041V122.547H62.9516V126.873C62.9516 127.629 63.1429 128.212 63.5256 128.623C63.9083 129.024 64.4309 129.225 65.0936 129.225C65.7749 129.225 66.3116 129.015 66.7036 128.595C67.0956 128.175 67.2916 127.563 67.2916 126.761V122.547H68.5656ZM77.7167 126.089C77.7167 126.331 77.7027 126.588 77.6747 126.859H71.5427C71.5893 127.615 71.846 128.207 72.3127 128.637C72.7887 129.057 73.3627 129.267 74.0347 129.267C74.5853 129.267 75.0427 129.141 75.4067 128.889C75.78 128.627 76.0413 128.282 76.1907 127.853H77.5627C77.3573 128.59 76.9467 129.192 76.3307 129.659C75.7147 130.116 74.9493 130.345 74.0347 130.345C73.3067 130.345 72.6533 130.181 72.0747 129.855C71.5053 129.528 71.0573 129.066 70.7307 128.469C70.404 127.862 70.2407 127.162 70.2407 126.369C70.2407 125.575 70.3993 124.88 70.7167 124.283C71.034 123.685 71.4773 123.228 72.0467 122.911C72.6253 122.584 73.288 122.421 74.0347 122.421C74.7627 122.421 75.4067 122.579 75.9667 122.897C76.5267 123.214 76.956 123.653 77.2547 124.213C77.5627 124.763 77.7167 125.389 77.7167 126.089ZM76.4007 125.823C76.4007 125.337 76.2933 124.922 76.0787 124.577C75.864 124.222 75.57 123.956 75.1967 123.779C74.8327 123.592 74.4267 123.499 73.9787 123.499C73.3347 123.499 72.784 123.704 72.3267 124.115C71.8787 124.525 71.622 125.095 71.5567 125.823H76.4007Z" fill="black"/>
<circle cx="46.4183" cy="27.1292" r="9.4183" fill="#F95700"/>
<path d="M41.709 32.3622V25.0369H43.8019V32.3622H41.709ZM45.3717 32.3622V21.8975H47.4646V32.3622H45.3717ZM49.0343 32.3622V28.1763H51.1273V32.3622H49.0343Z" fill="white"/>
<rect x="145.023" y="50.9668" width="91.0436" height="12.5577" rx="6.27887" fill="white"/>
<path d="M145.023 57.2457C145.023 53.7779 147.835 50.9668 151.302 50.9668H161.767V63.5245H151.302C147.835 63.5245 145.023 60.7134 145.023 57.2457Z" fill="#F95700"/>
<path d="M180.455 55.2883V61.1064H179.75V56.0269H179.716L178.296 56.9701V56.2542L179.75 55.2883H180.455ZM184.026 61.186C183.598 61.186 183.233 61.0695 182.932 60.8366C182.631 60.6017 182.401 60.2617 182.242 59.8167C182.083 59.3697 182.003 58.8299 182.003 58.1974C182.003 57.5686 182.083 57.0316 182.242 56.5866C182.403 56.1396 182.634 55.7987 182.935 55.5638C183.238 55.3271 183.602 55.2087 184.026 55.2087C184.45 55.2087 184.813 55.3271 185.114 55.5638C185.417 55.7987 185.648 56.1396 185.807 56.5866C185.968 57.0316 186.049 57.5686 186.049 58.1974C186.049 58.8299 185.969 59.3697 185.81 59.8167C185.651 60.2617 185.421 60.6017 185.12 60.8366C184.818 61.0695 184.454 61.186 184.026 61.186ZM184.026 60.561C184.45 60.561 184.78 60.3564 185.014 59.9474C185.249 59.5383 185.367 58.9549 185.367 58.1974C185.367 57.6936 185.313 57.2646 185.205 56.9104C185.099 56.5563 184.945 56.2864 184.745 56.1008C184.546 55.9152 184.306 55.8224 184.026 55.8224C183.605 55.8224 183.277 56.0297 183.04 56.4445C182.803 56.8574 182.685 57.4417 182.685 58.1974C182.685 58.7011 182.738 59.1292 182.844 59.4814C182.95 59.8337 183.103 60.1017 183.301 60.2854C183.502 60.4691 183.744 60.561 184.026 60.561ZM187.936 60.311L187.891 60.6178C187.859 60.8337 187.809 61.0648 187.743 61.311C187.679 61.5572 187.612 61.7892 187.541 62.007C187.471 62.2248 187.414 62.3981 187.368 62.5269H186.857C186.881 62.4057 186.914 62.2456 186.953 62.0468C186.993 61.8479 187.033 61.6254 187.073 61.3792C187.114 61.1349 187.148 60.8849 187.175 60.6292L187.209 60.311H187.936ZM189.167 61.1064V60.5951L191.088 58.4928C191.313 58.2466 191.499 58.0326 191.644 57.8508C191.79 57.6671 191.898 57.4947 191.968 57.3337C192.04 57.1708 192.076 57.0004 192.076 56.8224C192.076 56.6178 192.027 56.4407 191.929 56.2911C191.832 56.1415 191.699 56.026 191.531 55.9445C191.362 55.8631 191.173 55.8224 190.963 55.8224C190.739 55.8224 190.544 55.8688 190.377 55.9616C190.213 56.0525 190.085 56.1803 189.994 56.3451C189.905 56.5099 189.86 56.703 189.86 56.9246H189.19C189.19 56.5837 189.268 56.2845 189.426 56.0269C189.583 55.7693 189.797 55.5686 190.068 55.4246C190.34 55.2807 190.646 55.2087 190.985 55.2087C191.326 55.2087 191.628 55.2807 191.892 55.4246C192.155 55.5686 192.361 55.7627 192.511 56.007C192.661 56.2513 192.735 56.5231 192.735 56.8224C192.735 57.0364 192.697 57.2456 192.619 57.4502C192.543 57.6528 192.411 57.8792 192.221 58.1292C192.034 58.3773 191.773 58.6803 191.44 59.0383L190.133 60.436V60.4814H192.838V61.1064H189.167ZM193.75 59.9133V59.3337L196.306 55.2883H196.727V56.186H196.443L194.511 59.2428V59.2883H197.954V59.9133H193.75ZM196.488 61.1064V59.7371V59.4672V55.2883H197.159V61.1064H196.488ZM200.837 61.186C200.504 61.186 200.203 61.1197 199.936 60.9871C199.669 60.8546 199.455 60.6727 199.294 60.4417C199.133 60.2106 199.045 59.9474 199.03 59.6519H199.712C199.738 59.9152 199.858 60.133 200.07 60.3053C200.284 60.4758 200.54 60.561 200.837 60.561C201.076 60.561 201.288 60.5051 201.473 60.3934C201.661 60.2816 201.808 60.1282 201.914 59.9331C202.022 59.7362 202.076 59.5136 202.076 59.2655C202.076 59.0117 202.02 58.7854 201.908 58.5866C201.798 58.3858 201.647 58.2277 201.453 58.1121C201.26 57.9966 201.04 57.9379 200.791 57.936C200.613 57.9341 200.431 57.9616 200.243 58.0184C200.056 58.0733 199.901 58.1443 199.78 58.2314L199.121 58.1519L199.473 55.2883H202.496V55.9133H200.064L199.86 57.6292H199.894C200.013 57.5345 200.163 57.4559 200.343 57.3934C200.523 57.3309 200.71 57.2996 200.905 57.2996C201.261 57.2996 201.578 57.3849 201.857 57.5553C202.137 57.7239 202.357 57.9549 202.516 58.2485C202.677 58.5421 202.757 58.8773 202.757 59.2542C202.757 59.6254 202.674 59.9568 202.507 60.2485C202.343 60.5383 202.115 60.7674 201.826 60.936C201.536 61.1027 201.206 61.186 200.837 61.186Z" fill="#595758"/>
<rect x="145.023" y="73.9893" width="91.0436" height="12.5577" rx="6.27887" fill="white"/>
<path d="M145.023 80.2681C145.023 76.8004 147.835 73.9893 151.302 73.9893H154.442V86.547H151.302C147.835 86.547 145.023 83.7358 145.023 80.2681Z" fill="#F95700"/>
<path d="M180.375 82.9357V82.3562L182.931 78.3107H183.352V79.2085H183.068L181.136 82.2653V82.3107H184.579V82.9357H180.375ZM183.113 84.1289V82.7596V82.4897V78.3107H183.784V84.1289H183.113ZM186.382 83.3335L186.336 83.6403C186.304 83.8562 186.255 84.0872 186.188 84.3335C186.124 84.5797 186.057 84.8117 185.987 85.0295C185.917 85.2473 185.859 85.4206 185.813 85.5494H185.302C185.327 85.4281 185.359 85.2681 185.399 85.0692C185.438 84.8704 185.478 84.6478 185.518 84.4016C185.56 84.1573 185.594 83.9073 185.62 83.6516L185.654 83.3335H186.382ZM189.341 84.2085C189.103 84.2047 188.864 84.1592 188.625 84.0721C188.387 83.985 188.169 83.8382 187.972 83.6317C187.775 83.4234 187.617 83.1422 187.497 82.788C187.378 82.4319 187.318 81.985 187.318 81.4471C187.318 80.9319 187.367 80.4755 187.463 80.0778C187.56 79.6781 187.7 79.342 187.884 79.0692C188.067 78.7946 188.289 78.5863 188.549 78.4442C188.81 78.3022 189.104 78.2312 189.432 78.2312C189.758 78.2312 190.048 78.2965 190.301 78.4272C190.557 78.556 190.765 78.7359 190.926 78.967C191.087 79.198 191.192 79.4641 191.239 79.7653H190.546C190.481 79.5039 190.356 79.2871 190.171 79.1147C189.985 78.9424 189.739 78.8562 189.432 78.8562C188.981 78.8562 188.626 79.0522 188.367 79.4442C188.109 79.8363 187.979 80.3865 187.978 81.0948H188.023C188.129 80.9338 188.255 80.7965 188.401 80.6829C188.549 80.5674 188.711 80.4783 188.889 80.4158C189.067 80.3533 189.256 80.3221 189.455 80.3221C189.788 80.3221 190.093 80.4054 190.37 80.5721C190.646 80.7369 190.868 80.9651 191.034 81.2567C191.201 81.5465 191.284 81.8789 191.284 82.2539C191.284 82.6138 191.204 82.9433 191.043 83.2425C190.882 83.5399 190.656 83.7766 190.364 83.9528C190.074 84.127 189.733 84.2122 189.341 84.2085ZM189.341 83.5835C189.58 83.5835 189.794 83.5238 189.983 83.4045C190.175 83.2852 190.325 83.1251 190.435 82.9244C190.547 82.7236 190.603 82.5001 190.603 82.2539C190.603 82.0134 190.549 81.7946 190.441 81.5977C190.335 81.3988 190.188 81.2406 190 81.1232C189.815 81.0058 189.603 80.9471 189.364 80.9471C189.184 80.9471 189.016 80.9831 188.861 81.055C188.706 81.1251 188.569 81.2217 188.452 81.3448C188.336 81.4679 188.246 81.609 188.179 81.7681C188.113 81.9253 188.08 82.091 188.08 82.2653C188.08 82.4963 188.134 82.7122 188.242 82.913C188.352 83.1138 188.501 83.2757 188.691 83.3988C188.882 83.5219 189.099 83.5835 189.341 83.5835ZM192.583 84.1289L195.186 78.9812V78.9357H192.186V78.3107H195.913V78.9698L193.322 84.1289H192.583ZM198.718 84.2085C198.328 84.2085 197.983 84.1393 197.684 84.0011C197.387 83.8609 197.155 83.6687 196.988 83.4244C196.822 83.1781 196.739 82.8978 196.741 82.5835C196.739 82.3372 196.787 82.11 196.886 81.9016C196.984 81.6914 197.119 81.5162 197.289 81.3761C197.462 81.234 197.654 81.1441 197.866 81.1062V81.0721C197.588 81.0001 197.366 80.8439 197.201 80.6033C197.036 80.3609 196.955 80.0853 196.957 79.7766C196.955 79.4812 197.03 79.217 197.181 78.984C197.333 78.7511 197.541 78.5674 197.806 78.4329C198.073 78.2984 198.377 78.2312 198.718 78.2312C199.055 78.2312 199.357 78.2984 199.622 78.4329C199.887 78.5674 200.095 78.7511 200.247 78.984C200.4 79.217 200.478 79.4812 200.48 79.7766C200.478 80.0853 200.393 80.3609 200.227 80.6033C200.062 80.8439 199.843 81.0001 199.571 81.0721V81.1062C199.781 81.1441 199.97 81.234 200.139 81.3761C200.307 81.5162 200.442 81.6914 200.542 81.9016C200.643 82.11 200.694 82.3372 200.696 82.5835C200.694 82.8978 200.608 83.1781 200.44 83.4244C200.273 83.6687 200.041 83.8609 199.744 84.0011C199.448 84.1393 199.107 84.2085 198.718 84.2085ZM198.718 83.5835C198.982 83.5835 199.209 83.5408 199.4 83.4556C199.591 83.3704 199.739 83.2501 199.843 83.0948C199.947 82.9395 200 82.7577 200.002 82.5494C200 82.3297 199.944 82.1355 199.832 81.967C199.72 81.7984 199.568 81.6658 199.375 81.5692C199.183 81.4727 198.965 81.4244 198.718 81.4244C198.47 81.4244 198.249 81.4727 198.054 81.5692C197.86 81.6658 197.708 81.7984 197.596 81.967C197.486 82.1355 197.432 82.3297 197.434 82.5494C197.432 82.7577 197.483 82.9395 197.585 83.0948C197.689 83.2501 197.838 83.3704 198.031 83.4556C198.224 83.5408 198.453 83.5835 198.718 83.5835ZM198.718 80.8221C198.927 80.8221 199.111 80.7804 199.272 80.6971C199.435 80.6138 199.563 80.4973 199.656 80.3477C199.749 80.198 199.796 80.0228 199.798 79.8221C199.796 79.6251 199.75 79.4537 199.659 79.3079C199.568 79.1602 199.442 79.0465 199.281 78.967C199.12 78.8855 198.932 78.8448 198.718 78.8448C198.5 78.8448 198.31 78.8855 198.147 78.967C197.984 79.0465 197.858 79.1602 197.769 79.3079C197.68 79.4537 197.637 79.6251 197.639 79.8221C197.637 80.0228 197.681 80.198 197.772 80.3477C197.865 80.4973 197.993 80.6138 198.156 80.6971C198.319 80.7804 198.506 80.8221 198.718 80.8221Z" fill="#595758"/>
<rect x="145.023" y="97.0117" width="91.0436" height="12.5577" rx="6.27887" fill="white"/>
<path d="M145.023 103.291C145.023 99.8229 147.835 97.0117 151.302 97.0117H177.464V109.569H151.302C147.835 109.569 145.023 106.758 145.023 103.291Z" fill="#F95700"/>
<path d="M176.878 105.958V105.379L179.435 101.333H179.856V102.231H179.572L177.64 105.288V105.333H181.083V105.958H176.878ZM179.617 107.151V105.782V105.512V101.333H180.288V107.151H179.617ZM183.966 107.231C183.632 107.231 183.332 107.165 183.065 107.032C182.798 106.899 182.584 106.718 182.423 106.487C182.262 106.256 182.174 105.992 182.159 105.697H182.841C182.867 105.96 182.987 106.178 183.199 106.35C183.413 106.521 183.668 106.606 183.966 106.606C184.204 106.606 184.417 106.55 184.602 106.438C184.79 106.327 184.936 106.173 185.043 105.978C185.15 105.781 185.204 105.559 185.204 105.31C185.204 105.057 185.149 104.83 185.037 104.631C184.927 104.431 184.775 104.273 184.582 104.157C184.389 104.042 184.168 103.983 183.92 103.981C183.742 103.979 183.56 104.006 183.372 104.063C183.185 104.118 183.03 104.189 182.909 104.276L182.25 104.197L182.602 101.333H185.625V101.958H183.193L182.989 103.674H183.023C183.142 103.579 183.292 103.501 183.471 103.438C183.651 103.376 183.839 103.345 184.034 103.345C184.39 103.345 184.707 103.43 184.986 103.6C185.266 103.769 185.486 104 185.645 104.293C185.806 104.587 185.886 104.922 185.886 105.299C185.886 105.67 185.803 106.002 185.636 106.293C185.471 106.583 185.244 106.812 184.954 106.981C184.665 107.148 184.335 107.231 183.966 107.231ZM187.296 107.197C187.156 107.197 187.036 107.147 186.935 107.046C186.835 106.946 186.785 106.826 186.785 106.685C186.785 106.545 186.835 106.425 186.935 106.325C187.036 106.224 187.156 106.174 187.296 106.174C187.436 106.174 187.556 106.224 187.657 106.325C187.757 106.425 187.807 106.545 187.807 106.685C187.807 106.778 187.784 106.863 187.736 106.941C187.691 107.019 187.629 107.081 187.552 107.129C187.476 107.174 187.391 107.197 187.296 107.197ZM190.728 107.231C190.489 107.227 190.251 107.182 190.012 107.095C189.773 107.007 189.556 106.861 189.359 106.654C189.162 106.446 189.003 106.165 188.884 105.81C188.765 105.454 188.705 105.007 188.705 104.47C188.705 103.954 188.753 103.498 188.85 103.1C188.947 102.701 189.087 102.364 189.271 102.092C189.454 101.817 189.676 101.609 189.935 101.467C190.197 101.325 190.491 101.254 190.819 101.254C191.145 101.254 191.434 101.319 191.688 101.45C191.944 101.578 192.152 101.758 192.313 101.989C192.474 102.22 192.578 102.487 192.626 102.788H191.932C191.868 102.526 191.743 102.31 191.557 102.137C191.372 101.965 191.126 101.879 190.819 101.879C190.368 101.879 190.013 102.075 189.753 102.467C189.496 102.859 189.366 103.409 189.364 104.117H189.41C189.516 103.956 189.642 103.819 189.788 103.705C189.935 103.59 190.098 103.501 190.276 103.438C190.454 103.376 190.643 103.345 190.842 103.345C191.175 103.345 191.48 103.428 191.756 103.595C192.033 103.759 192.254 103.988 192.421 104.279C192.588 104.569 192.671 104.901 192.671 105.276C192.671 105.636 192.591 105.966 192.43 106.265C192.269 106.562 192.042 106.799 191.751 106.975C191.461 107.149 191.12 107.235 190.728 107.231ZM190.728 106.606C190.967 106.606 191.181 106.546 191.37 106.427C191.561 106.308 191.712 106.148 191.822 105.947C191.933 105.746 191.989 105.523 191.989 105.276C191.989 105.036 191.935 104.817 191.827 104.62C191.721 104.421 191.574 104.263 191.387 104.146C191.201 104.028 190.989 103.97 190.751 103.97C190.571 103.97 190.403 104.006 190.248 104.078C190.092 104.148 189.956 104.244 189.839 104.367C189.723 104.49 189.632 104.631 189.566 104.791C189.5 104.948 189.467 105.113 189.467 105.288C189.467 105.519 189.521 105.735 189.628 105.935C189.738 106.136 189.888 106.298 190.077 106.421C190.269 106.544 190.485 106.606 190.728 106.606ZM195.72 107.231C195.481 107.227 195.243 107.182 195.004 107.095C194.766 107.007 194.548 106.861 194.351 106.654C194.154 106.446 193.996 106.165 193.876 105.81C193.757 105.454 193.697 105.007 193.697 104.47C193.697 103.954 193.746 103.498 193.842 103.1C193.939 102.701 194.079 102.364 194.263 102.092C194.446 101.817 194.668 101.609 194.927 101.467C195.189 101.325 195.483 101.254 195.811 101.254C196.137 101.254 196.427 101.319 196.68 101.45C196.936 101.578 197.144 101.758 197.305 101.989C197.466 102.22 197.57 102.487 197.618 102.788H196.925C196.86 102.526 196.735 102.31 196.55 102.137C196.364 101.965 196.118 101.879 195.811 101.879C195.36 101.879 195.005 102.075 194.746 102.467C194.488 102.859 194.358 103.409 194.356 104.117H194.402C194.508 103.956 194.634 103.819 194.78 103.705C194.927 103.59 195.09 103.501 195.268 103.438C195.446 103.376 195.635 103.345 195.834 103.345C196.167 103.345 196.472 103.428 196.748 103.595C197.025 103.759 197.247 103.988 197.413 104.279C197.58 104.569 197.663 104.901 197.663 105.276C197.663 105.636 197.583 105.966 197.422 106.265C197.261 106.562 197.034 106.799 196.743 106.975C196.453 107.149 196.112 107.235 195.72 107.231ZM195.72 106.606C195.959 106.606 196.173 106.546 196.362 106.427C196.553 106.308 196.704 106.148 196.814 105.947C196.926 105.746 196.981 105.523 196.981 105.276C196.981 105.036 196.927 104.817 196.82 104.62C196.713 104.421 196.567 104.263 196.379 104.146C196.194 104.028 195.981 103.97 195.743 103.97C195.563 103.97 195.395 104.006 195.24 104.078C195.085 104.148 194.948 104.244 194.831 104.367C194.715 104.49 194.624 104.631 194.558 104.791C194.492 104.948 194.459 105.113 194.459 105.288C194.459 105.519 194.513 105.735 194.621 105.935C194.73 106.136 194.88 106.298 195.07 106.421C195.261 106.544 195.478 106.606 195.72 106.606ZM201.746 106.06V105.754C201.746 105.542 201.79 105.347 201.877 105.171C201.966 104.993 202.095 104.851 202.263 104.745C202.434 104.637 202.64 104.583 202.883 104.583C203.129 104.583 203.335 104.637 203.502 104.745C203.669 104.851 203.795 104.993 203.88 105.171C203.965 105.347 204.008 105.542 204.008 105.754V106.06C204.008 106.273 203.964 106.468 203.877 106.646C203.792 106.822 203.665 106.964 203.496 107.072C203.33 107.178 203.125 107.231 202.883 107.231C202.637 107.231 202.429 107.178 202.261 107.072C202.092 106.964 201.964 106.822 201.877 106.646C201.79 106.468 201.746 106.273 201.746 106.06ZM202.326 105.754V106.06C202.326 106.237 202.368 106.395 202.451 106.535C202.534 106.673 202.678 106.742 202.883 106.742C203.082 106.742 203.222 106.673 203.303 106.535C203.387 106.395 203.428 106.237 203.428 106.06V105.754C203.428 105.578 203.388 105.42 203.309 105.282C203.229 105.142 203.087 105.072 202.883 105.072C202.684 105.072 202.541 105.142 202.454 105.282C202.369 105.42 202.326 105.578 202.326 105.754ZM198.849 102.731V102.424C198.849 102.212 198.892 102.018 198.979 101.842C199.068 101.664 199.197 101.522 199.366 101.416C199.536 101.308 199.743 101.254 199.985 101.254C200.231 101.254 200.438 101.308 200.604 101.416C200.771 101.522 200.897 101.664 200.982 101.842C201.067 102.018 201.11 102.212 201.11 102.424V102.731C201.11 102.943 201.066 103.138 200.979 103.316C200.894 103.492 200.767 103.634 200.599 103.742C200.432 103.848 200.227 103.901 199.985 103.901C199.739 103.901 199.531 103.848 199.363 103.742C199.194 103.634 199.066 103.492 198.979 103.316C198.892 103.138 198.849 102.943 198.849 102.731ZM199.428 102.424V102.731C199.428 102.907 199.47 103.065 199.553 103.205C199.637 103.344 199.78 103.413 199.985 103.413C200.184 103.413 200.324 103.344 200.405 103.205C200.489 103.065 200.53 102.907 200.53 102.731V102.424C200.53 102.248 200.491 102.091 200.411 101.953C200.332 101.812 200.19 101.742 199.985 101.742C199.786 101.742 199.643 101.812 199.556 101.953C199.471 102.091 199.428 102.248 199.428 102.424ZM199.065 107.151L203.065 101.333H203.712L199.712 107.151H199.065Z" fill="#595758"/>
<rect x="145.023" y="120.034" width="91.0436" height="12.5577" rx="6.27887" fill="white"/>
<path d="M145.023 126.313C145.023 122.845 147.835 120.034 151.302 120.034H215.137V132.592H151.302C147.835 132.592 145.023 129.781 145.023 126.313Z" fill="#F95700"/>
<path d="M171.907 130.901V123.628H172.372V130.901H171.907ZM173.475 125.81C173.441 125.522 173.302 125.299 173.06 125.14C172.817 124.981 172.52 124.901 172.168 124.901C171.91 124.901 171.685 124.943 171.492 125.026C171.3 125.109 171.151 125.224 171.043 125.37C170.937 125.516 170.884 125.681 170.884 125.867C170.884 126.022 170.921 126.156 170.995 126.268C171.07 126.377 171.167 126.469 171.284 126.543C171.402 126.615 171.525 126.675 171.654 126.722C171.782 126.768 171.901 126.805 172.009 126.833L172.6 126.992C172.751 127.032 172.92 127.087 173.105 127.157C173.293 127.227 173.472 127.323 173.642 127.444C173.815 127.563 173.957 127.716 174.068 127.904C174.18 128.091 174.236 128.322 174.236 128.594C174.236 128.909 174.154 129.193 173.989 129.447C173.826 129.7 173.587 129.902 173.273 130.052C172.96 130.201 172.581 130.276 172.134 130.276C171.717 130.276 171.356 130.209 171.051 130.074C170.748 129.94 170.51 129.752 170.335 129.512C170.163 129.271 170.066 128.992 170.043 128.674H170.77C170.789 128.894 170.863 129.075 170.992 129.219C171.122 129.361 171.287 129.467 171.486 129.537C171.687 129.606 171.903 129.64 172.134 129.64C172.403 129.64 172.644 129.596 172.858 129.509C173.072 129.42 173.242 129.297 173.367 129.14C173.492 128.981 173.554 128.795 173.554 128.583C173.554 128.39 173.5 128.233 173.392 128.111C173.284 127.99 173.142 127.892 172.966 127.816C172.79 127.74 172.6 127.674 172.395 127.617L171.679 127.412C171.225 127.282 170.865 127.095 170.6 126.853C170.335 126.61 170.202 126.293 170.202 125.901C170.202 125.575 170.29 125.291 170.466 125.049C170.644 124.805 170.883 124.615 171.182 124.481C171.483 124.344 171.819 124.276 172.191 124.276C172.566 124.276 172.899 124.343 173.191 124.478C173.482 124.61 173.713 124.792 173.884 125.023C174.056 125.254 174.147 125.517 174.157 125.81H173.475ZM177.338 124.356V130.174H176.633V125.094H176.599L175.179 126.037V125.322L176.633 124.356H177.338ZM179.679 129.378L179.633 129.685C179.601 129.901 179.552 130.132 179.485 130.378C179.421 130.625 179.354 130.857 179.284 131.074C179.214 131.292 179.156 131.465 179.11 131.594H178.599C178.624 131.473 178.656 131.313 178.696 131.114C178.735 130.915 178.775 130.693 178.815 130.447C178.857 130.202 178.891 129.952 178.917 129.697L178.951 129.378H179.679ZM182.61 130.253C182.277 130.253 181.977 130.187 181.71 130.055C181.443 129.922 181.229 129.74 181.068 129.509C180.907 129.278 180.819 129.015 180.804 128.719H181.485C181.512 128.983 181.631 129.2 181.843 129.373C182.057 129.543 182.313 129.628 182.61 129.628C182.849 129.628 183.061 129.573 183.247 129.461C183.434 129.349 183.581 129.196 183.687 129.001C183.795 128.804 183.849 128.581 183.849 128.333C183.849 128.079 183.793 127.853 183.681 127.654C183.572 127.453 183.42 127.295 183.227 127.18C183.034 127.064 182.813 127.005 182.565 127.003C182.387 127.001 182.204 127.029 182.017 127.086C181.829 127.141 181.675 127.212 181.554 127.299L180.894 127.219L181.247 124.356H184.269V124.981H181.838L181.633 126.697H181.667C181.786 126.602 181.936 126.523 182.116 126.461C182.296 126.398 182.483 126.367 182.679 126.367C183.035 126.367 183.352 126.452 183.63 126.623C183.911 126.791 184.13 127.022 184.289 127.316C184.45 127.609 184.531 127.945 184.531 128.322C184.531 128.693 184.447 129.024 184.281 129.316C184.116 129.606 183.889 129.835 183.599 130.003C183.309 130.17 182.98 130.253 182.61 130.253ZM187.625 130.253C187.25 130.253 186.916 130.189 186.622 130.06C186.331 129.931 186.099 129.752 185.926 129.523C185.756 129.292 185.663 129.024 185.648 128.719H186.364C186.379 128.907 186.443 129.069 186.557 129.205C186.671 129.34 186.819 129.444 187.003 129.518C187.187 129.591 187.39 129.628 187.614 129.628C187.864 129.628 188.085 129.585 188.279 129.498C188.472 129.411 188.623 129.289 188.733 129.134C188.843 128.979 188.898 128.799 188.898 128.594C188.898 128.38 188.845 128.192 188.739 128.029C188.633 127.864 188.478 127.735 188.273 127.643C188.068 127.55 187.818 127.503 187.523 127.503H187.057V126.878H187.523C187.754 126.878 187.957 126.837 188.131 126.753C188.307 126.67 188.444 126.553 188.543 126.401C188.643 126.25 188.693 126.072 188.693 125.867C188.693 125.67 188.65 125.499 188.563 125.353C188.476 125.207 188.353 125.093 188.193 125.012C188.036 124.93 187.851 124.89 187.637 124.89C187.436 124.89 187.246 124.927 187.068 125.001C186.892 125.073 186.748 125.178 186.637 125.316C186.525 125.452 186.464 125.617 186.455 125.81H185.773C185.784 125.505 185.876 125.238 186.049 125.009C186.221 124.778 186.446 124.598 186.725 124.469C187.005 124.34 187.313 124.276 187.648 124.276C188.008 124.276 188.317 124.349 188.574 124.495C188.832 124.639 189.03 124.829 189.168 125.066C189.306 125.303 189.375 125.558 189.375 125.833C189.375 126.161 189.289 126.44 189.117 126.671C188.946 126.902 188.714 127.062 188.421 127.151V127.197C188.788 127.257 189.075 127.413 189.282 127.665C189.488 127.915 189.591 128.225 189.591 128.594C189.591 128.911 189.505 129.195 189.333 129.447C189.162 129.697 188.929 129.894 188.634 130.037C188.338 130.181 188.002 130.253 187.625 130.253ZM190.617 128.981V128.401L193.174 124.356H193.594V125.253H193.31L191.378 128.31V128.356H194.821V128.981H190.617ZM193.355 130.174V128.805V128.535V124.356H194.026V130.174H193.355ZM196.624 129.378L196.578 129.685C196.546 129.901 196.497 130.132 196.431 130.378C196.366 130.625 196.299 130.857 196.229 131.074C196.159 131.292 196.101 131.465 196.056 131.594H195.544C195.569 131.473 195.601 131.313 195.641 131.114C195.681 130.915 195.72 130.693 195.76 130.447C195.802 130.202 195.836 129.952 195.862 129.697L195.897 129.378H196.624ZM197.855 130.174V129.662L199.775 127.56C200 127.314 200.186 127.1 200.332 126.918C200.478 126.734 200.586 126.562 200.656 126.401C200.728 126.238 200.764 126.068 200.764 125.89C200.764 125.685 200.715 125.508 200.616 125.358C200.519 125.209 200.387 125.093 200.218 125.012C200.05 124.93 199.86 124.89 199.65 124.89C199.427 124.89 199.232 124.936 199.065 125.029C198.9 125.12 198.772 125.248 198.681 125.412C198.592 125.577 198.548 125.77 198.548 125.992H197.877C197.877 125.651 197.956 125.352 198.113 125.094C198.27 124.837 198.484 124.636 198.755 124.492C199.028 124.348 199.334 124.276 199.673 124.276C200.014 124.276 200.316 124.348 200.579 124.492C200.842 124.636 201.049 124.83 201.198 125.074C201.348 125.319 201.423 125.59 201.423 125.89C201.423 126.104 201.384 126.313 201.306 126.518C201.231 126.72 201.098 126.947 200.909 127.197C200.721 127.445 200.461 127.748 200.127 128.106L198.821 129.503V129.549H201.525V130.174H197.855ZM204.551 124.276C204.789 124.278 205.028 124.323 205.267 124.412C205.505 124.501 205.723 124.649 205.92 124.856C206.117 125.06 206.275 125.34 206.394 125.694C206.514 126.048 206.573 126.492 206.573 127.026C206.573 127.543 206.524 128.002 206.426 128.404C206.329 128.804 206.189 129.141 206.005 129.415C205.823 129.69 205.602 129.898 205.34 130.04C205.081 130.182 204.787 130.253 204.46 130.253C204.134 130.253 203.843 130.189 203.588 130.06C203.334 129.93 203.125 129.749 202.963 129.518C202.802 129.285 202.698 129.015 202.653 128.708H203.346C203.409 128.975 203.533 129.196 203.718 129.37C203.906 129.542 204.153 129.628 204.46 129.628C204.909 129.628 205.263 129.432 205.522 129.04C205.784 128.648 205.914 128.094 205.914 127.378H205.869C205.763 127.537 205.637 127.675 205.491 127.79C205.345 127.906 205.183 127.995 205.005 128.057C204.827 128.12 204.638 128.151 204.437 128.151C204.104 128.151 203.798 128.069 203.519 127.904C203.243 127.737 203.021 127.509 202.855 127.219C202.69 126.928 202.608 126.594 202.608 126.219C202.608 125.863 202.687 125.537 202.846 125.242C203.007 124.945 203.233 124.708 203.522 124.532C203.814 124.356 204.157 124.27 204.551 124.276ZM204.551 124.901C204.312 124.901 204.097 124.961 203.906 125.08C203.716 125.198 203.566 125.357 203.454 125.557C203.344 125.756 203.289 125.977 203.289 126.219C203.289 126.462 203.342 126.682 203.448 126.881C203.556 127.078 203.703 127.235 203.889 127.353C204.076 127.468 204.289 127.526 204.528 127.526C204.708 127.526 204.875 127.491 205.031 127.421C205.186 127.349 205.322 127.251 205.437 127.128C205.554 127.003 205.646 126.862 205.713 126.705C205.779 126.546 205.812 126.38 205.812 126.208C205.812 125.981 205.757 125.768 205.647 125.569C205.539 125.37 205.39 125.209 205.198 125.086C205.009 124.963 204.793 124.901 204.551 124.901ZM207.716 130.174L210.318 125.026V124.981H207.318V124.356H211.046V125.015L208.455 130.174H207.716Z" fill="white"/>
<defs>
<filter id="filter0_b_448_2" x="-30" y="-29.0332" width="313" height="214" filterUnits="userSpaceOnUse" color-interpolation-filters="sRGB">
<feFlood flood-opacity="0" result="BackgroundImageFix"/>
<feGaussianBlur in="BackgroundImageFix" stdDeviation="15"/>
<feComposite in2="SourceAlpha" operator="in" result="effect1_backgroundBlur_448_2"/>
<feBlend mode="normal" in="SourceGraphic" in2="effect1_backgroundBlur_448_2" result="shape"/>
</filter>
<linearGradient id="paint0_linear_448_2" x1="0" y1="0.966797" x2="270.921" y2="102.258" gradientUnits="userSpaceOnUse">
<stop stop-color="white"/>
<stop/>
<stop offset="0.0001" stop-color="#FFF8F8"/>
<stop offset="0.9999" stop-color="#323232" stop-opacity="0"/>
<stop offset="1" stop-color="white"/>
</linearGradient>
</defs>
</svg>
