<svg width="18" height="18" viewBox="0 0 18 18" fill="none" xmlns="http://www.w3.org/2000/svg">
<path fill-rule="evenodd" clip-rule="evenodd" d="M5.02278 5.02263C5.79245 4.25292 6.76891 3.72306 7.83375 3.49731C8.89859 3.27155 10.0061 3.35961 11.0218 3.75079C12.0376 4.14197 12.9181 4.81948 13.5565 5.70114C14.1948 6.5828 14.5637 7.63074 14.6183 8.71788C15.3244 8.90088 15.9398 9.33478 16.3493 9.93848C16.7588 10.5422 16.9344 11.2743 16.8433 11.9981C16.7522 12.7219 16.4007 13.3877 15.8544 13.8711C15.3081 14.3546 14.6045 14.6225 13.875 14.6249H4.87503C3.99004 14.6254 3.13338 14.3129 2.45657 13.7427C1.77976 13.1725 1.32643 12.3813 1.17677 11.5091C1.0271 10.6368 1.19074 9.73976 1.63874 8.97655C2.08674 8.21333 2.79023 7.63315 3.62478 7.33863C3.8946 6.46402 4.37459 5.66884 5.02278 5.02263ZM11.7803 8.78013C11.9169 8.63868 11.9925 8.44923 11.9908 8.25258C11.9891 8.05593 11.9102 7.86782 11.7711 7.72877C11.6321 7.58971 11.444 7.51083 11.2473 7.50912C11.0507 7.50742 10.8612 7.58301 10.7198 7.71963L8.25003 10.1894L7.28028 9.21963C7.13883 9.08301 6.94938 9.00742 6.75273 9.00912C6.55608 9.01083 6.36797 9.08971 6.22891 9.22877C6.08986 9.36782 6.01098 9.55593 6.00927 9.75258C6.00756 9.94923 6.08316 10.1387 6.21978 10.2801L7.71978 11.7801C7.86042 11.9207 8.05116 11.9997 8.25003 11.9997C8.4489 11.9997 8.63963 11.9207 8.78028 11.7801L11.7803 8.78013Z" fill="#F95700"/>
</svg>
