<svg width="6" height="43" viewBox="0 0 6 43" fill="none" xmlns="http://www.w3.org/2000/svg">
<path d="M3 0.333333C1.52724 0.333333 0.333333 1.52724 0.333333 3C0.333333 4.47276 1.52724 5.66667 3 5.66667C4.47276 5.66667 5.66667 4.47276 5.66667 3C5.66667 1.52724 4.47276 0.333333 3 0.333333ZM3 43L5.88675 38H0.113249L3 43ZM2.5 3V4.42857H3.5V3H2.5ZM2.5 7.28571V10.1429H3.5L3.5 7.28571H2.5ZM2.5 13V15.8571H3.5L3.5 13H2.5ZM2.5 18.7143L2.5 21.5714H3.5V18.7143H2.5ZM2.5 24.4286L2.5 27.2857H3.5V24.4286H2.5ZM2.5 30.1429V33H3.5V30.1429H2.5ZM2.5 35.8571V38.7143H3.5L3.5 35.8571H2.5Z" fill="#F95700"/>
</svg>
