<svg width="76" height="12" viewBox="0 0 76 12" fill="none" xmlns="http://www.w3.org/2000/svg">
<path d="M0.330729 6.10059C0.330729 9.0461 2.71854 11.4339 5.66406 11.4339C8.60958 11.4339 10.9974 9.04611 10.9974 6.10059C10.9974 3.15507 8.60958 0.767253 5.66406 0.767253C2.71854 0.767252 0.330729 3.15507 0.330729 6.10059ZM75.6641 6.10059L65.6641 0.327088L65.6641 11.8741L75.6641 6.10059ZM5.66406 7.10059L8.16406 7.10059L8.16406 5.10059L5.66406 5.10059L5.66406 7.10059ZM13.1641 7.10059L18.1641 7.10059L18.1641 5.10059L13.1641 5.10059L13.1641 7.10059ZM23.1641 7.10059L28.1641 7.10059L28.1641 5.10059L23.1641 5.10059L23.1641 7.10059ZM33.1641 7.10059L38.1641 7.10059L38.1641 5.10059L33.1641 5.10059L33.1641 7.10059ZM43.1641 7.10059L48.1641 7.10059L48.1641 5.10059L43.1641 5.10059L43.1641 7.10059ZM53.1641 7.10059L58.1641 7.10059L58.1641 5.10059L53.1641 5.10059L53.1641 7.10059ZM63.1641 7.10059L68.1641 7.10059L68.1641 5.10059L63.1641 5.10059L63.1641 7.10059Z" fill="#F95700"/>
</svg>
