<svg width="1222" height="262" viewBox="0 0 1222 262" fill="none" xmlns="http://www.w3.org/2000/svg">
<path d="M1190.87 4.43605C1190.23 1.56156 1187.37 -0.247465 1184.5 0.395481C1181.63 1.03843 1179.82 3.88988 1180.46 6.76437C1181.1 9.63886 1183.95 11.4479 1186.83 10.8049C1189.7 10.162 1191.51 7.31055 1190.87 4.43605ZM34.1643 261.601L31.7627 250.306L23.1822 258.033L34.1643 261.601ZM1184.97 6.32165C1185.67 6.98945 1186.35 7.65372 1187.03 8.31446L1188.43 6.88685C1187.75 6.22089 1187.06 5.55154 1186.36 4.87877L1184.97 6.32165ZM1190.93 12.2368C1192.19 13.5302 1193.41 14.8097 1194.58 16.0752L1196.04 14.717C1194.86 13.4387 1193.64 12.1471 1192.37 10.8421L1190.93 12.2368ZM1197.96 19.8303C1199.04 21.0681 1200.08 22.2921 1201.08 23.5025L1202.62 22.2301C1201.61 21.0039 1200.56 19.7648 1199.46 18.5127L1197.96 19.8303ZM1203.95 27.0923C1204.86 28.2752 1205.73 29.4445 1206.56 30.6002L1208.18 29.4349C1207.34 28.2593 1206.46 27.0712 1205.53 25.8705L1203.95 27.0923ZM1209.6 35.0709C1210.59 36.6195 1211.51 38.1422 1212.35 39.6392L1214.09 38.6625C1213.23 37.128 1212.3 35.5706 1211.28 33.9901L1209.6 35.0709ZM1214.63 44.0534C1215.31 45.4992 1215.92 46.9194 1216.45 48.3143L1218.32 47.6017C1217.77 46.1558 1217.14 44.6882 1216.44 43.1986L1214.63 44.0534ZM1217.82 52.4232C1218.33 54.1852 1218.7 55.9041 1218.95 57.581L1220.93 57.2825C1220.67 55.516 1220.27 53.7137 1219.75 51.8749L1217.82 52.4232ZM1219.35 62.5227C1219.36 64.1283 1219.25 65.6939 1219.02 67.2208L1221 67.5178C1221.24 65.886 1221.36 64.2171 1221.35 62.5108L1219.35 62.5227ZM1217.97 71.7258C1217.49 73.2171 1216.89 74.6721 1216.17 76.0919L1217.96 76.9962C1218.72 75.4839 1219.36 73.9305 1219.87 72.3352L1217.97 71.7258ZM1213.65 80.2494C1212.69 81.6016 1211.61 82.9206 1210.41 84.2071L1211.88 85.5699C1213.13 84.2231 1214.27 82.8359 1215.28 81.4072L1213.65 80.2494ZM1207.06 87.4556C1205.93 88.4517 1204.72 89.4266 1203.44 90.3804L1204.63 91.9859C1205.95 91.0015 1207.21 89.9923 1208.38 88.9575L1207.06 87.4556ZM1199.36 93.1784C1197.93 94.09 1196.42 94.9805 1194.84 95.8503L1195.81 97.6021C1197.42 96.7134 1198.96 95.8016 1200.43 94.8658L1199.36 93.1784ZM1190.25 98.2235C1188.91 98.8736 1187.53 99.511 1186.1 100.136L1186.9 101.968C1188.35 101.333 1189.76 100.685 1191.12 100.023L1190.25 98.2235ZM1181.7 101.973C1180.19 102.573 1178.64 103.161 1177.04 103.736L1177.72 105.617C1179.33 105.035 1180.91 104.44 1182.44 103.832L1181.7 101.973ZM1172.14 105.426C1170.47 105.977 1168.75 106.516 1167 107.043L1167.57 108.958C1169.34 108.426 1171.07 107.882 1172.77 107.325L1172.14 105.426ZM1162.31 108.396C1160.83 108.807 1159.32 109.211 1157.79 109.607L1158.29 111.543C1159.83 111.144 1161.35 110.737 1162.85 110.323L1162.31 108.396ZM1153.11 110.773C1151.53 111.154 1149.92 111.527 1148.29 111.893L1148.73 113.845C1150.37 113.477 1151.99 113.101 1153.58 112.717L1153.11 110.773ZM1143.32 112.969C1141.63 113.32 1139.93 113.664 1138.2 114.001L1138.58 115.964C1140.32 115.626 1142.03 115.28 1143.72 114.927L1143.32 112.969ZM1132.93 114.99C1131.36 115.276 1129.76 115.556 1128.15 115.831L1128.48 117.803C1130.1 117.527 1131.71 117.245 1133.29 116.958L1132.93 114.99ZM1123.47 116.604C1121.9 116.857 1120.31 117.104 1118.7 117.347L1119 119.325C1120.61 119.081 1122.21 118.833 1123.79 118.579L1123.47 116.604ZM1113.83 118.061C1112.19 118.294 1110.53 118.522 1108.86 118.746L1109.13 120.728C1110.8 120.504 1112.47 120.275 1114.11 120.041L1113.83 118.061ZM1103.8 119.402C1102.1 119.616 1100.38 119.826 1098.65 120.031L1098.88 122.017C1100.62 121.811 1102.35 121.601 1104.05 121.387L1103.8 119.402ZM1093.41 120.631C1091.76 120.814 1090.1 120.992 1088.43 121.167L1088.64 123.156C1090.32 122.981 1091.98 122.802 1093.63 122.619L1093.41 120.631ZM1083.69 121.649C1082.09 121.807 1080.49 121.961 1078.87 122.112L1079.06 124.103C1080.68 123.952 1082.29 123.798 1083.88 123.64L1083.69 121.649ZM1073.99 122.554C1072.36 122.698 1070.71 122.838 1069.05 122.976L1069.21 124.969C1070.88 124.831 1072.53 124.69 1074.17 124.546L1073.99 122.554ZM1064.04 123.379C1062.36 123.51 1060.67 123.638 1058.96 123.762L1059.11 125.757C1060.81 125.632 1062.51 125.504 1064.19 125.373L1064.04 123.379ZM1053.83 124.127C1052.1 124.245 1050.37 124.361 1048.63 124.473L1048.76 126.469C1050.5 126.357 1052.24 126.241 1053.96 126.122L1053.83 124.127ZM1043.48 124.795C1041.89 124.89 1040.29 124.984 1038.69 125.075L1038.8 127.072C1040.41 126.98 1042.01 126.887 1043.6 126.791L1043.48 124.795ZM1033.85 125.341C1032.23 125.427 1030.6 125.511 1028.96 125.592L1029.06 127.59C1030.7 127.508 1032.33 127.424 1033.96 127.338L1033.85 125.341ZM1024.03 125.83C1022.38 125.907 1020.72 125.982 1019.05 126.054L1019.14 128.052C1020.81 127.98 1022.47 127.905 1024.13 127.828L1024.03 125.83ZM1014.03 126.264C1012.35 126.332 1010.66 126.398 1008.96 126.461L1009.04 128.46C1010.74 128.396 1012.43 128.331 1014.11 128.263L1014.03 126.264ZM1003.85 126.645C1002.14 126.704 1000.42 126.761 998.696 126.816L998.76 128.815C1000.49 128.76 1002.21 128.703 1003.92 128.644L1003.85 126.645ZM993.498 126.974C991.873 127.021 990.243 127.067 988.606 127.11L988.659 129.11C990.298 129.066 991.93 129.021 993.556 128.973L993.498 126.974ZM983.746 127.234C982.12 127.274 980.489 127.312 978.852 127.348L978.896 129.348C980.535 129.311 982.168 129.274 983.795 129.234L983.746 127.234ZM973.923 127.452C972.275 127.485 970.621 127.516 968.961 127.546L968.997 129.545C970.658 129.516 972.313 129.484 973.963 129.452L973.923 127.452ZM963.966 127.63C962.296 127.656 960.62 127.681 958.939 127.704L958.966 129.704C960.649 129.681 962.326 129.656 963.998 129.629L963.966 127.63ZM953.879 127.769C952.187 127.789 950.49 127.808 948.788 127.825L948.808 129.824C950.512 129.807 952.21 129.789 953.903 129.769L953.879 127.769ZM943.666 127.871C941.954 127.885 940.236 127.898 938.514 127.909L938.527 129.909C940.25 129.898 941.969 129.885 943.683 129.871L943.666 127.871ZM933.519 127.937C931.895 127.945 930.267 127.951 928.634 127.956L928.641 129.956C930.274 129.951 931.904 129.945 933.529 129.937L933.519 127.937ZM923.724 127.969C922.083 127.971 920.438 127.973 918.789 127.973L918.789 129.973C920.44 129.973 922.086 129.971 923.728 129.969L923.724 127.969ZM913.829 127.971C912.172 127.969 910.511 127.966 908.845 127.962L908.84 129.962C910.506 129.966 912.169 129.969 913.827 129.971L913.829 127.971ZM903.838 127.946C902.165 127.939 900.488 127.931 898.807 127.923L898.797 129.923C900.478 129.931 902.156 129.939 903.83 129.946L903.838 127.946ZM893.754 127.893C892.065 127.882 890.373 127.87 888.678 127.857L888.662 129.857C890.359 129.87 892.052 129.882 893.741 129.893L893.754 127.893ZM883.58 127.815C881.877 127.8 880.17 127.784 878.46 127.766L878.44 129.766C880.151 129.783 881.858 129.8 883.562 129.815L883.58 127.815ZM873.461 127.713C871.826 127.695 870.188 127.676 868.547 127.656L868.523 129.656C870.165 129.676 871.803 129.695 873.438 129.713L873.461 127.713ZM863.615 127.594C861.968 127.572 860.318 127.549 858.666 127.526L858.637 129.526C860.291 129.549 861.941 129.572 863.589 129.594L863.615 127.594ZM853.698 127.453C852.039 127.428 850.378 127.403 848.713 127.376L848.681 129.376C850.346 129.402 852.009 129.428 853.668 129.453L853.698 127.453ZM843.712 127.294C842.042 127.265 840.369 127.236 838.694 127.207L838.658 129.206C840.334 129.236 842.007 129.265 843.678 129.293L843.712 127.294ZM833.66 127.115C831.979 127.084 830.296 127.052 828.61 127.019L828.571 129.019C830.257 129.052 831.941 129.084 833.622 129.115L833.66 127.115ZM823.544 126.919C821.853 126.885 820.16 126.85 818.464 126.815L818.422 128.815C820.119 128.85 821.812 128.885 823.504 128.919L823.544 126.919ZM813.369 126.707C811.725 126.671 810.079 126.635 808.431 126.598L808.387 128.598C810.035 128.634 811.681 128.671 813.326 128.706L813.369 126.707ZM803.487 126.486C801.837 126.448 800.184 126.41 798.53 126.371L798.483 128.37C800.138 128.409 801.79 128.448 803.441 128.486L803.487 126.486ZM793.561 126.252C791.903 126.212 790.242 126.171 788.58 126.13L788.53 128.13C790.193 128.171 791.854 128.212 793.513 128.252L793.561 126.252ZM783.587 126.005C781.921 125.963 780.253 125.92 778.583 125.877L778.531 127.877C780.202 127.92 781.87 127.962 783.536 128.005L783.587 126.005ZM773.568 125.746C771.895 125.702 770.219 125.658 768.542 125.613L768.489 127.612C770.166 127.657 771.842 127.701 773.515 127.746L773.568 125.746ZM763.507 125.476C761.826 125.43 760.144 125.384 758.461 125.337L758.405 127.336C760.089 127.383 761.771 127.429 763.452 127.475L763.507 125.476ZM753.405 125.195C751.719 125.148 750.03 125.1 748.341 125.052L748.283 127.051C749.973 127.099 751.662 127.147 753.349 127.195L753.405 125.195ZM743.371 124.908C741.717 124.86 740.062 124.812 738.405 124.763L738.347 126.763C740.004 126.811 741.659 126.86 743.313 126.908L743.371 124.908ZM733.431 124.617C731.772 124.567 730.112 124.518 728.45 124.468L728.39 126.467C730.052 126.517 731.713 126.566 733.372 126.616L733.431 124.617ZM723.461 124.317C721.797 124.267 720.132 124.216 718.465 124.165L718.404 126.164C720.071 126.215 721.736 126.266 723.401 126.316L723.461 124.317ZM713.463 124.011C711.794 123.96 710.125 123.908 708.454 123.856L708.392 125.855C710.063 125.907 711.733 125.959 713.401 126.01L713.463 124.011ZM703.439 123.7C701.767 123.647 700.093 123.595 698.419 123.542L698.356 125.541C700.03 125.594 701.704 125.646 703.377 125.699L703.439 123.7ZM693.393 123.383C691.717 123.33 690.039 123.276 688.362 123.223L688.298 125.222C689.976 125.275 691.653 125.329 693.329 125.382L693.393 123.383ZM683.326 123.062C681.657 123.008 679.987 122.955 678.316 122.901L678.252 124.9C679.922 124.954 681.592 125.007 683.262 125.061L683.326 123.062ZM673.329 122.74C671.667 122.686 670.003 122.632 668.339 122.579L668.274 124.577C669.938 124.631 671.602 124.685 673.265 124.739L673.329 122.74ZM663.345 122.416C661.68 122.362 660.014 122.308 658.348 122.254L658.283 124.253C659.949 124.307 661.615 124.361 663.28 124.415L663.345 122.416ZM653.348 122.091C651.681 122.037 650.013 121.982 648.346 121.928L648.28 123.927C649.948 123.981 651.616 124.036 653.283 124.09L653.348 122.091ZM643.341 121.765C641.672 121.71 640.003 121.656 638.334 121.601L638.269 123.6C639.938 123.655 641.607 123.709 643.276 123.764L643.341 121.765ZM633.326 121.438C631.656 121.384 629.986 121.329 628.316 121.275L628.251 123.274C629.921 123.328 631.591 123.383 633.26 123.437L633.326 121.438ZM623.305 121.112C621.635 121.058 619.964 121.003 618.293 120.949L618.229 122.948C619.899 123.002 621.57 123.057 623.24 123.111L623.305 121.112ZM613.281 120.787C611.611 120.733 609.941 120.679 608.271 120.625L608.206 122.624C609.876 122.678 611.547 122.732 613.217 122.786L613.281 120.787ZM603.26 120.464C601.59 120.41 599.92 120.357 598.251 120.304L598.187 122.303C599.856 122.356 601.526 122.409 603.196 122.463L603.26 120.464ZM593.241 120.144C591.572 120.091 589.902 120.038 588.233 119.985L588.17 121.984C589.839 122.037 591.508 122.09 593.178 122.143L593.241 120.144ZM583.226 119.828C581.558 119.775 579.889 119.723 578.221 119.671L578.159 121.67C579.827 121.722 581.495 121.774 583.164 121.827L583.226 119.828ZM573.218 119.515C571.551 119.464 569.884 119.412 568.217 119.361L568.156 121.36C569.822 121.411 571.489 121.463 573.156 121.514L573.218 119.515ZM563.219 119.208C561.553 119.158 559.888 119.107 558.223 119.057L558.163 121.056C559.828 121.106 561.493 121.157 563.158 121.207L563.219 119.208ZM553.231 118.907C551.567 118.858 549.904 118.808 548.242 118.759L548.183 120.758C549.845 120.807 551.508 120.857 553.171 120.906L553.231 118.907ZM543.231 118.612C541.552 118.563 539.873 118.514 538.196 118.466L538.138 120.465C539.815 120.513 541.494 120.562 543.173 120.611L543.231 118.612ZM533.165 118.322C531.489 118.274 529.813 118.227 528.139 118.18L528.083 120.179C529.757 120.226 531.432 120.273 533.108 120.321L533.165 118.322ZM523.118 118.04C521.445 117.994 519.773 117.948 518.102 117.902L518.048 119.902C519.719 119.947 521.39 119.993 523.063 120.039L523.118 118.04ZM513.093 117.767C511.424 117.723 509.756 117.679 508.089 117.635L508.036 119.634C509.703 119.678 511.37 119.722 513.039 119.767L513.093 117.767ZM503.091 117.505C501.426 117.462 499.763 117.419 498.1 117.377L498.05 119.377C499.712 119.419 501.375 119.461 503.04 119.504L503.091 117.505ZM493.116 117.253C491.456 117.212 489.797 117.171 488.14 117.131L488.091 119.131C489.749 119.171 491.407 119.211 493.067 119.252L493.116 117.253ZM483.171 117.013C481.512 116.974 479.855 116.935 478.199 116.897L478.153 118.896C479.808 118.934 481.465 118.973 483.123 119.012L483.171 117.013ZM473.134 116.782C471.447 116.744 469.762 116.707 468.078 116.671L468.035 118.67C469.718 118.707 471.403 118.744 473.089 118.782L473.134 116.782ZM463.032 116.563C461.351 116.527 459.672 116.493 457.995 116.459L457.954 118.458C459.631 118.492 461.31 118.527 462.99 118.562L463.032 116.563ZM452.968 116.358C451.294 116.325 449.621 116.293 447.951 116.262L447.913 118.261C449.583 118.293 451.255 118.325 452.928 118.358L452.968 116.358ZM442.945 116.169C441.278 116.139 439.612 116.109 437.949 116.081L437.914 118.08C439.577 118.109 441.242 118.139 442.908 118.169L442.945 116.169ZM432.965 115.996C431.306 115.969 429.648 115.942 427.992 115.916L427.961 117.916C429.616 117.942 431.273 117.969 432.932 117.996L432.965 115.996ZM423.032 115.841C421.38 115.816 419.731 115.793 418.083 115.77L418.055 117.769C419.702 117.792 421.351 117.816 423.002 117.84L423.032 115.841ZM413.145 115.703C411.445 115.681 409.746 115.66 408.05 115.639L408.026 117.639C409.721 117.66 411.419 117.681 413.119 117.703L413.145 115.703ZM402.968 115.581C401.277 115.562 399.588 115.544 397.902 115.527L397.882 117.527C399.567 117.544 401.256 117.562 402.946 117.581L402.968 115.581ZM392.85 115.479C391.168 115.464 389.489 115.45 387.813 115.437L387.797 117.437C389.473 117.45 391.151 117.464 392.832 117.479L392.85 115.479ZM382.792 115.4C381.121 115.389 379.453 115.379 377.787 115.369L377.776 117.369C379.441 117.379 381.108 117.389 382.778 117.4L382.792 115.4ZM372.798 115.344C371.138 115.337 369.481 115.33 367.826 115.325L367.82 117.325C369.474 117.33 371.13 117.337 372.789 117.344L372.798 115.344ZM362.872 115.312C361.223 115.309 359.577 115.307 357.934 115.305L357.933 117.305C359.575 117.307 361.22 117.309 362.868 117.312L362.872 115.312ZM353.015 115.305C351.349 115.306 349.686 115.308 348.026 115.311L348.03 117.311C349.689 117.308 351.351 117.306 353.016 117.305L353.015 115.305ZM342.905 115.325C341.202 115.331 339.502 115.338 337.805 115.346L337.815 117.346C339.511 117.338 341.21 117.331 342.912 117.325L342.905 115.325ZM332.727 115.375C331.037 115.385 329.352 115.398 327.67 115.411L327.686 117.411C329.367 117.398 331.051 117.385 332.739 117.375L332.727 115.375ZM322.635 115.455C320.96 115.471 319.29 115.488 317.623 115.507L317.645 117.507C319.311 117.488 320.981 117.471 322.654 117.455L322.635 115.455ZM312.634 115.567C310.974 115.589 309.319 115.611 307.668 115.635L307.697 117.635C309.347 117.611 311.001 117.588 312.659 117.567L312.634 115.567ZM302.726 115.712C301.083 115.739 299.443 115.767 297.808 115.797L297.845 117.797C299.478 117.767 301.117 117.739 302.759 117.712L302.726 115.712ZM292.915 115.891C291.256 115.924 289.6 115.959 287.95 115.996L287.994 117.995C289.643 117.959 291.297 117.924 292.955 117.891L292.915 115.891ZM282.795 116.115C281.082 116.156 279.374 116.2 277.67 116.244L277.723 118.244C279.425 118.199 281.132 118.156 282.843 118.114L282.795 116.115ZM272.575 116.384C270.882 116.433 269.194 116.483 267.511 116.535L267.572 118.534C269.254 118.482 270.941 118.432 272.632 118.383L272.575 116.384ZM262.477 116.696C260.805 116.751 259.137 116.809 257.475 116.868L257.547 118.867C259.207 118.808 260.873 118.75 262.544 118.695L262.477 116.696ZM252.505 117.051C250.854 117.114 249.208 117.179 247.568 117.246L247.649 119.244C249.288 119.177 250.932 119.113 252.582 119.05L252.505 117.051ZM242.664 117.452C241.035 117.522 239.411 117.595 237.793 117.669L237.885 119.667C239.501 119.593 241.123 119.52 242.75 119.45L242.664 117.452ZM232.956 117.898C231.217 117.983 229.485 118.07 227.759 118.16L227.863 120.157C229.586 120.068 231.317 119.981 233.054 119.896L232.956 117.898ZM222.599 118.436C220.887 118.53 219.18 118.627 217.482 118.726L217.598 120.723C219.295 120.624 220.999 120.527 222.71 120.433L222.599 118.436ZM212.406 119.031C210.721 119.135 209.044 119.242 207.374 119.351L207.504 121.347C209.172 121.238 210.847 121.131 212.529 121.027L212.406 119.031ZM202.386 119.686C200.73 119.8 199.082 119.917 197.442 120.036L197.587 122.031C199.225 121.912 200.87 121.795 202.523 121.681L202.386 119.686ZM192.543 120.401C190.918 120.526 189.3 120.653 187.69 120.783L187.851 122.776C189.458 122.647 191.073 122.52 192.696 122.396L192.543 120.401ZM182.884 121.18C181.198 121.322 179.521 121.468 177.853 121.617L178.031 123.609C179.696 123.461 181.37 123.315 183.053 123.173L182.884 121.18ZM172.648 122.094C170.922 122.257 169.207 122.422 167.501 122.591L167.699 124.582C169.401 124.413 171.113 124.247 172.835 124.085L172.648 122.094ZM162.415 123.109C160.73 123.285 159.055 123.465 157.391 123.648L157.609 125.636C159.27 125.453 160.942 125.274 162.623 125.098L162.415 123.109ZM152.428 124.208C150.784 124.398 149.15 124.592 147.528 124.789L147.769 126.774C149.388 126.577 151.017 126.384 152.658 126.194L152.428 124.208ZM142.691 125.392C141.09 125.596 139.499 125.805 137.92 126.017L138.186 127.999C139.761 127.787 141.348 127.58 142.945 127.376L142.691 125.392ZM133.155 126.672C131.388 126.921 129.636 127.175 127.898 127.433L128.193 129.412C129.926 129.154 131.673 128.901 133.434 128.652L133.155 126.672ZM122.729 128.224C121.02 128.493 119.326 128.767 117.647 129.045L117.974 131.018C119.647 130.741 121.336 130.468 123.039 130.2L122.729 128.224ZM112.654 129.896C111.004 130.185 109.37 130.479 107.751 130.778L108.115 132.745C109.727 132.447 111.355 132.154 112.999 131.866L112.654 129.896ZM102.941 131.691C101.353 132.001 99.7799 132.316 98.2229 132.636L98.6258 134.595C100.176 134.276 101.742 133.963 103.323 133.654L102.941 131.691ZM93.5994 133.613C91.8768 133.986 90.1746 134.367 88.4931 134.754L88.9422 136.703C90.6152 136.318 92.3091 135.939 94.0234 135.567L93.5994 133.613ZM83.3364 135.981C81.6399 136.397 79.9658 136.821 78.3144 137.253L78.8204 139.188C80.4617 138.759 82.1261 138.337 83.8132 137.923L83.3364 135.981ZM73.4287 138.572C71.8231 139.019 70.2406 139.475 68.6815 139.938L69.2511 141.855C70.799 141.395 72.3706 140.943 73.9656 140.499L73.4287 138.572ZM64.0747 141.352C62.5628 141.831 61.0746 142.319 59.6104 142.815L60.2518 144.709C61.7033 144.217 63.1791 143.734 64.6791 143.258L64.0747 141.352ZM54.7226 144.533C53.0183 145.155 51.3498 145.79 49.7175 146.437L50.4547 148.296C52.0693 147.656 53.7207 147.028 55.4086 146.412L54.7226 144.533ZM44.9306 148.417C43.3717 149.089 41.8497 149.774 40.3652 150.472L41.2165 152.282C42.6806 151.594 44.1828 150.917 45.7228 150.253L44.9306 148.417ZM36.0251 152.606C34.6163 153.331 33.2455 154.068 31.9135 154.82L32.896 156.562C34.2046 155.824 35.5527 155.098 36.9396 154.385L36.0251 152.606ZM27.3695 157.531C25.8356 158.5 24.362 159.491 22.95 160.503L24.1153 162.128C25.494 161.14 26.9352 160.171 28.4379 159.222L27.3695 157.531ZM18.8998 163.606C17.612 164.663 16.3871 165.742 15.2263 166.843L16.6032 168.294C17.7273 167.227 18.9159 166.18 20.1684 165.152L18.8998 163.606ZM11.9378 170.218C10.7237 171.57 9.60067 172.955 8.57084 174.373L10.1889 175.548C11.1762 174.189 12.2556 172.858 13.4259 171.555L11.9378 170.218ZM5.75939 178.734C4.91766 180.222 4.17237 181.743 3.52601 183.298L5.37277 184.065C5.98744 182.587 6.69702 181.138 7.50012 179.719L5.75939 178.734ZM1.88581 188.064C1.45235 189.639 1.11457 191.247 0.874164 192.885L2.85305 193.175C3.08159 191.617 3.40254 190.091 3.8142 188.594L1.88581 188.064ZM0.44685 197.886C0.402613 199.584 0.456924 201.313 0.611104 203.073L2.60346 202.898C2.4557 201.211 2.40395 199.558 2.44626 197.938L0.44685 197.886ZM1.37464 208.444C1.67144 209.966 2.03864 211.509 2.47715 213.074L4.403 212.535C3.97844 211.019 3.62369 209.528 3.33768 208.062L1.37464 208.444ZM3.91561 217.581C4.45946 219.103 5.06782 220.645 5.74151 222.208L7.57805 221.416C6.92045 219.891 6.32784 218.388 5.79901 216.908L3.91561 217.581ZM7.9587 226.956C8.76352 228.56 9.63428 230.184 10.5718 231.829L12.3094 230.839C11.3885 229.223 10.5345 227.63 9.74615 226.059L7.9587 226.956ZM13.1619 236.157C13.9506 237.416 14.7772 238.687 15.6418 239.971L17.3004 238.853C16.4477 237.588 15.6334 236.335 14.8567 235.096L13.1619 236.157ZM18.3504 243.857C19.2914 245.165 20.2712 246.485 21.2896 247.817L22.8786 246.603C21.8713 245.285 20.9032 243.98 19.9736 242.689L18.3504 243.857ZM24.4615 251.852C25.5578 253.21 26.6932 254.58 27.8683 255.963L29.3924 254.668C28.2278 253.297 27.1029 251.94 26.0175 250.595L24.4615 251.852Z" fill="#F95700"/>
</svg>
