<svg width="169" height="169" viewBox="0 0 169 169" fill="none" xmlns="http://www.w3.org/2000/svg">
<g clip-path="url(#clip0_1_590)">
<path d="M114.722 115.02C117.841 114.412 121.074 115.068 123.709 116.844C126.345 118.62 128.167 121.37 128.775 124.489C129.383 127.608 128.727 130.841 126.952 133.477C125.176 136.112 122.426 137.935 119.307 138.543C116.187 139.151 112.954 138.495 110.319 136.719C107.683 134.943 105.861 132.193 105.253 129.074C104.645 125.955 105.301 122.722 107.077 120.086C108.852 117.451 111.602 115.628 114.722 115.02ZM115.868 120.901C114.308 121.205 112.933 122.116 112.045 123.434C111.158 124.752 110.83 126.368 111.134 127.928C111.438 129.487 112.349 130.862 113.666 131.75C114.984 132.638 116.601 132.966 118.16 132.662C119.72 132.358 121.095 131.447 121.983 130.129C122.871 128.811 123.199 127.195 122.895 125.635C122.591 124.076 121.68 122.701 120.362 121.813C119.044 120.925 117.427 120.597 115.868 120.901ZM61.7966 125.337C64.9158 124.729 68.1488 125.385 70.7844 127.16C73.42 128.936 75.2422 131.686 75.8502 134.805C76.4582 137.924 75.8022 141.158 74.0265 143.793C72.2508 146.429 69.5009 148.251 66.3816 148.859C63.2624 149.467 60.0294 148.811 57.3938 147.035C54.7582 145.259 52.936 142.51 52.328 139.39C51.72 136.271 52.376 133.038 54.1517 130.402C55.9274 127.767 58.6773 125.945 61.7966 125.337ZM62.9428 131.217C61.3832 131.521 60.0082 132.432 59.1204 133.75C58.2325 135.068 57.9045 136.684 58.2085 138.244C58.5126 139.804 59.4237 141.179 60.7414 142.066C62.0592 142.954 63.6757 143.282 65.2354 142.978C66.795 142.674 68.17 141.763 69.0578 140.445C69.9457 139.128 70.2737 137.511 69.9697 135.952C69.6656 134.392 68.7545 133.017 67.4367 132.129C66.119 131.241 64.5025 130.913 62.9428 131.217ZM112.728 42.1611L31.9875 57.8993L53.8605 90.2596L101.963 80.8832C103.904 80.505 105.426 79.2317 106.209 77.614L119.266 50.653C119.836 49.5043 120.007 48.1891 119.754 46.8954C119.45 45.3358 118.539 43.9608 117.221 43.073C115.904 42.1851 114.287 41.8571 112.728 42.1611ZM103.11 86.7638L55.3008 96.0829L52.5609 106.139L52.4772 108.841C52.7812 110.401 53.6924 111.776 55.0101 112.664C56.3279 113.552 57.9444 113.88 59.5041 113.576L124.19 100.967L125.336 106.847L60.6503 119.456C57.5311 120.064 54.2981 119.408 51.6625 117.632C49.0269 115.857 47.2047 113.107 46.5967 109.988C46.206 107.993 46.3293 105.931 46.955 103.997L49.5039 94.5271L18.3455 48.3504L10.4656 49.8864L9.31934 44.0059L21.0804 41.7133L28.3714 52.5001L111.581 36.2805C114.701 35.6725 117.934 36.3285 120.569 38.1042C123.205 39.8799 125.027 42.6299 125.635 45.7491C126.208 48.6894 125.69 51.3541 124.433 53.6745L111.78 79.8854C110.247 83.2972 107.109 85.9843 103.11 86.7638Z" fill="#F95700" fill-opacity="0.1"/>
</g>
<defs>
<clipPath id="clip0_1_590">
<rect width="143.79" height="143.79" fill="white" transform="translate(0 27.5098) rotate(-11.03)"/>
</clipPath>
</defs>
</svg>
