<svg width="28" height="29" viewBox="0 0 28 29" fill="none" xmlns="http://www.w3.org/2000/svg">
<g clip-path="url(#clip0_7_3729)">
<path fill-rule="evenodd" clip-rule="evenodd" d="M20.6582 7.60378C20.8769 7.83038 20.9998 8.13767 20.9998 8.45808C20.9998 8.77848 20.8769 9.08577 20.6582 9.31237L14.8248 15.354C14.6061 15.5806 14.3094 15.7078 14 15.7078C13.6906 15.7078 13.394 15.5806 13.1752 15.354L7.34184 9.31237C7.12932 9.08447 7.01173 8.77924 7.01439 8.46242C7.01704 8.1456 7.13974 7.84254 7.35605 7.6185C7.57236 7.39447 7.86497 7.26739 8.17087 7.26464C8.47677 7.26188 8.77147 7.38368 8.99151 7.60378L14 12.7912L19.0085 7.60378C19.2273 7.37726 19.524 7.25 19.8333 7.25C20.1427 7.25 20.4394 7.37726 20.6582 7.60378ZM20.6582 14.8538C20.8769 15.0804 20.9998 15.3877 20.9998 15.7081C20.9998 16.0285 20.8769 16.3358 20.6582 16.5624L14.8248 22.604C14.6061 22.8306 14.3094 22.9578 14 22.9578C13.6906 22.9578 13.394 22.8306 13.1752 22.604L7.34184 16.5624C7.12932 16.3345 7.01173 16.0292 7.01439 15.7124C7.01704 15.3956 7.13974 15.0925 7.35605 14.8685C7.57236 14.6445 7.86497 14.5174 8.17087 14.5146C8.47677 14.5119 8.77147 14.6337 8.99151 14.8538L14 20.0412L19.0085 14.8538C19.2273 14.6273 19.524 14.5 19.8333 14.5C20.1427 14.5 20.4394 14.6273 20.6582 14.8538Z" fill="black"/>
</g>
<defs>
<clipPath id="clip0_7_3729">
<rect width="29" height="28" fill="white" transform="matrix(0 1 -1 0 28 0)"/>
</clipPath>
</defs>
</svg>
