<svg width="29" height="28" viewBox="0 0 29 28" fill="none" xmlns="http://www.w3.org/2000/svg">
<g clip-path="url(#clip0_1_2419)">
<path fill-rule="evenodd" clip-rule="evenodd" d="M7.60403 7.34158C7.83062 7.12287 8.13791 7 8.45832 7C8.77873 7 9.08601 7.12287 9.31261 7.34158L15.3543 13.1749C15.5808 13.3937 15.7081 13.6904 15.7081 13.9998C15.7081 14.3091 15.5808 14.6058 15.3543 14.8246L9.31261 20.6579C9.08472 20.8704 8.77949 20.988 8.46267 20.9854C8.14585 20.9827 7.84278 20.86 7.61875 20.6437C7.39471 20.4274 7.26763 20.1348 7.26488 19.8289C7.26213 19.523 7.38392 19.2283 7.60403 19.0082L12.7914 13.9998L7.60403 8.99125C7.3775 8.77247 7.25024 8.47578 7.25024 8.16642C7.25024 7.85706 7.3775 7.56037 7.60403 7.34158ZM14.854 7.34158C15.0806 7.12287 15.3879 7 15.7083 7C16.0287 7 16.336 7.12287 16.5626 7.34158L22.6043 13.1749C22.8308 13.3937 22.9581 13.6904 22.9581 13.9998C22.9581 14.3091 22.8308 14.6058 22.6043 14.8246L16.5626 20.6579C16.3347 20.8704 16.0295 20.988 15.7127 20.9854C15.3958 20.9827 15.0928 20.86 14.8687 20.6437C14.6447 20.4274 14.5176 20.1348 14.5149 19.8289C14.5121 19.523 14.6339 19.2283 14.854 19.0082L20.0414 13.9998L14.854 8.99125C14.6275 8.77247 14.5002 8.47578 14.5002 8.16642C14.5002 7.85706 14.6275 7.56037 14.854 7.34158Z" fill="black"/>
</g>
<defs>
<clipPath id="clip0_1_2419">
<rect width="29" height="28" fill="white"/>
</clipPath>
</defs>
</svg>
