<svg width="15" height="15" viewBox="0 0 15 15" fill="none" xmlns="http://www.w3.org/2000/svg">
<path d="M9.31173 6.35156C10.0324 6.14766 11.3098 6.17461 11.6836 6.20156C12.3375 6.24844 12.9914 6.23438 13.1039 7.02773C13.1789 7.56211 12.9996 8.04844 12.2074 8.13516C11.9285 8.16562 11.5875 8.18203 11.3063 8.22656L11.0859 8.46914C11.3461 8.43398 11.9426 8.4457 12.1219 8.42344C12.8789 8.33086 13.5188 8.63437 13.6149 9.36211C13.6992 9.99961 13.2188 10.4918 12.5367 10.4543C12.3035 10.4414 11.6449 10.5316 10.991 10.5492L10.9406 10.6816L10.9172 10.7215C11.332 10.7332 11.7293 10.7496 12.0117 10.7637C12.7676 10.8012 13.1801 11.2066 13.1695 11.7457C13.1567 12.4008 12.5438 12.6469 12.1055 12.6832C11.7774 12.7102 10.6031 12.6762 9.81446 12.6117L9.69024 12.8238C9.7465 12.825 11.257 12.8977 11.3145 12.9012C12.007 12.9527 12.3024 13.2035 12.2848 13.698C12.2602 14.3918 11.5195 14.5758 11.1188 14.6391C10.4684 14.7422 9.60118 14.7117 8.96954 14.7293C7.60314 14.7668 4.80704 14.8277 3.50157 13.684C3.05626 13.2937 2.60743 12.7629 2.2254 12.6105C1.42501 12.2918 1.35587 11.2488 1.3922 9.93047C1.40978 9.29297 1.19064 7.50352 1.96407 7.06992C3.04923 6.46172 4.88907 6.00234 5.50079 5.52187C6.50392 4.7332 7.08985 3.45 7.35704 2.69883C7.86563 1.26797 8.02032 0.234375 8.90978 0.234375C10.4684 0.234375 10.4274 1.62656 10.4567 2.32266C10.5141 3.68555 8.83243 6.20742 9.31173 6.35156Z" fill="#F95700"/>
<path d="M7.97111 9.48511C7.98634 10.1871 8.52775 10.4882 8.55236 10.5011C8.24181 10.4941 7.56915 10.8093 7.56915 11.4785C7.56915 12.0304 7.86915 12.4605 8.17033 12.607C7.97228 12.6492 7.59845 12.9187 7.59845 13.507C7.59845 14.3695 8.23829 14.6847 8.72228 14.7445C9.20626 14.8042 10.5516 14.7234 10.9957 14.6554C11.2336 14.6191 9.81681 14.6027 8.7797 14.4667C8.48204 14.4281 8.12697 14.148 8.06954 13.7707C8.06954 13.7707 7.98517 13.2726 8.43986 12.9855C8.43986 12.9855 8.63204 12.8203 9.52384 12.8273L9.79337 12.8308C9.87775 12.8367 10.9547 12.8742 11.3133 12.9C11.4715 12.9117 11.6074 12.9339 11.7246 12.9667C11.7059 12.9398 11.6848 12.8953 11.6918 12.8308C11.707 12.6949 11.7961 12.689 11.8195 12.689L11.6063 12.6773L10.8469 12.6339C10.0899 12.5882 9.02345 12.5156 8.9004 12.4664C8.9004 12.4664 8.15743 12.2789 8.15743 11.5171C8.15743 11.5171 8.11876 10.8691 9.11017 10.8386C9.11017 10.8386 11.4527 10.7039 12.4442 10.8351C12.4442 10.8351 12.3024 10.5714 12.5367 10.4531C12.5367 10.4531 10.8645 10.4941 9.81681 10.5222C8.76915 10.5503 8.54533 9.9937 8.51837 9.69019C8.51486 9.64448 8.50548 9.57183 8.50548 9.48628C8.50548 8.88276 9.03517 8.80308 9.79337 8.70464C11.4293 8.49019 12.1219 8.42339 12.1219 8.42339C12.2121 8.41284 12.2977 8.40698 12.3809 8.40815C12.3352 8.38237 12.2731 8.33433 12.2649 8.25464C12.2602 8.20308 12.2859 8.12456 12.2859 8.12456C12.2859 8.12456 11.5805 8.18198 10.4918 8.32729C9.40431 8.47261 8.53478 8.40581 8.45626 7.76948C8.39884 7.30308 8.47736 7.00659 8.67892 6.77573C8.92736 6.49097 9.32697 6.34917 9.32697 6.34917C9.32697 6.34917 9.28126 6.33979 9.25548 6.30581C9.2297 6.27065 9.22853 6.21558 9.22853 6.21558C8.34142 6.32808 7.73439 6.89175 7.78478 7.61597C7.81993 8.11167 7.95118 8.44214 8.28048 8.60269C8.28165 8.60151 7.95587 8.78433 7.97111 9.48511Z" fill="#973600"/>
<path d="M8.33319 7.91248L7.94413 8.02498C7.94413 8.02498 8.52069 10.1472 6.39257 11.6097C6.39257 11.6097 6.11952 11.7926 6.25194 11.9297C6.25194 11.9297 6.34452 12.089 6.73593 11.7902C6.73593 11.789 8.81249 10.4344 8.33319 7.91248Z" fill="#973600"/>
</svg>
