<svg width="15" height="15" viewBox="0 0 15 15" fill="none" xmlns="http://www.w3.org/2000/svg">
<path d="M9.31173 8.64844C10.0324 8.85234 11.3098 8.82539 11.6836 8.79844C12.3375 8.75156 12.9914 8.76562 13.1039 7.97227C13.1789 7.43789 12.9996 6.95156 12.2074 6.86484C11.9285 6.83438 11.5875 6.81797 11.3063 6.77344L11.0859 6.53086C11.3461 6.56602 11.9426 6.5543 12.1219 6.57656C12.8789 6.66914 13.5188 6.36563 13.6149 5.63789C13.6992 5.00039 13.2188 4.5082 12.5367 4.5457C12.3035 4.55859 11.6449 4.46836 10.991 4.45078L10.9406 4.31836L10.9172 4.27852C11.332 4.2668 11.7293 4.25039 12.0117 4.23633C12.7676 4.19883 13.1801 3.79336 13.1695 3.2543C13.1567 2.59922 12.5438 2.35312 12.1055 2.3168C11.7774 2.28984 10.6031 2.32383 9.81446 2.38828L9.69024 2.17617C9.7465 2.175 11.257 2.10234 11.3145 2.09883C12.007 2.04727 12.3024 1.79648 12.2848 1.30195C12.2602 0.608203 11.5195 0.424219 11.1188 0.360938C10.4684 0.257812 9.60118 0.288281 8.96954 0.270702C7.60314 0.233203 4.80704 0.172266 3.50157 1.31602C3.05626 1.70625 2.60743 2.23711 2.2254 2.38945C1.42501 2.7082 1.35587 3.75117 1.3922 5.06953C1.40978 5.70703 1.19064 7.49648 1.96407 7.93008C3.04923 8.53828 4.88907 8.99766 5.50079 9.47813C6.50392 10.2668 7.08985 11.55 7.35704 12.3012C7.86563 13.732 8.02032 14.7656 8.90978 14.7656C10.4684 14.7656 10.4274 13.3734 10.4567 12.6773C10.5141 11.3145 8.83243 8.79258 9.31173 8.64844Z" fill="#F95700"/>
<path d="M7.97111 5.51489C7.98634 4.81294 8.52775 4.51177 8.55236 4.49888C8.24181 4.50591 7.56915 4.19067 7.56915 3.52153C7.56915 2.96958 7.86915 2.5395 8.17033 2.39302C7.97228 2.35083 7.59845 2.0813 7.59845 1.49302C7.59845 0.630517 8.23829 0.315284 8.72228 0.255518C9.20626 0.195752 10.5516 0.276611 10.9957 0.344581C11.2336 0.380909 9.81681 0.397315 8.7797 0.533253C8.48204 0.571924 8.12697 0.852002 8.06954 1.22935C8.06954 1.22935 7.98517 1.72739 8.43986 2.0145C8.43986 2.0145 8.63204 2.17974 9.52384 2.17271L9.79337 2.16919C9.87775 2.16333 10.9547 2.12583 11.3133 2.10005C11.4715 2.08833 11.6074 2.06606 11.7246 2.03325C11.7059 2.0602 11.6848 2.10474 11.6918 2.16919C11.707 2.30513 11.7961 2.31099 11.8195 2.31099L11.6063 2.32271L10.8469 2.36607C10.0899 2.41177 9.02345 2.48442 8.9004 2.53364C8.9004 2.53364 8.15743 2.72114 8.15743 3.48286C8.15743 3.48286 8.11876 4.13091 9.11017 4.16138C9.11017 4.16138 11.4527 4.29614 12.4442 4.16489C12.4442 4.16489 12.3024 4.42857 12.5367 4.54692C12.5367 4.54692 10.8645 4.50591 9.81681 4.47778C8.76915 4.44966 8.54533 5.0063 8.51837 5.30981C8.51486 5.35552 8.50548 5.42817 8.50548 5.51372C8.50548 6.11724 9.03517 6.19692 9.79337 6.29536C11.4293 6.50981 12.1219 6.57661 12.1219 6.57661C12.2121 6.58716 12.2977 6.59302 12.3809 6.59185C12.3352 6.61763 12.2731 6.66567 12.2649 6.74536C12.2602 6.79692 12.2859 6.87544 12.2859 6.87544C12.2859 6.87544 11.5805 6.81802 10.4918 6.67271C9.40431 6.52739 8.53478 6.59419 8.45626 7.23052C8.39884 7.69692 8.47736 7.99341 8.67892 8.22427C8.92736 8.50903 9.32697 8.65083 9.32697 8.65083C9.32697 8.65083 9.28126 8.66021 9.25548 8.69419C9.2297 8.72935 9.22853 8.78442 9.22853 8.78442C8.34142 8.67192 7.73439 8.10825 7.78478 7.38403C7.81993 6.88833 7.95118 6.55786 8.28048 6.39731C8.28165 6.39849 7.95587 6.21567 7.97111 5.51489Z" fill="#973600"/>
<path d="M8.33319 7.08752L7.94413 6.97502C7.94413 6.97502 8.52069 4.85276 6.39257 3.39026C6.39257 3.39026 6.11952 3.20745 6.25194 3.07034C6.25194 3.07034 6.34452 2.91096 6.73593 3.20979C6.73593 3.21096 8.81249 4.56565 8.33319 7.08752Z" fill="#973600"/>
</svg>
