<svg width="180" height="162" viewBox="0 0 180 162" fill="none" xmlns="http://www.w3.org/2000/svg">
<g filter="url(#filter0_d_1_1420)">
<path d="M129.968 146.514H125.793V146.634H129.968V146.514Z" fill="#EBEBEB"/>
<path d="M24.115 141.557H21.0739V141.677H24.115V141.557Z" fill="#EBEBEB"/>
<path d="M79.0086 143.583H34.0021V143.703H79.0086V143.583Z" fill="#EBEBEB"/>
<path d="M33.6227 10.6634L37.125 8.41504L39.0371 12.1143L43.1976 11.9222L43.0055 16.0827L46.7048 17.9948L44.4563 21.4971L46.7048 25.0042L43.0055 26.9163L43.1976 31.0768L39.0371 30.8847L37.125 34.584L33.6227 32.3356L30.1156 34.584L28.2035 30.8847L24.043 31.0768L24.2351 26.9163L20.5358 25.0042L22.7842 21.4971L20.5358 17.9948L24.2351 16.0827L24.043 11.9222L28.2035 12.1143L30.1156 8.41504L33.6227 10.6634Z" fill="#E6E6E6"/>
<path d="M32.2918 26.849L28.1264 22.6837C27.8979 22.4549 27.7695 22.1447 27.7695 21.8214C27.7695 21.498 27.8979 21.1878 28.1264 20.959C28.3552 20.7304 28.6654 20.6021 28.9888 20.6021C29.3122 20.6021 29.6224 20.7304 29.8512 20.959L32.2918 23.3996L37.3891 18.3022C37.6179 18.0737 37.9281 17.9453 38.2515 17.9453C38.5749 17.9453 38.885 18.0737 39.1138 18.3022C39.3424 18.531 39.4707 18.8412 39.4707 19.1646C39.4707 19.488 39.3424 19.7981 39.1138 20.027L32.2918 26.849Z" fill="#FAFAFA"/>
<path d="M163.905 47.435L166.653 45.6719L168.152 48.5737L171.419 48.4199L171.265 51.682L174.167 53.181L172.404 55.9338L174.167 58.6819L171.265 60.1808L171.419 63.4429L168.152 63.294L166.653 66.1958L163.905 64.4326L161.157 66.1958L159.658 63.294L156.396 63.4429L156.545 60.1808L153.643 58.6819L155.406 55.9338L153.643 53.181L156.545 51.682L156.396 48.4199L159.658 48.5737L161.157 45.6719L163.905 47.435Z" fill="#E6E6E6"/>
<path d="M162.863 60.128L159.596 56.8611C159.418 56.6813 159.319 56.4388 159.319 56.1861C159.319 55.9334 159.418 55.6909 159.596 55.5111C159.776 55.3321 160.019 55.2317 160.273 55.2317C160.527 55.2317 160.77 55.3321 160.951 55.5111L162.872 57.4328L166.869 53.4357C167.049 53.2567 167.293 53.1562 167.547 53.1562C167.801 53.1563 168.044 53.2567 168.224 53.4357C168.403 53.6157 168.504 53.8592 168.504 54.1131C168.504 54.3669 168.403 54.6104 168.224 54.7905L162.863 60.128Z" fill="#FAFAFA"/>
<path d="M33.9734 93.5656L39.3301 96.2993C39.7714 96.5226 40.2734 96.5965 40.7604 96.5099C41.2473 96.4232 41.6929 96.1807 42.0301 95.8189L46.1282 91.4181C46.3656 91.1637 46.5411 90.858 46.6411 90.5247C46.7411 90.1914 46.7628 89.8395 46.7047 89.4964L44.5764 77.4088C44.4077 76.4608 43.8699 75.6184 43.081 75.0663C42.292 74.5142 41.3163 74.2976 40.3679 74.4638L33.5842 75.6601C33.1145 75.743 32.6657 75.9177 32.2635 76.1741C31.8613 76.4305 31.5135 76.7636 31.24 77.1544C30.9666 77.5452 30.7727 77.986 30.6697 78.4518C30.5666 78.9175 30.5562 79.3989 30.6392 79.8686L32.7675 91.9514C32.8315 92.2948 32.9735 92.619 33.1826 92.8988C33.3917 93.1787 33.6622 93.4068 33.9734 93.5656ZM40.0748 92.6048C40.2976 92.5644 40.5275 92.591 40.7352 92.6814C40.9428 92.7718 41.119 92.9218 41.2413 93.1125C41.3636 93.3031 41.4265 93.5258 41.422 93.7522C41.4176 93.9787 41.346 94.1987 41.2164 94.3844C41.0867 94.5701 40.9048 94.7131 40.6938 94.7953C40.4827 94.8775 40.252 94.8952 40.0309 94.8461C39.8098 94.797 39.6083 94.6833 39.4519 94.5195C39.2955 94.3557 39.1912 94.1491 39.1524 93.926C39.1006 93.6286 39.1685 93.3228 39.3413 93.0753C39.5141 92.8278 39.7778 92.6587 40.0748 92.6048Z" fill="#E6E6E6"/>
<path d="M34.235 89.82L44.6013 87.9922L44.4035 86.8709L34.0373 88.6987L34.235 89.82Z" fill="#FAFAFA"/>
<path d="M32.4793 79.8552L42.8456 78.0273L42.6479 76.906L32.2816 78.7339L32.4793 79.8552Z" fill="#FAFAFA"/>
<path d="M52.2824 15.323L55.9721 19.2817C56.2753 19.6068 56.676 19.8243 57.1137 19.9014C57.5514 19.9786 58.0023 19.9111 58.3983 19.7093L63.2026 17.2495C63.4852 17.1067 63.7305 16.8999 63.9191 16.6455C64.1076 16.3911 64.234 16.0961 64.2883 15.7842L66.21 4.9169C66.3595 4.06459 66.1647 3.1878 65.6684 2.47894C65.1721 1.77009 64.4149 1.28708 63.5629 1.13593L57.4663 0.059775C56.6127 -0.0896689 55.7347 0.105629 55.0249 0.602815C54.3152 1.1 53.8316 1.85846 53.6805 2.71174L51.7588 13.5742C51.7036 13.8864 51.7223 14.2071 51.8132 14.5107C51.9041 14.8144 52.0648 15.0925 52.2824 15.323ZM57.7257 16.4087C57.9262 16.4432 58.1121 16.5363 58.2596 16.6765C58.4072 16.8166 58.5099 16.9973 58.5547 17.1958C58.5994 17.3943 58.5843 17.6016 58.5112 17.7915C58.438 17.9814 58.3102 18.1454 58.1438 18.2625C57.9775 18.3797 57.7801 18.4449 57.5767 18.4499C57.3732 18.4548 57.1729 18.3992 57.0011 18.2902C56.8292 18.1813 56.6936 18.0237 56.6113 17.8376C56.5291 17.6515 56.5039 17.4451 56.539 17.2447C56.586 16.9767 56.7372 16.7382 56.9596 16.5815C57.1821 16.4248 57.4575 16.3627 57.7257 16.4087Z" fill="#F0F0F0"/>
<path d="M53.6601 12.2452L62.9807 13.8887L63.1584 12.8809L53.8378 11.2374L53.6601 12.2452Z" fill="#FAFAFA"/>
<path d="M55.5086 3.86273L64.7838 5.47168L64.9577 4.46884L55.6826 2.85988L55.5086 3.86273Z" fill="#FAFAFA"/>
<path d="M141.575 3.60584C140.893 2.63161 139.852 1.96799 138.681 1.7608C137.51 1.55361 136.304 1.81979 135.329 2.50086L133.408 3.83164L132.072 1.90993C131.388 0.937788 130.348 0.275844 129.177 0.0687875C128.007 -0.138269 126.802 0.1264 125.826 0.804945C124.854 1.48866 124.192 2.52942 123.985 3.69974C123.778 4.87006 124.043 6.07476 124.721 7.05051L131.212 16.318L140.484 9.82739C141.448 9.14266 142.104 8.1054 142.308 6.94066C142.512 5.77592 142.249 4.57766 141.575 3.60584Z" fill="#EBEBEB"/>
<path d="M154.902 4.47088C154.737 4.23338 154.526 4.03086 154.283 3.87495C154.039 3.71903 153.767 3.6128 153.482 3.56235C153.197 3.5119 152.905 3.51823 152.623 3.58098C152.34 3.64373 152.073 3.76166 151.837 3.92799L150.905 4.58137L150.251 3.64934C149.916 3.17177 149.405 2.84649 148.831 2.74474C148.256 2.64299 147.665 2.77306 147.186 3.10646C146.709 3.44324 146.385 3.95518 146.284 4.53042C146.183 5.10566 146.314 5.69742 146.648 6.1764L149.824 10.7116L154.364 7.53601C154.601 7.37051 154.803 7.1598 154.958 6.91598C155.114 6.67217 155.22 6.40004 155.27 6.11524C155.32 5.83043 155.313 5.53856 155.25 5.25637C155.187 4.97418 155.068 4.70724 154.902 4.47088Z" fill="#EBEBEB"/>
<path d="M12.8104 48.5782C9.70975 49.4686 7.08948 51.5537 5.52555 54.3752C3.96162 57.1968 3.58203 60.5239 4.47021 63.6252C5.67609 67.8193 13.0314 74.848 18.0375 79.2631C18.5509 79.717 19.1704 80.0341 19.8388 80.1853C20.5071 80.3365 21.2028 80.3169 21.8616 80.1282C22.5203 79.9396 23.121 79.588 23.608 79.106C24.095 78.624 24.4528 78.027 24.6482 77.3703C26.5699 70.9758 29.0633 61.1126 27.8623 56.9184C27.422 55.3822 26.6833 53.9478 25.6885 52.6972C24.6937 51.4466 23.4622 50.4042 22.0644 49.6297C20.6666 48.8552 19.1299 48.3637 17.542 48.1832C15.9542 48.0028 14.3464 48.137 12.8104 48.5782ZM17.7108 65.667C16.6441 65.9736 15.5105 65.9569 14.4533 65.6192C13.396 65.2814 12.4627 64.6378 11.7713 63.7695C11.0799 62.9013 10.6615 61.8476 10.569 60.7416C10.4765 59.6356 10.7141 58.527 11.2516 57.556C11.7892 56.585 12.6027 55.7952 13.5891 55.2866C14.5755 54.7779 15.6907 54.5732 16.7935 54.6983C17.8962 54.8234 18.9372 55.2727 19.7846 55.9895C20.632 56.7062 21.2478 57.6581 21.5542 58.7248C21.965 60.1551 21.7909 61.69 21.0701 62.9918C20.3494 64.2937 19.141 65.256 17.7108 65.667Z" fill="#E0E0E0"/>
<path d="M14.7129 48.0356C11.6161 48.929 9.00047 51.0148 7.44033 53.8352C5.88019 56.6555 5.50311 59.9797 6.39189 63.0778C7.59777 67.2719 14.9531 74.3054 19.9592 78.7205C20.4746 79.1729 21.0957 79.4881 21.7652 79.6368C22.4346 79.7855 23.1307 79.7631 23.7892 79.5715C24.4477 79.38 25.0472 79.0255 25.5324 78.5409C26.0176 78.0562 26.3728 77.4571 26.5651 76.7988C28.4868 70.4043 30.9802 60.5459 29.7791 56.347C29.3365 54.8115 28.5954 53.3783 27.5985 52.1293C26.6015 50.8804 25.3681 49.8402 23.9688 49.0683C22.5696 48.2964 21.0319 47.8079 19.4437 47.6307C17.8555 47.4534 16.2479 47.591 14.7129 48.0356ZM19.6133 65.1244C18.5457 65.4319 17.4109 65.4159 16.3525 65.0784C15.294 64.7409 14.3594 64.097 13.6669 63.2283C12.9745 62.3595 12.5552 61.3049 12.4622 60.1978C12.3692 59.0907 12.6066 57.981 13.1444 57.0088C13.6823 56.0367 14.4963 55.246 15.4836 54.7366C16.4709 54.2272 17.5872 54.0221 18.6911 54.1472C19.795 54.2723 20.837 54.7219 21.6853 55.4393C22.5336 56.1567 23.15 57.1096 23.4567 58.1774C23.6608 58.8859 23.7233 59.6277 23.6406 60.3604C23.5579 61.0931 23.3316 61.8023 22.9747 62.4474C22.6177 63.0926 22.1371 63.6611 21.5604 64.1204C20.9836 64.5798 20.322 64.9209 19.6133 65.1244Z" fill="#F5F5F5"/>
<path d="M154.801 17.6581C153.464 17.2716 152.064 17.1528 150.681 17.3087C149.298 17.4646 147.96 17.892 146.742 18.5665C145.525 19.241 144.453 20.1492 143.588 21.2391C142.722 22.3289 142.081 23.5789 141.7 24.9174C140.652 28.5734 142.838 37.1587 144.501 42.7268C144.67 43.3005 144.981 43.8222 145.406 44.2433C145.831 44.6644 146.355 44.9714 146.93 45.1358C147.505 45.3002 148.112 45.3166 148.696 45.1836C149.279 45.0505 149.819 44.7723 150.266 44.3747C154.628 40.5313 161.032 34.4106 162.079 30.7594C162.466 29.4213 162.584 28.02 162.426 26.6361C162.269 25.2523 161.84 23.9131 161.164 22.6956C160.487 21.4781 159.577 20.4063 158.485 19.5418C157.393 18.6773 156.141 18.0371 154.801 17.6581ZM150.52 32.5514C149.592 32.2849 148.764 31.7494 148.14 31.0124C147.516 30.2754 147.124 29.3701 147.014 28.4106C146.904 27.4512 147.081 26.4807 147.523 25.6218C147.964 24.7629 148.65 24.0541 149.494 23.5848C150.338 23.1155 151.302 22.9069 152.265 22.9852C153.227 23.0636 154.145 23.4254 154.902 24.025C155.659 24.6246 156.221 25.435 156.518 26.354C156.815 27.273 156.832 28.2593 156.569 29.1884C156.393 29.8069 156.098 30.3847 155.698 30.8887C155.299 31.3927 154.805 31.8129 154.243 32.1254C153.681 32.4378 153.063 32.6362 152.424 32.7093C151.785 32.7824 151.138 32.7288 150.52 32.5514Z" fill="#E0E0E0"/>
<path d="M156.458 18.1386C155.121 17.752 153.721 17.6333 152.339 17.7892C150.956 17.9451 149.617 18.3725 148.4 19.047C147.183 19.7215 146.111 20.6297 145.245 21.7195C144.38 22.8094 143.738 24.0594 143.357 25.3978C142.31 29.0491 144.496 37.6392 146.158 43.2073C146.327 43.781 146.639 44.3026 147.063 44.7238C147.488 45.1449 148.012 45.4519 148.587 45.6163C149.163 45.7807 149.77 45.7971 150.353 45.664C150.936 45.531 151.476 45.2528 151.923 44.8552C156.281 41.0118 162.685 34.8911 163.732 31.2399C164.118 29.902 164.236 28.5011 164.08 27.1175C163.923 25.7338 163.494 24.3949 162.818 23.1774C162.142 21.96 161.233 20.8881 160.141 20.0234C159.05 19.1587 157.798 18.5181 156.458 18.1386ZM152.192 33.0319C151.263 32.7662 150.434 32.2313 149.81 31.4946C149.185 30.7579 148.792 29.8526 148.682 28.8929C148.571 27.9333 148.748 26.9625 149.189 26.1032C149.63 25.2438 150.316 24.5345 151.16 24.0648C152.004 23.5951 152.969 23.3862 153.931 23.4644C154.894 23.5425 155.812 23.9044 156.569 24.5041C157.327 25.1038 157.889 25.9145 158.186 26.8338C158.482 27.7531 158.5 28.7396 158.236 29.6689C157.88 30.9163 157.044 31.9713 155.911 32.602C154.777 33.2327 153.44 33.3873 152.192 33.0319Z" fill="#F5F5F5"/>
<path d="M61.4011 44.0198H66.5417C66.7965 44.0151 67.0494 44.0645 67.2836 44.1647C67.5179 44.265 67.7283 44.4138 67.9008 44.6013C68.0734 44.7888 68.2041 45.0108 68.2846 45.2526C68.365 45.4944 68.3932 45.7505 68.3673 46.004L67.4065 56.8473C67.3514 57.387 67.1005 57.8878 66.7013 58.2552C66.3021 58.6225 65.7822 58.8309 65.2397 58.8411H60.104C59.8487 58.8452 59.5954 58.7951 59.361 58.694C59.1266 58.5929 58.9163 58.4431 58.7441 58.2546C58.5719 58.0661 58.4418 57.8431 58.3623 57.6005C58.2829 57.3579 58.2559 57.1011 58.2831 56.8473L59.2392 46.004C59.2964 45.4668 59.5475 44.969 59.9455 44.6037C60.3435 44.2384 60.861 44.0308 61.4011 44.0198Z" fill="#F95700"/>
<path opacity="0.2" d="M118.908 41.7036H126.941C127.34 41.6965 127.736 41.7743 128.102 41.932C128.468 42.0897 128.797 42.3235 129.066 42.618C129.335 42.9125 129.538 43.2608 129.662 43.6399C129.786 44.019 129.828 44.4202 129.785 44.8167L128.796 56.1404C128.709 56.9795 128.32 57.7585 127.701 58.3315C127.082 58.9045 126.276 59.2323 125.433 59.2536H117.371C116.973 59.26 116.577 59.1816 116.212 59.0237C115.846 58.8657 115.518 58.6318 115.249 58.3374C114.981 58.043 114.778 57.6948 114.654 57.3161C114.53 56.9373 114.489 56.5366 114.532 56.1404L115.521 44.8167C115.608 43.9736 116 43.1914 116.624 42.6179C117.248 42.0443 118.061 41.7191 118.908 41.7036Z" fill="black"/>
<path opacity="0.2" d="M117.261 60.517H125.298C125.696 60.5106 126.092 60.5889 126.458 60.7469C126.823 60.9049 127.151 61.1388 127.42 61.4332C127.688 61.7276 127.891 62.0757 128.015 62.4545C128.139 62.8333 128.18 63.234 128.137 63.6301L127.148 74.9538C127.062 75.7973 126.67 76.5801 126.046 77.1539C125.421 77.7276 124.608 78.0525 123.761 78.067H115.728C115.329 78.0741 114.933 77.9962 114.567 77.8386C114.201 77.6809 113.872 77.4471 113.603 77.1526C113.334 76.8581 113.131 76.5097 113.007 76.1306C112.883 75.7515 112.841 75.3504 112.884 74.9538L113.878 63.6301C113.964 62.7874 114.355 62.0053 114.979 61.4317C115.602 60.858 116.414 60.5326 117.261 60.517Z" fill="black"/>
<path d="M75.8189 20.4733H120.576C122.018 20.4476 123.45 20.7295 124.775 21.3003C126.1 21.871 127.288 22.7176 128.26 23.7835C129.233 24.8495 129.967 26.1103 130.413 27.4821C130.86 28.8539 131.01 30.3052 130.852 31.7393L121.301 140.878C120.99 143.928 119.572 146.758 117.316 148.833C115.059 150.909 112.12 152.085 109.055 152.139H64.2982C62.8561 152.165 61.4251 151.883 60.1004 151.313C58.7757 150.742 57.5877 149.896 56.6155 148.831C55.6433 147.765 54.9091 146.505 54.4619 145.134C54.0147 143.763 53.8647 142.312 54.0218 140.878L63.5631 31.7393C63.8731 28.687 65.2919 25.8543 67.5506 23.7779C69.8094 21.7016 72.7512 20.5258 75.8189 20.4733Z" fill="#F95700"/>
<path opacity="0.2" d="M75.8189 20.4733H120.576C122.018 20.4476 123.45 20.7295 124.775 21.3003C126.1 21.871 127.288 22.7176 128.26 23.7835C129.233 24.8495 129.967 26.1103 130.413 27.4821C130.86 28.8539 131.01 30.3052 130.852 31.7393L121.301 140.878C120.99 143.928 119.572 146.758 117.316 148.833C115.059 150.909 112.12 152.085 109.055 152.139H64.2982C62.8561 152.165 61.4251 151.883 60.1004 151.313C58.7757 150.742 57.5877 149.896 56.6155 148.831C55.6433 147.765 54.9091 146.505 54.4619 145.134C54.0147 143.763 53.8647 142.312 54.0218 140.878L63.5631 31.7393C63.8731 28.687 65.2919 25.8543 67.5506 23.7779C69.8094 21.7016 72.7512 20.5258 75.8189 20.4733Z" fill="black"/>
<path d="M74.3725 20.4732H119.134C120.576 20.4483 122.007 20.7307 123.332 21.3017C124.657 21.8728 125.845 22.7193 126.817 23.7851C127.789 24.8509 128.523 26.1114 128.97 27.4829C129.417 28.8543 129.567 30.3053 129.41 31.7392L119.859 140.878C119.548 143.928 118.129 146.757 115.873 148.832C113.617 150.907 110.678 152.084 107.613 152.139H62.8567C61.4144 152.166 59.983 151.884 58.6579 151.314C57.3329 150.744 56.1445 149.898 55.1722 148.832C54.1998 147.767 53.4657 146.506 53.0188 145.135C52.5718 143.763 52.4224 142.312 52.5803 140.878L62.1216 31.7392C62.6693 25.5177 68.1558 20.4732 74.3725 20.4732Z" fill="#F95700"/>
<path d="M128.065 31.7396L118.519 140.874C118.243 143.559 116.992 146.051 115.004 147.878C113.016 149.705 110.428 150.741 107.729 150.79H62.9722C61.702 150.813 60.4415 150.565 59.2746 150.063C58.1077 149.561 57.0611 148.816 56.2047 147.878C55.3483 146.94 54.7016 145.83 54.3078 144.622C53.914 143.414 53.7821 142.136 53.9209 140.874L63.4718 31.7396C63.7472 29.0539 64.9963 26.5618 66.9834 24.7341C68.9705 22.9063 71.558 21.8693 74.2574 21.8188H119.014C120.284 21.7962 121.545 22.0445 122.712 22.5471C123.879 23.0497 124.925 23.7951 125.782 24.7337C126.638 25.6724 127.285 26.7826 127.678 27.9906C128.072 29.1986 128.204 30.4767 128.065 31.7396Z" fill="white"/>
<g opacity="0.1">
<path d="M62.9722 150.789H79.9409L107.354 21.8184H85.7349L58.5522 149.699C59.913 150.421 61.4314 150.796 62.9722 150.789Z" fill="black"/>
<path d="M117.731 21.8184H113.619L86.2008 150.789H90.3181L117.731 21.8184Z" fill="black"/>
</g>
<path d="M83.5151 21.502C83.4733 21.9048 83.5168 22.3119 83.6428 22.6967C83.7688 23.0816 83.9745 23.4356 84.2464 23.7357C84.5184 24.0357 84.8505 24.2751 85.2212 24.4382C85.5919 24.6014 85.9927 24.6846 86.3977 24.6824H106.335C107.2 24.6637 108.027 24.3303 108.663 23.7447C109.299 23.1592 109.7 22.3617 109.79 21.502H83.5151Z" fill="#F95700"/>
<path d="M118.202 25.3447H122.728C122.815 25.3443 122.902 25.3623 122.982 25.3975C123.062 25.4327 123.134 25.4844 123.193 25.5492C123.252 25.6139 123.297 25.6904 123.324 25.7735C123.352 25.8567 123.361 25.9446 123.352 26.0317L123.18 28.0015C123.161 28.1872 123.075 28.3597 122.937 28.4862C122.8 28.6128 122.621 28.6848 122.435 28.6885H117.909C117.821 28.6897 117.734 28.6723 117.654 28.6373C117.573 28.6023 117.501 28.5507 117.442 28.4857C117.383 28.4208 117.339 28.344 117.311 28.2605C117.284 28.1771 117.275 28.0888 117.285 28.0015L117.458 26.0317C117.476 25.846 117.562 25.6736 117.7 25.547C117.837 25.4204 118.016 25.3485 118.202 25.3447Z" fill="#F95700"/>
<path d="M69.8807 25.3448H75.9389C76.0378 25.3436 76.1358 25.3633 76.2266 25.4027C76.3173 25.442 76.3987 25.5002 76.4654 25.5732C76.5321 25.6463 76.5826 25.7326 76.6136 25.8265C76.6445 25.9205 76.6553 26.0199 76.6451 26.1183L76.4866 27.9151C76.4654 28.1246 76.3682 28.319 76.2132 28.4616C76.0583 28.6042 75.8564 28.6849 75.6458 28.6886H69.5876C69.4889 28.6898 69.391 28.6701 69.3005 28.6307C69.21 28.5913 69.1289 28.5331 69.0625 28.46C68.9962 28.3868 68.9462 28.3004 68.9158 28.2065C68.8854 28.1125 68.8753 28.0132 68.8862 27.9151L69.04 26.1183C69.0611 25.9088 69.1584 25.7143 69.3133 25.5717C69.4683 25.4292 69.6702 25.3484 69.8807 25.3448Z" fill="#F95700"/>
<path opacity="0.4" d="M69.8807 25.3448H75.9389C76.0378 25.3436 76.1358 25.3633 76.2266 25.4027C76.3173 25.442 76.3987 25.5002 76.4654 25.5732C76.5321 25.6463 76.5826 25.7326 76.6136 25.8265C76.6445 25.9205 76.6553 26.0199 76.6451 26.1183L76.4866 27.9151C76.4654 28.1246 76.3682 28.319 76.2132 28.4616C76.0583 28.6042 75.8564 28.6849 75.6458 28.6886H69.5876C69.4889 28.6898 69.391 28.6701 69.3005 28.6307C69.21 28.5913 69.1289 28.5331 69.0625 28.46C68.9962 28.3868 68.9462 28.3004 68.9158 28.2065C68.8854 28.1125 68.8753 28.0132 68.8862 27.9151L69.04 26.1183C69.0611 25.9088 69.1584 25.7143 69.3133 25.5717C69.4683 25.4292 69.6702 25.3484 69.8807 25.3448Z" fill="white"/>
<path d="M116.996 25.9024H117.707C117.739 25.9016 117.771 25.9076 117.801 25.9201C117.831 25.9326 117.857 25.9513 117.879 25.975C117.901 25.9986 117.918 26.0267 117.928 26.0573C117.938 26.0879 117.941 26.1202 117.938 26.1522L117.789 27.853C117.782 27.9209 117.75 27.984 117.7 28.03C117.649 28.0761 117.583 28.102 117.515 28.1028H116.804C116.772 28.1037 116.74 28.0976 116.71 28.0851C116.681 28.0726 116.654 28.0539 116.632 28.0302C116.61 28.0066 116.594 27.9785 116.584 27.9479C116.573 27.9174 116.57 27.885 116.573 27.853L116.722 26.1522C116.729 26.0843 116.761 26.0213 116.812 25.9752C116.862 25.9291 116.928 25.9032 116.996 25.9024Z" fill="#F95700"/>
<path d="M121.829 25.9023H122.545C122.577 25.9022 122.608 25.9087 122.638 25.9215C122.667 25.9343 122.693 25.9532 122.714 25.9767C122.735 26.0003 122.751 26.0281 122.761 26.0584C122.771 26.0886 122.774 26.1206 122.771 26.1522L122.622 27.8529C122.616 27.9205 122.585 27.9834 122.536 28.0296C122.486 28.0757 122.421 28.1018 122.353 28.1027H121.637C121.605 28.1029 121.574 28.0964 121.545 28.0835C121.516 28.0707 121.49 28.0519 121.468 28.0283C121.447 28.0047 121.431 27.9769 121.421 27.9467C121.411 27.9165 121.408 27.8845 121.411 27.8529L121.56 26.1522C121.566 26.0846 121.597 26.0216 121.647 25.9755C121.696 25.9293 121.762 25.9033 121.829 25.9023Z" fill="white"/>
<path d="M120.297 25.9023H121.013C121.044 25.9022 121.076 25.9087 121.105 25.9215C121.134 25.9343 121.16 25.9532 121.182 25.9767C121.203 26.0003 121.219 26.0281 121.229 26.0584C121.239 26.0886 121.242 26.1206 121.239 26.1522L121.09 27.8529C121.084 27.9205 121.053 27.9834 121.003 28.0296C120.953 28.0757 120.888 28.1018 120.821 28.1027H120.105C120.073 28.1029 120.041 28.0964 120.012 28.0835C119.983 28.0707 119.957 28.0519 119.936 28.0283C119.915 28.0047 119.898 27.9769 119.889 27.9467C119.879 27.9165 119.876 27.8845 119.879 27.8529L120.028 26.1522C120.034 26.0846 120.065 26.0216 120.114 25.9755C120.164 25.9293 120.229 25.9033 120.297 25.9023Z" fill="white"/>
<path d="M128.339 56.0635L127.378 67.2238C127.849 67.1335 128.277 66.894 128.601 66.541C128.925 66.1879 129.126 65.7401 129.175 65.2637L129.79 58.014C129.839 57.5658 129.716 57.1158 129.447 56.7541C129.178 56.3923 128.782 56.1457 128.339 56.0635Z" fill="#F95700"/>
<path opacity="0.2" d="M128.339 56.0635L127.378 67.2238C127.849 67.1335 128.277 66.894 128.601 66.541C128.925 66.1879 129.126 65.7401 129.175 65.2637L129.79 58.014C129.839 57.5658 129.716 57.1158 129.447 56.7541C129.178 56.3923 128.782 56.1457 128.339 56.0635Z" fill="black"/>
<path d="M129.382 44.0195L128.421 55.1799C128.89 55.0903 129.318 54.8516 129.641 54.4993C129.964 54.147 130.164 53.6999 130.213 53.2245L130.823 46.0037C130.879 45.5519 130.761 45.0958 130.494 44.7275C130.226 44.3592 129.829 44.1062 129.382 44.0195Z" fill="#F95700"/>
<path opacity="0.2" d="M129.382 44.0195L128.421 55.1799C128.89 55.0903 129.318 54.8516 129.641 54.4993C129.964 54.147 130.164 53.6999 130.213 53.2245L130.823 46.0037C130.879 45.5519 130.761 45.0958 130.494 44.7275C130.226 44.3592 129.829 44.1062 129.382 44.0195Z" fill="black"/>
<path d="M165.553 69.4873H156.122C155.358 69.4873 154.625 69.791 154.084 70.3316C153.544 70.8722 153.24 71.6054 153.24 72.3699V77.9524C153.246 78.7128 153.553 79.4398 154.093 79.9752C154.632 80.5106 155.362 80.811 156.122 80.811H158.818V82.9873C158.819 83.1069 158.856 83.2234 158.923 83.3223C158.99 83.4212 159.085 83.4983 159.195 83.5438C159.306 83.5894 159.427 83.6015 159.545 83.5785C159.662 83.5556 159.77 83.4987 159.855 83.4149L162.454 80.811H165.553C166.309 80.8047 167.033 80.5015 167.568 79.9668C168.102 79.4321 168.406 78.7086 168.412 77.9524V72.3459C168.406 71.5897 168.102 70.8662 167.568 70.3315C167.033 69.7968 166.309 69.4936 165.553 69.4873Z" fill="#F95700"/>
<path d="M163.271 72.1581H158.741C158.697 71.7786 158.673 71.5912 158.63 71.1973H156.137C156.19 71.4135 156.218 71.5192 156.271 71.7353H158.068C158.092 71.8939 158.107 71.9756 158.131 72.1389C158.251 72.9316 158.313 73.3256 158.433 74.1183C158.462 74.3345 158.481 74.4402 158.515 74.6563C158.635 75.4491 158.693 75.843 158.813 76.6357C158.88 77.0633 158.914 77.2747 158.976 77.6975H163.973C164.021 77.4813 164.045 77.3756 164.097 77.1594H159.365C159.341 76.9528 159.327 76.8471 159.303 76.6357H164.448L164.929 74.6563C164.981 74.4402 165.005 74.3345 165.063 74.1183C165.255 73.3256 165.356 72.9316 165.544 72.1389L163.271 72.1581ZM158.808 72.6914H160.413C160.413 73.2727 160.437 73.561 160.456 74.1327H158.976L158.808 72.6914ZM159.216 76.1217C159.144 75.5403 159.111 75.2521 159.043 74.6804H160.485C160.485 75.2569 160.509 75.5451 160.528 76.1217H159.216ZM162.296 76.1217H160.994C160.994 75.5403 160.994 75.2521 160.994 74.6804H162.435C162.373 75.2521 162.349 75.5403 162.296 76.1217ZM162.478 74.1375H160.999C160.999 73.561 160.999 73.2727 160.999 72.6962H162.603C162.555 73.2727 162.531 73.561 162.478 74.1375ZM164.073 76.1217H162.776C162.848 75.5403 162.882 75.2521 162.959 74.6804H164.4L164.073 76.1217ZM164.501 74.1375H163.012C163.089 73.561 163.122 73.2727 163.194 72.6962H164.799C164.684 73.2727 164.621 73.561 164.501 74.1375Z" fill="white"/>
<path d="M159.284 78.2168C159.157 78.2168 159.034 78.2543 158.929 78.3245C158.823 78.3947 158.742 78.4945 158.693 78.6112C158.645 78.728 158.632 78.8565 158.657 78.9804C158.682 79.1044 158.742 79.2182 158.832 79.3076C158.921 79.397 159.035 79.4578 159.159 79.4825C159.283 79.5071 159.411 79.4945 159.528 79.4461C159.645 79.3977 159.745 79.3158 159.815 79.2108C159.885 79.1057 159.923 78.9822 159.923 78.8558C159.923 78.6863 159.855 78.5238 159.735 78.404C159.616 78.2841 159.453 78.2168 159.284 78.2168Z" fill="white"/>
<path d="M163.809 79.49C164.159 79.49 164.443 79.2061 164.443 78.8558C164.443 78.5056 164.159 78.2217 163.809 78.2217C163.459 78.2217 163.175 78.5056 163.175 78.8558C163.175 79.2061 163.459 79.49 163.809 79.49Z" fill="white"/>
<path d="M102.242 29.486H87.2721C86.0374 29.5078 84.8535 29.9814 83.9443 30.8171C83.0351 31.6528 82.4637 32.7928 82.3381 34.0213L81.5647 42.8852C81.5011 43.4625 81.5613 44.0467 81.7411 44.5989C81.921 45.1511 82.2165 45.6587 82.6078 46.0878C82.9992 46.5168 83.4775 46.8576 84.0109 47.0874C84.5443 47.3172 85.1205 47.4307 85.7011 47.4204H89.9866L89.6839 50.8699C89.6692 51.0591 89.7141 51.2481 89.8123 51.4104C89.9105 51.5727 90.0571 51.7002 90.2315 51.7749C90.4059 51.8497 90.5993 51.8679 90.7846 51.8271C90.9698 51.7863 91.1377 51.6884 91.2645 51.5473L95.7517 47.4445H100.671C101.906 47.4216 103.089 46.9477 103.998 46.1122C104.907 45.2767 105.479 44.1373 105.605 42.9092L106.379 34.0453C106.446 33.4662 106.389 32.8793 106.21 32.3242C106.032 31.769 105.737 31.2584 105.346 30.8266C104.954 30.3948 104.474 30.0518 103.939 29.8206C103.404 29.5894 102.825 29.4753 102.242 29.486Z" fill="#F95700"/>
<path d="M97.7646 33.7227H90.5822L90.5341 32.2334H86.5802C86.633 32.5745 86.6619 32.7427 86.7147 33.0838H89.5685C89.5685 33.3384 89.5925 33.4681 89.6069 33.7227C89.6886 34.9815 89.7318 35.6108 89.8135 36.8695C89.8135 37.2058 89.8471 37.3788 89.8663 37.7199C89.948 38.9738 89.9912 39.6032 90.0681 40.8619C90.1161 41.5345 90.1354 41.8708 90.1786 42.5434H98.0672L98.3411 41.693H90.832V40.8619H98.9993C99.422 39.6032 99.6334 38.9738 100.051 37.7199L100.335 36.8695C100.758 35.6108 100.969 34.9815 101.387 33.7227H97.7646ZM90.6062 34.5731H93.1525C93.0996 35.4907 93.0756 35.9471 93.0227 36.8695H90.6783L90.6062 34.5731ZM90.7791 40.0115L90.7071 37.7199H92.9747C92.9219 38.6375 92.893 39.0939 92.8402 40.0115H90.7791ZM95.6651 40.0115H93.6041C93.6857 39.0939 93.729 38.6375 93.8106 37.7199H96.0783C95.9149 38.6375 95.8332 39.0939 95.6651 40.0115ZM96.232 36.8743H93.8875C93.974 35.9519 94.0124 35.4955 94.0941 34.5779H96.6452C96.477 35.4907 96.3953 35.9471 96.232 36.8743ZM98.49 40.0163H96.429L96.9094 37.7247H99.1722C98.908 38.6375 98.7687 39.0939 98.49 40.0115V40.0163ZM99.4509 36.8743H97.0968C97.2937 35.9519 97.3898 35.4955 97.5772 34.5779H100.123C99.8544 35.4907 99.7151 35.9471 99.4413 36.8743H99.4509Z" fill="white"/>
<path d="M90.6014 43.3409C90.3264 43.3454 90.0625 43.4505 89.8597 43.6364C89.657 43.8224 89.5294 44.0762 89.5012 44.3498C89.4876 44.4783 89.5014 44.6083 89.5418 44.731C89.5821 44.8538 89.6481 44.9666 89.7353 45.062C89.8225 45.1574 89.9289 45.2331 90.0476 45.2843C90.1663 45.3354 90.2945 45.3608 90.4237 45.3587C90.6987 45.3543 90.9626 45.2492 91.1654 45.0632C91.3681 44.8773 91.4957 44.6235 91.5238 44.3498C91.5375 44.2213 91.5236 44.0914 91.4833 43.9686C91.4429 43.8459 91.377 43.7331 91.2898 43.6377C91.2026 43.5423 91.0961 43.4665 90.9775 43.4154C90.8588 43.3642 90.7306 43.3389 90.6014 43.3409Z" fill="white"/>
<path d="M97.7741 43.3409C97.4996 43.3455 97.2363 43.4508 97.0343 43.6368C96.8323 43.8228 96.7058 44.0766 96.6787 44.3498C96.6651 44.4783 96.6789 44.6083 96.7193 44.731C96.7596 44.8538 96.8256 44.9666 96.9128 45.062C97 45.1574 97.1064 45.2331 97.2251 45.2843C97.3438 45.3354 97.4719 45.3608 97.6012 45.3587C97.8757 45.3542 98.139 45.2489 98.3409 45.0629C98.5429 44.8768 98.6695 44.6231 98.6965 44.3498C98.7102 44.2213 98.6963 44.0914 98.656 43.9686C98.6156 43.8459 98.5497 43.7331 98.4625 43.6377C98.3753 43.5423 98.2688 43.4665 98.1502 43.4154C98.0315 43.3642 97.9033 43.3389 97.7741 43.3409Z" fill="white"/>
<path d="M112.999 92.2109H95.8813V109.329H112.999V92.2109Z" fill="#F95700"/>
<path d="M123.506 92.2109H112.994V109.329H123.506V92.2109Z" fill="#F95700"/>
<path d="M109.727 87.916H92.6096L95.8813 92.211H112.994L109.727 87.916Z" fill="#F95700"/>
<path opacity="0.3" d="M123.506 92.2109H112.994V109.329H123.506V92.2109Z" fill="white"/>
<path opacity="0.4" d="M109.727 87.916H92.6096L95.8813 92.211H112.994L109.727 87.916Z" fill="white"/>
<path d="M116.093 87.916H126.605L123.511 92.211H112.994L116.093 87.916Z" fill="#F95700"/>
<path opacity="0.6" d="M112.999 92.2109H95.8813V109.329H112.999V92.2109Z" fill="white"/>
<path opacity="0.2" d="M116.093 87.916H126.605L123.511 92.211H112.994L116.093 87.916Z" fill="white"/>
<path d="M161.162 108.906H118.019V152.049H161.162V108.906Z" fill="#F95700"/>
<path opacity="0.4" d="M161.162 108.906H118.019V152.049H161.162V108.906Z" fill="white"/>
<path d="M118.01 108.906H91.5094V152.049H118.01V108.906Z" fill="#F95700"/>
<path opacity="0.6" d="M118.01 108.906H91.5094V152.049H118.01V108.906Z" fill="white"/>
<path opacity="0.5" d="M99.696 108.906V120.494L100.748 121.047L101.656 120.292L103.093 121.047L104.457 120.292L105.514 121.047L106.725 120.292L107.412 120.912V108.906H99.696Z" fill="white"/>
<path opacity="0.5" d="M107.412 152.049V140.461L106.36 139.903L105.452 140.662L104.015 139.903L102.651 140.662L101.594 139.903L100.383 140.662L99.696 140.043V152.049H107.412Z" fill="white"/>
<path d="M135.627 126.499C135.872 127.484 135.992 127.979 136.237 128.964C136.3 129.228 136.333 129.363 136.401 129.632C136.646 130.617 136.766 131.112 137.011 132.096H143.41C143.376 132.356 143.362 132.486 143.333 132.745H137.438C137.501 133.014 137.53 133.149 137.592 133.413H143.794L143.996 132.096C144.145 131.112 144.222 130.617 144.371 129.632C144.414 129.363 144.433 129.228 144.472 128.964C144.621 127.979 144.698 127.484 144.847 126.499C144.88 126.298 144.895 126.197 144.923 125.995H147.157C147.22 125.731 147.254 125.596 147.321 125.332H144.222C144.164 125.812 144.136 126.029 144.083 126.499H135.627ZM143.794 128.964H141.959C141.959 128.243 141.988 127.883 142.012 127.162H144.006C143.9 127.883 143.862 128.243 143.794 128.964ZM141.873 131.429C141.873 130.708 141.906 130.348 141.926 129.632H143.703L143.487 131.429H141.873ZM139.471 129.632H141.243C141.243 130.348 141.243 130.708 141.243 131.429H139.624C139.581 130.708 139.547 130.348 139.471 129.632ZM139.245 127.162H141.239C141.239 127.883 141.239 128.243 141.239 128.964H139.423C139.355 128.243 139.322 127.883 139.259 127.162H139.245ZM137.035 129.632H138.812C138.899 130.348 138.947 130.708 139.038 131.429H137.419L137.035 129.632ZM136.506 127.162H138.51C138.596 127.883 138.644 128.243 138.731 128.964H136.896L136.506 127.162Z" fill="white"/>
<path d="M143.391 135.623C143.829 135.623 144.183 135.268 144.183 134.83C144.183 134.392 143.829 134.037 143.391 134.037C142.953 134.037 142.598 134.392 142.598 134.83C142.598 135.268 142.953 135.623 143.391 135.623Z" fill="white"/>
<path d="M137.765 135.623C138.203 135.623 138.558 135.268 138.558 134.83C138.558 134.392 138.203 134.037 137.765 134.037C137.327 134.037 136.972 134.392 136.972 134.83C136.972 135.268 137.327 135.623 137.765 135.623Z" fill="white"/>
<g opacity="0.5">
<path d="M98.9175 126.499C99.1626 127.484 99.2827 127.979 99.5277 128.964C99.5901 129.228 99.6238 129.363 99.691 129.632C99.9361 130.617 100.056 131.112 100.301 132.096H106.7C106.667 132.356 106.652 132.486 106.624 132.745H100.738C100.801 133.014 100.83 133.149 100.892 133.413H107.075L107.277 132.096C107.426 131.112 107.503 130.617 107.652 129.632C107.69 129.363 107.714 129.228 107.753 128.964C107.902 127.979 107.978 127.484 108.127 126.499L108.204 125.995H110.443C110.505 125.731 110.539 125.596 110.606 125.332H107.508C107.45 125.812 107.421 126.029 107.368 126.499H98.9175ZM107.085 128.964H105.25L105.302 127.162H107.282C107.2 127.883 107.157 128.243 107.075 128.964H107.085ZM105.163 131.429C105.187 130.708 105.197 130.348 105.216 129.632H106.994L106.777 131.429H105.163ZM102.785 129.632H104.558C104.558 130.348 104.558 130.708 104.558 131.429H102.958C102.881 130.708 102.847 130.348 102.785 129.632ZM102.554 127.162H104.553C104.553 127.883 104.553 128.243 104.553 128.964H102.718L102.554 127.162ZM100.349 129.632H102.127L102.348 131.429H100.734L100.349 129.632ZM99.8207 127.162H101.819C101.906 127.883 101.954 128.243 102.04 128.964H100.205L99.8207 127.162Z" fill="white"/>
<path d="M106.691 135.623C107.129 135.623 107.483 135.268 107.483 134.83C107.483 134.392 107.129 134.037 106.691 134.037C106.253 134.037 105.898 134.392 105.898 134.83C105.898 135.268 106.253 135.623 106.691 135.623Z" fill="white"/>
<path d="M101.065 135.623C101.503 135.623 101.858 135.268 101.858 134.83C101.858 134.392 101.503 134.037 101.065 134.037C100.627 134.037 100.272 134.392 100.272 134.83C100.272 135.268 100.627 135.623 101.065 135.623Z" fill="white"/>
</g>
<path d="M145.409 74.5752C145.409 74.5752 146.908 85.332 148.253 87.1864C149.598 89.0409 155.642 94.1719 155.642 94.1719L159.461 93.6146L162.022 96.0167L160.167 97.2994L158.126 96.3866C156.974 96.5144 155.813 96.5418 154.657 96.4683C152.706 96.3482 145.087 91.1836 143.684 88.4884C142.281 85.7932 140.696 75.8147 140.696 75.8147L145.409 74.5752Z" fill="#CE7A63"/>
<path d="M146.677 77.6832L146.293 77.7504C146.028 75.2234 144.971 67.5461 142.074 69.5159C139.293 71.4136 140.076 76.7992 140.479 78.8122L139.999 78.8938L140.422 80.2198L146.826 78.9947L146.677 77.6832Z" fill="#F95700"/>
<path opacity="0.2" d="M144.275 72.6051L143.569 71.0869L141.354 73.3161L140.081 75.2378C140.116 76.4405 140.254 77.6379 140.494 78.817L140.013 78.8987L140.436 80.2247L144.049 79.5328C144.452 77.2459 144.528 74.9134 144.275 72.6051Z" fill="black"/>
<path d="M144.496 53.3018C144.496 53.3018 152.135 54.9544 148.075 58.5865L144.712 55.6511L144.496 53.3018Z" fill="#263238"/>
<path d="M155.099 133.961L150.237 145.871L146.864 144.559L149.583 132.722L155.099 133.961Z" fill="#CE7A63"/>
<path opacity="0.2" d="M149.824 131.88L147.907 140.225L152.063 141.152L155.339 133.115L149.824 131.88Z" fill="black"/>
<path d="M151.001 145.592C151.621 146.999 152.039 148.157 154.575 149.661C155.128 149.978 154.191 151.438 152.812 150.819C150.535 149.791 151.131 149.771 149.18 148.926C147.542 148.2 146.321 147.763 144.986 147.206C144.951 147.191 144.919 147.172 144.89 147.148C144.776 147.063 144.701 146.937 144.68 146.796C144.66 146.656 144.695 146.513 144.779 146.399L146.749 143.704C146.792 143.643 146.855 143.6 146.927 143.58C146.999 143.561 147.075 143.567 147.143 143.598L150.333 144.972C150.624 145.091 150.861 145.311 151.001 145.592Z" fill="#263238"/>
<path d="M165.981 105.97C165.361 113.657 154.321 139.067 154.321 139.067L147.768 137.242C147.768 137.242 152.774 112.831 156.041 108.791C156.041 108.791 154.974 108.791 153.259 108.824C147.287 108.877 133.446 108.867 129.454 107.806C126.605 107.047 120.652 105.524 122.247 95.9919L129.627 95.7373L138.221 95.4395C138.221 95.4395 166.855 95.4875 165.981 105.97Z" fill="#263238"/>
<path opacity="0.2" d="M153.259 108.824C147.287 108.877 133.446 108.867 129.454 107.806C126.605 107.047 120.652 105.524 122.247 95.9919L129.627 95.7373C135.435 96.4243 143.026 97.5725 148.2 99.7969C150.717 100.878 152.466 102.828 152.98 105.125C153.157 106.35 153.25 107.586 153.259 108.824Z" fill="black"/>
<path d="M143.703 133.537L141.272 145.678L137.616 145.51L138.048 133.369L143.703 133.537Z" fill="#CE7A63"/>
<path opacity="0.2" d="M143.703 133.537L138.048 133.369L137.799 140.628L142.252 140.787L143.703 133.537Z" fill="black"/>
<path d="M141.829 145.967C142.425 147.408 142.79 148.618 145.351 150.223C145.899 150.579 144.899 152.044 143.52 151.362C141.234 150.242 141.844 150.247 139.879 149.32C138.221 148.537 136.996 148.052 135.656 147.441L135.555 147.393C135.498 147.349 135.45 147.294 135.415 147.232C135.379 147.169 135.357 147.1 135.348 147.028C135.34 146.957 135.346 146.884 135.365 146.815C135.385 146.746 135.419 146.681 135.464 146.625L137.554 143.93C137.598 143.87 137.663 143.827 137.736 143.81C137.808 143.792 137.885 143.801 137.952 143.833L141.152 145.328C141.449 145.449 141.691 145.677 141.829 145.967Z" fill="#263238"/>
<path d="M117.933 95.9678C117.933 95.9678 115.843 103.477 119.297 106.441C124.126 110.587 141.57 109.324 141.57 109.324C138.558 118.966 137.213 138.121 137.213 138.121H143.751C143.751 138.121 152.658 111.918 151.342 105.144C150.026 98.3699 126.658 95.9726 126.658 95.9726L117.933 95.9678Z" fill="#263238"/>
<path d="M147.186 138.001L154.604 139.87L156.117 136.695L147.969 134.384L147.186 138.001Z" fill="#F95700"/>
<path d="M136.564 139.053L144.131 139.442L144.914 136.113L136.564 135.724V139.053Z" fill="#F95700"/>
<path d="M140.033 85.5866C141.954 79.9223 144.357 75.6129 144.635 70.7846C138.058 61.2913 125.197 66.9027 125.197 66.9027C117.414 81.5077 117.933 95.9686 117.933 95.9686C135.618 95.9686 136.631 95.666 136.631 95.666C136.631 95.666 136.694 93.1822 140.033 85.5866Z" fill="#F95700"/>
<path opacity="0.2" d="M134.094 66.624C134.378 68.2959 134.969 71.313 135.67 71.7502C136.631 72.3363 138.072 71.5148 138.072 71.5148C138.072 71.5148 139.24 73.0954 140.475 72.0433C141.168 71.3793 141.709 70.5729 142.06 69.6795C141.697 70.2985 141.238 70.8563 140.7 71.3322C139.451 72.3796 138.298 70.8037 138.298 70.8037C138.298 70.8037 136.857 71.6205 135.896 71.0392C135.262 70.6596 134.522 68.2719 134.094 66.624Z" fill="black"/>
<path d="M135.68 64.3174L137.434 64.9179L136.059 66.1238L135.68 64.3174Z" fill="#F95700"/>
<path opacity="0.2" d="M135.68 64.3174L137.434 64.9179L136.059 66.1238L135.68 64.3174Z" fill="black"/>
<path d="M141.253 66.1246L141.733 67.5658C141.733 67.5658 139.225 70.189 138.505 70.2178C137.784 70.2466 135.67 65.2838 135.67 65.2838C138.462 64.0203 138.202 62.6318 138.202 62.6318L141.253 66.1246Z" fill="#CE7A63"/>
<path opacity="0.2" d="M140.34 68.9058C141.08 68.2284 141.743 67.5414 141.743 67.5414L141.263 66.1001L138.548 62.9629C138.193 64.3513 137.847 67.2051 140.34 68.9058Z" fill="black"/>
<path d="M142.685 68.5836C142.233 69.6406 141.565 70.5913 140.725 71.3749C139.471 72.4222 138.322 70.8512 138.322 70.8512C138.322 70.8512 136.881 71.6631 135.92 71.0818C134.959 70.5005 133.705 65.1677 133.705 65.1677L135.68 64.3174L138.399 70.0825L142.065 67.051L142.685 68.5836Z" fill="#F95700"/>
<path d="M138.106 57.7596C138.102 56.9066 138.323 56.0675 138.746 55.3267C139.168 54.5859 139.779 53.9693 140.515 53.539C141.252 53.1087 142.089 52.8797 142.942 52.8751C143.795 52.8704 144.634 53.0903 145.375 53.5126C148.863 55.3911 148.959 60.8776 147.921 64.082C147.671 64.9238 147.194 65.6806 146.543 66.2704C145.892 66.8602 145.092 67.2603 144.23 67.4272C143.368 67.5941 142.476 67.5214 141.652 67.2171C140.828 66.9128 140.104 66.3884 139.557 65.7011C137.847 63.5968 138.068 61.4397 138.116 57.7356L138.106 57.7596Z" fill="#CE7A63"/>
<path d="M144.602 60.0564C144.803 60.0564 144.928 60.3495 144.875 60.6425C144.823 60.9356 144.645 61.1229 144.448 61.1229C144.251 61.1229 144.126 60.8299 144.174 60.5368C144.222 60.2438 144.4 60.042 144.602 60.0564Z" fill="#263238"/>
<path d="M147.931 60.6806C148.137 60.6806 148.262 60.9641 148.214 61.262C148.166 61.5598 147.979 61.7424 147.777 61.7424C147.575 61.7424 147.46 61.4541 147.503 61.1563C147.546 60.8584 147.729 60.6566 147.931 60.6806Z" fill="#263238"/>
<path d="M143.708 59.3546C143.88 59.2217 144.081 59.1318 144.295 59.0925C144.509 59.0533 144.73 59.0657 144.938 59.1288C144.98 59.1427 145.027 59.1395 145.067 59.1197C145.108 59.1 145.139 59.0654 145.154 59.0231C145.167 58.9791 145.164 58.9317 145.144 58.8901C145.125 58.8485 145.09 58.8155 145.048 58.7973C144.78 58.717 144.497 58.703 144.222 58.7565C143.948 58.8101 143.69 58.9296 143.472 59.1048C143.447 59.1215 143.427 59.1453 143.416 59.1732C143.404 59.2012 143.4 59.2319 143.406 59.2617C143.412 59.2915 143.426 59.3189 143.447 59.3406C143.468 59.3622 143.496 59.3772 143.525 59.3835C143.555 59.3991 143.588 59.4047 143.621 59.3995C143.654 59.3943 143.685 59.3786 143.708 59.3546Z" fill="#263238"/>
<path d="M148.772 60.2918C148.811 60.267 148.838 60.2281 148.849 60.1833C148.86 60.1385 148.853 60.0913 148.829 60.0516C148.693 59.8056 148.5 59.5953 148.268 59.4376C148.035 59.2798 147.768 59.1791 147.489 59.1436C147.452 59.1447 147.416 59.158 147.388 59.1815C147.359 59.2049 147.339 59.2372 147.33 59.2733C147.325 59.2957 147.324 59.319 147.327 59.3419C147.331 59.3647 147.339 59.3867 147.351 59.4064C147.363 59.4261 147.379 59.4432 147.397 59.4566C147.416 59.47 147.438 59.4796 147.46 59.4847C147.686 59.519 147.9 59.6049 148.087 59.7358C148.273 59.8666 148.427 60.0388 148.536 60.2389C148.549 60.2643 148.568 60.2859 148.592 60.3019C148.615 60.3179 148.643 60.3276 148.671 60.3302C148.707 60.3273 148.742 60.314 148.772 60.2918Z" fill="#263238"/>
<path d="M145.956 63.9577C146.183 64.0607 146.428 64.1141 146.677 64.1141C146.926 64.1141 147.171 64.0607 147.398 63.9577C146.957 63.0615 146.634 62.112 146.437 61.1328L145.956 63.9577Z" fill="#BA4D3C"/>
<path d="M137.875 60.1573C136.434 54.9206 138.764 53.5562 141.282 52.6145C143.799 51.6729 145.197 52.5761 145.999 53.4601C146.249 53.7388 146.749 54.5747 145.135 54.6852C144.157 54.7229 143.179 54.6472 142.218 54.4594C142.027 54.4259 141.829 54.4458 141.648 54.517C141.466 54.5881 141.308 54.7078 141.19 54.863C140.633 55.5932 139.749 56.9576 139.749 58.1491C139.783 58.6023 139.717 59.0573 139.556 59.4822C139.395 59.9072 139.143 60.2917 138.817 60.6089L137.875 60.1573Z" fill="#263238"/>
<path d="M136.06 86.4748C136.185 86.4757 136.307 86.5139 136.411 86.5843C136.515 86.6548 136.595 86.7545 136.642 86.8707C136.69 86.9869 136.701 87.1145 136.676 87.2374C136.65 87.3602 136.589 87.4727 136.5 87.5607C136.41 87.6488 136.297 87.7083 136.174 87.7318C136.051 87.7554 135.923 87.7418 135.808 87.693C135.692 87.6441 135.594 87.5621 135.525 87.4573C135.456 87.3524 135.42 87.2296 135.421 87.1041C135.421 87.0203 135.437 86.9372 135.47 86.8599C135.502 86.7826 135.55 86.7126 135.61 86.6539C135.67 86.5953 135.741 86.5492 135.819 86.5185C135.897 86.4877 135.98 86.4729 136.064 86.4748H136.06Z" fill="#F95700"/>
<path d="M134.666 93.1817C134.75 93.1817 134.832 93.1981 134.909 93.2299C134.986 93.2618 135.056 93.3085 135.115 93.3674C135.174 93.4263 135.22 93.4962 135.252 93.5731C135.284 93.6501 135.3 93.7325 135.3 93.8158C135.3 93.8991 135.284 93.9816 135.252 94.0585C135.22 94.1354 135.174 94.2053 135.115 94.2642C135.056 94.3231 134.986 94.3698 134.909 94.4017C134.832 94.4336 134.75 94.45 134.666 94.45C134.498 94.4487 134.336 94.3808 134.218 94.2611C134.099 94.1414 134.032 93.9797 134.032 93.811C134.032 93.728 134.049 93.6457 134.08 93.5691C134.112 93.4924 134.159 93.4228 134.218 93.3643C134.277 93.3058 134.347 93.2595 134.424 93.2282C134.501 93.1968 134.583 93.181 134.666 93.1817Z" fill="#F95700"/>
<path d="M137.914 58.975C138.933 59.1576 139.423 60.594 139.432 61.5357C139.442 62.4773 138.712 63.3085 137.813 62.7079C137.131 62.237 136.651 61.5271 136.468 60.7189C136.271 59.7052 136.9 58.7732 137.914 58.975Z" fill="#CE7A63"/>
<path d="M142.564 63.9043C143.668 64.2159 144.74 64.6326 145.764 65.1486C145.448 65.4869 145.025 65.706 144.567 65.769C144.108 65.832 143.642 65.7351 143.247 65.4945C143.093 65.4403 142.953 65.355 142.834 65.2439C142.716 65.1327 142.621 64.9982 142.557 64.8488C142.493 64.6994 142.461 64.5384 142.462 64.3758C142.463 64.2132 142.498 64.0527 142.564 63.9043Z" fill="#263238"/>
<path d="M144.039 65.2213C143.598 64.9857 143.093 64.8965 142.598 64.9666C142.75 65.2103 142.973 65.4014 143.237 65.5143C143.678 65.7508 144.183 65.84 144.678 65.7689C144.53 65.5221 144.306 65.3299 144.039 65.2213Z" fill="#A02724"/>
<path d="M142.68 63.9336C142.663 64.0281 142.673 64.1255 142.709 64.2146C142.744 64.3038 142.804 64.3812 142.882 64.438C143.561 64.7526 144.267 65.0082 144.991 65.2019C145.102 65.2438 145.222 65.2569 145.339 65.2401C145.457 65.2233 145.568 65.1771 145.663 65.1058C144.701 64.6382 143.703 64.2463 142.68 63.9336Z" fill="white"/>
<path d="M146.359 99.1776L155.055 99.2246L155.062 97.8266L146.366 97.7795L146.359 99.1776Z" fill="#263238"/>
<path d="M147.074 99.1827L136.025 99.1229C135.939 99.1225 135.854 99.1051 135.775 99.0718C135.696 99.0386 135.624 98.99 135.564 98.929C135.503 98.868 135.455 98.7958 135.423 98.7163C135.391 98.6369 135.374 98.5518 135.375 98.466L135.379 97.7262L147.082 97.7895L147.074 99.1875L147.074 99.1827Z" fill="#263238"/>
<path opacity="0.3" d="M147.074 99.1827L136.025 99.1229C135.939 99.1225 135.854 99.1051 135.775 99.0718C135.696 99.0386 135.624 98.99 135.564 98.929C135.503 98.868 135.455 98.7958 135.423 98.7163C135.391 98.6369 135.374 98.5518 135.375 98.466L135.379 97.7262L147.082 97.7895L147.074 99.1875L147.074 99.1827Z" fill="white"/>
<path d="M143.925 98.7161L145.323 98.7236L145.326 98.2288L143.928 98.2212L143.925 98.7161Z" fill="#263238"/>
<path d="M141.744 98.7131L143.142 98.7207L143.145 98.2259L141.747 98.2183L141.744 98.7131Z" fill="#263238"/>
<path d="M148.733 97.8038L147.806 97.799L151.505 85.2021L152.432 85.207L148.733 97.8038Z" fill="#263238"/>
<path opacity="0.3" d="M148.733 97.8038L147.806 97.799L151.505 85.2021L152.432 85.207L148.733 97.8038Z" fill="white"/>
<path d="M148.392 97.8038L164.712 97.8903L168.412 85.2886L152.091 85.2021L148.392 97.8038Z" fill="#263238"/>
<path opacity="0.6" d="M148.392 97.8038L164.712 97.8903L168.412 85.2886L152.091 85.2021L148.392 97.8038Z" fill="white"/>
<path d="M147.595 97.7988L164.583 97.8901C164.866 97.8901 165.097 98.2072 165.097 98.5915C165.097 98.9759 164.861 99.2882 164.573 99.2882L147.585 99.1969C147.302 99.1969 147.071 98.8798 147.071 98.4955C147.071 98.1111 147.306 97.7988 147.595 97.7988Z" fill="#263238"/>
<path opacity="0.5" d="M147.595 97.7988L164.583 97.8901C164.866 97.8901 165.097 98.2072 165.097 98.5915C165.097 98.9759 164.861 99.2882 164.573 99.2882L147.585 99.1969C147.302 99.1969 147.071 98.8798 147.071 98.4955C147.071 98.1111 147.306 97.7988 147.595 97.7988Z" fill="white"/>
<path d="M147.071 98.4955C147.071 98.8798 147.302 99.1921 147.585 99.1969C147.868 99.2017 148.104 98.8846 148.109 98.5002C148.113 98.1159 147.878 97.7988 147.595 97.7988C147.311 97.7988 147.076 98.1111 147.071 98.4955Z" fill="#263238"/>
<path opacity="0.3" d="M147.071 98.4955C147.071 98.8798 147.302 99.1921 147.585 99.1969C147.868 99.2017 148.104 98.8846 148.109 98.5002C148.113 98.1159 147.878 97.7988 147.595 97.7988C147.311 97.7988 147.076 98.1111 147.071 98.4955Z" fill="white"/>
<path opacity="0.2" d="M131.029 86.1338C130.246 85.0576 129.415 81.07 128.834 77.7743L129.588 77.6302L129.41 76.2658L129.016 76.3378C128.743 73.7627 127.676 66.0182 124.789 67.6901C123.948 69.3236 123.208 70.9666 122.564 72.5905C122.507 74.2139 122.646 75.8382 122.977 77.4284L122.497 77.5149L122.939 78.8937L123.962 78.7015C124.572 81.882 125.461 85.908 126.288 87.503C127.373 89.5976 132.053 93.0952 135.185 94.7959C138.707 94.1713 139.509 93.7293 139.509 93.7293C139.408 93.5968 139.326 93.4514 139.264 93.2969L138.697 93.3786C138.697 93.3786 132.427 88.0603 131.029 86.1338Z" fill="black"/>
<path d="M130.169 73.0908C130.169 73.0908 131.197 84.3184 132.504 86.3074C133.811 88.2964 139.831 93.9174 139.831 93.9174L143.818 93.5234L146.355 96.161L144.371 97.4101L142.295 96.358C141.094 96.4371 139.888 96.4098 138.692 96.2763C136.679 96.0553 129.026 90.3478 127.7 87.4652C126.374 84.5827 125.216 74.1718 125.216 74.1718L130.169 73.0908Z" fill="#CE7A63"/>
<path d="M131.063 75.5119L130.664 75.5839C130.39 72.9608 129.29 64.9857 126.288 67.0323C123.405 69.0021 124.207 74.5943 124.63 76.6841L124.15 76.7706L124.592 78.1494L131.241 76.8763L131.063 75.5119Z" fill="#F95700"/>
<path d="M33.8821 114.013L32.7339 113.951L33.0029 108.743C33.113 107.017 33.8711 105.396 35.1255 104.205C36.3798 103.014 38.0377 102.34 39.7674 102.32C40.606 102.311 41.4374 102.476 42.2096 102.804C42.9817 103.131 43.6781 103.614 44.2552 104.223C44.8322 104.831 45.2776 105.552 45.5635 106.341C45.8494 107.129 45.9697 107.968 45.9168 108.805L45.643 114.013L44.4948 113.951L44.7686 108.743C44.8144 108.061 44.7186 107.377 44.4872 106.734C44.2558 106.091 43.8939 105.503 43.4241 105.006C42.9544 104.51 42.387 104.116 41.7577 103.85C41.1284 103.583 40.4507 103.45 39.7674 103.458C38.3312 103.476 36.9549 104.036 35.9142 105.026C34.8736 106.016 34.2455 107.362 34.1559 108.796L33.8821 114.013Z" fill="#263238"/>
<path d="M58.5135 111.697H24.5616L23.4086 151.981L28.4435 150.828L33.4783 151.981H59.6665L58.5135 111.697Z" fill="#F95700"/>
<path opacity="0.6" d="M58.5135 111.697H24.5616L23.4086 151.981L28.4435 150.828L33.4783 151.981H59.6665L58.5135 111.697Z" fill="white"/>
<path d="M33.4783 151.981L28.4435 150.828L23.4086 151.981L24.5616 111.697H32.3301L33.4783 151.981Z" fill="#F95700"/>
<path opacity="0.3" d="M33.4783 151.981L28.4435 150.828L23.4086 151.981L24.5616 111.697H32.3301L33.4783 151.981Z" fill="white"/>
<path d="M51.3264 114.013L51.0718 108.806C50.9821 107.371 50.3534 106.024 49.3117 105.034C48.2701 104.044 46.8926 103.485 45.4556 103.468C44.7726 103.461 44.0955 103.594 43.4668 103.861C42.838 104.128 42.2712 104.522 41.802 105.018C41.3328 105.514 40.9712 106.102 40.7402 106.745C40.5091 107.388 40.4134 108.071 40.4591 108.753L40.733 113.961L39.5848 114.023L39.3109 108.815C39.2574 107.978 39.377 107.14 39.6623 106.351C39.9477 105.563 40.3926 104.841 40.9693 104.233C41.546 103.624 42.2421 103.141 43.014 102.813C43.7859 102.486 44.6171 102.321 45.4556 102.329C47.1855 102.349 48.8441 103.022 50.0987 104.213C51.3532 105.405 52.111 107.026 52.22 108.753L52.4939 113.961L51.3264 114.013Z" fill="#263238"/>
<g opacity="0.2">
<path d="M51.3265 114.014L51.0719 108.807C50.9823 107.372 50.3535 106.025 49.3119 105.035C48.2702 104.045 46.8927 103.486 45.4557 103.469C44.7728 103.461 44.0956 103.595 43.4669 103.862C42.8381 104.129 42.2713 104.523 41.8021 105.019C41.3329 105.515 40.9714 106.103 40.7403 106.746C40.5092 107.389 40.4135 108.072 40.4593 108.754L40.7331 113.962L39.5849 114.024L39.311 108.816C39.2575 107.979 39.3771 107.14 39.6625 106.352C39.9478 105.564 40.3927 104.842 40.9694 104.234C41.5461 103.625 42.2422 103.142 43.0141 102.814C43.7861 102.487 44.6172 102.322 45.4557 102.33C47.1857 102.35 48.8442 103.023 50.0988 104.214C51.3534 105.406 52.1111 107.027 52.2201 108.754L52.494 113.962L51.3265 114.014Z" fill="white"/>
</g>
<path d="M53.9255 126.408H38.1386C37.783 126.408 37.4948 126.696 37.4948 127.052V129.603C37.4948 129.959 37.783 130.247 38.1386 130.247H53.9255C54.281 130.247 54.5692 129.959 54.5692 129.603V127.052C54.5692 126.696 54.281 126.408 53.9255 126.408Z" fill="white"/>
<path d="M18.2776 126.528L17.5042 126.485L17.6867 122.997C17.7559 121.836 18.2622 120.745 19.1037 119.943C19.9452 119.14 21.0594 118.687 22.222 118.673C22.7821 118.668 23.3374 118.777 23.8534 118.995C24.3694 119.213 24.8351 119.535 25.2216 119.94C25.6081 120.346 25.9072 120.826 26.1002 121.352C26.2933 121.878 26.3763 122.438 26.344 122.997L26.1615 126.49L25.3928 126.446L25.5753 122.958C25.6045 122.501 25.5389 122.043 25.3825 121.612C25.2261 121.181 24.9823 120.788 24.6665 120.456C24.3507 120.124 23.9697 119.86 23.5474 119.683C23.1251 119.505 22.6705 119.416 22.2123 119.423C21.2501 119.434 20.3277 119.809 19.6301 120.472C18.9324 121.134 18.5111 122.036 18.4506 122.997L18.2776 126.528Z" fill="#263238"/>
<path d="M34.79 124.977H12.0274L11.2587 151.981L14.6313 151.208L18.0087 151.981H35.5635L34.79 124.977Z" fill="#F95700"/>
<path d="M18.0087 151.981L14.6313 151.208L11.2587 151.981L12.0274 124.977H17.2352L18.0087 151.981Z" fill="#F95700"/>
<path opacity="0.2" d="M18.0087 151.981L14.6313 151.208L11.2587 151.981L12.0274 124.977H17.2352L18.0087 151.981Z" fill="black"/>
<path d="M29.9713 126.529L29.7887 123.036C29.7216 122.077 29.2976 121.178 28.6003 120.516C27.9031 119.855 26.9832 119.478 26.0221 119.462C25.5636 119.454 25.1084 119.541 24.6854 119.719C24.2624 119.896 23.8807 120.159 23.5647 120.491C23.2486 120.824 23.0049 121.218 22.849 121.649C22.6932 122.081 22.6285 122.54 22.6591 122.997L22.8417 126.485L22.073 126.529L21.8857 123.036C21.8541 122.477 21.9376 121.917 22.1309 121.392C22.3243 120.866 22.6234 120.386 23.0097 119.981C23.3961 119.575 23.8615 119.254 24.3772 119.036C24.8929 118.817 25.4478 118.707 26.0077 118.712C27.1703 118.726 28.2845 119.179 29.126 119.982C29.9675 120.784 30.4738 121.875 30.543 123.036L30.7255 126.524L29.9713 126.529Z" fill="#263238"/>
<g opacity="0.2">
<path d="M29.9713 126.529L29.7887 123.036C29.7216 122.077 29.2976 121.178 28.6003 120.516C27.9031 119.855 26.9832 119.478 26.0221 119.462C25.5636 119.454 25.1084 119.541 24.6854 119.719C24.2624 119.896 23.8807 120.159 23.5647 120.491C23.2486 120.824 23.0049 121.218 22.849 121.649C22.6932 122.081 22.6285 122.54 22.6591 122.997L22.8417 126.485L22.073 126.529L21.8857 123.036C21.8541 122.477 21.9376 121.917 22.1309 121.392C22.3243 120.866 22.6234 120.386 23.0097 119.981C23.3961 119.575 23.8615 119.254 24.3772 119.036C24.8929 118.817 25.4478 118.707 26.0077 118.712C27.1703 118.726 28.2845 119.179 29.126 119.982C29.9675 120.784 30.4738 121.875 30.543 123.036L30.7255 126.524L29.9713 126.529Z" fill="white"/>
</g>
<path d="M31.4991 134.84H21.3429C20.9873 134.84 20.6991 135.128 20.6991 135.484V136.766C20.6991 137.122 20.9873 137.41 21.3429 137.41H31.4991C31.8547 137.41 32.1429 137.122 32.1429 136.766V135.484C32.1429 135.128 31.8547 134.84 31.4991 134.84Z" fill="white"/>
<path d="M53.3202 149.344L49.6642 148.965L49.8467 140.423L53.5028 140.802L53.3202 149.344Z" fill="#B55B52"/>
<path d="M84.2503 137.094L80.9785 138.761L76.059 131.708L79.3355 130.041L84.2503 137.094Z" fill="#B55B52"/>
<path d="M80.2964 138.304L83.6594 135.902C83.7167 135.86 83.7873 135.841 83.8579 135.847C83.9286 135.853 83.9947 135.885 84.0438 135.936L86.321 138.338C86.3764 138.4 86.418 138.473 86.4434 138.552C86.4687 138.631 86.4771 138.714 86.4681 138.797C86.459 138.879 86.4327 138.959 86.3908 139.03C86.3489 139.102 86.2924 139.164 86.2249 139.212C85.0383 140.029 84.4233 140.361 82.9436 141.417C82.0356 142.066 80.7721 143.109 79.5182 144.002C78.2642 144.896 77.3082 143.704 77.7502 143.219C79.7343 141.043 79.6094 140.082 79.9265 138.857C79.9801 138.634 80.1113 138.439 80.2964 138.304Z" fill="#263238"/>
<path d="M49.352 148.504L53.4597 148.932C53.5303 148.938 53.5962 148.969 53.645 149.021C53.6937 149.072 53.7218 149.14 53.7239 149.211L53.8536 152.511C53.8541 152.594 53.837 152.676 53.8035 152.753C53.77 152.829 53.7208 152.897 53.6591 152.953C53.5974 153.008 53.5247 153.051 53.4456 153.076C53.3665 153.102 53.2829 153.111 53.2002 153.102C51.759 152.924 51.0912 152.77 49.2848 152.583C48.1702 152.463 44.9609 152.247 43.4332 152.103C41.9054 151.959 41.9919 150.416 42.6308 150.344C45.5566 150.027 47.6705 149.383 48.7179 148.677C48.9023 148.547 49.1269 148.486 49.352 148.504Z" fill="#263238"/>
<g opacity="0.2">
<path d="M49.8468 140.423L49.7507 144.828L53.4116 145.208L53.5029 140.807L49.8468 140.423Z" fill="black"/>
<path d="M79.3354 130.046L76.0589 131.713L78.5956 135.345L81.8721 133.678L79.3354 130.046Z" fill="black"/>
</g>
<path d="M51.5955 66.6289C51.5955 66.6289 47.8049 94.8445 47.7089 106.058C47.5936 117.722 49.0733 143.906 49.0733 143.906L54.0169 144.42C54.0169 144.42 56.0251 118.669 56.8226 107.24C57.697 94.7724 62.5397 66.9796 62.5397 66.9796L51.5955 66.6289Z" fill="#263238"/>
<path d="M54.4108 144.636L48.6073 144.031L48.3766 142.138L54.8961 142.589L54.4108 144.636Z" fill="#F95700"/>
<path opacity="0.6" d="M57.7978 73.8694C53.8968 81.1286 56.4046 94.6719 57.5432 99.7164C58.4416 92.2217 59.8541 83.0696 60.9398 76.3532C60.5171 72.5194 59.6091 70.5304 57.7978 73.8694Z" fill="black"/>
<path d="M55.5351 66.7539C55.5351 66.7539 57.9901 96.2858 60.2433 105.813C62.9193 117.127 77.4186 134.989 77.4186 134.989L81.8866 132.717C81.8866 132.717 72.0618 112.865 69.9335 106.879C65.3839 94.1143 70.2122 75.4545 66.5177 67.0998L55.5351 66.7539Z" fill="#263238"/>
<path d="M82.5208 132.687L76.9766 135.507L75.5017 134.066L81.8722 130.453L82.5208 132.687Z" fill="#F95700"/>
<path d="M79.0041 139.813H78.9608C78.8766 139.802 78.7966 139.769 78.7291 139.718C78.6616 139.666 78.6089 139.598 78.5765 139.52C78.5499 139.474 78.5358 139.423 78.5358 139.371C78.5358 139.318 78.5499 139.267 78.5765 139.222C78.8119 138.813 80.1379 138.741 80.2868 138.741C80.3042 138.741 80.3212 138.746 80.3358 138.755C80.3503 138.765 80.3617 138.778 80.3685 138.794C80.379 138.807 80.3848 138.823 80.3848 138.84C80.3848 138.856 80.379 138.872 80.3685 138.885C80.0466 139.246 79.4653 139.827 79.0041 139.813ZM80.085 138.929C79.5566 138.967 78.8503 139.092 78.7254 139.303C78.7136 139.324 78.7074 139.347 78.7074 139.371C78.7074 139.394 78.7136 139.417 78.7254 139.438C78.7468 139.49 78.7816 139.536 78.8263 139.57C78.871 139.605 78.9241 139.627 78.98 139.635C79.2299 139.688 79.6382 139.404 80.085 138.929Z" fill="#F95700"/>
<path d="M80.1666 138.919C79.7102 138.919 78.8791 138.664 78.7254 138.313C78.6972 138.25 78.6919 138.179 78.7103 138.113C78.7287 138.046 78.7697 137.988 78.8262 137.948C78.8741 137.902 78.9318 137.867 78.9951 137.846C79.0583 137.826 79.1254 137.819 79.1914 137.828C79.7246 137.886 80.3396 138.741 80.3684 138.789C80.3756 138.802 80.3793 138.817 80.3793 138.832C80.3793 138.847 80.3756 138.862 80.3684 138.875C80.3617 138.889 80.3515 138.901 80.3388 138.909C80.3262 138.918 80.3115 138.922 80.2964 138.923C80.2531 138.926 80.2096 138.925 80.1666 138.919ZM79.1433 138.001C79.1058 137.998 79.068 138.003 79.0324 138.015C78.9968 138.028 78.9642 138.047 78.9367 138.073C78.8551 138.15 78.8647 138.203 78.8791 138.241C78.9848 138.477 79.6718 138.722 80.1186 138.746C79.8976 138.472 79.4844 138.035 79.1577 138.001H79.1433Z" fill="#F95700"/>
<path d="M47.9155 148.999C47.5995 148.995 47.2943 148.883 47.0507 148.682C46.9971 148.624 46.9585 148.554 46.9384 148.477C46.9183 148.401 46.9173 148.321 46.9354 148.244C46.9438 148.197 46.964 148.152 46.9942 148.114C47.0245 148.076 47.0637 148.047 47.1084 148.028C47.5888 147.831 48.9628 148.725 49.1166 148.831C49.1321 148.839 49.1443 148.853 49.1512 148.87C49.1581 148.886 49.1595 148.905 49.155 148.922C49.151 148.94 49.1414 148.956 49.1276 148.968C49.1137 148.98 49.0964 148.988 49.0781 148.989C48.6918 149.029 48.3025 149.032 47.9155 148.999ZM47.339 148.172C47.2851 148.162 47.2296 148.162 47.1756 148.172C47.1575 148.181 47.1418 148.193 47.13 148.209C47.1182 148.225 47.1108 148.244 47.1084 148.264C47.095 148.313 47.0946 148.365 47.1072 148.415C47.1199 148.465 47.1451 148.51 47.1804 148.547C47.3822 148.773 47.978 148.869 48.8043 148.821C48.3551 148.525 47.8599 148.306 47.339 148.172Z" fill="#F95700"/>
<path d="M49.0589 148.989C49.0589 148.989 49.0348 148.989 49.0252 148.989C48.6121 148.749 47.829 147.87 47.9395 147.462C47.9683 147.365 48.05 147.25 48.2902 147.25C48.3799 147.248 48.4691 147.265 48.5519 147.3C48.6347 147.335 48.7092 147.386 48.7706 147.452C49.1886 147.884 49.1742 148.893 49.1694 148.917C49.1699 148.932 49.1661 148.947 49.1585 148.96C49.1508 148.973 49.1395 148.983 49.1261 148.989C49.1044 148.997 49.0805 148.997 49.0589 148.989ZM48.343 147.414H48.2902C48.1316 147.414 48.1172 147.471 48.1076 147.495C48.0452 147.74 48.564 148.418 48.982 148.735C48.9877 148.316 48.8654 147.905 48.6313 147.558C48.5547 147.478 48.4528 147.427 48.343 147.414Z" fill="#F95700"/>
<path d="M50.0199 51.6296C48.6593 53.447 47.1347 55.1356 45.4654 56.6741C44.5823 57.5028 43.6164 58.2385 42.5828 58.8697C41.9739 59.2431 41.3179 59.534 40.6323 59.7345C40.1983 59.8599 39.7484 59.9214 39.2967 59.917C39.0269 59.9141 38.758 59.8835 38.4944 59.8257C38.3599 59.7921 38.2157 59.7489 38.0812 59.7008C37.9233 59.6456 37.7705 59.5765 37.6248 59.4942C37.2851 59.3109 36.9886 59.057 36.7552 58.7496C36.5763 58.5224 36.4292 58.2719 36.318 58.0049C36.1535 57.6181 36.042 57.2109 35.9866 56.7942C35.9021 56.1493 35.878 55.4979 35.9145 54.8485C35.9945 53.7001 36.1551 52.5586 36.3949 51.4327C36.835 49.2613 37.4355 47.1255 38.1917 45.043L40.1807 45.557C39.8972 47.6469 39.633 49.78 39.4745 51.8458C39.3874 52.8474 39.3617 53.8534 39.3976 54.8581C39.407 55.2868 39.4601 55.7134 39.5561 56.1313C39.5795 56.2471 39.62 56.3588 39.6762 56.4627C39.7051 56.5108 39.6762 56.3619 39.3976 56.1841C39.2967 56.1361 39.3303 56.1409 39.3063 56.1361C39.3899 56.117 39.4718 56.0913 39.5513 56.0592C39.8901 55.9209 40.2124 55.7453 40.5122 55.5355C41.282 54.9858 42.0066 54.3753 42.6789 53.7099C43.3948 53.0133 44.0818 52.2686 44.7592 51.4855C45.4366 50.7024 46.114 49.9049 46.7337 49.141L50.0199 51.6296Z" fill="#B55B52"/>
<path d="M49.2175 46.3408C47.7137 45.9276 43.2505 51.6255 43.2505 51.6255L47.5168 56.3865C47.5168 56.3865 52.518 51.8705 52.321 49.8479C52.1337 47.734 51.4178 46.9653 49.2175 46.3408Z" fill="#F95700"/>
<path d="M40.2333 45.0429L40.0652 42.0498L37.1826 44.4231C37.1826 44.4231 37.6198 46.7436 39.0755 47.2048L39.9739 45.9413C40.1578 45.679 40.2491 45.3628 40.2333 45.0429Z" fill="#B55B52"/>
<path d="M38.1869 39.5811L35.8809 41.7045L37.178 44.4142L40.0654 42.0408L38.1869 39.5811Z" fill="#B55B52"/>
<path d="M37.0146 45.3695L36.3468 45.1293C36.1664 45.0615 36.0156 44.9324 35.9208 44.7647C35.8259 44.597 35.7931 44.4012 35.828 44.2117L36.8417 38.8213L38.6625 39.4843L38.1004 44.6921C38.0883 44.8152 38.0481 44.9339 37.9829 45.039C37.9177 45.1441 37.8293 45.2328 37.7243 45.2982C37.6194 45.3637 37.5008 45.4042 37.3778 45.4165C37.2547 45.4289 37.1305 45.4128 37.0146 45.3695Z" fill="#263238"/>
<path d="M41.8141 38.5233C41.9294 38.211 42.0399 37.9035 42.1408 37.596C41.7305 36.9349 41.1814 36.3709 40.5313 35.9434C40.2911 36.5343 40.0509 37.154 39.8155 37.793C39.5801 38.432 39.3687 39.0613 39.1765 39.6715C39.9497 39.761 40.733 39.6823 41.473 39.4409C41.5883 39.1382 41.7036 38.8355 41.8141 38.5233Z" fill="#263238"/>
<path d="M40.6082 38.0867C40.8921 37.3384 41.0966 36.5622 41.2183 35.7711L35.2466 33.5947L33.6227 38.0579L39.5993 40.239C40.0092 39.5585 40.3473 38.8372 40.6082 38.0867Z" fill="#F95700"/>
<path opacity="0.6" d="M40.6082 38.0867C40.8921 37.3384 41.0966 36.5622 41.2183 35.7711L35.2466 33.5947L33.6227 38.0579L39.5993 40.239C40.0092 39.5585 40.3473 38.8372 40.6082 38.0867Z" fill="white"/>
<path d="M36.7985 33.7442C36.5294 33.6433 30.0725 27.0182 29.3518 26.7348C28.6312 26.4513 26.8872 29.0841 25.5997 32.62C24.3122 36.156 23.9086 39.2499 24.6917 39.5382C25.4748 39.8264 34.6269 38.8608 34.9008 38.9569C35.1746 39.0529 35.9049 37.996 36.4286 36.5547C36.9522 35.1134 37.1396 33.8595 36.7985 33.7442Z" fill="#F95700"/>
<path opacity="0.4" d="M36.7985 33.7442C36.5294 33.6433 30.0725 27.0182 29.3518 26.7348C28.6312 26.4513 26.8872 29.0841 25.5997 32.62C24.3122 36.156 23.9086 39.2499 24.6917 39.5382C25.4748 39.8264 34.6269 38.8608 34.9008 38.9569C35.1746 39.0529 35.9049 37.996 36.4286 36.5547C36.9522 35.1134 37.1396 33.8595 36.7985 33.7442Z" fill="white"/>
<path d="M28.4438 33.6521C27.1563 37.188 25.4748 39.8208 24.6917 39.5373C23.9086 39.2539 24.3122 36.1743 25.5997 32.6192C26.8872 29.064 28.5687 26.4505 29.3518 26.7339C30.1349 27.0174 29.7314 30.1209 28.4438 33.6521Z" fill="#F95700"/>
<path d="M26.5701 32.9605C26.4836 33.1959 26.4019 33.4409 26.3251 33.6571C26.7685 34.213 27.3109 34.6821 27.9249 35.0407C28.1075 34.5987 28.29 34.1327 28.4678 33.6523C28.6455 33.1719 28.7993 32.6914 28.9482 32.2398C28.2475 32.1207 27.5309 32.1321 26.8343 32.2735C26.7142 32.4993 26.6277 32.7299 26.5701 32.9605Z" fill="#263238"/>
<path opacity="0.7" d="M26.5701 32.9605C26.4836 33.1959 26.4019 33.4409 26.3251 33.6571C26.7685 34.213 27.3109 34.6821 27.9249 35.0407C28.1075 34.5987 28.29 34.1327 28.4678 33.6523C28.6455 33.1719 28.7993 32.6914 28.9482 32.2398C28.2475 32.1207 27.5309 32.1321 26.8343 32.2735C26.7142 32.4993 26.6277 32.7299 26.5701 32.9605Z" fill="white"/>
<path opacity="0.2" d="M47.9587 49.6887C48.1797 52.8836 47.435 54.786 46.9066 55.7037L47.5167 56.3811C47.5167 56.3811 50.3368 53.8348 51.6628 51.7113C50.1735 49.5013 47.7089 46.3305 47.9587 49.6887Z" fill="black"/>
<path d="M64.7546 31.5191C66.7579 31.5191 68.3818 29.8951 68.3818 27.8919C68.3818 25.8886 66.7579 24.2646 64.7546 24.2646C62.7513 24.2646 61.1274 25.8886 61.1274 27.8919C61.1274 29.8951 62.7513 31.5191 64.7546 31.5191Z" fill="#263238"/>
<path d="M64.3654 29.5448C64.3663 29.9964 64.2333 30.438 63.9831 30.8139C63.733 31.1899 63.3769 31.4831 62.96 31.6566C62.5431 31.83 62.0841 31.8759 61.6411 31.7884C61.1981 31.7009 60.7911 31.4839 60.4714 31.165C60.1518 30.846 59.934 30.4394 59.8455 29.9966C59.7571 29.5538 59.802 29.0947 59.9746 28.6774C60.1472 28.2602 60.4396 27.9035 60.815 27.6525C61.1904 27.4015 61.6318 27.2676 62.0834 27.2676C62.6878 27.2676 63.2675 27.5073 63.6953 27.9343C64.1231 28.3612 64.3641 28.9404 64.3654 29.5448Z" fill="#F95700"/>
<path d="M54.8384 26.7152C54.8384 26.7152 50.0341 26.3212 50.0341 34.5846C50.0341 40.2441 52.7822 42.8624 56.15 40.9599C56.15 40.9599 63.5774 40.3498 64.4326 33.5517C65.2877 26.7536 60.0318 24.2218 54.8384 26.7152Z" fill="#263238"/>
<path d="M48.2374 46.5613C48.2374 46.5613 46.5319 47.3011 51.6004 68.5601L66.4937 67.4791C65.8019 61.4353 65.5328 57.7024 67.517 45.0527C65.4005 44.774 63.2667 44.6487 61.1321 44.678C58.8688 44.678 56.6083 44.8386 54.3677 45.1584C51.4803 45.6484 48.2374 46.5613 48.2374 46.5613Z" fill="#F95700"/>
<path d="M59.9021 37.1113C59.633 39.3213 59.4985 43.3569 61.1271 44.6781C61.1271 44.6781 60.6948 46.9265 56.6496 47.2243C52.2056 47.5462 54.3627 45.1681 54.3627 45.1681C56.7649 44.4138 56.5535 42.617 56.0106 40.9596L59.9021 37.1113Z" fill="#B55B52"/>
<path opacity="0.2" d="M58.3168 38.6826L56.0107 40.9598C56.1437 41.3445 56.2434 41.7399 56.3086 42.1417C57.2262 41.9399 58.4225 40.8301 58.4513 39.8549C58.4784 39.4592 58.4328 39.0619 58.3168 38.6826Z" fill="black"/>
<path d="M62.3908 33.4412C61.5597 36.9916 61.281 38.5145 59.1527 40.0471C55.9531 42.3532 51.7733 40.5516 51.5283 36.8234C51.3073 33.4604 52.7054 28.2238 56.4671 27.3926C57.2946 27.2066 58.1559 27.2352 58.9693 27.4756C59.7826 27.716 60.5211 28.1603 61.1145 28.7662C61.7079 29.3721 62.1367 30.1197 62.36 30.9379C62.5834 31.7561 62.594 32.6178 62.3908 33.4412Z" fill="#B55B52"/>
<path d="M56.2652 33.4171C56.2172 33.7102 56.0202 33.8975 55.8328 33.8975C55.6455 33.8975 55.5254 33.5997 55.5734 33.3066C55.6215 33.0135 55.8232 32.8262 56.0106 32.8262C56.198 32.8262 56.3181 33.124 56.2652 33.4171Z" fill="#263238"/>
<path d="M52.9647 32.8547C52.9118 33.1429 52.7196 33.3351 52.5275 33.3351C52.3353 33.3351 52.22 33.042 52.2728 32.749C52.3257 32.4559 52.5179 32.2686 52.71 32.2686C52.9022 32.2686 52.9935 32.552 52.9647 32.8547Z" fill="#263238"/>
<path d="M52.7919 32.2974L52.1241 31.9707C52.1241 31.9707 52.3883 32.5809 52.7919 32.2974Z" fill="#263238"/>
<path d="M54.1274 33.5508C53.7538 34.1741 53.2964 34.7431 52.7678 35.2419C52.8992 35.3728 53.0575 35.4737 53.2317 35.5376C53.4058 35.6015 53.5918 35.6268 53.7767 35.6118L54.1274 33.5508Z" fill="#A02724"/>
<path d="M62.804 36.9003C62.4454 37.5087 61.8623 37.9521 61.1802 38.135C60.277 38.3656 59.8446 37.5489 60.1137 36.6937C60.3539 35.9347 61.1177 34.9017 62.0354 35.0411C62.2317 35.078 62.4157 35.1633 62.5707 35.2893C62.7257 35.4153 62.8469 35.5779 62.9232 35.7625C62.9995 35.9471 63.0286 36.1479 63.0078 36.3465C62.987 36.5452 62.917 36.7355 62.804 36.9003Z" fill="#B55B52"/>
<path d="M57.7066 32.9698C57.6696 32.9692 57.6338 32.9568 57.6044 32.9343C57.575 32.9118 57.5535 32.8805 57.5433 32.8449C57.3079 32.0763 56.323 31.7496 56.3134 31.7448C56.2916 31.7375 56.2715 31.726 56.2542 31.711C56.2368 31.696 56.2226 31.6777 56.2124 31.6571C56.2021 31.6366 56.196 31.6143 56.1943 31.5914C56.1927 31.5685 56.1956 31.5455 56.2029 31.5238C56.2101 31.502 56.2216 31.4819 56.2366 31.4645C56.2517 31.4472 56.27 31.433 56.2905 31.4227C56.311 31.4125 56.3334 31.4064 56.3562 31.4047C56.3791 31.4031 56.4021 31.406 56.4239 31.4133C56.7442 31.5212 57.0382 31.6955 57.2866 31.9248C57.5349 32.1541 57.7321 32.4333 57.8652 32.744C57.8718 32.7658 57.8741 32.7887 57.8719 32.8113C57.8697 32.834 57.8631 32.856 57.8524 32.8761C57.8417 32.8962 57.8271 32.9139 57.8095 32.9284C57.7919 32.9428 57.7716 32.9537 57.7499 32.9602C57.7362 32.9661 57.7215 32.9694 57.7066 32.9698Z" fill="#263238"/>
<path d="M52.2298 31.1588C52.1927 31.1558 52.1576 31.1413 52.1292 31.1172C52.1009 31.0932 52.0808 31.0608 52.0718 31.0248C52.0628 30.9887 52.0653 30.9507 52.079 30.9162C52.0927 30.8816 52.1168 30.8522 52.1481 30.8321C52.3845 30.6887 52.652 30.6042 52.9279 30.5859C53.2038 30.5675 53.4801 30.6157 53.7335 30.7264C53.754 30.7369 53.7723 30.7512 53.7872 30.7687C53.8022 30.7861 53.8136 30.8064 53.8207 30.8282C53.8278 30.8501 53.8306 30.8731 53.8288 30.8961C53.8271 30.919 53.8208 30.9414 53.8104 30.9619C53.8 30.9824 53.7856 31.0006 53.7682 31.0156C53.7507 31.0305 53.7305 31.0419 53.7086 31.049C53.6867 31.0562 53.6637 31.0589 53.6408 31.0572C53.6178 31.0554 53.5955 31.0491 53.575 31.0387C53.3737 30.9526 53.1545 30.9164 52.9362 30.9331C52.7179 30.9498 52.5069 31.019 52.321 31.1348C52.293 31.1501 52.2617 31.1583 52.2298 31.1588Z" fill="#263238"/>
<path d="M56.0924 32.859L55.4246 32.5371C55.4246 32.5371 55.6936 33.1473 56.0924 32.859Z" fill="#263238"/>
<path d="M54.065 36.5207C55.287 36.2667 56.5307 36.1316 57.7787 36.1172C57.4953 36.9579 56.9284 37.6594 55.5207 37.7122C55.3458 37.7364 55.1677 37.7241 54.9978 37.6763C54.8278 37.6284 54.6695 37.546 54.5328 37.4342C54.3962 37.3223 54.2841 37.1834 54.2036 37.0263C54.1231 36.8691 54.0759 36.697 54.065 36.5207Z" fill="#263238"/>
<path d="M56.1405 37.0346C55.5994 37.0304 55.071 37.1987 54.632 37.5151C54.8994 37.6749 55.2102 37.7472 55.5207 37.7217C56.0619 37.7259 56.5903 37.5576 57.0293 37.2412C56.7632 37.0779 56.4513 37.0054 56.1405 37.0346Z" fill="#A02724"/>
<path d="M54.1898 36.492C54.2225 36.5919 54.2818 36.6809 54.3614 36.7495C54.441 36.8181 54.5378 36.8636 54.6414 36.8811C55.4497 36.8382 56.2531 36.7289 57.0436 36.5545C57.172 36.5387 57.2943 36.4909 57.3993 36.4153C57.5043 36.3397 57.5885 36.2388 57.6441 36.1221C56.4848 36.1554 55.3299 36.2791 54.1898 36.492Z" fill="white"/>
<path d="M52.1481 30.8324C53.2417 30.3695 54.1931 29.6252 54.9058 28.6753C54.9058 28.6753 54.9058 31.2312 55.9483 31.0342C56.9908 30.8373 55.4246 28.6705 55.4246 28.6705C55.4246 28.6705 57.8268 29.7371 58.6483 31.8221C59.4699 33.9072 60.4067 36.1844 62.2563 35.6175C64.106 35.0506 63.6976 29.1413 60.9736 27.6664L57.1302 26.9746L55.9964 27.1428C55.4076 27.2266 54.843 27.4328 54.3389 27.7481C53.5788 28.2142 52.9815 28.9039 52.6286 29.7227L52.1481 30.8324Z" fill="#263238"/>
<path d="M61.1176 31.1397C60.9399 30.7649 60.0895 30.7986 59.1959 31.2117C58.3023 31.6249 58.2879 32.014 58.4656 32.3888C58.6434 32.7635 58.9461 32.9797 59.8397 32.5665C60.7333 32.1534 61.2954 31.5144 61.1176 31.1397ZM59.0566 32.1005C58.9317 31.8315 58.9557 31.5576 59.5802 31.2598C60.2048 30.9619 60.8149 30.9427 60.9398 31.2117C61.0648 31.4808 60.666 31.9372 60.0414 32.2302C59.4169 32.5233 59.1863 32.384 59.0566 32.1149V32.1005Z" fill="#F95700"/>
<path opacity="0.2" d="M65.8691 49.9823L64.7401 49.0215L63.9041 49.401C63.6139 52.3582 64.3668 55.3238 66.0324 57.7845C66.1045 56.1847 66.2534 54.3831 66.5128 52.2307C66.1573 50.9336 65.8691 49.9823 65.8691 49.9823Z" fill="black"/>
<path d="M81.0891 61.6897L80.479 61.7522L80.1908 58.9993C80.1038 58.0837 80.3666 57.1691 80.9262 56.4392C81.4859 55.7093 82.301 55.2183 83.2078 55.0646C83.6463 54.9907 84.0952 55.0078 84.5267 55.115C84.9582 55.2221 85.363 55.4169 85.716 55.6874C86.0689 55.9578 86.3623 56.298 86.578 56.6868C86.7937 57.0756 86.927 57.5046 86.9696 57.9472L87.2627 60.7001L86.6525 60.7673L86.3643 58.0097C86.329 57.649 86.2205 57.2994 86.0454 56.9821C85.8702 56.6649 85.6322 56.3868 85.3457 56.1648C85.0587 55.9441 84.7293 55.7849 84.3779 55.6973C84.0266 55.6097 83.661 55.5955 83.3039 55.6556C82.5512 55.7832 81.8747 56.191 81.4103 56.7971C80.946 57.4031 80.7283 58.1625 80.8009 58.9225L81.0891 61.6897Z" fill="#263238"/>
<path d="M69.7653 49.3672C69.8518 49.7804 69.9671 50.2896 70.0776 50.7556C70.1881 51.2216 70.3178 51.7165 70.4523 52.1969C70.7214 53.1578 71.0048 54.085 71.3459 54.993C71.9599 56.7613 72.8326 58.4289 73.9354 59.9414L74.0363 60.0711L74.0844 60.1384L74.0267 60.0807C73.9498 60.0135 73.8599 59.9628 73.7625 59.9318C73.6184 59.8934 73.6232 59.9318 73.7193 59.9318C74.0598 59.914 74.3954 59.8427 74.7137 59.7204C75.603 59.3957 76.4643 58.9989 77.2888 58.5338C79.0328 57.5729 80.796 56.4775 82.5015 55.3677L83.8323 56.9339C82.3362 58.4891 80.7096 59.9132 78.9703 61.1905C78.0481 61.8711 77.0637 62.4631 76.0301 62.9585C75.3932 63.2642 74.7124 63.4684 74.0123 63.5638C73.476 63.6298 72.9317 63.5706 72.4221 63.3909C72.0823 63.2648 71.7694 63.0757 71.4997 62.8336C71.4324 62.7711 71.3604 62.7039 71.3027 62.6414L71.2258 62.5597L71.0721 62.3916C70.2811 61.5171 69.5884 60.5585 69.0063 59.533C68.4385 58.5533 67.9424 57.5337 67.5217 56.4823C67.1085 55.443 66.7493 54.3831 66.4456 53.3067C66.2966 52.7782 66.1573 52.2449 66.0324 51.7069C65.9075 51.1688 65.7922 50.6451 65.6961 50.0302L69.7653 49.3672Z" fill="#B55B52"/>
<path d="M67.5122 45.0432C69.0352 45.3891 71.7015 50.8948 71.7015 50.8948L65.7154 54.9544C65.7154 54.9544 63.3133 50.818 63.7937 48.8434C64.2837 46.7968 65.7731 44.6589 67.5122 45.0432Z" fill="#F95700"/>
<path d="M82.2518 55.3436L85.7301 53.4219L84.9998 57.0875C84.9998 57.0875 82.7514 57.8034 81.6368 56.7368L82.2518 55.3436Z" fill="#B55B52"/>
<path d="M88.7807 53.9168L88.0024 56.9579L84.9997 57.0924L85.7299 53.4268L88.7807 53.9168Z" fill="#B55B52"/>
<path d="M90.2412 60.2394L89.6647 57.5298C89.4993 56.7848 89.0581 56.1301 88.4299 55.697C87.8016 55.2639 87.0328 55.0845 86.2777 55.1949C85.9188 55.2475 85.5747 55.3737 85.2669 55.5656C84.9591 55.7575 84.6943 56.011 84.489 56.31C84.2838 56.6091 84.1425 56.9474 84.0742 57.3036C84.0058 57.6598 84.0118 58.0263 84.0918 58.3801L84.6683 61.0897L84.0725 61.2194L83.496 58.5098C83.398 58.075 83.3908 57.6247 83.4748 57.187C83.5589 56.7493 83.7324 56.3337 83.9845 55.9661C84.2366 55.5986 84.5619 55.287 84.9399 55.051C85.318 54.8149 85.7407 54.6595 86.1816 54.5943C87.0914 54.4607 88.018 54.6762 88.7755 55.1975C89.533 55.7188 90.0652 56.5074 90.2653 57.4048L90.8418 60.1145L90.2412 60.2394Z" fill="#263238"/>
<g opacity="0.3">
<path d="M90.2412 60.2394L89.6647 57.5298C89.4993 56.7848 89.0581 56.1301 88.4299 55.697C87.8016 55.2639 87.0328 55.0845 86.2777 55.1949C85.9188 55.2475 85.5747 55.3737 85.2669 55.5656C84.9591 55.7575 84.6943 56.011 84.489 56.31C84.2838 56.6091 84.1425 56.9474 84.0742 57.3036C84.0058 57.6598 84.0118 58.0263 84.0918 58.3801L84.6683 61.0897L84.0725 61.2194L83.496 58.5098C83.398 58.075 83.3908 57.6247 83.4748 57.187C83.5589 56.7493 83.7324 56.3337 83.9845 55.9661C84.2366 55.5986 84.5619 55.287 84.9399 55.051C85.318 54.8149 85.7407 54.6595 86.1816 54.5943C87.0914 54.4607 88.018 54.6762 88.7755 55.1975C89.533 55.7188 90.0652 56.5074 90.2653 57.4048L90.8418 60.1145L90.2412 60.2394Z" fill="white"/>
</g>
<path d="M93.8251 58.4277L76.006 61.2478L78.7493 82.4828L81.2956 81.4595L84.034 81.6468L97.7742 79.4705L93.8251 58.4277Z" fill="#F95700"/>
<path opacity="0.6" d="M93.8251 58.4277L76.006 61.2478L78.7493 82.4828L81.2956 81.4595L84.034 81.6468L97.7742 79.4705L93.8251 58.4277Z" fill="white"/>
<path d="M84.034 81.6472L81.2956 81.4599L78.7493 82.4832L76.006 61.2483L80.0801 60.6045L84.034 81.6472Z" fill="#F95700"/>
<path opacity="0.3" d="M84.034 81.6472L81.2956 81.4599L78.7493 82.4832L76.006 61.2483L80.0801 60.6045L84.034 81.6472Z" fill="white"/>
<path d="M92.0746 67.5748L84.7054 68.742C84.3097 68.8047 84.0397 69.1763 84.1024 69.572L84.1129 69.6384C84.1756 70.0341 84.5472 70.3041 84.9429 70.2414L92.3121 69.0743C92.7078 69.0116 92.9778 68.64 92.9151 68.2443L92.9046 68.1778C92.8419 67.7821 92.4703 67.5121 92.0746 67.5748Z" fill="white"/>
</g>
<defs>
<filter id="filter0_d_1_1420" x="-0.00012207" y="0" width="178.167" height="161.105" filterUnits="userSpaceOnUse" color-interpolation-filters="sRGB">
<feFlood flood-opacity="0" result="BackgroundImageFix"/>
<feColorMatrix in="SourceAlpha" type="matrix" values="0 0 0 0 0 0 0 0 0 0 0 0 0 0 0 0 0 0 127 0" result="hardAlpha"/>
<feOffset dy="4"/>
<feGaussianBlur stdDeviation="2"/>
<feComposite in2="hardAlpha" operator="out"/>
<feColorMatrix type="matrix" values="0 0 0 0 0 0 0 0 0 0 0 0 0 0 0 0 0 0 0.25 0"/>
<feBlend mode="normal" in2="BackgroundImageFix" result="effect1_dropShadow_1_1420"/>
<feBlend mode="normal" in="SourceGraphic" in2="effect1_dropShadow_1_1420" result="shape"/>
</filter>
</defs>
</svg>
