<svg width="603" height="410" viewBox="0 0 603 410" fill="none" xmlns="http://www.w3.org/2000/svg">
<g filter="url(#filter0_bd_1_911)">
<path d="M30 36C30 30.4772 34.4772 26 40 26H563C568.523 26 573 30.4772 573 36V366C573 371.523 568.523 376 563 376H40C34.4772 376 30 371.523 30 366V36Z" fill="#FEFAE7" fill-opacity="0.5" shape-rendering="crispEdges"/>
<path d="M31 36C31 31.0294 35.0294 27 40 27H563C567.971 27 572 31.0294 572 36V366C572 370.971 567.971 375 563 375H40C35.0294 375 31 370.971 31 366V36Z" stroke="url(#paint0_linear_1_911)" stroke-width="2" shape-rendering="crispEdges"/>
</g>
<defs>
<filter id="filter0_bd_1_911" x="-20" y="-24" width="643" height="450" filterUnits="userSpaceOnUse" color-interpolation-filters="sRGB">
<feFlood flood-opacity="0" result="BackgroundImageFix"/>
<feGaussianBlur in="BackgroundImageFix" stdDeviation="25"/>
<feComposite in2="SourceAlpha" operator="in" result="effect1_backgroundBlur_1_911"/>
<feColorMatrix in="SourceAlpha" type="matrix" values="0 0 0 0 0 0 0 0 0 0 0 0 0 0 0 0 0 0 127 0" result="hardAlpha"/>
<feOffset dy="4"/>
<feGaussianBlur stdDeviation="15"/>
<feComposite in2="hardAlpha" operator="out"/>
<feColorMatrix type="matrix" values="0 0 0 0 0 0 0 0 0 0 0 0 0 0 0 0 0 0 0.1 0"/>
<feBlend mode="normal" in2="effect1_backgroundBlur_1_911" result="effect2_dropShadow_1_911"/>
<feBlend mode="normal" in="SourceGraphic" in2="effect2_dropShadow_1_911" result="shape"/>
</filter>
<linearGradient id="paint0_linear_1_911" x1="314" y1="201" x2="680.5" y2="439.5" gradientUnits="userSpaceOnUse">
<stop stop-color="white"/>
<stop offset="1" stop-color="#484848" stop-opacity="0"/>
</linearGradient>
</defs>
</svg>
