<svg width="14" height="14" viewBox="0 0 14 14" fill="none" xmlns="http://www.w3.org/2000/svg">
<path d="M11.2007 7C11.2007 6.0293 10.4885 5.19805 9.47773 4.84805L8.93952 5.92539C9.44491 6.10039 9.79934 6.51602 9.79934 7.00273C9.79934 7.48672 9.44491 7.90234 8.93952 8.08008L9.47773 9.15742C10.4885 8.80195 11.2007 7.9707 11.2007 7ZM10.5541 2.69336L10.0159 3.7707C11.5354 4.29844 12.602 5.54531 12.602 7C12.602 8.45742 11.5354 9.70156 10.0159 10.2293L10.5541 11.3066C12.579 10.6039 14 8.94141 14 7C14 5.05859 12.579 3.39609 10.5541 2.69336ZM0 4.08242V9.91484H2.79934L7.69902 14V0L2.79934 4.08242H0Z" fill="white"/>
</svg>
