<svg width="131" height="29" viewBox="0 0 131 29" fill="none" xmlns="http://www.w3.org/2000/svg">
<path d="M130.369 17.5786C130.812 17.9076 130.905 18.5339 130.576 18.9775L125.215 26.2068C124.886 26.6504 124.26 26.7433 123.816 26.4144C123.373 26.0854 123.28 25.4591 123.609 25.0155L128.374 18.5895L121.948 13.8244C121.504 13.4954 121.411 12.8691 121.74 12.4255C122.069 11.9818 122.696 11.8889 123.139 12.2179L130.369 17.5786ZM1.42208 20.1872C2.1262 20.515 2.83984 20.8289 3.56205 21.1291L2.79438 22.9759C2.04709 22.6653 1.30794 22.3402 0.577925 22.0003L1.42208 20.1872ZM7.95429 22.756C9.43391 23.2412 10.9392 23.6752 12.463 24.06L11.9735 25.9991C10.4066 25.6035 8.85668 25.1567 7.33104 24.6564L7.95429 22.756ZM17.0533 25.0625C18.5942 25.3488 20.146 25.5882 21.7016 25.7829L21.4533 27.7674C19.8598 27.568 18.269 27.3226 16.6881 27.0289L17.0533 25.0625ZM26.3856 26.2352C27.9603 26.3432 29.5313 26.4072 31.0911 26.4294L31.0628 28.4292C29.4673 28.4065 27.8602 28.341 26.2488 28.2305L26.3856 26.2352ZM35.8009 26.3693C37.3889 26.3061 38.9565 26.2001 40.4955 26.0535L40.6851 28.0445C39.1093 28.1946 37.505 28.3031 35.8804 28.3677L35.8009 26.3693ZM45.162 25.4726C46.7494 25.2268 48.2929 24.9369 49.7821 24.6059L50.2161 26.5582C48.6828 26.8991 47.0966 27.1969 45.4679 27.449L45.162 25.4726ZM54.3164 23.4202C55.8725 22.9468 57.3415 22.4249 58.7087 21.8593L59.4732 23.7075C58.0407 24.3 56.5103 24.8433 54.8985 25.3336L54.3164 23.4202ZM62.8633 19.8232C64.2954 18.987 65.5241 18.0957 66.5271 17.1631L67.889 18.6279C66.7578 19.6796 65.4045 20.6553 63.8718 21.5503L62.8633 19.8232ZM69.1062 13.6953C69.39 13.039 69.5677 12.3733 69.6368 11.6983L71.6264 11.902C71.5352 12.7934 71.3015 13.6576 70.9419 14.4891L69.1062 13.6953ZM69.6368 11.6983C69.7114 10.9699 69.6875 10.2984 69.5831 9.68062L71.5551 9.34726C71.6912 10.1526 71.7182 11.0051 71.6264 11.902L69.6368 11.6983ZM67.7894 6.2047C66.8847 5.27384 65.6922 4.52458 64.3149 3.97509L65.056 2.11747C66.6371 2.74824 68.0841 3.63837 69.2236 4.81078L67.7894 6.2047ZM60.1465 2.98762C58.6964 2.8439 57.2239 2.88483 55.8361 3.10638L55.5208 1.13139C57.0838 0.881874 58.7287 0.837297 60.3437 0.997373L60.1465 2.98762ZM51.833 4.41737C50.5506 5.12689 49.6017 6.05243 49.079 7.15983L47.2704 6.30606C48.0141 4.73062 49.3112 3.52689 50.8648 2.66736L51.833 4.41737ZM48.8095 10.9643C48.9571 11.5748 49.1895 12.2319 49.5219 12.9362L47.7132 13.7898C47.3298 12.9773 47.0487 12.1919 46.8655 11.4343L48.8095 10.9643ZM49.5219 12.9362C49.8344 13.5983 50.2707 14.2206 50.8309 14.8054L49.3865 16.1888C48.6938 15.4656 48.1275 14.6677 47.7132 13.7898L49.5219 12.9362ZM54.8425 17.5029C56.2335 18.1445 57.841 18.6975 59.6357 19.1675L59.1289 21.1023C57.25 20.6101 55.5268 20.0211 54.0048 19.319L54.8425 17.5029ZM64.6671 20.2012C66.2985 20.4599 68.0185 20.6702 69.8096 20.837L69.6242 22.8283C67.7969 22.6582 66.0337 22.4429 64.3539 22.1766L64.6671 20.2012ZM74.9884 21.1936C76.6857 21.2734 78.4243 21.3223 80.1916 21.3439L80.1672 23.3438C78.3792 23.3219 76.6173 23.2724 74.8944 23.1914L74.9884 21.1936ZM85.4102 21.3329C87.139 21.3062 88.8819 21.2578 90.6277 21.191L90.7041 23.1895C88.9445 23.2568 87.1863 23.3057 85.4411 23.3327L85.4102 21.3329ZM95.8467 20.9397C97.5962 20.8389 99.337 20.7229 101.058 20.5949L101.206 22.5894C99.4751 22.7182 97.7231 22.835 95.9617 22.9364L95.8467 20.9397ZM106.274 20.1671C108.051 20.0083 109.791 19.8398 111.482 19.6656L111.687 21.655C109.988 21.8301 108.238 21.9995 106.452 22.1592L106.274 20.1671ZM116.68 19.0964C118.506 18.8848 120.245 18.6713 121.874 18.4624L122.129 20.4461C120.492 20.6561 118.745 20.8705 116.91 21.0831L116.68 19.0964ZM127.063 17.7637C127.983 17.6338 128.84 17.5094 129.626 17.3927L129.92 19.371C129.129 19.4884 128.267 19.6135 127.342 19.7441L127.063 17.7637Z" fill="black"/>
</svg>
