<svg width="20" height="14" viewBox="0 0 20 14" fill="none" xmlns="http://www.w3.org/2000/svg">
<path d="M4.5457 5.58317C4.32336 5.58317 4.10999 5.61496 3.89763 5.64395C3.96642 5.42699 4.03721 5.20628 4.15087 5.00802C4.26453 4.71997 4.44201 4.47027 4.61848 4.2187C4.76604 3.94656 5.02627 3.76232 5.2177 3.52946C5.4181 3.30314 5.69129 3.15257 5.90764 2.9646C6.12001 2.7682 6.39818 2.67001 6.61952 2.5316C6.85084 2.40721 7.05224 2.26974 7.2676 2.20427L7.805 1.99666L8.27759 1.81242L7.79403 0L7.1988 0.134669C7.00837 0.179559 6.77606 0.23193 6.51185 0.294589C6.24165 0.341349 5.95351 0.469472 5.63246 0.586373C5.31541 0.719171 4.9485 0.808951 4.60751 1.02218C4.26453 1.22605 3.86871 1.39626 3.51975 1.66934C3.18176 1.95083 2.77397 2.19492 2.47287 2.55311C2.14385 2.88791 1.81881 3.23955 1.56656 3.63981C1.27443 4.02138 1.07602 4.44035 0.866648 4.85464C0.677212 5.26894 0.524666 5.69258 0.400037 6.10407C0.16374 6.92892 0.0580545 7.71263 0.0171761 8.38317C-0.016723 9.05464 0.00321768 9.61296 0.045093 10.017C0.0600485 10.2077 0.0879655 10.3929 0.107906 10.521L0.132832 10.6782L0.158755 10.6725C0.336088 11.4495 0.744316 12.1636 1.33621 12.732C1.92811 13.3005 2.67949 13.7002 3.50344 13.8848C4.32738 14.0694 5.19022 14.0315 5.99215 13.7754C6.79407 13.5193 7.5023 13.0554 8.03492 12.4375C8.56754 11.8196 8.90277 11.0729 9.00185 10.2838C9.10093 9.49463 8.95979 8.6953 8.59478 7.97824C8.22976 7.26119 7.65578 6.65572 6.93922 6.23187C6.22267 5.80802 5.39283 5.58311 4.5457 5.58317ZM15.5131 5.58317C15.2907 5.58317 15.0773 5.61496 14.865 5.64395C14.9338 5.42699 15.0046 5.20628 15.1182 5.00802C15.2319 4.71997 15.4094 4.47027 15.5858 4.2187C15.7334 3.94656 15.9936 3.76232 16.1851 3.52946C16.3855 3.30314 16.6586 3.15257 16.875 2.9646C17.0874 2.7682 17.3655 2.67001 17.5869 2.5316C17.8182 2.40721 18.0196 2.26974 18.235 2.20427L18.7724 1.99666L19.2449 1.81242L18.7614 0L18.1662 0.134669C17.9757 0.179559 17.7434 0.23193 17.4792 0.294589C17.209 0.341349 16.9209 0.469472 16.5998 0.586373C16.2838 0.720107 15.9159 0.808951 15.5749 1.02311C15.2319 1.22699 14.8361 1.39719 14.4871 1.67027C14.1491 1.95177 13.7413 2.19586 13.4402 2.55311C13.1112 2.88791 12.7862 3.23955 12.5339 3.63981C12.2418 4.02138 12.0434 4.44035 11.834 4.85464C11.6446 5.26894 11.492 5.69258 11.3674 6.10407C11.1311 6.92892 11.0254 7.71263 10.9845 8.38317C10.9506 9.05464 10.9706 9.61296 11.0124 10.017C11.0274 10.2077 11.0553 10.3929 11.0753 10.521L11.1002 10.6782L11.1261 10.6725C11.3034 11.4495 11.7117 12.1636 12.3036 12.732C12.8955 13.3005 13.6468 13.7002 14.4708 13.8848C15.2947 14.0694 16.1576 14.0315 16.9595 13.7754C17.7614 13.5193 18.4697 13.0554 19.0023 12.4375C19.5349 11.8196 19.8701 11.0729 19.9692 10.2838C20.0683 9.49463 19.9271 8.6953 19.5621 7.97824C19.1971 7.26119 18.6231 6.65572 17.9066 6.23187C17.19 5.80802 16.3602 5.58311 15.5131 5.58317Z" fill="#F95700"/>
</svg>
