<svg width="156" height="112" viewBox="0 0 156 112" fill="none" xmlns="http://www.w3.org/2000/svg">
<path d="M153.353 111.715C153.62 111.783 153.892 111.621 153.96 111.353L155.067 106.992C155.135 106.724 154.973 106.452 154.705 106.384C154.438 106.316 154.166 106.478 154.098 106.746L153.114 110.623L149.237 109.639C148.969 109.571 148.697 109.733 148.629 110.001C148.561 110.268 148.723 110.54 148.991 110.608L153.353 111.715ZM0.916844 1.97448C1.73909 2.11316 2.56109 2.26498 3.38248 2.42951L3.57889 1.44899C2.74768 1.28249 1.91565 1.12882 1.08316 0.988409L0.916844 1.97448ZM8.27789 3.5599C9.89311 3.98164 11.5031 4.4497 13.1052 4.96082L13.4092 4.00813C11.7907 3.49179 10.1636 3.01873 8.53053 2.59234L8.27789 3.5599ZM17.8534 6.60823C19.4201 7.19534 20.9764 7.82138 22.5195 8.48317L22.9136 7.56413C21.3567 6.89639 19.786 6.26453 18.2043 5.67182L17.8534 6.60823ZM27.0976 10.5683C28.6092 11.297 30.105 12.0582 31.5824 12.8487L32.0541 11.9669C30.5647 11.17 29.0564 10.4025 27.5318 9.66748L27.0976 10.5683ZM35.9687 15.3119C37.4205 16.1661 38.8506 17.0468 40.2564 17.9508L40.7973 17.1097C39.3805 16.1987 37.9391 15.311 36.4759 14.45L35.9687 15.3119ZM44.4369 20.7565C45.8215 21.7256 47.1778 22.7155 48.5028 23.7228L49.108 22.9267C47.7726 21.9115 46.4057 20.9139 45.0103 19.9372L44.4369 20.7565ZM52.4442 26.845C53.7541 27.9263 55.0269 29.0224 56.2592 30.1293L56.9275 29.3854C55.6847 28.269 54.4014 27.1638 53.0808 26.0738L52.4442 26.845ZM59.9303 33.5755C61.1473 34.7705 62.3147 35.973 63.4287 37.1782L64.163 36.4994C63.0377 35.282 61.8591 34.0679 60.631 32.862L59.9303 33.5755ZM66.7432 40.962C67.841 42.2882 68.8689 43.6113 69.8219 44.925L70.6313 44.3378C69.6651 43.0059 68.6241 41.666 67.5136 40.3244L66.7432 40.962ZM72.613 49.0947C73.5216 50.5796 74.3224 52.0418 75.008 53.4717L75.9097 53.0393C75.2079 51.5757 74.3904 50.0836 73.466 48.5728L72.613 49.0947ZM76.8514 58.0883C77.3814 59.7812 77.7145 61.4011 77.8392 62.9298L78.8359 62.8485C78.7042 61.2341 78.354 59.5408 77.8058 57.7896L76.8514 58.0883ZM77.44 67.7627C77.2206 68.5459 76.9206 69.2896 76.537 69.9904L77.4142 70.4705C77.8357 69.7004 78.1639 68.8859 78.403 68.0324L77.44 67.7627ZM76.537 69.9904C76.0995 70.7897 75.6101 71.4942 75.0776 72.1112L75.8345 72.7646C76.4155 72.0917 76.9446 71.3285 77.4142 70.4705L76.537 69.9904ZM70.9624 75.0132C69.4047 75.6117 67.695 75.8492 65.9166 75.7795L65.8774 76.7787C67.7685 76.8529 69.6166 76.6015 71.321 75.9467L70.9624 75.0132ZM60.8189 74.8208C59.1886 74.2878 57.5793 73.5534 56.0572 72.6632L55.5523 73.5264C57.1317 74.4501 58.8058 75.2148 60.5081 75.7713L60.8189 74.8208ZM51.8292 69.58C50.4867 68.3698 49.3199 67.0449 48.4015 65.6614L47.5683 66.2144C48.5388 67.6764 49.763 69.0638 51.1596 70.3228L51.8292 69.58ZM46.3712 60.9685C46.0387 59.2876 46.1504 57.6148 46.8135 56.0232L45.8905 55.6386C45.1426 57.4334 45.0238 59.3101 45.3902 61.1626L46.3712 60.9685ZM49.9158 52.0564C50.5428 51.5459 51.2586 51.0523 52.07 50.58L51.567 49.7157C50.7148 50.2117 49.9555 50.7346 49.2844 51.281L49.9158 52.0564ZM52.07 50.58C52.7567 50.1804 53.5054 49.8557 54.3131 49.6032L54.0147 48.6487C53.1418 48.9217 52.3237 49.2754 51.567 49.7157L52.07 50.58ZM59.232 48.9259C60.7959 48.9244 62.4812 49.085 64.2716 49.3947L64.4421 48.4093C62.6063 48.0918 60.8628 47.9244 59.231 47.9259L59.232 48.9259ZM69.2 50.5407C70.7698 50.9892 72.3948 51.5248 74.0659 52.1398L74.4113 51.2014C72.7199 50.5789 71.0712 50.0352 69.4747 49.5792L69.2 50.5407ZM78.801 54.0382C80.3244 54.6958 81.8759 55.4079 83.4492 56.169L83.8847 55.2688C82.2995 54.502 80.735 53.7839 79.1973 53.1201L78.801 54.0382ZM88.0216 58.4844C89.5093 59.27 91.0106 60.093 92.5205 60.9491L93.0137 60.0792C91.4956 59.2185 89.9856 58.3907 88.4886 57.6001L88.0216 58.4844ZM96.9499 63.5389C98.4022 64.4132 99.858 65.3136 101.313 66.2366L101.849 65.3922C100.387 64.4652 98.9248 63.5606 97.4656 62.6822L96.9499 63.5389ZM105.613 69.0293C107.033 69.9732 108.449 70.935 109.856 71.9115L110.426 71.0899C109.014 70.1097 107.592 69.1441 106.167 68.1964L105.613 69.0293ZM114.043 74.877C115.434 75.8821 116.813 76.8982 118.174 77.9218L118.775 77.1224C117.408 76.0951 116.025 75.0753 114.629 74.0664L114.043 74.877ZM122.248 81.0439C123.609 82.1074 124.949 83.1749 126.262 84.2427L126.893 83.4667C125.575 82.3949 124.23 81.3233 122.864 80.256L122.248 81.0439ZM130.211 87.519C131.538 88.6434 132.831 89.7636 134.085 90.875L134.749 90.1265C133.489 89.0101 132.19 87.8851 130.857 86.756L130.211 87.519ZM137.872 94.3132C139.165 95.5188 140.405 96.7076 141.583 97.8735L142.286 97.1627C141.1 95.9893 139.854 94.7935 138.553 93.5816L137.872 94.3132ZM145.16 101.544C146.393 102.861 147.528 104.135 148.555 105.357L149.321 104.713C148.281 103.476 147.133 102.189 145.89 100.861L145.16 101.544ZM151.668 109.369C152.186 110.108 152.646 110.814 153.046 111.486L153.905 110.975C153.491 110.278 153.016 109.551 152.487 108.795L151.668 109.369Z" fill="black"/>
</svg>
