<svg width="9" height="31" viewBox="0 0 9 31" fill="none" xmlns="http://www.w3.org/2000/svg">
<path d="M7.61979 30.3924C7.58845 30.6668 7.34063 30.8638 7.06628 30.8325L2.59535 30.3217C2.32099 30.2904 2.12399 30.0426 2.15533 29.7682C2.18667 29.4939 2.43448 29.2969 2.70884 29.3282L6.683 29.7822L7.13696 25.808C7.1683 25.5337 7.41612 25.3367 7.69048 25.368C7.96483 25.3993 8.16184 25.6471 8.1305 25.9215L7.61979 30.3924ZM6.64389 1.33419C3.6304 4.68787 1.96423 8.34389 1.52051 11.3286C1.06972 14.361 1.88691 16.4782 3.51514 17.1634L3.1273 18.0851C0.83758 17.1216 0.0615857 14.3417 0.531378 11.1816C1.00824 7.97387 2.77642 4.14208 5.90006 0.665814L6.64389 1.33419ZM3.51514 17.1634C4.38801 17.5307 4.97522 17.429 5.32578 17.2069C5.68653 16.9783 5.90246 16.5575 5.90892 16.0791C5.91533 15.6051 5.71292 15.1066 5.27169 14.758C4.83384 14.4121 4.10684 14.1734 2.99767 14.335L2.85354 13.3454C4.16601 13.1543 5.18904 13.4183 5.8916 13.9733C6.59079 14.5257 6.91919 15.3265 6.90883 16.0927C6.89853 16.8545 6.55011 17.615 5.86097 18.0516C5.16164 18.4947 4.2134 18.5421 3.1273 18.0851L3.51514 17.1634ZM2.99767 14.335C2.49837 14.4077 2.16968 14.6044 1.94698 14.875C1.7166 15.1549 1.56313 15.5588 1.5058 16.1015C1.38976 17.2 1.68339 18.7114 2.26859 20.4133C3.43319 23.8004 5.66496 27.6981 7.51441 30.0245L6.73163 30.6468C4.8149 28.2357 2.52632 24.2384 1.32293 20.7385C0.724124 18.9969 0.371856 17.3168 0.51133 15.9965C0.581754 15.3298 0.78139 14.7175 1.17488 14.2395C1.57606 13.7521 2.14201 13.4491 2.85354 13.3454L2.99767 14.335Z" fill="black"/>
</svg>
