<svg width="155" height="112" viewBox="0 0 155 112" fill="none" xmlns="http://www.w3.org/2000/svg">
<path d="M2.12296 111.715C1.8553 111.783 1.58326 111.621 1.51535 111.353L0.408634 106.992C0.340711 106.724 0.502649 106.452 0.770311 106.384C1.03797 106.316 1.31001 106.478 1.37792 106.746L2.36167 110.623L6.23881 109.639C6.50648 109.571 6.77851 109.733 6.84642 110.001C6.91434 110.268 6.7524 110.54 6.48476 110.608L2.12296 111.715ZM154.559 1.97448C153.736 2.11316 152.914 2.26498 152.093 2.42951L151.897 1.44899C152.728 1.28249 153.56 1.12882 154.392 0.988409L154.559 1.97448ZM147.198 3.5599C145.582 3.98164 143.972 4.4497 142.37 4.96082L142.066 4.00813C143.685 3.49179 145.312 3.01873 146.945 2.59234L147.198 3.5599ZM137.622 6.60823C136.055 7.19534 134.499 7.82138 132.956 8.48317L132.562 7.56413C134.119 6.89639 135.69 6.26453 137.271 5.67182L137.622 6.60823ZM128.378 10.5683C126.866 11.297 125.371 12.0582 123.893 12.8487L123.421 11.9669C124.911 11.17 126.419 10.4025 127.944 9.66748L128.378 10.5683ZM119.507 15.3119C118.055 16.1661 116.625 17.0468 115.219 17.9508L114.678 17.1097C116.095 16.1987 117.536 15.311 119 14.45L119.507 15.3119ZM111.039 20.7565C109.654 21.7256 108.298 22.7155 106.973 23.7228L106.368 22.9267C107.703 21.9115 109.07 20.9139 110.465 19.9372L111.039 20.7565ZM103.031 26.845C101.721 27.9263 100.449 29.0224 99.2164 30.1293L98.5481 29.3854C99.7909 28.269 101.074 27.1638 102.395 26.0738L103.031 26.845ZM95.5453 33.5755C94.3283 34.7705 93.1609 35.973 92.0469 37.1782L91.3126 36.4994C92.4378 35.282 93.6165 34.0679 94.8446 32.862L95.5453 33.5755ZM88.7324 40.962C87.6346 42.2882 86.6067 43.6113 85.6537 44.925L84.8443 44.3378C85.8105 43.0059 86.8515 41.666 87.962 40.3244L88.7324 40.962ZM82.8626 49.0947C81.954 50.5796 81.1532 52.0418 80.4676 53.4717L79.5659 53.0393C80.2677 51.5757 81.0852 50.0836 82.0096 48.5728L82.8626 49.0947ZM78.6241 58.0883C78.0942 59.7812 77.7611 61.4011 77.6363 62.9298L76.6397 62.8485C76.7714 61.2341 77.1216 59.5408 77.6698 57.7896L78.6241 58.0883ZM78.0356 67.7627C78.255 68.5459 78.555 69.2896 78.9386 69.9904L78.0614 70.4705C77.6399 69.7004 77.3117 68.8859 77.0726 68.0324L78.0356 67.7627ZM78.9386 69.9904C79.3761 70.7897 79.8655 71.4942 80.398 72.1112L79.641 72.7646C79.0601 72.0917 78.531 71.3285 78.0614 70.4705L78.9386 69.9904ZM84.5132 75.0132C86.0709 75.6117 87.7806 75.8492 89.559 75.7795L89.5982 76.7787C87.7071 76.8529 85.8589 76.6015 84.1546 75.9467L84.5132 75.0132ZM94.6567 74.8208C96.287 74.2878 97.8963 73.5534 99.4184 72.6632L99.9233 73.5264C98.3439 74.4501 96.6698 75.2148 94.9674 75.7713L94.6567 74.8208ZM103.646 69.58C104.989 68.3698 106.156 67.0449 107.074 65.6614L107.907 66.2144C106.937 67.6764 105.713 69.0638 104.316 70.3228L103.646 69.58ZM109.104 60.9685C109.437 59.2876 109.325 57.6148 108.662 56.0232L109.585 55.6386C110.333 57.4334 110.452 59.3101 110.085 61.1626L109.104 60.9685ZM105.56 52.0564C104.933 51.5459 104.217 51.0523 103.406 50.58L103.909 49.7157C104.761 50.2117 105.52 50.7346 106.191 51.281L105.56 52.0564ZM103.406 50.58C102.719 50.1804 101.97 49.8557 101.162 49.6032L101.461 48.6487C102.334 48.9217 103.152 49.2754 103.909 49.7157L103.406 50.58ZM96.2436 48.9259C94.6797 48.9244 92.9944 49.085 91.204 49.3947L91.0335 48.4093C92.8693 48.0918 94.6128 47.9244 96.2446 47.9259L96.2436 48.9259ZM86.2756 50.5407C84.7057 50.9892 83.0808 51.5248 81.4097 52.1398L81.0643 51.2014C82.7557 50.5789 84.4044 50.0352 86.0009 49.5792L86.2756 50.5407ZM76.6746 54.0382C75.1512 54.6958 73.5997 55.4079 72.0264 56.169L71.5909 55.2688C73.1761 54.502 74.7406 53.7839 76.2783 53.1201L76.6746 54.0382ZM67.454 58.4844C65.9663 59.27 64.465 60.093 62.9551 60.9491L62.4618 60.0792C63.98 59.2185 65.49 58.3907 66.987 57.6001L67.454 58.4844ZM58.5257 63.5389C57.0734 64.4132 55.6176 65.3136 54.1622 66.2366L53.6267 65.3922C55.0883 64.4652 56.5508 63.5606 58.01 62.6822L58.5257 63.5389ZM49.8626 69.0293C48.4424 69.9732 47.0267 70.935 45.6195 71.9115L45.0494 71.0899C46.462 70.1097 47.8832 69.1441 49.3091 68.1964L49.8626 69.0293ZM41.4323 74.877C40.0414 75.8821 38.663 76.8982 37.3011 77.9218L36.7003 77.1224C38.0672 76.0951 39.4506 75.0753 40.8466 74.0664L41.4323 74.877ZM33.2271 81.0439C31.8661 82.1074 30.5268 83.1749 29.2133 84.2427L28.5825 83.4667C29.901 82.3949 31.2454 81.3233 32.6114 80.256L33.2271 81.0439ZM25.2647 87.519C23.9376 88.6434 22.6444 89.7636 21.3901 90.875L20.727 90.1265C21.987 89.0101 23.2858 87.8851 24.6183 86.756L25.2647 87.519ZM17.604 94.3132C16.3103 95.5188 15.0709 96.7076 13.8927 97.8735L13.1893 97.1627C14.3751 95.9893 15.6217 94.7935 16.9223 93.5816L17.604 94.3132ZM10.3156 101.544C9.08289 102.861 7.94736 104.135 6.92019 105.357L6.15481 104.713C7.19495 103.476 8.3425 102.189 9.58563 100.861L10.3156 101.544ZM3.80742 109.369C3.28992 110.108 2.82967 110.814 2.42964 111.486L1.57035 110.975C1.98498 110.278 2.45915 109.551 2.98862 108.795L3.80742 109.369Z" fill="black"/>
</svg>
