<svg width="127" height="115" viewBox="0 0 127 115" fill="none" xmlns="http://www.w3.org/2000/svg">
<path d="M98.3206 4.4082C98.5937 3.00357 99.413 1.76484 100.598 0.964512C101.784 0.16419 103.238 -0.132166 104.642 0.14064L122.281 3.56936C123.685 3.84217 124.922 4.66179 125.721 5.84792C126.521 7.03404 126.816 8.48952 126.543 9.89415L123.112 27.5481C122.839 28.9527 122.019 30.1914 120.834 30.9918C119.648 31.7921 118.194 32.0884 116.791 31.8156C115.387 31.5428 114.15 30.7232 113.35 29.5371C112.551 28.351 112.255 26.8955 112.528 25.4908L113.475 20.6184L75.8008 46.053C74.6158 46.852 73.1625 47.1476 71.7602 46.875C70.3579 46.6024 69.1212 45.7839 68.3218 44.5992L54.2846 23.7696L18.7171 47.7817C18.1315 48.2079 17.4661 48.5117 16.7607 48.675C16.0554 48.8383 15.3244 48.8577 14.6114 48.7322C13.8984 48.6066 13.2181 48.3386 12.6109 47.9442C12.0038 47.5497 11.4823 47.0369 11.0776 46.4363C10.6728 45.8357 10.3931 45.1596 10.2552 44.4484C10.1172 43.7372 10.1238 43.0055 10.2746 42.2968C10.4253 41.5881 10.7172 40.917 11.1327 40.3236C11.5482 39.7301 12.0789 39.2265 12.693 38.8427L52.7275 11.8148C53.9125 11.0159 55.3658 10.7202 56.7681 10.9928C58.1705 11.2654 59.4072 12.0839 60.2066 13.2686L74.2438 34.0982L107.451 11.6793L102.583 10.733C101.179 10.4602 99.9419 9.64057 99.1426 8.45444C98.3433 7.26831 98.0476 5.81283 98.3206 4.4082ZM10.5577 69.7931C11.9611 70.0659 13.1987 70.8855 13.998 72.0717C14.7973 73.2578 15.093 74.7133 14.82 76.1179L11.3884 93.7718C11.1154 95.1764 10.296 96.4152 9.11053 97.2155C7.92507 98.0158 6.47062 98.3122 5.06716 98.0394C3.6637 97.7666 2.42617 96.9469 1.62684 95.7608C0.827502 94.5747 0.531829 93.1192 0.804863 91.7146L4.23644 74.0607C4.50947 72.656 5.32884 71.4173 6.51431 70.617C7.69977 69.8166 9.15421 69.5203 10.5577 69.7931ZM47.1606 60.4191C47.4337 59.0145 47.138 57.559 46.3387 56.3729C45.5393 55.1868 44.3018 54.3672 42.8983 54.0943C41.4949 53.8215 40.0404 54.1179 38.855 54.9182C37.6695 55.7185 36.8501 56.9573 36.5771 58.3619L29.0276 97.2005C28.7546 98.6052 29.0503 100.061 29.8496 101.247C30.6489 102.433 31.8865 103.253 33.2899 103.525C34.6934 103.798 36.1478 103.502 37.3333 102.701C38.5188 101.901 39.3381 100.662 39.6112 99.2578L47.1606 60.4191ZM68.3759 73.7034C69.7793 73.9762 71.0168 74.7959 71.8162 75.982C72.6155 77.1681 72.9112 78.6236 72.6382 80.0282L67.8339 104.744C67.5609 106.148 66.7415 107.387 65.5561 108.187C64.3706 108.988 62.9162 109.284 61.5127 109.011C60.1092 108.738 58.8717 107.919 58.0724 106.733C57.273 105.547 56.9774 104.091 57.2504 102.686L62.0546 77.971C62.3276 76.5664 63.147 75.3276 64.3325 74.5273C65.5179 73.727 66.9724 73.4306 68.3759 73.7034ZM106.351 57.2679C106.624 55.8633 106.329 54.4078 105.529 53.2217C104.73 52.0355 103.493 51.2159 102.089 50.9431C100.686 50.6703 99.2312 50.9667 98.0458 51.767C96.8603 52.5673 96.0409 53.806 95.7679 55.2107L85.4732 108.172C85.2002 109.577 85.4958 111.033 86.2952 112.219C87.0945 113.405 88.332 114.224 89.7355 114.497C91.1389 114.77 92.5934 114.474 93.7789 113.673C94.9643 112.873 95.7837 111.634 96.0567 110.23L106.351 57.2679Z" fill="#F95700" fill-opacity="0.1"/>
</svg>
