<svg width="121" height="42" viewBox="0 0 121 42" fill="none" xmlns="http://www.w3.org/2000/svg">
<path d="M64.1298 28.934L63.7275 28.6371L64.1298 28.934ZM118.905 23.364C119.176 23.3101 119.439 23.4859 119.493 23.7567L120.372 28.1701C120.426 28.4409 120.25 28.7042 119.98 28.7581C119.709 28.812 119.445 28.6362 119.392 28.3654L118.61 24.4424L114.687 25.2237C114.417 25.2776 114.153 25.1018 114.099 24.831C114.045 24.5601 114.221 24.2969 114.492 24.2429L118.905 23.364ZM1.41228 0.982733C1.69421 1.39361 1.97799 1.80091 2.26353 2.20459L1.44713 2.78207C1.15884 2.37451 0.872346 1.96332 0.587723 1.54852L1.41228 0.982733ZM4.00812 4.59766C4.60569 5.39307 5.21 6.17334 5.82042 6.93838L5.03874 7.56207C4.42226 6.78943 3.812 6.00148 3.20861 5.19831L4.00812 4.59766ZM7.70018 9.22411C8.34426 9.98395 8.99417 10.7274 9.64921 11.4543L8.90634 12.1237C8.24453 11.3893 7.58796 10.6383 6.93735 9.87072L7.70018 9.22411ZM11.667 13.6249C12.3573 14.3447 13.0523 15.0465 13.7512 15.7303L13.0519 16.4451C12.3454 15.7539 11.6429 15.0445 10.9453 14.3171L11.667 13.6249ZM15.9017 17.7665C16.6375 18.4405 17.3766 19.0947 18.1182 19.7292L17.4681 20.489C16.7179 19.8472 15.9703 19.1854 15.2263 18.5039L15.9017 17.7665ZM20.4004 21.6133C21.1816 22.2353 21.9645 22.8354 22.748 23.4134L22.1543 24.2181C21.3609 23.6328 20.5682 23.0252 19.7775 22.3957L20.4004 21.6133ZM25.1605 25.1225C25.987 25.6842 26.813 26.2211 27.6372 26.7331L27.1096 27.5825C26.2735 27.0632 25.4361 26.5189 24.5984 25.9497L25.1605 25.1225ZM30.1788 28.2367C31.0534 28.7283 31.9245 29.1913 32.7906 29.6255L32.3424 30.5194C31.4619 30.078 30.5769 29.6076 29.6888 29.1084L30.1788 28.2367ZM35.4646 30.8821C36.3838 31.285 37.2952 31.6543 38.1972 31.9898L37.8485 32.9271C36.9282 32.5847 35.9991 32.2083 35.0632 31.798L35.4646 30.8821ZM40.9822 32.9279C41.9464 33.2181 42.8967 33.4674 43.8306 33.6756L43.613 34.6517C42.6543 34.4379 41.6804 34.1823 40.694 33.8854L40.9822 32.9279ZM46.7185 34.1958C47.7145 34.3308 48.6868 34.4148 49.6321 34.4476L49.5975 35.447C48.6168 35.413 47.6113 35.3259 46.5842 35.1867L46.7185 34.1958ZM52.5457 34.3789C53.5425 34.2933 54.5001 34.1425 55.4142 33.9264L55.6442 34.8996C54.6794 35.1276 53.6733 35.2857 52.6313 35.3753L52.5457 34.3789ZM58.1537 33.0265C59.048 32.6401 59.8854 32.1755 60.6608 31.6323L61.2346 32.4513C60.4013 33.0351 59.5041 33.5323 58.5504 33.9445L58.1537 33.0265ZM62.8146 29.7458C63.1354 29.3963 63.4399 29.0268 63.7275 28.6371L64.5322 29.2308C64.2236 29.649 63.8964 30.0461 63.5512 30.422L62.8146 29.7458ZM63.7275 28.6371C64.0339 28.2218 64.3085 27.813 64.5531 27.4114L65.4072 27.9315C65.1465 28.3596 64.8553 28.7929 64.5322 29.2308L63.7275 28.6371ZM65.7864 24.7616C66.1071 23.7527 66.2309 22.8093 66.197 21.9422L67.1962 21.9031C67.235 22.895 67.0924 23.9541 66.7394 25.0645L65.7864 24.7616ZM65.4954 19.23C65.0609 18.386 64.4444 17.6592 63.6998 17.0732L64.3182 16.2874C65.168 16.9561 65.8801 17.7926 66.3845 18.7722L65.4954 19.23ZM61.1759 15.776C60.2766 15.5069 59.3146 15.3908 58.3414 15.4483L58.2824 14.4501C59.3729 14.3856 60.4519 14.5155 61.4626 14.818L61.1759 15.776ZM55.5646 16.1071C54.7253 16.4686 53.9139 16.9822 53.1661 17.6639L52.4924 16.9249C53.3224 16.1683 54.2278 15.594 55.169 15.1887L55.5646 16.1071ZM51.3396 19.9057C50.8711 20.6756 50.4585 21.557 50.1203 22.5581L49.1729 22.238C49.5331 21.1718 49.976 20.2228 50.4853 19.3858L51.3396 19.9057ZM49.4207 25.4324C49.3441 25.9078 49.2812 26.4026 49.2334 26.9172L48.2377 26.8245C48.2875 26.2885 48.3531 25.7715 48.4335 25.2732L49.4207 25.4324ZM49.2334 26.9172C49.1886 27.3987 49.1804 27.8657 49.2068 28.3186L48.2084 28.3767C48.1791 27.8719 48.1884 27.3544 48.2377 26.8245L49.2334 26.9172ZM49.8165 31.0011C50.1629 31.839 50.6493 32.6252 51.265 33.3595L50.4986 34.002C49.8234 33.1965 49.2811 32.3236 48.8923 31.3831L49.8165 31.0011ZM53.3227 35.2831C54.0449 35.8252 54.8524 36.3282 55.737 36.7909L55.2735 37.677C54.3471 37.1924 53.4929 36.6613 52.7224 36.0828L53.3227 35.2831ZM58.3612 37.9627C59.2319 38.2943 60.1518 38.5953 61.1152 38.8655L60.8452 39.8283C59.8554 39.5508 58.9066 39.2405 58.0053 38.8972L58.3612 37.9627ZM63.9369 39.5441C64.8618 39.7326 65.8162 39.8964 66.7959 40.0352L66.6556 41.0253C65.6572 40.8838 64.6829 40.7167 63.7372 40.5239L63.9369 39.5441ZM69.685 40.3664C70.6368 40.4509 71.6067 40.5139 72.5912 40.5552L72.5493 41.5543C71.5498 41.5124 70.5644 41.4484 69.5966 41.3625L69.685 40.3664ZM75.5055 40.6142C76.4683 40.6133 77.4412 40.5927 78.4213 40.5524L78.4625 41.5515C77.4692 41.5924 76.4828 41.6133 75.5064 41.6141L75.5055 40.6142ZM81.3334 40.3759C82.2981 40.2988 83.2669 40.203 84.2368 40.0885L84.354 41.0816C83.3716 41.1976 82.3904 41.2947 81.413 41.3727L81.3334 40.3759ZM87.1271 39.692C88.087 39.5418 89.0454 39.3732 89.9995 39.1863L90.1918 40.1677C89.225 40.357 88.2541 40.5278 87.2817 40.6799L87.1271 39.692ZM92.8491 38.5699C93.7974 38.345 94.7387 38.1016 95.6702 37.8396L95.9409 38.8022C94.9959 39.068 94.0413 39.3149 93.0799 39.5429L92.8491 38.5699ZM98.4573 36.99C99.386 36.6841 100.302 36.359 101.201 36.0146L101.559 36.9485C100.644 37.2988 99.7133 37.6292 98.7701 37.9398L98.4573 36.99ZM103.891 34.9051C104.786 34.5077 105.661 34.0896 106.512 33.6511L106.97 34.54C106.101 34.9879 105.209 35.4142 104.296 35.8191L103.891 34.9051ZM109.048 32.2404C109.888 31.7355 110.699 31.208 111.476 30.6581L112.053 31.4743C111.255 32.0395 110.423 32.5805 109.563 33.0976L109.048 32.2404ZM113.766 28.8881C114.512 28.2563 115.217 27.5996 115.876 26.9182L116.595 27.6131C115.912 28.32 115.182 28.9994 114.412 29.6515L113.766 28.8881ZM117.755 24.7401C118.046 24.359 118.324 23.9712 118.587 23.5767L119.419 24.1321C119.143 24.5447 118.853 24.9498 118.549 25.3474L117.755 24.7401Z" fill="black"/>
</svg>
